<svg xmlns="http://www.w3.org/2000/svg" width="16" height="15" viewBox="0 0 16 15">
    <path fill="#35414D" stroke="#35414D" stroke-width=".3" d="M2.329 14.107H1.195l.802-.801c.432-.433.702-.995.775-1.605-1.128-.74-1.953-1.714-2.395-2.83-.44-1.117-.496-2.345-.16-3.553.404-1.45 1.35-2.772 2.665-3.721C4.312.565 6.09.019 8.027.019c2.44 0 4.496.701 5.946 2.027C15.28 3.241 16 4.852 16 6.584c0 .84-.171 1.66-.51 2.432-.349.8-.86 1.512-1.52 2.117-1.453 1.331-3.508 2.035-5.943 2.035-.904 0-1.848-.12-2.69-.342-.797.818-1.877 1.281-3.008 1.281zM8.027.958C4.143.958 1.76 3.274 1.122 5.57c-.604 2.17.286 4.219 2.38 5.483l.234.14-.007.274c-.014.54-.143 1.062-.374 1.533.562-.19 1.072-.535 1.471-1.007l.199-.234.294.088c.827.247 1.788.383 2.708.383 4.833 0 7.034-2.927 7.034-5.645 0-1.465-.611-2.83-1.721-3.845C12.065 1.574 10.228.96 8.027.96z"/>
</svg>
