<svg xmlns="http://www.w3.org/2000/svg" width="50" height="48" viewBox="0 0 50 48">
    <path fill="#B28F4B" d="M40.501 43.578c.555 0 1.022.189 1.4.568.38.378.568.845.568 1.4 0 .616-.198 1.1-.594 1.453-.396.352-.854.528-1.374.528-.537 0-1.006-.174-1.407-.521-.4-.348-.6-.835-.6-1.46 0-.555.193-1.022.58-1.4.388-.38.864-.568 1.427-.568zM38.552 0c5.482 0 9.943 4.226 9.943 9.42 0 2.758-1.259 5.244-3.26 6.968 1.363.503 2.667 1.16 3.888 1.967.883.583 1.1 1.735.483 2.571-.616.837-1.83 1.042-2.714.459-2.465-1.63-5.364-2.49-8.383-2.49-3.866 0-7.473 1.39-10.225 3.93-.209 2.451-1.413 4.64-3.227 6.203 1.364.503 2.668 1.16 3.888 1.967.883.583 1.1 1.735.484 2.571-.616.837-1.831 1.042-2.715.458-2.465-1.629-5.364-2.49-8.382-2.49-6.487 0-12.364 3.964-14.29 9.64-.194.568-.092 1.171.28 1.654.371.483.945.76 1.576.76h16.96c1.077 0 1.95.827 1.95 1.847s-.873 1.847-1.95 1.847H5.899c-1.89 0-3.614-.83-4.727-2.278-1.114-1.448-1.42-3.256-.841-4.961 1.745-5.142 6.033-9.173 11.32-11.05-1.977-1.723-3.218-4.194-3.218-6.934 0-5.193 4.46-9.419 9.942-9.419 4.175 0 7.756 2.45 9.228 5.911 1.066-.734 2.214-1.358 3.434-1.867.268-.112.538-.217.81-.316-1.988-1.724-3.236-4.2-3.236-6.949C28.61 4.226 33.07 0 38.552 0zm2.266 27.527c1.277 0 2.404.236 3.382.707.978.471 1.733 1.112 2.266 1.922.532.81.799 1.691.799 2.642 0 .749-.152 1.405-.456 1.968-.304.564-.665 1.05-1.083 1.46l-.343.328c-.44.415-1.076.994-1.91 1.74-.299.273-.539.513-.72.72-.18.206-.314.396-.402.568-.088.171-.157.343-.205.515l-.107.421-.111.484c-.167.915-.691 1.373-1.572 1.373-.458 0-.843-.15-1.156-.449-.313-.3-.469-.744-.469-1.334 0-.74.115-1.38.344-1.922.228-.542.532-1.017.911-1.427.325-.35.746-.758 1.265-1.223l.835-.74c.28-.252.497-.456.654-.613.251-.25.463-.53.634-.838.172-.309.258-.643.258-1.004 0-.705-.262-1.3-.786-1.784s-1.2-.726-2.028-.726c-.969 0-1.682.244-2.14.733-.458.489-.845 1.209-1.162 2.16-.3.995-.868 1.492-1.704 1.492-.494 0-.91-.174-1.249-.521-.339-.348-.508-.725-.508-1.13 0-.836.268-1.684.805-2.543.538-.858 1.321-1.57 2.352-2.133 1.03-.564 2.232-.846 3.606-.846zM18.375 16.334c-3.333 0-6.044 2.568-6.044 5.725 0 3.157 2.711 5.726 6.044 5.726 3.332 0 6.043-2.569 6.043-5.726s-2.711-5.725-6.043-5.725zm20.177-12.64c-3.332 0-6.043 2.568-6.043 5.725 0 3.157 2.71 5.726 6.043 5.726s6.044-2.569 6.044-5.726-2.711-5.725-6.044-5.725z"/>
</svg>
