<svg xmlns="http://www.w3.org/2000/svg" width="18" height="19" viewBox="0 0 18 19">
    <g fill="#F67555" stroke="#FFF">
        <path d="M13.746 8.615c-.097-.212-.31-.346-.546-.346h-2.4V.59c0-.326-.269-.591-.6-.591H7.8c-.331 0-.6.265-.6.59V8.27H4.8c-.235 0-.449.136-.546.346-.098.211-.06.458.095.633l4.2 4.725c.114.129.278.202.451.202s.337-.074.451-.202l4.2-4.725c.156-.174.192-.422.095-.633z"/>
        <path d="M15.6 12.994v3.544H2.4v-3.544H0v4.725c0 .653.538 1.181 1.2 1.181h15.6c.664 0 1.2-.528 1.2-1.181v-4.725h-2.4z"/>
    </g>
</svg>
