<svg xmlns="http://www.w3.org/2000/svg" width="18" height="19" viewBox="0 0 18 19">
    <g fill="#B28F4B">
        <path d="M8.23 16.563H2.122c-.227 0-.433-.105-.567-.288-.134-.184-.17-.413-.101-.629.694-2.157 2.81-3.663 5.144-3.663 1.087 0 2.13.327 3.018.946.318.222.756.144.977-.174.222-.318.144-.755-.174-.977-.44-.306-.909-.556-1.4-.747.654-.594 1.087-1.426 1.162-2.357.991-.965 2.29-1.494 3.681-1.494 1.087 0 2.13.327 3.018.946.318.222.756.144.977-.174.222-.318.144-.755-.174-.977-.44-.307-.909-.557-1.4-.747.721-.656 1.174-1.6 1.174-2.649 0-1.973-1.606-3.579-3.58-3.579C11.906 0 10.3 1.606 10.3 3.58c0 1.044.45 1.985 1.165 2.64-.097.037-.195.077-.291.12-.44.193-.852.43-1.236.71-.53-1.316-1.82-2.247-3.322-2.247-1.974 0-3.58 1.606-3.58 3.58 0 1.04.447 1.98 1.16 2.634-1.904.714-3.448 2.246-4.076 4.2-.209.647-.098 1.334.303 1.885.4.55 1.02.865 1.701.865H8.23c.388 0 .702-.314.702-.702 0-.387-.314-.702-.702-.702zm5.649-15.16c1.2 0 2.175.977 2.175 2.176 0 1.2-.976 2.176-2.175 2.176-1.2 0-2.176-.976-2.176-2.176 0-1.2.976-2.175 2.176-2.175zM6.615 6.208c1.2 0 2.176.976 2.176 2.176 0 1.2-.977 2.175-2.176 2.175-1.2 0-2.176-.976-2.176-2.175 0-1.2.976-2.176 2.176-2.176z"/>
        <path d="M17.691 11.464c-.315-.226-.753-.153-.979.162l-3.46 4.832c-.094.11-.212.133-.276.138-.065.004-.192-.005-.3-.108l-2.24-2.15c-.28-.269-.724-.26-.992.02-.269.28-.26.724.02.992l2.242 2.153c.335.32.784.497 1.245.497.04 0 .079-.001.119-.004.502-.033.971-.278 1.286-.67l.024-.031 3.473-4.852c.226-.315.153-.754-.162-.98z"/>
    </g>
</svg>
