<svg xmlns="http://www.w3.org/2000/svg" width="18" height="13" viewBox="0 0 18 13">
    <path fill="none" stroke="#35414D" d="M17.007.761c.549 0 .993.444.993.993V5.89c0 .131-.052.258-.145.35l-3.35 3.35c-.092.093-.145.219-.145.35v1.575c0 .274-.222.496-.496.496h-3.838V6.923c0-.31.124-.607.344-.824l1.532-1.513c.387-.388 1.016-.388 1.404 0 .387.387.387 1.016 0 1.404l-.586.585c-.193.194-.193.509 0 .703.195.194.51.194.703 0l2.446-2.446c.093-.093.146-.22.146-.351V1.754c0-.549.444-.993.992-.993zM.993.761c.548 0 .992.444.992.993h0V4.48c0 .132.053.258.146.35h0l2.446 2.447c.194.194.508.194.702 0 .194-.194.194-.509 0-.703h0l-.585-.585c-.387-.388-.387-1.017 0-1.404.388-.388 1.016-.388 1.404 0h0L7.63 6.099c.22.217.344.514.344.824h0v5.088H4.136c-.274 0-.496-.222-.496-.496h0V9.94c0-.132-.053-.258-.146-.351h0L.145 6.24C.052 6.149 0 6.022 0 5.89h0V1.754C0 1.205.444.76.993.76z"/>
</svg>
