<svg xmlns="http://www.w3.org/2000/svg" width="16" height="18" viewBox="0 0 16 18">
    <path fill="#35414D" d="M13.254 0c1.501 0 2.723 1.222 2.723 2.723 0 1.502-1.222 2.724-2.723 2.724-.817 0-1.55-.362-2.05-.933L5.313 7.871c.087.266.134.55.134.844 0 .294-.047.577-.134.843l5.89 3.358c.5-.572 1.234-.933 2.05-.933 1.502 0 2.724 1.222 2.724 2.723 0 1.502-1.222 2.724-2.723 2.724s-2.724-1.222-2.724-2.724c0-.294.047-.577.134-.843l-5.89-3.359c-.499.572-1.233.934-2.05.934C1.221 11.438 0 10.217 0 8.715 0 7.213 1.222 5.99 2.723 5.99c.817 0 1.551.362 2.051.934l5.89-3.358c-.087-.265-.134-.55-.134-.844C10.53 1.222 11.753 0 13.254 0zm0 13.072c-.9 0-1.634.733-1.634 1.634 0 .902.733 1.634 1.634 1.634.9 0 1.634-.732 1.634-1.634 0-.9-.734-1.634-1.634-1.634zM2.724 7.081c-.901 0-1.635.733-1.635 1.634 0 .901.734 1.634 1.634 1.634.9 0 1.634-.733 1.634-1.634 0-.901-.733-1.634-1.634-1.634zm10.53-5.992c-.9 0-1.634.733-1.634 1.634 0 .902.733 1.634 1.634 1.634.9 0 1.634-.732 1.634-1.634 0-.9-.734-1.634-1.634-1.634z"/>
</svg>
