<svg xmlns="http://www.w3.org/2000/svg" width="40" height="49" viewBox="0 0 40 49">
    <path fill="#F67555" stroke="#F67555" stroke-width=".3" d="M18.3.674c.847-.71 2.108-.598 2.817.248h0l5.784 6.904L31.155.853c.1-.164.284-.256.475-.238.275.027.476.27.45.546h0l-1.385 14.533h7.782c.095 0 .188.027.268.077.233.148.303.457.155.69h0l-2.25 3.55c1.955 3.523 2.78 7.623 2.33 11.65-.49 4.377-2.477 8.505-5.595 11.623C29.699 46.97 24.797 49 19.585 49 14.37 49 9.47 46.97 5.783 43.284 2.324 39.824.3 35.228.086 30.342c-.215-4.887 1.396-9.643 4.538-13.393h0L18.05.922c.076-.09.159-.173.249-.248zm1.284 2.983L6.871 18.832c-2.67 3.186-4.04 7.228-3.856 11.38.182 4.154 1.902 8.06 4.841 10.999 3.133 3.133 7.298 4.858 11.728 4.858s8.595-1.725 11.728-4.858c2.65-2.65 4.338-6.157 4.754-9.877.322-2.873-.12-5.79-1.253-8.423h0L25.204 38.08c-.102.162-.288.251-.478.23-.275-.032-.472-.28-.44-.554h0l1.622-14.301h-7.651c-.092 0-.182-.026-.26-.074-.236-.143-.31-.451-.167-.687h0l7.46-12.226-5.706-6.81zM9.118 20.714l2.247 1.883c-1.726 2.06-2.612 4.673-2.493 7.358.118 2.685 1.23 5.21 3.13 7.11h0l-2.073 2.073c-2.42-2.42-3.835-5.635-3.986-9.054-.15-3.42.977-6.747 3.175-9.37h0zM28.16 11.39l-5.573 9.133h6.603l-.8 7.05 5.668-8.947H27.47l.69-7.236z"/>
</svg>
