<svg xmlns="http://www.w3.org/2000/svg" width="50" height="50" viewBox="0 0 50 50">
    <path fill="#B28F4B" d="M26.691 25.55c.169.435.262.908.262 1.403 0 2.154-1.752 3.906-3.906 3.906s-3.906-1.752-3.906-3.906 1.752-3.906 3.906-3.906c.206 0 .408.016.606.047l6.078-7.524c.677-.84 1.907-.97 2.746-.293.84.678.97 1.908.292 2.747l-6.078 7.525zm-2.49 20.51c-.382.022-.77.034-1.154.034-10.554 0-19.14-8.587-19.14-19.14 0-10.555 8.586-19.142 19.14-19.142 10.364 0 18.95 8.428 19.137 18.786.02 1.078.91 1.937 1.989 1.917 1.078-.02 1.936-.91 1.917-1.988-.11-6.067-2.556-11.752-6.887-16.01-3.87-3.803-8.854-6.08-14.203-6.528V1.953C25 .874 24.126 0 23.047 0c-1.079 0-1.953.874-1.953 1.953V3.99c-5.42.452-10.454 2.778-14.344 6.667C2.397 15.01 0 20.797 0 26.953 0 33.11 2.397 38.897 6.75 43.25S16.89 50 23.047 50c.46 0 .927-.014 1.385-.041 1.077-.064 1.898-.989 1.834-2.065-.064-1.077-.988-1.898-2.065-1.834zM36.35 4.823l5.269 4.375c.365.302.807.45 1.247.45.56 0 1.117-.24 1.503-.705.69-.83.575-2.062-.255-2.75l-5.269-4.375c-.83-.69-2.061-.575-2.75.255-.689.83-.575 2.061.255 2.75zM3.228 9.648c.434 0 .87-.144 1.233-.44l5.367-4.374c.836-.681.961-1.912.28-2.748-.682-.836-1.912-.961-2.748-.28L1.993 6.181c-.836.682-.961 1.912-.28 2.748.386.474.948.72 1.515.72zM50 38.281c0 1.226-.625 2.337-1.672 2.974L34.78 49.49c-.554.337-1.181.506-1.809.506-.588 0-1.176-.148-1.705-.446-1.095-.616-1.775-1.778-1.775-3.034V30.045c0-1.256.68-2.418 1.775-3.033 1.094-.616 2.44-.593 3.514.06l13.547 8.236C49.375 35.944 50 37.056 50 38.28zm-4.3 0l-12.302-7.479V45.76L45.7 38.281z"/>
</svg>
