<svg xmlns="http://www.w3.org/2000/svg" width="16" height="16" viewBox="0 0 16 16">
    <path fill="#35414D" d="M8 0c1.802 0 3.566.614 4.968 1.728.289.229.337.649.107.937-.229.288-.65.336-.936.107C10.954 1.83 9.523 1.333 8 1.333 4.324 1.333 1.333 4.324 1.333 8c0 3.676 2.991 6.667 6.667 6.667 3.676 0 6.667-2.991 6.667-6.667 0-1.02-.222-1.995-.66-2.9-.16-.331-.022-.73.31-.89.33-.16.73-.022.89.31C15.733 5.606 16 6.778 16 8c0 4.411-3.589 8-8 8s-8-3.589-8-8 3.589-8 8-8zm0 2.667c.368 0 .667.298.667.666v4h2.666c.368 0 .667.299.667.667 0 .368-.299.667-.667.667H8c-.368 0-.667-.299-.667-.667V3.333c0-.368.299-.666.667-.666z"/>
</svg>
