<svg xmlns="http://www.w3.org/2000/svg" width="67" height="67" viewBox="0 0 67 67">
    <defs>
        <linearGradient id="prefix__a" x1="50%" x2="50%" y1="0%" y2="84.329%">
            <stop offset="0%" stop-color="#FFF25B"/>
            <stop offset="100%" stop-color="#FFD505"/>
        </linearGradient>
    </defs>
    <path fill="url(#prefix__a)" fill-rule="evenodd" stroke="#F3CD0B" stroke-width=".5" d="M15.55 59.36l17.95-9.867 17.95 9.867c.152.084.33.112.501.079.407-.078.674-.47.596-.877l-3.836-20.12L63.64 24.42c.127-.12.208-.28.23-.452.052-.411-.239-.787-.65-.838l-20.32-2.569-8.722-18.532c-.075-.158-.202-.285-.36-.36-.374-.176-.821-.015-.998.36L24.1 20.56 3.78 23.13c-.173.021-.333.103-.453.23-.283.302-.268.777.034 1.06l14.93 14.022-3.837 20.12c-.033.171-.005.349.08.502.199.363.655.495 1.018.296z"/>
</svg>
