<svg xmlns="http://www.w3.org/2000/svg" width="375" height="462" viewBox="0 0 375 462">
    <path fill="#54B5F5" d="M836-127v771.038c-4.506.44-9.185.733-14.05.88-81.382 2.64-156.945-59.2-214.904-84.337-63.874-27.693-159.79-102.38-222.801-99.3-75.01 3.665-121.818-29.252-180.577-51.392-1.794-.677-3.578-1.337-5.353-1.982-230.282-83.688-291.625 96.385-364.645-37.51C-243.309 229.165-157 177.84-5.978 163.867c77.86-7.206 100.318 24.719 152.052-31.464C202.753 70.837 238.78-12.054 332.911 2.086 448.705 19.472 423.646-74.211 450.256-127H836z"/>
</svg>
