<svg xmlns="http://www.w3.org/2000/svg" width="22" height="24" viewBox="0 0 22 24">
    <g fill="none">
        <path fill="#54B5F5" d="M13.393 20.347v.563c0 .05-.003.1-.008.147-.073.663-.635 1.179-1.317 1.179h-2.033c-.682 0-1.244-.516-1.317-1.179-.005-.048-.008-.097-.008-.147v-.563c.176.078.37.122.574.122h3.535c.204 0 .399-.044.574-.122z"/>
        <g fill="#F67555">
            <path d="M10.985 2.896c-.183 0-.331-.148-.331-.331V.331c0-.183.148-.331.331-.331.183 0 .332.148.332.331v2.234c0 .183-.149.331-.332.331zM5.038 5.36c-.085 0-.17-.032-.234-.097l-1.58-1.58c-.13-.13-.13-.339 0-.468.13-.13.34-.13.469 0l1.58 1.58c.129.129.129.338 0 .468-.065.065-.15.097-.235.097zM2.574 11.307H.341c-.183 0-.332-.148-.332-.331 0-.183.149-.331.332-.331h2.233c.183 0 .332.148.332.33 0 .184-.149.332-.332.332zM3.458 18.834c-.084 0-.17-.032-.234-.097-.13-.13-.13-.34 0-.469l1.58-1.58c.13-.128.339-.128.468 0 .13.13.13.34 0 .47l-1.58 1.579c-.064.065-.149.097-.234.097zM18.512 18.834c-.085 0-.17-.032-.234-.097l-1.58-1.58c-.13-.129-.13-.339 0-.468.13-.13.34-.13.469 0l1.58 1.58c.129.129.129.339 0 .468-.065.065-.15.097-.235.097zM21.63 11.307h-2.234c-.183 0-.331-.148-.331-.331 0-.183.148-.331.331-.331h2.234c.183 0 .331.148.331.33 0 .184-.148.332-.331.332zM16.933 5.36c-.085 0-.17-.032-.235-.097-.13-.13-.13-.34 0-.469l1.58-1.58c.13-.129.339-.129.468 0 .13.13.13.34 0 .47l-1.58 1.579c-.064.065-.149.097-.233.097z"/>
        </g>
        <path fill="#4297CF" d="M11.052 20.027s-2.166.398-2.342.32v.563c0 .05.003.1.008.147.073.663.635 1.179 1.317 1.179h.575c-.576 0-1.067-.368-1.25-.882-.03-.087.033-.179.125-.179h3.334c.201 0 .393-.042.566-.118.005-.048.008-.097.008-.147v-.563c-.175.078-2.341-.32-2.341-.32z"/>
        <path fill="#54B5F5" d="M14.232 19.055c0 .576-.345 1.072-.84 1.292-.174.078-.369.122-.573.122H9.284c-.204 0-.398-.044-.574-.122-.494-.22-.84-.716-.84-1.292 0 0-.02-2.065-.024-2.119v-.002l3.206-.441 3.168.441.012 2.12z"/>
        <path fill="#4297CF" d="M10.035 20.469h-.75c-.205 0-.4-.044-.575-.122-.494-.22-.84-.716-.84-1.292 0 0-.02-2.065-.024-2.119v-.002h.751v.002c.004.054.025 2.119.025 2.119 0 .576.345 1.072.84 1.292.175.078.369.122.573.122zM14.232 19.033h-1.126c-.183 0-.332-.149-.332-.332 0-.182.149-.33.332-.33h1.123l.002.33.001.332z"/>
        <path fill="#4297CF" d="M11.89 18.701c0 .183-.148.332-.33.332H7.87l-.007-.663h3.697c.182 0 .33.149.33.331z"/>
        <path stroke="#F67555" d="M10.99 4.498c-1.565-.024-2.999.644-4.04 1.7-1.052 1.067-1.707 2.534-1.679 4.1 0 1.6.63 3.043 1.652 4.093.628.645 1.155 1.258 1.35 2.044l5.506.01c.168-.807.669-1.428 1.302-2.089 1.002-1.046 1.618-2.475 1.618-4.05 0-1.604-.64-3.056-1.674-4.108-1.032-1.049-2.459-1.698-4.034-1.7z"/>
        <path fill="#F67555" d="M10.657 12.426c-.082.106-.207.17-.341.175h-.017c-.128 0-.25-.054-.336-.15l-1.29-1.427c-.168-.186-.154-.472.032-.64.185-.168.472-.153.64.033l.928 1.026 2.577-2.712c.153-.198.438-.234.636-.08.197.153.233.438.08.635l-2.909 3.14z"/>
    </g>
</svg>
