<?xml version="1.0" encoding="UTF-8"?>
<svg width="16px" height="16px" viewBox="0 0 16 16" version="1.1" xmlns="http://www.w3.org/2000/svg" xmlns:xlink="http://www.w3.org/1999/xlink">
    <!-- Generator: Sketch 59.1 (86144) - https://sketch.com -->
    <title>Favicon (16x16)</title>
    <desc>Created with Sketch.</desc>
    <g id="Favicon-(16x16)" stroke="none" stroke-width="1" fill="none" fill-rule="evenodd">
        <rect x="0" y="0" width="16" height="16"></rect>
        <path d="M15.5525099,5.73222953 C15.1313262,4.94157619 14.2229642,4 12.2853015,4 C9.99494024,4 8.49620506,5.74958713 7.17304089,7.29485473 C6.07245345,8.58019963 5.03225746,9.79479026 3.79827963,9.79479026 C2.52788016,9.79479026 1.74792773,8.55622261 1.74792773,7.667896 C1.74792773,6.84576363 2.60679373,5.65176676 3.95190427,5.65176676 C5.25561243,5.65176676 5.95104796,6.65218227 5.97875332,6.69234011 C6.22965799,7.07847313 6.76757769,7.20027052 7.17708774,6.96417776 C7.58846557,6.72617271 7.71905429,6.21721261 7.46830526,5.82681373 C7.34518765,5.6398518 6.20195264,4 3.95190427,4 C1.62309798,4 0,5.93346 0,7.667896 C0,9.45558159 1.55974922,11.4477338 3.79781269,11.4477338 C5.86653107,11.4477338 7.22144744,9.86554454 8.53356059,8.33219191 C9.71415113,6.95446927 10.8296808,5.65176676 12.2853015,5.65176676 C13.1377859,5.65176676 13.6959398,5.92139794 13.9910486,6.47492883 C14.2539381,6.96976749 14.2528486,7.53624303 14.252226,7.72335206 C14.252226,7.83308739 14.1901224,8.38764796 13.9024848,8.88895896 C13.5832506,9.44572601 13.1293809,9.70564869 12.4751921,9.70564869 C11.1198088,9.70564869 10.3839047,8.86836519 10.1014035,8.54754381 C10.0284046,8.46487457 9.97143738,8.40073971 9.89485853,8.33881133 C9.71710845,8.19524339 9.49390913,8.12890206 9.25841361,8.14199381 C9.02603106,8.15935141 8.81388275,8.26040794 8.66197024,8.4279529 C8.36110254,8.75965955 8.38585058,9.25758729 8.72874326,9.57193634 L8.76142935,9.60885802 C9.14167757,10.0416212 10.2987653,11.3574155 12.4745695,11.3574155 C15.1383304,11.3574155 16,8.9020507 16,7.71349648 C16.0006207,6.95667574 15.8499533,6.29002627 15.5525099,5.73222953" id="Fill-25" fill="#F67555" fill-rule="nonzero"></path>
    </g>
</svg>