<?xml version="1.0" standalone="no"?>
<!DOCTYPE svg PUBLIC "-//W3C//DTD SVG 20010904//EN"
 "http://www.w3.org/TR/2001/REC-SVG-20010904/DTD/svg10.dtd">
<svg version="1.0" xmlns="http://www.w3.org/2000/svg"
 width="1600.000000pt" height="1600.000000pt" viewBox="0 0 1600.000000 1600.000000"
 preserveAspectRatio="xMidYMid meet">
<g transform="translate(0.000000,1600.000000) scale(0.100000,-0.100000)"
fill="#000000" stroke="none">
<path d="M3938 12005 c-1 -1 -77 -6 -168 -9 -91 -3 -176 -8 -190 -10 -14 -3
-52 -7 -85 -10 -93 -9 -131 -15 -250 -36 -143 -26 -135 -25 -240 -49 -770
-183 -1489 -611 -2028 -1206 -137 -152 -147 -164 -147 -175 0 -5 -4 -10 -8
-10 -9 0 -146 -181 -218 -290 -108 -162 -266 -448 -321 -585 -75 -184 -94
-234 -122 -316 -17 -53 -33 -104 -36 -115 -2 -10 -13 -53 -25 -94 -11 -41 -31
-131 -44 -200 -44 -228 -51 -303 -51 -565 0 -196 8 -355 21 -418 2 -12 6 -38
9 -57 5 -36 18 -121 20 -130 1 -3 5 -23 9 -45 15 -76 77 -320 103 -400 64
-202 231 -583 320 -730 10 -16 38 -64 62 -105 276 -470 693 -917 1156 -1240
176 -123 394 -247 608 -344 282 -129 692 -245 992 -281 28 -4 61 -8 75 -11
150 -25 687 -24 855 1 34 5 79 11 150 20 42 6 246 46 310 61 11 3 31 7 45 10
93 18 370 110 535 176 154 62 436 202 585 290 63 37 275 172 280 178 3 3 23
17 44 30 77 47 519 388 556 429 3 4 39 35 80 71 138 119 173 153 450 430 266
265 322 324 495 515 44 49 89 99 100 111 41 45 83 93 224 254 79 91 153 176
165 190 53 62 204 238 226 264 14 16 32 37 40 46 8 9 37 43 65 75 27 33 97
114 154 180 57 66 127 147 155 179 45 53 161 185 264 301 47 53 213 235 282
310 98 106 522 528 609 605 152 136 149 133 256 221 476 390 919 630 1378 749
131 33 149 37 227 46 30 3 58 8 61 10 40 23 563 23 711 -1 13 -2 43 -6 68 -9
25 -3 56 -8 70 -11 14 -3 50 -9 80 -15 30 -5 100 -23 155 -39 544 -155 898
-503 1069 -1051 43 -137 44 -140 65 -250 46 -234 55 -330 56 -570 0 -202 -4
-249 -30 -385 -22 -117 -22 -114 -40 -185 -9 -36 -18 -69 -19 -75 -7 -38 -66
-210 -106 -311 -82 -205 -205 -423 -323 -569 -73 -91 -234 -242 -319 -298
-132 -88 -309 -170 -438 -202 -70 -18 -230 -45 -295 -50 -156 -12 -425 -7
-545 10 -14 2 -50 7 -80 10 -30 4 -62 9 -70 10 -146 27 -204 40 -296 66 -60
17 -116 32 -124 34 -8 2 -40 13 -70 25 -30 12 -66 25 -80 30 -212 71 -595 293
-798 464 -173 145 -299 266 -437 421 -266 298 -376 382 -580 445 -89 27 -107
30 -235 37 -180 9 -358 -35 -505 -124 -77 -48 -87 -56 -165 -134 -160 -158
-234 -337 -234 -564 0 -122 19 -219 61 -313 9 -20 17 -40 17 -43 3 -23 115
-175 168 -229 35 -36 95 -101 133 -145 176 -200 526 -533 695 -659 30 -23 69
-53 85 -68 17 -16 34 -28 39 -28 6 0 19 -8 30 -19 42 -37 245 -170 391 -256
385 -225 817 -399 1255 -504 143 -34 449 -87 555 -96 17 -1 59 -6 95 -10 225
-26 704 -26 930 -1 123 14 148 18 337 52 16 3 46 10 68 16 22 5 48 12 58 14
10 2 27 6 37 9 10 3 27 8 38 10 50 9 227 67 327 105 131 51 321 141 437 208
127 74 347 224 404 277 6 5 36 30 65 55 80 66 287 273 368 368 324 379 578
839 747 1348 59 178 125 431 148 571 20 116 36 230 43 298 15 155 8 704 -12
826 -2 13 -6 49 -9 79 -4 30 -8 69 -11 85 -12 77 -36 223 -40 245 -3 14 -10
48 -16 75 -27 137 -117 452 -158 550 -5 11 -28 67 -51 125 -59 144 -194 410
-212 418 -5 2 -8 8 -8 14 0 10 -116 191 -146 227 -7 9 -34 44 -59 79 -26 34
-83 104 -128 155 -368 419 -817 713 -1394 911 -94 33 -343 101 -408 112 -16 2
-37 7 -45 9 -8 2 -26 6 -40 9 -14 2 -52 9 -85 15 -68 12 -183 29 -253 36 -26
3 -60 7 -77 10 -16 2 -70 7 -120 11 -317 21 -717 17 -915 -11 -14 -2 -52 -7
-85 -11 -33 -4 -62 -8 -65 -9 -3 0 -26 -4 -51 -8 -151 -25 -198 -34 -373 -78
-143 -36 -429 -124 -481 -149 -11 -5 -72 -30 -135 -55 -161 -65 -419 -193
-589 -293 -547 -320 -1007 -687 -1581 -1262 -225 -225 -327 -333 -555 -585
-44 -48 -84 -93 -90 -99 -5 -6 -39 -45 -75 -86 -36 -41 -69 -80 -75 -86 -33
-36 -243 -278 -320 -369 -27 -32 -81 -95 -120 -140 -38 -45 -92 -107 -120
-140 -52 -60 -247 -287 -294 -340 -14 -17 -55 -64 -91 -105 -36 -41 -82 -93
-102 -115 -20 -22 -45 -49 -55 -61 -39 -45 -172 -192 -248 -273 -111 -121
-507 -515 -585 -583 -36 -32 -81 -71 -100 -89 -19 -17 -55 -47 -80 -68 -25
-20 -47 -38 -50 -41 -3 -3 -54 -44 -115 -92 -249 -194 -524 -360 -750 -453
-49 -21 -99 -41 -110 -46 -22 -10 -171 -59 -195 -64 -81 -19 -218 -45 -257
-50 -26 -3 -64 -8 -83 -11 -42 -6 -316 -6 -345 0 -11 2 -45 7 -75 10 -293 34
-587 153 -864 350 -90 64 -315 275 -392 366 -60 72 -204 273 -204 285 0 4 -8
19 -19 33 -33 48 -117 217 -161 323 -67 163 -123 368 -148 544 -9 67 -9 327 0
392 31 214 130 485 248 680 22 36 40 67 40 69 0 3 57 86 98 143 99 138 281
330 421 443 292 236 690 418 1016 463 11 2 34 6 50 9 138 26 510 27 646 1 12
-2 41 -7 64 -9 64 -8 279 -61 365 -90 41 -15 82 -28 90 -30 57 -16 233 -99
360 -169 89 -48 305 -196 356 -242 6 -5 33 -28 60 -49 93 -75 299 -293 374
-396 87 -118 153 -189 230 -247 161 -120 338 -177 550 -177 80 0 187 12 209
23 9 5 31 11 49 14 18 4 57 18 87 32 31 14 58 25 62 25 3 0 43 25 88 55 245
162 381 428 369 718 -6 158 -60 305 -166 452 -55 76 -182 236 -238 300 -106
120 -378 383 -500 481 -19 16 -37 31 -40 34 -33 35 -393 288 -485 340 -393
226 -720 367 -1050 456 -114 30 -130 34 -245 59 -118 25 -145 30 -215 40 -22
3 -65 10 -95 15 -30 5 -86 12 -125 15 -38 4 -81 8 -95 11 -14 2 -104 6 -200 9
-96 4 -180 8 -187 10 -6 2 -13 2 -15 0z"/>
</g>
</svg>
