<svg xmlns="http://www.w3.org/2000/svg" width="30" height="30" viewBox="0 0 30 30">
    <g fill="none" fill-rule="evenodd">
        <circle cx="15" cy="15" r="15" fill="#ED3523"/>
        <path fill="#FFF" d="M19.696 20.291c.083 0 .15.07.15.156v1.736c0 .086-.067.156-.15.156h-9.544c-.084 0-.152-.07-.152-.156v-1.736c0-.086.068-.156.152-.156zM14.924 7c1.045 0 1.373.748 1.647 1.497l2.91 7.968c.023.061.008.164-.088.2l-1.584.615c-.078.029-.165-.015-.194-.092-.029-.077-.613-1.697-.68-1.878h-4.018l-.684 1.878c-.027.074-.112.124-.194.092-.083-.034-1.498-.582-1.582-.615-.081-.03-.118-.122-.09-.2.1-.28 2.771-7.588 2.908-7.968C13.54 7.76 13.88 7 14.924 7zm.009 2.426h-.018l-1.358 4.08h2.74l-1.364-4.08z"/>
    </g>
</svg>
