<svg xmlns="http://www.w3.org/2000/svg" xmlns:xlink="http://www.w3.org/1999/xlink" width="213" height="213" viewBox="0 0 213 213">
    <defs>
        <circle id="prefix__a" cx="106.5" cy="106.5" r="106.5"/>
        <circle id="prefix__c" cx="106.5" cy="106.5" r="106.5"/>
    </defs>
    <g fill="none" fill-rule="evenodd">
        <mask id="prefix__b" fill="#fff">
            <use xlink:href="#prefix__a"/>
        </mask>
        <use fill="#FFF" xlink:href="#prefix__a"/>
        <g mask="url(#prefix__b)">
            <g>
                <path fill="#FFD9BD" d="M45.513 56.891L68.269 56.891 91.026 56.891 102.404 56.891 102.404 45.513 91.026 45.513 22.756 45.513 11.378 45.513 11.378 56.891 22.756 56.891z" transform="translate(47.333 29.583)"/>
                <path fill="#191919" d="M22.756 79.647L45.513 79.647 45.513 68.269 68.269 68.269 68.269 79.647 91.026 79.647 91.026 68.269 102.404 68.269 102.404 56.891 91.026 56.891 68.269 56.891 45.513 56.891 22.756 56.891 11.378 56.891 11.378 68.269 22.756 68.269z" transform="translate(47.333 29.583)"/>
                <path fill="#925016" d="M68.269 0L68.269 11.379 22.756 11.379 22.756 22.756 11.378 22.756 11.378 34.134 0 34.134 0 45.513 0 68.269 11.378 68.269 11.378 56.891 11.378 45.513 22.756 45.513 91.026 45.513 102.404 45.513 102.404 56.891 102.404 68.269 113.782 68.269 113.782 34.134 102.404 34.134 102.404 22.756 91.026 22.756 91.026 11.379 91.026 0z" transform="translate(47.333 29.583)"/>
                <path fill="#FFF" d="M45.513 102.404L68.269 102.404 68.269 91.026 45.513 91.026z" transform="translate(47.333 29.583)"/>
                <path fill="#FFD9BD" d="M102.404 68.269H91.026v11.38H68.269v-11.38H45.513v11.38H22.756v-11.38H0v11.38h11.378v34.134h34.135V136.538h22.756V113.783h34.135V79.648h11.378v-11.38h-11.378zm-56.891 34.135h22.756V91.025H45.513v11.379zM22.756 147.917L11.378 147.917 11.378 227.564 22.756 227.564 22.756 204.808z" transform="translate(47.333 29.583)"/>
                <path fill="#F67555" fill-rule="nonzero" d="M45.513 182.051h22.756v-22.756H45.513v22.756zm0-45.513V125.16H11.378v22.757h11.378v56.89h68.27v-56.89h11.378V125.16H68.269v11.378H45.513z" transform="translate(47.333 29.583)"/>
                <path fill="#FFD9BD" d="M91.026 204.808L91.026 227.564 102.404 227.564 102.404 147.917 91.026 147.917z" transform="translate(47.333 29.583)"/>
                <path fill="#191919" d="M45.513 182.051L68.269 182.051 68.269 159.295 45.513 159.295z" transform="translate(47.333 29.583)"/>
            </g>
        </g>
        <circle cx="106.5" cy="106.5" r="106" stroke="#E6E6E6"/>
    </g>
</svg>
