<svg xmlns="http://www.w3.org/2000/svg" width="92" height="92"><g fill="none" fill-rule="evenodd"><circle cx="46" cy="46" r="46" fill="#E3E3E3" opacity=".5"/><circle cx="46" cy="46" r="43" fill="#FFF"/><g fill-rule="nonzero" transform="translate(28 28)"><circle cx="17.975" cy="17.975" r="17.975" fill="#F57454"/><path fill="#FCFCFD" d="M17.975 25.945c6.821 0 12.9-3.087 16.922-7.97-4.021-4.859-10.1-7.97-16.922-7.97-6.821 0-12.9 3.111-16.922 7.97 4.021 4.859 10.1 7.97 16.922 7.97z"/><circle cx="17.975" cy="17.975" r="7.492" fill="#116C93"/><circle cx="17.975" cy="17.975" r="4.524" fill="#25282C"/><g fill="#FCFCFD" transform="translate(14.4 14.33)"><circle cx="3.575" cy="1.779" r="1.723"/><path d="M3.575 8.169a4.47 4.47 0 0 0 3.542-1.723c-.478-1.508-1.89-2.61-3.542-2.61S.487 4.939.033 6.447A4.47 4.47 0 0 0 3.575 8.17z"/></g></g></g></svg>