<svg xmlns="http://www.w3.org/2000/svg" width="30" height="30"><g fill="none"><circle cx="14.998" cy="14.998" r="14.998" fill="#27ADE4"/><path fill="#2D78BC" d="M5.118 12.326l-.469-1.156-.465 1.156m11.242-.46c-.094.057-.205.06-.338.06h-.831v-.645h.842c.119 0 .243.005.324.052.088.043.143.133.143.257 0 .126-.052.228-.14.275m5.924.46l-.473-1.155-.47 1.156h.943zm-11.044 1.252h-.7l-.003-2.271-.992 2.27h-.6l-.994-2.272v2.273h-1.39l-.263-.647H3.941l-.266.647h-.742l1.224-2.9h1.016l1.163 2.745v-2.745H7.45l.895 1.967.822-1.967h1.138v2.9zm2.794 0h-2.284v-2.9H13.1v.604h-1.6v.523h1.561v.594H11.5v.579h1.6v.6zm3.22-2.119a.816.816 0 0 1-.482.773c.15.058.277.16.338.244.097.144.113.273.113.532v.57h-.69l-.002-.366c0-.175.017-.426-.108-.565-.1-.102-.252-.124-.498-.124h-.734v1.055h-.684v-2.9h1.573c.35 0 .607.01.828.139.216.13.346.319.346.642m1.094 2.119h-.698v-2.9h.698v2.9zm8.092 0h-.969L23.242 11.4v2.177h-1.393l-.266-.647h-1.42l-.258.647h-.8c-.332 0-.753-.075-.992-.321-.24-.246-.365-.58-.365-1.107 0-.43.075-.824.369-1.134.221-.231.567-.338 1.038-.338h.662v.621h-.648c-.25 0-.39.038-.526.172-.116.123-.197.353-.197.657 0 .31.062.535.189.68.105.116.296.15.476.15h.307l.964-2.28h1.024l1.157 2.743v-2.743h1.041l1.202 2.02v-2.02h.7v2.9zm-22.58.57h1.167l.264-.645h.589l.263.644h2.298v-.492l.205.494h1.193l.205-.501v.5h5.712l-.003-1.058h.11c.078.003.1.01.1.14v.917h2.955V13.9c.238.13.609.246 1.097.246h1.242l.266-.644h.59l.26.644h2.395v-.612l.362.612h1.92v-4.044h-1.9v.478l-.266-.478h-1.949v.478l-.244-.478h-2.632c-.44 0-.828.063-1.141.236v-.236h-1.817v.236c-.199-.179-.47-.236-.772-.236H8.758l-.445 1.045-.457-1.045h-2.09v.478l-.23-.478H3.752l-.828 1.923-.95 2.121h.95z"/><path fill="#FFF" d="M5.118 12.562l-.469-1.156-.465 1.156m11.242-.46c-.094.058-.205.06-.338.06h-.831v-.644h.842c.119 0 .243.005.324.052.088.042.143.132.143.257 0 .126-.052.228-.14.275m5.924.46l-.473-1.156-.47 1.156h.943zm-11.044 1.251h-.7l-.003-2.27-.992 2.27h-.6l-.994-2.272v2.272h-1.39l-.263-.646H3.941l-.266.646h-.742l1.224-2.9h1.016l1.163 2.746v-2.745H7.45l.895 1.967.822-1.967h1.138v2.9zm2.794 0h-2.284v-2.9H13.1v.605h-1.6v.523h1.561v.594H11.5v.578h1.6v.6zm3.22-2.118a.816.816 0 0 1-.482.773c.15.058.277.16.338.244.097.144.113.273.113.532v.57h-.69l-.002-.366c0-.175.017-.426-.108-.565-.1-.102-.252-.124-.498-.124h-.734v1.054h-.684v-2.9h1.573c.35 0 .607.01.828.14.216.13.346.318.346.642m1.094 2.118h-.698v-2.899h.698v2.9zm8.092 0h-.969l-1.295-2.176v2.176h-1.393l-.266-.646h-1.42l-.258.646h-.8c-.332 0-.753-.074-.992-.32-.24-.246-.365-.58-.365-1.107 0-.43.075-.824.369-1.134.221-.231.567-.338 1.038-.338h.662v.621h-.648c-.25 0-.39.038-.526.172-.116.122-.197.353-.197.657 0 .31.062.534.189.68.105.115.296.15.476.15h.307l.964-2.28h1.024l1.157 2.743v-2.743h1.041l1.202 2.02v-2.02h.7v2.9zm-22.58.57h1.167l.264-.644h.589l.263.644h2.298v-.492l.205.494h1.193l.205-.502v.5h5.712l-.003-1.057h.11c.078.002.1.01.1.14v.917h2.955v-.246c.238.13.609.246 1.097.246h1.242l.266-.644h.59l.26.644h2.395v-.612l.362.612h1.92v-4.044h-1.9v.478l-.266-.478h-1.949v.478l-.244-.478h-2.632c-.44 0-.828.063-1.141.236v-.236h-1.817v.236c-.199-.179-.47-.236-.772-.236H8.758l-.445 1.044-.457-1.044h-2.09v.478l-.23-.478H3.752l-.828 1.923-.95 2.121h.95z"/><path fill="#2D78BC" d="M27.65 16.88v-1.855h-1.714c-.381 0-.66.093-.855.236v-.236h-1.873c-.3 0-.65.075-.817.236v-.236h-3.344v.236c-.265-.194-.715-.236-.922-.236H15.92v.236c-.21-.206-.679-.236-.964-.236h-2.468l-.565.619-.53-.619H7.708v4.044h3.617l.582-.629.548.629 2.23.002v-.952h.22c.295.005.644-.007.952-.142v1.091h1.84v-1.054h.088c.114 0 .125.005.125.12v.934h5.587c.355 0 .726-.092.931-.258v.258H26.2c.369 0 .73-.052 1.003-.186v-.004c.4-.259.666-.71.666-1.227a1.442 1.442 0 0 0-.219-.77zm-12.716.647h-.853v.972h-1.33l-.842-.96-.875.96h-2.71v-2.898h2.752l.841.95.87-.95h2.186c.542 0 1.152.153 1.152.955 0 .805-.593.971-1.19.971zm4.116-.131c.097.141.11.273.114.529v.574h-.687v-.362c0-.174.017-.433-.11-.568-.1-.103-.252-.128-.502-.128h-.731v1.058h-.687v-2.898h1.579c.346 0 .598.016.823.137.216.132.351.313.351.644a.812.812 0 0 1-.484.77.745.745 0 0 1 .334.244zm2.812-1.195H20.26v.527h1.563v.591H20.26v.577l1.602.003v.6H19.58v-2.898h2.283v.6zm1.742 2.299h-1.332v-.622h1.327c.13 0 .222-.017.28-.072a.259.259 0 0 0 .08-.188.25.25 0 0 0-.083-.192c-.053-.045-.125-.065-.244-.065-.64-.021-1.44.02-1.44-.897 0-.42.26-.863.977-.863h1.372v.617h-1.255c-.124 0-.205.005-.274.052-.075.047-.103.117-.103.21 0 .108.064.183.15.215.072.025.15.033.266.033l.368.01c.371.009.626.074.781.233.134.14.205.315.205.614 0 .623-.385.915-1.075.915zm3.52-.28c-.18.184-.47.28-.85.28h-1.32v-.622h1.315c.13 0 .222-.017.277-.072a.255.255 0 0 0 .08-.188.24.24 0 0 0-.083-.192c-.05-.045-.122-.065-.241-.065-.642-.021-1.443.02-1.443-.897 0-.42.263-.863.98-.863h1.337v.617h-1.22c-.124 0-.207.005-.277.052-.072.047-.1.117-.1.209 0 .11.061.183.15.216a.78.78 0 0 0 .263.033l.37.01c.375.01.625.074.777.233.027.022.044.047.064.072a.95.95 0 0 1-.078 1.177zM10.721 16.2l.748.845-.782.85H9.006v-.576h1.501v-.591H9.006V16.2h1.715zm1.628.855l1.05-1.142v2.323l-1.05-1.18zm3.042-.499c0 .251-.163.383-.426.383h-.884V16.2h.892c.246 0 .418.101.418.355zm3.053-.042a.313.313 0 0 1-.142.278c-.091.055-.205.06-.338.06h-.83V16.2h.841c.122 0 .244.002.327.052.089.047.142.137.142.26z"/><path fill="#FFF" d="M27.65 17.117v-1.855h-1.714c-.381 0-.66.092-.855.236v-.236h-1.873c-.3 0-.65.075-.817.236v-.236h-3.344v.236c-.265-.194-.715-.236-.922-.236H15.92v.236c-.21-.206-.679-.236-.964-.236h-2.468l-.565.619-.53-.62H7.708v4.044h3.617l.582-.628.548.628 2.23.003v-.952h.22c.295.005.644-.007.952-.142v1.091h1.84v-1.054h.088c.114 0 .125.005.125.12v.934h5.587c.355 0 .726-.092.931-.258v.258H26.2c.369 0 .73-.052 1.003-.186v-.005c.4-.258.666-.71.666-1.226a1.437 1.437 0 0 0-.219-.77zm-12.716.647h-.853v.972h-1.33l-.842-.96-.875.96h-2.71v-2.898h2.752l.841.95.87-.95h2.186c.542 0 1.152.152 1.152.955 0 .805-.593.971-1.19.971zm4.116-.131c.097.141.11.273.114.529v.574h-.687v-.362c0-.175.017-.433-.11-.568-.1-.103-.252-.129-.502-.129h-.731v1.06h-.687v-2.899h1.579c.346 0 .598.015.823.137.216.132.351.312.351.643a.812.812 0 0 1-.484.771.746.746 0 0 1 .334.244zm2.812-1.195H20.26v.527h1.563v.59H20.26v.578l1.602.002v.602H19.58v-2.899h2.283v.6zm1.742 2.299h-1.332v-.622h1.327c.13 0 .222-.017.28-.072a.259.259 0 0 0 .08-.189.25.25 0 0 0-.083-.192c-.053-.044-.125-.064-.244-.064-.64-.022-1.44.02-1.44-.897 0-.42.26-.863.977-.863h1.372v.617h-1.255c-.124 0-.205.005-.274.052-.075.047-.103.117-.103.209 0 .11.064.183.15.216.072.025.15.032.266.032l.368.011c.371.009.626.074.781.233.134.14.205.315.205.613 0 .624-.385.916-1.075.916zm3.52-.28c-.18.184-.47.28-.85.28h-1.32v-.622h1.315c.13 0 .222-.017.277-.072a.255.255 0 0 0 .08-.189.24.24 0 0 0-.083-.192c-.05-.044-.122-.064-.241-.064-.642-.022-1.443.02-1.443-.897 0-.42.263-.863.98-.863h1.337v.617h-1.22c-.124 0-.207.005-.277.052-.072.047-.1.117-.1.209 0 .11.061.183.15.216.072.025.15.032.263.032l.37.01c.375.01.625.075.777.234.027.022.044.047.064.071a.95.95 0 0 1-.078 1.177zm-16.403-2.02l.748.845-.782.85H9.006v-.576h1.501v-.592H9.006v-.526h1.715zm1.628.855l1.05-1.143v2.324l-1.05-1.18zm3.042-.5c0 .252-.163.384-.426.384h-.884v-.738h.892c.246 0 .418.101.418.355zm3.053-.041a.313.313 0 0 1-.142.278c-.091.055-.205.06-.338.06h-.83v-.651h.841c.122 0 .244.002.327.052.089.047.142.136.142.26z"/></g></svg>