<svg xmlns="http://www.w3.org/2000/svg" width="30" height="30" viewBox="0 0 30 30">
    <g fill="none" fill-rule="evenodd">
        <circle cx="15" cy="15" r="15" fill="#191717"/>
        <path fill="#FFF" fill-rule="nonzero" d="M17.56 7.764c.587-.754 1.006-1.759.88-2.764-.88.042-1.927.586-2.555 1.298-.544.629-1.047 1.676-.921 2.639 1.005.126 1.968-.419 2.596-1.173m.88 1.424c-1.424-.083-2.639.796-3.309.796-.67 0-1.717-.754-2.848-.754-1.466.042-2.806.838-3.56 2.178-1.508 2.639-.419 6.534 1.089 8.67.712 1.047 1.592 2.22 2.722 2.178 1.09-.042 1.508-.712 2.807-.712 1.298 0 1.675.712 2.848.67 1.172-.042 1.926-1.047 2.638-2.136.838-1.215 1.173-2.387 1.173-2.43-.042-.041-2.304-.879-2.304-3.476-.041-2.177 1.76-3.225 1.843-3.266-.963-1.508-2.555-1.676-3.1-1.718"/>
    </g>
</svg>
