<svg xmlns="http://www.w3.org/2000/svg" width="30" height="30" viewBox="0 0 30 30">
    <g fill="none">
        <path fill="#F7931A" d="M29.56 18.632C27.555 26.67 19.415 31.56 11.377 29.556 3.344 27.553-1.547 19.412.458 11.376 2.46 3.338 10.598-1.554 18.634.451c8.037 2.003 12.928 10.145 10.924 18.181z"/>
        <path fill="#FFF" d="M21.579 12.84c.298-1.992-1.219-3.063-3.293-3.777l.673-2.699-1.643-.409-.655 2.627c-.437-.107-.876-.21-1.315-.31l.66-2.644-1.643-.41-.673 2.698c-.357-.081-.708-.162-1.049-.246l.002-.009-2.265-.565L9.94 8.85s1.219.28 1.193.297c.665.166.785.606.765.955l-.766 3.074c.046.012.105.03.17.055l-.173-.043-1.074 4.307c-.082.202-.288.505-.753.39.016.024-1.194-.298-1.194-.298l-.815 1.88 2.137.534c.398.1.788.204 1.171.302l-.68 2.73 1.641.409.673-2.701c.448.122.883.234 1.31.34l-.672 2.688 1.642.41.68-2.725c2.802.53 4.908.316 5.795-2.217.714-2.04-.036-3.216-1.51-3.984 1.074-.248 1.882-.954 2.098-2.412zm-3.754 5.263c-.507 2.04-3.942.938-5.056.66l.903-3.615c1.113.278 4.684.828 4.153 2.955zm.508-5.291c-.463 1.855-3.322.912-4.249.68l.818-3.279c.927.231 3.914.662 3.431 2.598z"/>
    </g>
</svg>
