<svg xmlns="http://www.w3.org/2000/svg" width="24" height="24"><defs><linearGradient id="a" x1="6.714%" x2="93.608%" y1="93.485%" y2="6.619%"><stop offset="0%" stop-color="#FD5"/><stop offset="50%" stop-color="#FF543E"/><stop offset="100%" stop-color="#C837AB"/></linearGradient></defs><g fill="none"><path fill="url(#a)" d="M1.764 1.652C-.1 3.587.28 5.643.28 11.89c0 5.188-.905 10.388 3.833 11.613 1.48.38 14.588.38 16.066-.002 1.972-.51 3.577-2.11 3.797-4.898.03-.39.03-13.029-.001-13.426-.233-2.971-2.063-4.684-4.473-5.03-.553-.08-.663-.104-3.498-.11C5.951.044 3.747-.404 1.764 1.653z"/><path fill="#FFF" d="M12.106 3.194c-3.567 0-6.954-.317-8.247 3-.535 1.371-.457 3.15-.457 5.699 0 2.236-.072 4.337.457 5.696 1.29 3.32 4.705 3.002 8.245 3.002 3.416 0 6.937.355 8.247-3.002.535-1.384.456-3.137.456-5.696 0-3.398.188-5.592-1.461-7.24-1.67-1.668-3.929-1.459-7.244-1.459h.004zm-.78 1.568c7.44-.012 8.387-.838 7.865 10.643-.186 4.06-3.28 3.614-7.084 3.614-6.935 0-7.134-.198-7.134-7.13 0-7.013.55-7.123 6.353-7.13v.003zm5.426 1.444a1.044 1.044 0 1 0 0 2.087 1.044 1.044 0 0 0 0-2.087zm-4.646 1.22a4.468 4.468 0 0 0 0 8.933 4.467 4.467 0 1 0 0-8.933zm0 1.567c3.836 0 3.84 5.799 0 5.799-3.835 0-3.84-5.799 0-5.799z"/></g></svg>