<svg xmlns="http://www.w3.org/2000/svg" width="92" height="92"><g fill="none" fill-rule="evenodd"><circle cx="46" cy="46" r="46" fill="#E3E3E3" opacity=".5"/><circle cx="46" cy="46" r="43" fill="#FFF"/><g fill-rule="nonzero"><path fill="#CE966D" d="M52.406 45.518h-9.434a1.09 1.09 0 0 1-.555-2.03c4.11-2.429 6.246-5.262 6.527-8.661.099-1.18 1.15-2.123 2.342-2.107a4.586 4.586 0 0 1 3.212 1.374 4.584 4.584 0 0 1 1.326 3.234v.367c0 2.976-.881 4.873-2.508 7.334a1.09 1.09 0 0 1-.91.49z"/><path fill="#E1AB81" d="M63.968 46.754a3.422 3.422 0 0 0-3.417-3.417H42.972a1.09 1.09 0 0 0-.555.152c-1.234.73-2.48 1.33-3.48 1.812-.35.169-.68.328-.98.478a1.09 1.09 0 0 0-.603.975v13.962c0 .413.234.79.603.976 4.407 2.203 8.071 2.47 12.343 2.47.662 0 1.338-.007 2.034-.014a260.1 260.1 0 0 1 2.4-.014h3.447a3.422 3.422 0 0 0 3.418-3.418c0-.634-.173-1.228-.475-1.737a3.419 3.419 0 0 0 1.164-4.654 3.419 3.419 0 0 0 1.638-2.917c0-.886-.34-1.695-.894-2.303a3.394 3.394 0 0 0 .936-2.35z"/><path d="M61.7 37.242h-2.328a1.09 1.09 0 0 1 0-2.181H61.7a1.09 1.09 0 0 1 0 2.181zm-16.29 0h-2.326a1.09 1.09 0 0 1 0-2.181h2.327a1.09 1.09 0 0 1 0 2.181zm3.492-6.045a1.09 1.09 0 0 1-.945-.545l-1.164-2.016a1.09 1.09 0 0 1 1.89-1.09l1.163 2.015a1.09 1.09 0 0 1-.944 1.636zm6.979 0a1.09 1.09 0 0 1-.944-1.636l1.164-2.015a1.09 1.09 0 1 1 1.89 1.09l-1.164 2.016a1.09 1.09 0 0 1-.946.545z" fill="#29CCB1"/><path fill="#73C3FF" d="M34.867 58.403v5.744h-2.181v-5.744a1.091 1.091 0 0 1 2.181 0z"/><path d="M61.7 37.242h-2.328a1.09 1.09 0 0 1 0-2.181H61.7a1.09 1.09 0 0 1 0 2.181zm-16.29 0h-2.326a1.09 1.09 0 0 1 0-2.181h2.327a1.09 1.09 0 0 1 0 2.181zm3.492-6.045a1.09 1.09 0 0 1-.945-.545l-1.164-2.016a1.09 1.09 0 0 1 1.89-1.09l1.163 2.015a1.09 1.09 0 0 1-.944 1.636zm6.979 0a1.09 1.09 0 0 1-.944-1.636l1.164-2.015a1.09 1.09 0 1 1 1.89 1.09l-1.164 2.016a1.09 1.09 0 0 1-.946.545z" fill="#052F41"/><path fill="#73C3FF" d="M34.867 58.403v5.744h-2.181v-5.744a1.091 1.091 0 0 1 2.181 0z"/><path fill="#052F41" d="M38.43 43.337h-9.307a1.09 1.09 0 0 0-1.091 1.09v18.616c0 .603.488 1.09 1.09 1.104h6.981a3.457 3.457 0 0 0 3.058-1.906c.23-.46.36-.978.36-1.525V44.427a1.09 1.09 0 0 0-1.09-1.09z"/><path fill="#116C93" d="M34.867 58.33v5.817h-2.181V58.33a1.091 1.091 0 0 1 2.181 0z"/></g></g></svg>