<svg xmlns="http://www.w3.org/2000/svg" width="30" height="30"><g fill="none"><circle cx="14.998" cy="14.998" r="14.998" fill="#003473"/><g fill="#009DDD"><path d="M14.606 19.512a6.434 6.434 0 0 0 2.127-4.786c0-1.9-.823-3.608-2.127-4.799a6.406 6.406 0 0 0-4.33-1.671c-3.57 0-6.47 2.9-6.47 6.47s2.9 6.457 6.47 6.457c1.671 0 3.19-.633 4.33-1.671z"/><path d="M14.606 19.512a6.434 6.434 0 0 0 2.127-4.786c0-1.9-.823-3.608-2.127-4.799v9.585z"/></g><path fill="#ED1C2E" d="M18.949 8.256a6.463 6.463 0 0 0-4.343 1.671 8.3 8.3 0 0 0-.646.685h1.304a8.3 8.3 0 0 1 .494.683h-2.292a9.691 9.691 0 0 0-.38.683h3.039c.102.228.202.457.278.684h-3.582c-.076.228-.14.457-.19.697h3.962c.089.43.14.899.14 1.367a6.48 6.48 0 0 1-.33 2.051h-3.582c.075.228.164.456.265.684h3.04c-.115.228-.229.468-.368.684h-2.292c.152.24.317.468.494.683h1.304a6.727 6.727 0 0 1-.658.684 6.46 6.46 0 0 0 4.343 1.671 6.452 6.452 0 0 0 6.457-6.457c0-3.57-2.887-6.47-6.457-6.47z"/><path d="M23.177 16.4c0-.273.243-.484.515-.484.274 0 .485.211.485.484 0 .274-.212.516-.485.516a.532.532 0 0 1-.515-.516zm.515.395c.212 0 .364-.182.364-.395a.35.35 0 0 0-.364-.363c-.212 0-.392.151-.392.363a.4.4 0 0 0 .392.395zm-.06-.182h-.121v-.425h.181c.06 0 .091 0 .122.03.03.03.06.06.06.092 0 .06-.03.121-.091.121l.09.182h-.121l-.06-.152h-.06v.152zm0-.242h.12v-.093h-.12v.093zm-14.167-.037h-.81l.481-2.52-1.1 2.52H7.3l-.126-2.507-.481 2.507h-.735l.62-3.28h1.266l.064 2.026.887-2.025h1.303zm8.99-.038a2.056 2.056 0 0 1-.583.088c-.405 0-.633-.202-.633-.582 0-.076.013-.152.025-.24l.05-.267.04-.202.366-2.038h.798l-.114.607h.417l-.113.647h-.418l-.202 1.113c-.014.051-.026.09-.026.114 0 .14.089.202.28.202a.92.92 0 0 0 .214-.025l-.101.583zm2.342-2.608c-.063-.026-.076-.026-.088-.026-.039-.013-.064-.013-.064-.025h-.088c-.267 0-.456.114-.697.43l.076-.405H19.2l-.494 2.672h.81c.292-1.634.406-1.925.798-1.925.026 0 .064.013.102.013l.088.025.292-.759zm-5.533.822c0 .33.19.57.62.735.33.139.38.177.38.304 0 .164-.152.24-.468.24a2.61 2.61 0 0 1-.735-.113l-.101.62h.038l.139.038c.05 0 .126.013.215.013.19.025.342.025.456.025.849 0 1.254-.279 1.254-.886 0-.368-.165-.583-.583-.747-.342-.127-.38-.165-.38-.291 0-.14.14-.215.406-.215.151 0 .38.013.582.037l.114-.607a4.859 4.859 0 0 0-.71-.05c-.91-.001-1.227.404-1.227.897zm-3.191 1.824h-.658l.013-.28c-.203.216-.481.318-.848.318-.43 0-.735-.292-.735-.722 0-.646.519-1.026 1.418-1.026.088 0 .203 0 .33.013.025-.088.025-.127.025-.164 0-.177-.14-.241-.52-.241a3.4 3.4 0 0 0-.658.064l-.113.038-.077.012.114-.595c.406-.102.659-.14.963-.14.696 0 1.05.266 1.05.773 0 .14-.012.24-.063.532l-.164.95-.025.164-.026.14-.013.088-.013.076zm-.582-1.19c-.09-.013-.127-.013-.177-.013-.456 0-.684.14-.684.405 0 .165.101.279.278.279.33 0 .57-.279.583-.672zm3.229 1.126a3.064 3.064 0 0 1-.824.114c-.898 0-1.367-.418-1.367-1.203 0-.912.595-1.582 1.406-1.582.658 0 1.077.38 1.077.962 0 .202-.026.393-.09.658h-1.608v.09c0 .303.228.467.697.467.29 0 .557-.05.835-.164l-.127.658zm-.43-1.582v-.14c0-.214-.14-.342-.38-.342-.254 0-.431.178-.508.482h.887zm9.014.43c-.127.886-.747 1.279-1.57 1.279-.9 0-1.266-.544-1.266-1.228 0-.937.62-1.583 1.582-1.583.836 0 1.279.531 1.279 1.203 0 .165 0 .177-.025.33zm-.836-.342c0-.278-.114-.53-.442-.53-.407 0-.66.48-.66.91 0 .355.178.595.457.595.177 0 .557-.24.62-.645.025-.102.025-.215.025-.33z" fill="#FFF"/></g></svg>