<svg xmlns="http://www.w3.org/2000/svg" width="30" height="30"><g fill="none"><circle cx="14.998" cy="14.998" r="14.998" fill="#F3F2F2"/><path d="M21.985 12.477c-.624 0-1.118.166-1.495.241l-.116.95c.189-.092.784-.257 1.277-.272.494-.015.784.09.683.512-1.466 0-2.454.3-2.657 1.25-.29 1.626 1.495 1.58 2.207.873l-.087.391h1.306l.566-2.59c.232-1.099-.77-1.37-1.684-1.355zm.087 2.65c-.072.347-.348.497-.682.513-.29.014-.551-.242-.363-.543.146-.256.552-.316.799-.316h.32c-.03.12-.045.226-.074.346zm2.715-3.674l-1.081 4.97h1.327l1.094-4.97zm-6.097.015h-2.43l-1.077 4.954h1.411l.364-1.64h1.004c.99 0 1.804-.603 2.022-1.627.248-1.16-.596-1.687-1.294-1.687zm-.043 1.687c-.088.376-.466.677-.83.677h-.655l.291-1.355h.698c.364 0 .582.301.496.678z" fill="#1A80AD"/><path d="M9.262 12.477c-.617 0-1.104.166-1.463.241l-.114.949c.172-.09.76-.256 1.247-.271.488-.015.775.09.688.512-1.448 0-2.423.3-2.623 1.25-.287 1.625 1.476 1.58 2.165.873l-.086.39h1.305l.559-2.59c.229-1.098-.775-1.369-1.678-1.354zm.1 2.65c-.071.347-.359.497-.688.513-.287.014-.53-.242-.344-.543.143-.256.545-.316.774-.316h.33c-.029.12-.057.226-.072.346zm2.146-2.578h1.305l.21 2.307 1.277-2.307h1.346l-3.1 5.52h-1.459l.954-1.622zm-5.491-1.081H3.58L2.5 16.422h1.43l.35-1.64H5.3c.978 0 1.795-.603 2.014-1.627.248-1.16-.584-1.687-1.298-1.687zm-.044 1.687c-.088.376-.452.677-.817.677h-.67l.306-1.355h.7c.35 0 .583.301.48.678zm20.44-1.059v-.586h-.218v-.079h.527v.079h-.22v.586zm.396 0v-.665h.131l.158.47.032.098.035-.106.16-.462h.118v.665h-.085v-.557l-.194.557h-.078l-.193-.566v.566h-.084z" fill="#1A5B80"/></g></svg>