<svg xmlns="http://www.w3.org/2000/svg" width="30" height="30" viewBox="0 0 30 30">
    <defs>
        <radialGradient id="prefix__a" cx="57.703%" cy="87.676%" r="63.276%" fx="57.703%" fy="87.676%">
            <stop offset="0%" stop-color="#52A347"/>
            <stop offset="50.2%" stop-color="#83B03E"/>
            <stop offset="70.6%" stop-color="#2EA64C"/>
            <stop offset="92.9%" stop-color="#264122"/>
            <stop offset="93.3%" stop-color="#264122"/>
        </radialGradient>
    </defs>
    <path fill="url(#prefix__a)" fill-rule="evenodd" d="M28.38 6.256l.81 2.145c.54 1.584.81 3.244.81 4.981 0 1.737-.27 3.423-.81 5.058l-.368 1.034c-.755 1.856-1.842 3.547-3.202 4.98-1.373 1.414-3 2.533-4.786 3.296-1.889.843-3.84 1.264-5.852 1.264-2.037 0-3.988-.421-5.853-1.264-1.743-.766-3.326-1.864-4.749-3.295-1.398-1.456-2.466-3.116-3.202-4.98-.778-1.93-1.179-4-1.178-6.093v-1.034l9.129 5.402L28.38 6.256zm-1.84-2.797l.957 1.34L9.129 15.797.258 10.509l.405-1.686 8.466 5.057L26.539 3.46zM24.11.969L25.4 2.193l-16.27 9.732-7.877-4.75.736-1.533 7.14 4.253L24.11.968zM20.834-.987l1.73.92L9.13 7.98 2.87 4.263l1.068-1.34 5.19 3.103L20.834-.986z" transform="translate(0 1)"/>
</svg>
