<svg xmlns="http://www.w3.org/2000/svg" width="16" height="16"><path fill="#838B92" d="M15.638 14.079l-3.373-3.374a6.718 6.718 0 0 0 1.27-3.938 6.719 6.719 0 0 0-1.982-4.784A6.722 6.722 0 0 0 6.767 0a6.718 6.718 0 0 0-4.785 1.983A6.721 6.721 0 0 0 .001 6.767c0 1.808.703 3.507 1.981 4.786a6.724 6.724 0 0 0 4.785 1.983 6.705 6.705 0 0 0 3.938-1.27l3.373 3.373a1.1 1.1 0 0 0 1.56 0 1.103 1.103 0 0 0 0-1.56zM3.543 9.992a4.532 4.532 0 0 1-1.336-3.225 4.53 4.53 0 0 1 1.336-3.224 4.528 4.528 0 0 1 3.224-1.337 4.53 4.53 0 0 1 3.225 1.337 4.531 4.531 0 0 1 1.337 3.224 4.531 4.531 0 0 1-1.337 3.226 4.528 4.528 0 0 1-3.225 1.335 4.527 4.527 0 0 1-3.224-1.336z"/></svg>