<svg xmlns="http://www.w3.org/2000/svg" xmlns:xlink="http://www.w3.org/1999/xlink" width="400" height="398"><defs><circle id="a" cx="35.191" cy="35.191" r="35.191"/><circle id="c" cx="29.091" cy="29.091" r="29.091"/><circle id="e" cx="24.047" cy="24.047" r="24.047"/></defs><g fill="none" fill-rule="evenodd"><path fill="#CCCDD2" fill-rule="nonzero" d="M148.622 220.293c0 9.033-7.39 16.423-16.423 16.423H18.3c-9.032 0-16.422-7.39-16.422-16.423V90.91c0-9.032 7.39-16.422 16.422-16.422h113.9c9.033 0 16.423 7.39 16.423 16.422v129.384z"/><path fill="#FFF" fill-rule="nonzero" d="M146.98 218.3c0 9.031-7.39 16.421-16.423 16.421h-113.9c-9.032 0-16.422-7.39-16.422-16.422V88.915c0-9.032 7.39-16.422 16.422-16.422h113.9c9.032 0 16.422 7.39 16.422 16.422v129.384z"/><path fill="#116C93" fill-rule="nonzero" d="M146.98 97.126v-8.211c0-9.032-7.39-16.422-16.423-16.422h-113.9c-9.032 0-16.422 7.39-16.422 16.422v8.211h146.744z"/><path fill="#FFF" fill-rule="nonzero" d="M115.543 90.205c0 .704-.587 1.29-1.29 1.29h-8.916c-.704 0-1.29-.586-1.29-1.29V81.29c0-.703.586-1.29 1.29-1.29h8.915c.704 0 1.29.587 1.29 1.29v8.915zm16.774 0c0 .704-.587 1.29-1.29 1.29h-8.916c-.703 0-1.29-.586-1.29-1.29V81.29c0-.703.587-1.29 1.29-1.29h8.915c.704 0 1.29.587 1.29 1.29v8.915zm-36.129-4.457c0 3.167-2.581 5.865-5.748 5.865H15.25c-3.168 0-5.866-2.58-5.866-5.865 0-3.167 2.58-5.865 5.865-5.865h75.074c3.167 0 5.865 2.58 5.865 5.865z"/><g transform="translate(11.378 112.14)"><mask id="b" fill="#fff"><use xlink:href="#a"/></mask><use fill="#E8FCFF" fill-rule="nonzero" xlink:href="#a"/><g fill-rule="nonzero" mask="url(#b)"><path fill="#873D11" d="M52.903 61.232c1.056 5.161-35.425 4.574-35.425 0 5.748-9.854.235-16.423-.47-29.443-.703-13.02 35.074-9.502 35.778 0 .586 9.501-4.927 22.522.117 29.443z"/><path fill="#F5BA93" d="M46.452 85.513h5.278l-.117-1.877s-.587-16.305-1.173-20.88c-.587-4.574-4.223-4.574-4.223-4.574l-2.58 7.624s2.345 14.429 2.58 17.596c0 .586.117 1.29.235 2.111zm-24.517 0c.235-.938.352-1.76.352-2.229.235-3.05 2.581-17.595 2.581-17.595l-2.58-7.624s-3.637 0-4.223 4.574c-.587 4.575-1.174 20.88-1.174 20.88l-.117 1.994h5.161z"/><path fill="#B28F4B" d="M22.874 79.179l1.408 6.334h19.824l2.111-6.334s3.284-2.463 3.284-4.81c0-2.228-4.222-8.445-4.222-8.445l1.407-7.86-6.334-2.932H28.27l-6.1 2.815 1.29 7.977s-3.401 5.982-3.519 8.446c0 2.58 2.933 4.809 2.933 4.809z"/><path fill="#F5BA93" d="M40.47 55.132s2.228 8.68 1.055 10.91c-1.29 2.462-12.2 2.228-13.724 0-1.408-2.23.469-10.91.469-10.91l1.877-.117v-9.15h8.328v8.798l1.994.469z"/><path fill="#DA9B7E" d="M37.185 53.842c.469-.118.938-.352 1.407-.47v-7.39h-8.328v6.687c2.111.938 4.34 1.876 6.92 1.173z"/><path fill="#F5BA93" d="M52.669 40.821c-1.173.47-2.464-.352-2.464-.352s-5.865.352-5.865-1.29v-5.161c0-3.637 5.865-3.285 5.865-3.285s1.29-1.877 3.167-.586c2.816 2.111 1.525 9.736-.703 10.674zm-34.839 0c1.173.47 2.463-.352 2.463-.352s5.865.352 5.865-1.29v-5.161c0-3.637-5.865-3.285-5.865-3.285s-1.29-1.877-3.167-.586c-2.815 2.111-1.525 9.736.704 10.674z"/><path fill="#F5BA93" d="M50.323 38.71c0 6.803-9.854 14.428-15.25 14.428-5.865 0-15.249-8.094-15.249-14.898V23.93c0-20.176 30.381-21.584 30.381 0 .118 13.841.118 5.044.118 14.78z"/><path fill="#873D11" d="M20.88 31.085c-.118-1.877 3.05-3.519 3.402-10.44 2.697 1.525 15.483 9.032 25.102 10.44-.117 4.106.821 5.396 1.173 6.569v-5.279c0-1.76 2.229-2.463 2.229-2.463v-6.217c0-3.402-3.402-18.886-17.713-15.25C21.466 5.28 15.25 19.59 15.483 23.11c.235 3.519.705 8.328.705 8.328s3.167-2.933 3.519 1.056c.234 2.111 0 4.457 1.642 4.81-.235-1.995-.352-3.755-.47-6.218z"/><path fill="#DA9B7E" d="M34.839 32.14v9.971l1.76-1.407z"/><path fill="#732313" d="M32.258 30.147s-2.698-1.76-4.457-1.29c-1.76.586-3.871 2.463-3.871 2.463l-.235-.939s1.642-1.994 3.988-2.111c2.346-.235 4.575 1.877 4.575 1.877z"/><path fill="#CB4639" d="M30.733 45.63s1.408 1.408 2.229 1.408c.821 0 3.754.235 4.81-.117.351-.117 1.524-1.29 1.524-1.29s-3.402-.118-3.988-.235c-.704 0-4.575.234-4.575.234z"/><path fill="#E44E40" d="M28.504 44.575s2.112.704 2.933.704c.821-.118 2.229-1.29 2.58-1.173.353.117 1.174.469 1.174.469s1.055-.587 1.407-.47c.352 0 2.112 1.174 2.698 1.174.587-.118 1.994-.704 1.994-.704s-1.76 1.173-2.463 1.407c-1.29.352-2.698 0-3.636-.117-1.056-.117-2.698.704-3.989 0-1.173-.586-2.698-1.29-2.698-1.29z"/><path fill="#732313" d="M38.24 29.912s2.698-1.76 4.458-1.29c1.76.586 3.87 2.463 3.87 2.463l.236-.938s-1.643-1.995-3.989-2.112c-2.346-.117-4.575 1.877-4.575 1.877z"/><g transform="translate(37.889 30.968)"><path fill="#2D120E" d="M4.106.704C6.1.704 5.748 2.11 6.452 2.58c.117-.118 1.29-.47 1.29-.47S6.686.351 4.222.351c-2.462 0-3.4 1.76-3.4 1.76s.351 0 .586.118c.469-.47.703-1.525 2.698-1.525z"/><path fill="#FFF" d="M7.155 1.994S6.804 3.52 4.223 3.52C1.76 3.52.703 1.994.703 1.994S1.76.587 4.224.587c2.58 0 2.932 1.407 2.932 1.407z"/><path fill="#2D120E" d="M2.58 1.994c0 .587.235 1.056.704 1.408.352 0 .704.117.939.117.352 0 .704 0 .938-.117a1.67 1.67 0 0 0 .704-1.408c0-.586-.235-1.056-.704-1.407-.352 0-.586-.118-.938-.118s-.704 0-.939.118a1.67 1.67 0 0 0-.703 1.407z"/><circle cx="4.223" cy="1.994" r="1" fill="#170000"/><circle cx="3.754" cy="1.408" r="1" fill="#FFF"/><circle cx="4.106" cy="2.111" r="1" fill="#FFF"/></g><g transform="translate(24.985 30.968)"><path fill="#2D120E" d="M3.52.704C1.524.704 1.876 2.11 1.29 2.58 1.173 2.463 0 2.11 0 2.11S1.056.351 3.52.351c2.462 0 3.4 1.76 3.4 1.76s-.351 0-.586.118C5.748 1.759 5.514.704 3.52.704z"/><path fill="#FFF" d="M.47 1.994S.82 3.52 3.401 3.52c2.463 0 3.519-1.525 3.519-1.525S5.865.587 3.4.587C.822.587.47 1.994.47 1.994z"/><path fill="#2D120E" d="M5.044 1.994c0 .587-.235 1.056-.704 1.408-.352 0-.704.117-.938.117-.352 0-.704 0-.939-.117a1.672 1.672 0 0 1-.703-1.408c0-.586.234-1.056.703-1.407.352 0 .587-.118.939-.118s.704 0 .938.118c.47.351.704.82.704 1.407z"/><circle cx="3.402" cy="1.994" r="1" fill="#170000"/><circle cx="3.871" cy="1.408" r="1" fill="#FFF"/><circle cx="3.519" cy="2.111" r="1" fill="#FFF"/></g></g></g><path fill="#B0AFB5" fill-rule="nonzero" d="M87.625 114.721h47.273v8.915H87.625z"/><path fill="#D8DADE" fill-rule="nonzero" d="M87.625 129.97h47.273v4.457H87.625zm0 9.15h47.273v4.457H87.625zm0 9.15h47.273v4.457H87.625zm0 9.15h47.273v4.456H87.625zm0 9.15h47.273v4.456H87.625zm0 9.148h47.273v4.457H87.625zM17.83 194.487h117.067v4.457H17.83zm0 11.026h117.067v4.457H17.83z"/><path fill="#CCCDD2" fill-rule="nonzero" d="M398.827 250.674c0 7.508-6.1 13.608-13.607 13.608h-94.194c-7.507 0-13.607-6.1-13.607-13.608V143.695c0-7.507 6.1-13.607 13.607-13.607h94.194c7.507 0 13.607 6.1 13.607 13.607v106.98z"/><path fill="#FFF" fill-rule="nonzero" d="M397.537 249.032c0 7.508-6.1 13.607-13.607 13.607h-94.194c-7.507 0-13.607-6.1-13.607-13.607v-106.98c0-7.507 6.1-13.606 13.607-13.606h94.194c7.507 0 13.607 6.1 13.607 13.607v106.98z"/><path fill="#116C93" fill-rule="nonzero" d="M397.537 148.739v-6.804c0-7.507-6.1-13.607-13.607-13.607h-94.194c-7.507 0-13.607 6.1-13.607 13.607v6.804h121.408z"/><path fill="#FFF" fill-rule="nonzero" d="M371.496 143.109c0 .586-.47 1.055-1.056 1.055h-7.39a1.051 1.051 0 0 1-1.056-1.055v-7.39c0-.587.47-1.056 1.056-1.056h7.39c.586 0 1.056.469 1.056 1.055v7.39zm13.959 0c0 .586-.47 1.055-1.056 1.055h-7.39a1.051 1.051 0 0 1-1.056-1.055v-7.39c0-.587.47-1.056 1.056-1.056h7.39c.586 0 1.056.469 1.056 1.055v7.39zm-29.912-3.754c0 2.698-2.112 4.81-4.81 4.81h-62.17c-2.698 0-4.81-2.112-4.81-4.81 0-2.698 2.112-4.81 4.81-4.81h62.17c2.58 0 4.81 2.112 4.81 4.81z"/><g transform="translate(285.396 161.173)"><mask id="d" fill="#fff"><use xlink:href="#c"/></mask><use fill="#E8FCFF" fill-rule="nonzero" xlink:href="#c"/><g fill-rule="nonzero" mask="url(#d)"><path fill="#CE966D" d="M21.035 42.823s1.514 4.215-2.782 7.448c0 0 9.82 10.107 22.71 0 0 0-4.91-.491-3.069-10.107l-16.859 2.66z"/><path fill="#E1AB81" d="M44.155 26.988c0-12.522-6.875-19.314-15.304-19.314-8.43 0-15.263 6.792-15.304 19.314-.491 0-2.987.163-1.555 3.069 0 0 1.555 1.882 1.637 4.296 0 0 .532 1.31 1.35.696 1.882 5.033 5.36 8.92 8.716 11.334 0 0 5.688 3.724 9.943.41 4.051-2.496 7.53-6.22 9.29-11.621.695.245 1.145-.819 1.145-.819.123-2.414 1.637-4.296 1.637-4.296 1.473-2.906-1.064-3.07-1.555-3.07z"/><path fill="#51361D" d="M39.783 27.171c-.573.229-2.401-.758-3.852-.405-1.45.353-3.215 1.428-3.215 1.428l-.223-.618s1.168-2 3.177-2.088c2.201-.737 4.686 1.455 4.113 1.683zm-21.283 0c.573.229 2.4-.758 3.852-.405 1.45.353 3.215 1.428 3.215 1.428l.223-.618s-1.168-2-3.177-2.088c-2.202-.737-4.686 1.455-4.113 1.683z"/><g transform="translate(17.925 28.673)"><path fill="#2D120E" d="M4.303.87C2.262.71 2.442 2.2 1.736 2.546c-.128-.144-1.327-.64-1.327-.64S1.607.257 4.192.46c2.585.2 3.564 2.02 3.564 2.02s-.408-.033-.552.09c-.52-.442-.86-1.541-2.901-1.7z"/><path fill="#FFF" d="M1.23 1.893s.305 1.55 2.837 1.746c2.532.197 3.703-1.377 3.703-1.377S6.8.662 4.267.464C1.726.406 1.23 1.893 1.23 1.893z"/><path fill="#2D120E" d="M5.725 2.173c-.042.661-.338 1.17-.88 1.394-.262-.02-.663.081-1.057.05-.394-.03-.656-.05-1.041-.213-.377-.295-.738-.855-.696-1.517.042-.661.337-1.17.879-1.394.262.02.664-.08 1.058-.05.393.03.656.05 1.041.214.5.437.729.987.696 1.516z"/><ellipse cx="4.296" cy="2.062" fill="#170000" rx="1" ry="1" transform="rotate(4 4.296 2.062)"/><circle cx="4.761" cy="1.186" r="1" fill="#FFF" transform="rotate(4 4.761 1.186)"/><circle cx="4.296" cy="2.062" r="1" fill="#FFF" transform="rotate(4 4.296 2.062)"/></g><g transform="translate(31.429 28.673)"><path fill="#2D120E" d="M4.153.848c-2.04.159-1.676 1.605-2.331 2.058-.145-.123-1.395-.428-1.395-.428S1.407.66 3.992.458c2.585-.2 3.783 1.45 3.783 1.45s-.408.031-.536.175C6.67 1.725 6.194.69 4.153.848z"/><path fill="#FFF" d="M.423 2.4S.918 3.888 3.45 3.691c2.533-.197 3.495-1.936 3.495-1.936S5.783.319 3.251.516C.727.851.423 2.4.423 2.4z"/><path fill="#2D120E" d="M6.133 1.887c.042.662-.188 1.211-.696 1.517-.262.02-.647.183-1.041.214-.394.03-.656.05-1.058-.051-.41-.234-.837-.733-.879-1.394-.041-.662.188-1.211.696-1.516.262-.02.648-.184 1.041-.214.394-.03.656-.051 1.058.05.55.356.846.865.879 1.394z"/><ellipse cx="3.888" cy="2.062" fill="#170000" rx="1" ry="1" transform="rotate(-4 3.888 2.062)"/><circle cx="3.423" cy="1.186" r="1" fill="#FFF" transform="rotate(-4 3.423 1.186)"/><circle cx="3.888" cy="2.062" r="1" fill="#FFF" transform="rotate(-4 3.888 2.062)"/></g><path fill="#843921" d="M24.513 41.273s.168.176 1.048 0c.754-.176 2.077-.433 2.454-.257.377.176 1.069.257 1.31.257.242 0 1.088-.257 1.465-.257s1.808.257 2.436.257c.628-.176 1.067 0 1.067 0s-.69.704-1.444 1.056c-1.257.528-2.317.572-3.523.572-1.207 0-2.175-.173-3.645-.77-1.47-.596-1.168-.858-1.168-.858z"/><path fill="#343433" d="M44.318 27.07c-.49 1.063-2.823 2.536-2.537 3.887 0 .082 0 .082 0 0-.327-.491.041-1.964 0-2.578-.081-1.023-.286-1.964-.49-2.987-.492-2.087-1.105-3.97-2.333-5.77-1.432-2.087-3.069-3.478-5.852-3.355-1.677.082-4.214.49-4.5 2.537-1.433-3.437-7.57-3.356-9.617-.532-1.186 1.678-1.677 3.519-1.964 5.483-.164 1.187-.245 2.414-.45 3.6-.123.697-.245 2.17-.655 2.62 0 0-.409-2.087-2.291-3.028-1.882-.941-.164-10.148.204-11.54 1.924-6.588 7.693-10.434 14.281-11.13 3.315-.368 6.588-1.227 9.985-.982-.737.532-1.514 1.269-2.128 1.964 1.923-.327 3.764-.9 5.81-.777-1.104.818-.573 2.005-1.145 3.233 2.373-.164 4.173 2.823 5.401 4.5-1.146-.286-2.21-.9-3.355-1.227 4.992 1.555 3.15 12.849 1.636 16.081z"/><path fill="#EDEEF0" d="M19.276 47.652l-3.888 2.169s6.875 6.26 13.954 6.301h.245c7.161-.082 12.113-2.128 14.813-7.12l-3.314-1.35s-5.443 4.828-10.107 4.706c0 0-4.952.245-11.703-4.706z"/><path d="M16.534 30.507l-1.555.409-.614-4.133h2.537zm25.656 0l1.596.409.573-4.133h-2.537z" fill="#343433"/></g></g><path fill="#B0AFB5" fill-rule="nonzero" d="M348.505 163.284h39.062v7.39h-39.062z"/><path fill="#D8DADE" fill-rule="nonzero" d="M348.505 175.953h39.062v3.754h-39.062zm39.061 11.261h-39.061v-3.636h39.061zm-39.061 3.871h39.062v3.754h-39.062zm0 7.625h39.062v3.753h-39.062zm0 7.624h39.062v3.636h-39.062zm0 7.507h39.062v3.754h-39.062zm-57.83 15.484h96.774v3.636h-96.774zm0 9.15h96.774v3.754h-96.774z"/><g><path fill="#CCCDD2" fill-rule="nonzero" d="M318.006 101.466c0 6.217-5.044 11.261-11.261 11.261h-77.889c-6.217 0-11.26-5.044-11.26-11.26V13.02c0-6.217 5.043-11.261 11.26-11.261h77.889c6.217 0 11.26 5.044 11.26 11.26v88.446z"/><path fill="#FFF" fill-rule="nonzero" d="M316.95 100.059c0 6.217-5.044 11.26-11.26 11.26H227.8c-6.216 0-11.26-5.043-11.26-11.26V11.613c0-6.217 5.044-11.261 11.26-11.261h77.89c6.216 0 11.26 5.044 11.26 11.26v88.447z"/><path fill="#116C93" fill-rule="nonzero" d="M316.95 17.243v-5.63c0-6.217-5.044-11.261-11.26-11.261H227.8c-6.216 0-11.26 5.044-11.26 11.26v5.631h100.41z"/><path fill="#FFF" fill-rule="nonzero" d="M295.367 12.434c0 .47-.352.938-.939.938h-6.1c-.469 0-.938-.351-.938-.938v-6.1c0-.469.352-.938.938-.938h6.1c.47 0 .939.47.939.938v6.1zm11.613 0c0 .47-.352.938-.939.938h-6.1c-.469 0-.938-.351-.938-.938v-6.1c0-.469.352-.938.938-.938h6.1c.47 0 .938.47.938.938v6.1zm-24.751-3.05a3.955 3.955 0 0 1-3.989 3.988h-51.378a3.955 3.955 0 0 1-3.988-3.988 3.955 3.955 0 0 1 3.988-3.988h51.378c2.112.117 3.989 1.877 3.989 3.988z"/><g transform="translate(224.282 27.449)"><mask id="f" fill="#fff"><use xlink:href="#e"/></mask><use fill="#E8FCFF" fill-rule="nonzero" xlink:href="#e"/><g fill-rule="nonzero" mask="url(#f)"><path fill="#060606" d="M32.023 36.833c-3.87 3.636-12.668 2.932-15.366.938-2.58-1.994-7.625-4.926-5.63-14.662 1.876-9.62 24.867-7.156 25.454 0 .47 7.155-.704 10.205-4.458 13.724z"/><path fill="#F2D4B6" d="M32.023 60.997h3.754l-.117-1.29s-.352-11.613-.821-14.898c-.47-3.284-3.05-3.167-3.05-3.167l-1.877 5.513s1.642 10.323 1.877 12.552c0 .117.117.704.234 1.29zm-17.478 0c.118-.704.235-1.173.235-1.525.235-2.229 1.877-12.551 1.877-12.551l-1.877-5.513s-2.58 0-3.05 3.167c-.469 3.284-.82 14.897-.82 14.897l-.118 1.408h3.753v.117z"/><path fill="#116C93" d="M15.25 56.422l1.055 4.458h14.194l1.524-4.458s2.347-1.76 2.347-3.401c0-1.643-3.05-6.1-3.05-6.1l1.055-5.63-4.457-2.112h-8.68l-4.34 1.994.938 5.63s-2.464 4.34-2.464 6.1c-.234 1.994 1.877 3.52 1.877 3.52z"/><path fill="#F2D4B6" d="M27.8 39.296s1.526 6.217.704 7.742c-.938 1.76-8.68 1.642-9.736 0-1.055-1.642.352-7.742.352-7.742l1.29-.586v-5.983h5.983v5.63l1.408.94z"/><path fill="#DA9B7E" d="M25.455 38.358l1.055-.352v-5.279h-5.982v4.692c1.525.821 3.05 1.525 4.927.939z"/><path fill="#F2D4B6" d="M36.48 29.208c-.82.352-1.759-.234-1.759-.234s-4.222.234-4.222-.822v-3.636c0-2.58 4.222-2.346 4.222-2.346s.939-1.29 2.23-.47c1.993 1.291 1.055 6.804-.47 7.508zm-24.867 0c.821.352 1.76-.234 1.76-.234s4.222.234 4.222-.822v-3.636c0-2.58-4.223-2.346-4.223-2.346s-.938-1.29-2.228-.47c-1.994 1.291-1.056 6.804.469 7.508z"/><path fill="#F2D4B6" d="M34.839 27.683c0 4.81-7.038 10.323-10.792 10.323-4.106 0-10.792-5.748-10.792-10.557V17.243c0-14.428 21.701-15.366 21.701 0-.117 9.736-.117 3.402-.117 10.44z"/><path fill="#060606" d="M13.842 22.17c-.118-1.408 2.228-2.463 2.463-7.507 1.877 1.055 11.026 6.451 17.947 7.39-.117 2.932.587 3.87.821 4.692V22.99c0-1.29 1.643-1.76 1.643-1.76v-4.457c0-2.346-2.464-13.49-12.67-10.909-9.735-2.229-14.075 7.977-13.958 10.44.235 2.463.47 5.865.47 5.865s2.228-2.111 2.58.821c.117 1.525 0 3.167 1.173 3.402-.352-1.173-.352-2.463-.47-4.223z"/><path fill="#DA9B7E" d="M23.812 22.991v7.038l1.173-.938z"/><path fill="#DE8021" d="M21.935 21.584s-1.876-1.29-3.167-.939c-1.173.352-2.698 1.76-2.698 1.76l-.117-.587s1.173-1.407 2.815-1.525c1.525-.234 3.167 1.29 3.167 1.29z"/><path fill="#E24E70" d="M20.88 32.61s1.055.938 1.642 1.056c.587 0 2.698.117 3.402-.118.234-.117 1.055-.938 1.055-.938s-2.463-.117-2.815-.117c-.586-.118-3.284.117-3.284.117z"/><path fill="#E56681" d="M19.238 31.789s1.524.586 2.111.47c.586-.118 1.642-.94 1.877-.822.234.117.82.352.82.352s.822-.352 1.057-.352c.234 0 1.525.821 1.876.821.47 0 1.408-.47 1.408-.47s-1.29.822-1.76.94c-.938.234-1.876 0-2.58 0-.821 0-1.877.468-2.815 0a56.578 56.578 0 0 0-1.994-.94z"/><path fill="#DE8021" d="M26.158 21.349s1.877-1.29 3.168-.821c1.173.352 2.697 1.76 2.697 1.76l.118-.587s-1.173-1.408-2.815-1.525c-1.525-.235-3.168 1.173-3.168 1.173z"/><g transform="translate(25.572 21.818)"><path fill="#2D120E" d="M3.284.821c1.408 0 1.173 1.056 1.643 1.29.117-.117.938-.351.938-.351S5.161.47 3.402.47C1.642.47.938 1.641.938 1.641s.235 0 .352.118c.352-.235.587-.939 1.994-.939z"/><path fill="#FFF" d="M5.513 1.76S5.28 2.815 3.402 2.815C1.642 2.815.938 1.76.938 1.76S1.642.704 3.402.704 5.513 1.76 5.513 1.76z"/><path fill="#2D120E" d="M2.229 1.76c0 .469.234.82.469 1.055h1.408c.351-.234.469-.586.469-1.055 0-.47-.235-.822-.47-1.056H2.699c-.352.234-.47.586-.47 1.056z"/><circle cx="3.402" cy="1.76" r="1" fill="#170000"/><circle cx="3.05" cy="1.29" r="1" fill="#FFF"/><circle cx="3.284" cy="1.76" r="1" fill="#FFF"/></g><g transform="translate(16.188 21.818)"><path fill="#2D120E" d="M3.05.821c-1.408 0-1.173 1.056-1.642 1.29C1.29 1.994.469 1.76.469 1.76S1.173.47 2.933.47s2.463 1.172 2.463 1.172-.235 0-.352.118C4.692 1.525 4.457.82 3.05.82z"/><path fill="#FFF" d="M.821 1.76s.235 1.055 2.112 1.055c1.76 0 2.463-1.055 2.463-1.055S4.692.704 2.933.704C1.173.704.82 1.76.82 1.76z"/><path fill="#2D120E" d="M4.106 1.76c0 .469-.235.82-.47 1.055H2.23c-.352-.234-.47-.586-.47-1.055 0-.47.235-.822.47-1.056h1.407c.352.234.47.586.47 1.056z"/><circle cx="2.933" cy="1.76" r="1" fill="#170000"/><circle cx="3.284" cy="1.29" r="1" fill="#FFF"/><circle cx="3.05" cy="1.76" r="1" fill="#FFF"/></g></g></g><path fill="#B0AFB5" fill-rule="nonzero" d="M276.364 29.208h32.258v6.1h-32.258z"/><path fill="#D8DADE" fill-rule="nonzero" d="M276.364 39.765h32.258v3.05h-32.258zm0 6.217h32.258v3.05h-32.258zm0 6.217h32.258v3.05h-32.258zm0 6.335h32.258v3.05h-32.258zm0 6.217h32.258v3.05h-32.258zm0 6.217h32.258v3.05h-32.258zm-47.742 12.786h80v3.05h-80zm0 7.624h80v3.05h-80z"/></g><g><g fill="#737277" fill-rule="nonzero" opacity=".07" transform="translate(55.132 365.982)"><ellipse cx="136.774" cy="15.367" rx="98.886" ry="10.323"/><ellipse cx="136.774" cy="15.367" rx="91.026" ry="9.501"/><ellipse cx="136.774" cy="15.367" rx="136.54" ry="14.311"/><ellipse cx="136.774" cy="15.367" rx="125.748" ry="13.138"/><ellipse cx="136.774" cy="15.367" rx="116.598" ry="12.199"/><ellipse cx="136.774" cy="15.367" rx="106.628" ry="11.144"/><ellipse cx="136.774" cy="15.367" rx="44.106" ry="4.575"/><ellipse cx="136.774" cy="15.367" rx="40.704" ry="4.223"/><ellipse cx="136.774" cy="15.367" rx="37.654" ry="3.988"/><ellipse cx="136.774" cy="15.367" rx="34.487" ry="3.636"/><ellipse cx="136.774" cy="15.367" rx="60.528" ry="6.334"/><ellipse cx="136.774" cy="15.367" rx="55.718" ry="5.865"/><ellipse cx="136.774" cy="15.367" rx="51.73" ry="5.396"/><ellipse cx="136.774" cy="15.367" rx="47.273" ry="4.927"/><ellipse cx="136.774" cy="15.367" rx="83.636" ry="8.798"/><ellipse cx="136.774" cy="15.367" rx="77.067" ry="8.094"/><ellipse cx="136.774" cy="15.367" rx="71.437" ry="7.507"/><ellipse cx="136.774" cy="15.367" rx="65.337" ry="6.804"/><ellipse cx="136.774" cy="15.367" rx="30.381" ry="3.167"/><ellipse cx="136.774" cy="15.367" rx="27.801" ry="2.933"/><ellipse cx="136.774" cy="15.367" rx="25.924" ry="2.698"/><ellipse cx="136.774" cy="15.367" rx="23.812" ry="2.463"/><ellipse cx="136.774" cy="15.367" rx="22.053" ry="2.346"/><ellipse cx="136.774" cy="15.367" rx="20.176" ry="2.111"/><ellipse cx="136.774" cy="15.367" rx="17.83" ry="1.877"/><ellipse cx="136.774" cy="15.367" rx="16.305" ry="1.76"/><ellipse cx="136.774" cy="15.367" rx="16.305" ry="1.76"/><ellipse cx="136.774" cy="15.367" rx="15.015" ry="1.525"/><ellipse cx="136.774" cy="15.367" rx="13.842" ry="1.408"/><ellipse cx="136.774" cy="15.367" rx="12.669" ry="1.29"/><ellipse cx="136.774" cy="15.367" rx="11.261" ry="1.173"/><ellipse cx="136.774" cy="15.367" rx="10.205" ry="1.056"/><ellipse cx="136.774" cy="15.367" rx="9.501" ry="1.056"/><ellipse cx="136.774" cy="15.367" rx="8.798" ry="1"/><ellipse cx="136.774" cy="15.367" rx="8.094" ry="1"/><ellipse cx="136.774" cy="15.367" rx="7.39" ry="1"/><ellipse cx="136.774" cy="15.367" rx="6.569" ry="1"/><ellipse cx="136.774" cy="15.367" rx="5.982" ry="1"/><ellipse cx="136.774" cy="15.367" rx="5.161" ry="1"/><ellipse cx="136.774" cy="15.367" rx="4.223" ry="1"/><ellipse cx="136.774" cy="15.367" rx="2.933" ry="1"/><ellipse cx="136.774" cy="15.367" rx="1.994" ry="1"/></g><path fill="#F6CEAF" fill-rule="nonzero" d="M88.094 339.355c2.932 6.334 8.446 11.378 14.193 14.78 1.29.821 2.581 1.525 3.871 2.346 2.581 1.525 5.044 3.05 7.508 4.575 1.525.938 2.932 1.76 4.457 2.698 1.173.703 3.167.469 3.52-1.056.351-1.642-.94-2.815-2.112-3.754-1.056-.82-1.994-1.76-2.933-2.698-2.111-1.76-4.105-3.753-6.217-5.513-.469-.352-.938-.821-1.407-1.29.586.352 1.055.82 1.642 1.173 1.29.938 2.698 1.994 3.988 2.932 1.642 1.173 3.402 2.464 5.044 3.637 1.642 1.173 3.167 2.346 4.81 3.519 1.172.82 2.346 1.76 3.519 2.463 1.055.704 2.815 1.056 3.753 0 .47-.586.47-1.407.352-2.111-.117-.821-.821-1.877-1.408-2.464-.586-.586-1.173-1.055-1.642-1.642a86.494 86.494 0 0 0-4.81-4.457c-1.759-1.525-3.635-3.167-5.512-4.575-1.525-1.29-3.05-2.58-4.575-3.754-.704-.586-1.408-1.173-2.229-1.76l21.466 16.892c1.408 1.173 4.927 3.05 6.452.587.587-.821.235-2.698-.235-3.52-.469-.938-1.29-1.524-2.111-2.228-1.642-1.408-3.05-2.933-4.692-4.34-3.402-2.816-6.686-5.748-10.205-8.446-.821-.587-1.525-1.29-2.346-1.76 2.463 2.23 5.395 4.106 8.093 5.983 3.168 2.229 5.279 3.988 7.742 5.513.704.352 1.525 1.056 2.346 1.056 1.173 0 2.581-.235 3.168-1.173.82-1.173-.118-3.52-1.173-4.458-6.335-5.513-10.792-9.15-16.657-12.786 0 0-4.927-3.05-5.396-3.519 0 0 9.501 5.279 15.836 4.106 0 0 8.21-4.106-5.162-6.921 0 0-7.507-3.402-12.2-5.63 0 0-9.031-4.927-19.94-1.643 0 0-8.68-5.396-11.027-7.272l-8.328 10.791c.234-.234 8.445 11.027 10.557 15.719zm211.144-10.675c.586 7.038-1.76 14.077-5.044 19.824-.704 1.29-1.525 2.581-2.23 3.871-1.407 2.581-2.932 5.162-4.34 7.742-.82 1.525-1.642 3.05-2.58 4.575-.704 1.173-2.463 1.994-3.52.704-1.172-1.29-.586-2.933 0-4.34.47-1.29.822-2.58 1.291-3.754.939-2.58 1.76-5.279 2.698-7.86.235-.586.352-1.172.587-1.759-.235.587-.587 1.29-.821 1.877l-2.112 4.575c-.821 1.877-1.76 3.754-2.58 5.748-.822 1.76-1.643 3.636-2.464 5.396-.586 1.29-1.173 2.698-1.877 3.87-.586 1.056-1.994 2.23-3.284 1.76-.704-.235-1.056-.938-1.408-1.642-.352-.704-.234-2.112 0-2.815.235-.822.47-1.525.704-2.346.47-2.112 1.29-4.223 1.994-6.217l2.464-6.687 2.111-5.63c.352-.821.704-1.76 1.056-2.58 0 0-10.323 25.22-10.44 25.336-.704 1.643-2.815 5.044-5.396 3.637-.938-.47-1.525-2.229-1.525-3.167 0-1.056.352-1.994.704-3.05.704-1.994 1.29-4.106 1.994-6.1 1.525-4.105 3.05-8.211 4.692-12.317a65.41 65.41 0 0 1 1.056-2.698c-1.056 3.05-2.698 6.217-4.106 9.267-1.76 3.52-2.58 6.1-4.105 8.68-.352.704-.822 1.643-1.525 2.112-.939.587-2.346 1.056-3.285.587-1.29-.704-1.642-3.05-1.173-4.458 2.815-7.86 4.927-13.255 8.211-19.355 0 0 2.816-5.044 2.933-5.748 0 0-5.748 9.267-11.73 11.379 0 0-9.15.469 1.055-8.563 0 0 4.927-6.686 7.86-10.91 0 0 5.513-8.68 16.54-11.26 0 0 4.926-9.033 5.982-11.73l18.181 7.624c.118-.235-6.92 11.261-6.568 16.422z"/><g fill-rule="nonzero"><path fill="#EDBD97" d="M173.792 177.36s4.34 12.083-7.977 21.35c0 0 28.153 28.973 65.103 0 0 0-14.076-1.408-8.798-28.974l-48.328 7.625z"/><path fill="#116C93" d="M314.135 301.114l-25.572-66.862c-5.63-16.657-20.176-26.745-35.425-32.962-8.211-3.401-16.54-6.803-24.868-10.088-27.8 30.264-62.522 0-62.522 0-5.161 2.816-10.205 5.748-15.367 8.563-14.31 7.977-31.085 13.842-40 28.505l-40.704 71.32s3.754 26.744 14.194 33.548c0 0 2.933-16.422 24.868-14.076l-3.402-16.892 36.012-36.598 5.748 62.17h95.718l7.508-62.17 30.264 34.956-13.49 24.281c22.64-9.384 32.258 6.1 32.258 6.1s11.378-13.842 14.78-29.795"/><path fill="#F6CEAF" d="M240.067 131.965c0-35.895-19.706-55.367-43.87-55.367-24.165 0-43.754 19.472-43.871 55.367-1.408 0-8.564.469-4.458 8.797 0 0 4.458 5.396 4.692 12.317 0 0 1.525 3.754 3.871 1.994 5.396 14.428 15.367 25.572 24.985 32.493 0 0 16.305 10.674 28.505 1.173 11.613-7.155 21.583-17.83 26.627-33.314 1.995.704 3.285-2.346 3.285-2.346.352-6.92 4.692-12.317 4.692-12.317 4.223-8.328-3.05-8.797-4.458-8.797z"/><g transform="rotate(4 -1905.077 2451.423)"><path fill="#2D120E" d="M10.948 1.035c-5.865 0-5.083 3.795-7.038 4.83C3.52 5.52 0 4.485 0 4.485S3.128 0 10.557 0c7.43 0 10.557 4.485 10.557 4.485s-1.173 0-1.564.345c-1.564-1.035-2.737-3.795-8.602-3.795z"/><path fill="#FFF" d="M2.346 4.284s1.15 3.927 8.427 3.927c7.277 0 10.341-4.284 10.341-4.284S18.05 0 10.773 0C3.495.357 2.346 4.284 2.346 4.284z"/><path fill="#2D120E" d="M15.25 4.106c0 1.71-.755 3.079-2.263 3.763-.754 0-1.885.342-3.016.342s-1.886 0-3.017-.342c-1.13-.684-2.262-2.053-2.262-3.763 0-1.711.754-3.08 2.262-3.764C7.708.342 8.84 0 9.971 0c1.13 0 1.885 0 3.016.342 1.508 1.027 2.262 2.395 2.262 3.764z"/><circle cx="11.144" cy="4.106" r="1.76" fill="#170000"/><circle cx="12.317" cy="1.76" r="1" fill="#FFF"/><circle cx="11.144" cy="4.106" r="1" fill="#FFF"/></g><g transform="scale(-1 1) rotate(4 -2101.04 -3160.19)"><path fill="#2D120E" d="M10.948 1.035c-5.865 0-5.083 3.795-7.038 4.83C3.52 5.52 0 4.485 0 4.485S3.128 0 10.557 0c7.43 0 10.557 4.485 10.557 4.485s-1.173 0-1.564.345c-1.564-1.035-2.737-3.795-8.602-3.795z"/><path fill="#FFF" d="M2.346 4.284s1.15 3.927 8.427 3.927c7.277 0 10.341-4.284 10.341-4.284S18.05 0 10.773 0C3.495.357 2.346 4.284 2.346 4.284z"/><path fill="#2D120E" d="M15.25 4.106c0 1.71-.755 3.079-2.263 3.763-.754 0-1.885.342-3.016.342s-1.886 0-3.017-.342c-1.13-.684-2.262-2.053-2.262-3.763 0-1.711.754-3.08 2.262-3.764C7.708.342 8.84 0 9.971 0c1.13 0 1.885 0 3.016.342 1.508 1.027 2.262 2.395 2.262 3.764z"/><circle cx="11.144" cy="4.106" r="1.76" fill="#170000"/><circle cx="12.317" cy="1.76" r="1" fill="#FFF"/><circle cx="11.144" cy="4.106" r="1" fill="#FFF"/></g><path fill="#843921" d="M183.11 172.166s.488.358 3.034 0c2.182-.358 5.703-2.149 6.794-1.79 1.091.357 3.094.524 3.793.524.699 0 3.148-.525 4.239-.525 1.09 0 5.537 1.791 7.356 1.791 1.818-.358 3.088 0 3.088 0s-1.998 1.433-4.18 2.149c-3.636 1.074-7.958 2.129-10.503 1.77-2.91-.358-7.315-.338-10.95-2.128-3.637-1.791-2.671-1.791-2.671-1.791z"/><path fill="#40290F" d="M240.537 132.2c-1.408 3.05-8.094 7.272-7.273 11.143 0 .235 0 .235 0 0-.938-1.408.117-5.63 0-7.39-.235-2.932-.821-5.63-1.408-8.563-1.407-5.982-3.167-11.378-6.686-16.54-4.105-5.982-8.798-9.97-16.774-9.618-4.81.234-12.082 1.407-12.903 7.272-4.106-9.853-21.701-9.618-27.566-1.525-3.402 4.81-4.81 10.088-5.63 15.719-.47 3.402-.705 6.92-1.291 10.323-.352 1.994-.704 6.217-1.877 7.507 0 0-1.173-5.983-6.569-8.68-5.396-2.698-.47-29.091.587-33.08 5.513-18.885 22.052-29.912 40.938-31.906 9.502-1.056 18.886-3.519 28.622-2.815-2.112 1.525-4.34 3.636-6.1 5.63 5.513-.938 10.792-2.58 16.657-2.228-3.167 2.346-1.642 5.747-3.285 9.267 6.804-.47 11.965 8.093 15.484 12.903-3.284-.821-6.334-2.58-9.618-3.52 14.31 4.458 9.032 36.834 4.692 46.1z"/><path fill="#052F41" d="M166.144 191.202L155 197.42s19.707 17.948 40 18.065h.704c20.528-.235 34.721-6.1 42.463-20.41l-9.501-3.872s-15.601 13.842-28.974 13.49c0 0-14.193.704-33.548-13.49z"/></g><path fill="#202020" fill-rule="nonzero" d="M290 363.252c0 3.871-3.815 6.921-8.336 6.921H104.336c-4.662 0-8.336-3.167-8.336-6.92V255.92c0-3.871 3.815-6.921 8.336-6.921h177.328c4.662 0 8.336 3.167 8.336 6.92v107.332z"/><path fill="#414D5A" fill-rule="nonzero" d="M99.015 255.815v58.945c0 28.19-.104 51.055 4.386 51.055H282c4.49 0 5.014-22.866 5.014-51.055v-58.945a3 3 0 0 0-3-3h-182a3 3 0 0 0-3 3z"/><path fill="#FFF" d="M132.663 314.026c0 .74-.189 1.373-.567 1.9-.378.526-.936.925-1.675 1.197-.738.271-1.637.407-2.695.407-1.01 0-1.876-.147-2.598-.442-.721-.294-1.254-.662-1.598-1.104-.343-.441-.515-.884-.515-1.33 0-.294.11-.546.33-.755.22-.21.498-.314.835-.314.295 0 .522.068.68.206.158.137.31.33.454.579.288.478.634.834 1.036 1.07.402.235.95.353 1.644.353.563 0 1.025-.12 1.386-.358.361-.239.541-.512.541-.82 0-.47-.187-.814-.562-1.03-.374-.216-.99-.422-1.85-.619-.969-.228-1.757-.469-2.365-.72-.609-.253-1.095-.585-1.46-.997-.363-.412-.545-.919-.545-1.52 0-.537.168-1.045.505-1.522.337-.478.833-.859 1.49-1.143.656-.285 1.448-.427 2.375-.427.729 0 1.383.072 1.964.216.58.144 1.065.337 1.453.579.389.242.684.51.887.804.203.295.304.583.304.864 0 .308-.108.56-.325.756-.216.196-.524.294-.922.294a1.17 1.17 0 0 1-.738-.235 4.736 4.736 0 0 1-.695-.707 2.512 2.512 0 0 0-.753-.628c-.288-.157-.68-.236-1.175-.236-.508 0-.931.103-1.268.31-.336.205-.505.462-.505.77 0 .281.124.512.371.692.248.18.581.329 1 .446.42.118.997.262 1.732.432.873.203 1.586.445 2.139.726.553.282.972.614 1.257.996.286.383.428.82.428 1.31m10.193-1.943c0-1.092-.256-1.943-.767-2.551-.512-.609-1.2-.913-2.063-.913-.557 0-1.048.136-1.472.407-.425.272-.752.673-.982 1.203-.23.53-.345 1.148-.345 1.854 0 .7.113 1.312.34 1.835.226.524.55.925.971 1.203.421.278.917.417 1.488.417.863 0 1.55-.306 2.063-.918.511-.612.767-1.457.767-2.537m2.861 0a5.99 5.99 0 0 1-.396 2.208 4.84 4.84 0 0 1-1.15 1.737 5.11 5.11 0 0 1-1.795 1.114c-.696.259-1.48.388-2.35.388-.863 0-1.64-.131-2.329-.393a5.207 5.207 0 0 1-1.79-1.123 4.825 4.825 0 0 1-1.15-1.727c-.26-.665-.391-1.399-.391-2.204 0-.811.132-1.554.397-2.227a4.812 4.812 0 0 1 1.138-1.728 5.058 5.058 0 0 1 1.796-1.104c.703-.258 1.48-.387 2.329-.387.863 0 1.647.13 2.35.392a5.149 5.149 0 0 1 1.807 1.12c.5.483.882 1.059 1.143 1.726.261.668.391 1.404.391 2.208m12.487 2.15c0 .333-.106.69-.319 1.07-.212.379-.536.74-.972 1.084-.435.343-.984.62-1.646.829-.661.21-1.407.314-2.236.314-1.762 0-3.138-.483-4.127-1.448-.99-.964-1.484-2.258-1.484-3.881 0-1.099.226-2.07.679-2.915a4.717 4.717 0 0 1 1.965-1.957c.857-.461 1.88-.692 3.072-.692.738 0 1.416.101 2.032.304.617.203 1.14.465 1.568.785.428.32.756.663.982 1.026.226.363.34.701.34 1.015 0 .321-.128.593-.382.815a1.356 1.356 0 0 1-.925.334.974.974 0 0 1-.59-.172c-.157-.115-.333-.3-.528-.555-.348-.497-.712-.87-1.092-1.118-.38-.249-.862-.373-1.447-.373-.843 0-1.522.309-2.038.927-.515.618-.773 1.464-.773 2.537 0 .504.066.966.199 1.388.132.423.324.782.574 1.08.251.298.554.523.91.677.355.154.745.23 1.17.23.571 0 1.06-.124 1.468-.372.407-.249.768-.628 1.082-1.139.174-.3.362-.536.564-.706.202-.17.45-.255.742-.255.348 0 .637.124.867.373.23.248.345.513.345.795m5.108-6.001v7.682c0 .532-.135.934-.405 1.207s-.614.409-1.03.409c-.415 0-.753-.14-1.013-.419-.26-.279-.39-.678-.39-1.197v-7.604c0-.526.13-.922.39-1.188.26-.266.598-.4 1.013-.4.416 0 .76.134 1.03.4s.405.636.405 1.11m-1.403-2.746c-.395 0-.733-.113-1.014-.34-.28-.228-.42-.55-.42-.964 0-.377.143-.687.43-.93a1.506 1.506 0 0 1 1.004-.365c.367 0 .693.11.977.33.284.222.426.543.426.965 0 .409-.139.728-.416.959-.277.23-.606.345-.987.345m11.384 6.666c-.411.143-1.01.295-1.795.455-.786.16-1.33.278-1.631.353-.302.075-.59.222-.865.44-.274.22-.411.525-.411.917 0 .405.161.749.483 1.033.323.284.745.426 1.266.426a3.43 3.43 0 0 0 1.538-.347c.47-.232.815-.531 1.035-.897.253-.405.38-1.07.38-1.998v-.382zm.186 3.87c-.68.502-1.336.88-1.971 1.13-.635.252-1.346.378-2.135.378-.72 0-1.353-.136-1.899-.407-.545-.27-.965-.638-1.26-1.102a2.758 2.758 0 0 1-.443-1.508c0-.732.244-1.355.731-1.871s1.156-.862 2.006-1.039c.179-.039.621-.127 1.328-.264a60.472 60.472 0 0 0 1.816-.377 36.404 36.404 0 0 0 1.641-.417c-.034-.705-.183-1.222-.448-1.552-.263-.33-.81-.495-1.64-.495-.714 0-1.25.095-1.61.284-.361.19-.67.474-.927.852a9.09 9.09 0 0 1-.545.75c-.107.12-.335.18-.685.18-.315 0-.588-.095-.818-.288a.921.921 0 0 1-.344-.74c0-.47.174-.927.525-1.37.35-.445.895-.81 1.635-1.098.741-.287 1.664-.431 2.768-.431 1.235 0 2.206.139 2.913.416.706.278 1.205.717 1.497 1.318.291.6.437 1.397.437 2.39a205.04 205.04 0 0 1-.02 3.056c0 .503.087 1.027.262 1.572.175.546.262.897.262 1.053 0 .275-.135.524-.406.75a1.401 1.401 0 0 1-.921.338c-.288 0-.573-.13-.854-.387-.282-.258-.58-.632-.895-1.122zm5.346-12.584c0-.534.127-.938.38-1.212s.594-.41 1.024-.41c.43 0 .776.135 1.04.405.263.27.394.676.394 1.217v12.469c0 .541-.133.947-.4 1.217-.266.27-.611.406-1.034.406-.416 0-.754-.14-1.014-.42-.26-.28-.39-.682-.39-1.203v-12.469zm8.652 8.724c0 1.063.256 1.879.767 2.45.51.57 1.18.855 2.01.855.706 0 1.315-.292 1.826-.875.51-.584.765-1.42.765-2.508 0-.704-.106-1.31-.318-1.818-.213-.509-.514-.902-.905-1.179a2.304 2.304 0 0 0-1.368-.415 2.53 2.53 0 0 0-1.43.415c-.418.277-.747.678-.987 1.203s-.36 1.149-.36 1.872m-.133-7.929v4.077c.528-.521 1.066-.92 1.614-1.197.549-.277 1.228-.416 2.036-.416.933 0 1.75.21 2.453.63.703.421 1.248 1.03 1.635 1.829.388.798.581 1.745.581 2.84a7.26 7.26 0 0 1-.324 2.224 5.192 5.192 0 0 1-.94 1.755c-.412.496-.91.879-1.497 1.149a4.57 4.57 0 0 1-1.938.406 4.89 4.89 0 0 1-1.22-.147 3.685 3.685 0 0 1-.97-.386 4.388 4.388 0 0 1-.685-.494c-.188-.17-.437-.424-.745-.762v.264c0 .501-.127.881-.38 1.139-.255.257-.577.386-.968.386-.397 0-.714-.129-.95-.386-.237-.258-.356-.638-.356-1.14v-12.546c0-.541.115-.95.345-1.227.23-.277.55-.416.961-.416.433 0 .765.132.998.396.233.264.35.64.35 1.13m45.4 10.685c0 .74-.189 1.373-.566 1.9-.379.526-.937.925-1.676 1.197-.738.271-1.637.407-2.695.407-1.01 0-1.876-.147-2.598-.442-.721-.294-1.254-.662-1.598-1.104-.343-.441-.515-.884-.515-1.33 0-.294.11-.546.33-.755.22-.21.498-.314.835-.314.295 0 .522.068.68.206.158.137.31.33.454.579.288.478.634.834 1.036 1.07.402.235.95.353 1.644.353.563 0 1.025-.12 1.386-.358.361-.239.541-.512.541-.82 0-.47-.187-.814-.561-1.03-.375-.216-.992-.422-1.85-.619-.97-.228-1.758-.469-2.366-.72-.609-.253-1.095-.585-1.459-.997-.364-.412-.546-.919-.546-1.52 0-.537.168-1.045.505-1.522.337-.478.833-.859 1.49-1.143.656-.285 1.448-.427 2.375-.427.729 0 1.383.072 1.964.216.58.144 1.065.337 1.453.579.389.242.684.51.887.804.203.295.304.583.304.864 0 .308-.108.56-.325.756-.216.196-.524.294-.922.294-.289 0-.535-.078-.737-.235a4.736 4.736 0 0 1-.696-.707 2.512 2.512 0 0 0-.753-.628c-.288-.157-.68-.236-1.175-.236-.508 0-.931.103-1.268.31-.336.205-.505.462-.505.77 0 .281.124.512.371.692.248.18.581.329 1 .446.42.118.997.262 1.732.432.873.203 1.586.445 2.139.726.553.282.972.614 1.258.996.285.383.427.82.427 1.31m2.629-7.103h.308v-2.316c0-.43.012-.766.036-1.01.024-.245.09-.455.2-.63.11-.183.267-.331.472-.445.206-.114.435-.171.688-.171.356 0 .678.127.965.38.192.17.314.377.365.621.051.244.077.591.077 1.04v2.531h1.405c.397 0 .7.09.909.269a.866.866 0 0 1 .313.688c0 .359-.149.61-.447.752-.298.144-.724.215-1.278.215h-.902v4.903c0 .417.015.738.046.962.03.225.113.407.247.547.133.14.35.21.652.21.164 0 .386-.027.667-.083.28-.055.5-.083.657-.083.226 0 .43.086.611.259a.848.848 0 0 1 .272.64c0 .43-.246.758-.74.986-.492.228-1.2.342-2.124.342-.877 0-1.54-.14-1.993-.42a1.958 1.958 0 0 1-.888-1.162c-.14-.495-.21-1.156-.21-1.983v-5.118h-.748c-.404 0-.712-.09-.924-.273a.874.874 0 0 1-.319-.694c0-.28.112-.509.334-.688.223-.18.546-.269.97-.269m9.919 4.308h5.143c-.07-.914-.331-1.598-.785-2.052-.453-.454-1.05-.681-1.792-.681-.706 0-1.286.23-1.74.69-.453.461-.729 1.142-.826 2.043m5.548 1.518h-5.548c.007.608.137 1.143.39 1.607.253.464.588.813 1.008 1.048.419.235.88.353 1.387.353.339 0 .649-.038.93-.113.28-.075.552-.193.815-.353.263-.16.505-.331.727-.514.222-.183.509-.43.862-.744.146-.118.354-.177.623-.177.291 0 .527.075.707.226.18.15.27.362.27.637 0 .24-.1.524-.301.847-.201.323-.504.633-.91.93-.404.297-.913.544-1.526.74-.613.196-1.318.294-2.115.294-1.82 0-3.237-.49-4.248-1.47-1.012-.979-1.517-2.308-1.517-3.987 0-.79.124-1.523.374-2.199a4.8 4.8 0 0 1 1.09-1.739 4.76 4.76 0 0 1 1.767-1.111c.7-.258 1.475-.387 2.327-.387 1.108 0 2.059.22 2.851.661.793.44 1.387 1.01 1.782 1.71.395.698.592 1.41.592 2.135 0 .672-.204 1.109-.613 1.308-.408.199-.983.298-1.724.298m7.62.914v2.238c0 .543-.134.95-.403 1.222-.27.271-.61.407-1.024.407-.407 0-.741-.138-1.003-.412-.262-.275-.393-.68-.393-1.217v-7.459c0-1.203.458-1.805 1.375-1.805.47 0 .807.14 1.014.422.207.281.32.696.341 1.246.338-.55.685-.965 1.04-1.246.355-.282.829-.422 1.422-.422s1.168.14 1.727.422c.558.281.838.654.838 1.119 0 .327-.12.596-.357.81-.238.212-.495.318-.77.318-.104 0-.354-.06-.75-.181a3.655 3.655 0 0 0-1.05-.182c-.414 0-.752.103-1.014.31-.262.205-.465.51-.61.916a6.126 6.126 0 0 0-.3 1.448c-.055.56-.083 1.242-.083 2.046"/><path fill="#B28F4B" d="M220.532 309.075c-.633-1.195-1.997-2.617-4.906-2.617-3.44 0-5.69 2.643-7.677 4.977-1.653 1.942-3.215 3.777-5.068 3.777-1.908 0-3.08-1.871-3.08-3.213 0-1.242 1.29-3.046 3.31-3.046 1.958 0 3.002 1.511 3.044 1.572.377.583 1.185.767 1.8.41.617-.359.813-1.128.437-1.717-.185-.283-1.902-2.76-5.28-2.76-3.498 0-5.935 2.92-5.935 5.54 0 2.701 2.342 5.71 5.703 5.71 3.107 0 5.141-2.39 7.112-4.706 1.772-2.08 3.448-4.049 5.634-4.049 1.28 0 2.118.408 2.561 1.244.395.747.393 1.603.392 1.886 0 .165-.093 1.003-.525 1.76-.48.841-1.16 1.234-2.143 1.234-2.036 0-3.14-1.265-3.565-1.75a2.53 2.53 0 0 0-.31-.315 1.374 1.374 0 0 0-.956-.297 1.331 1.331 0 0 0-.896.432c-.451.5-.414 1.253.1 1.728l.05.056c.57.653 2.308 2.641 5.576 2.641 4 0 5.294-3.709 5.294-5.504 0-1.144-.225-2.15-.672-2.993"/><path fill="#202020" fill-rule="nonzero" d="M96.07 370.088h194.37s-2.698 8.563-7.507 11.73H113.666s-15.836-1.525-17.596-11.73z"/><path d="M216.663 132.669c-2.464.234-4.692.586-6.804 1.173-.586.117-1.055.352-1.642.586-9.97 3.285-17.947 1.525-21.818.235l-2.464-1.056c-2.228-.821-4.809-1.29-7.507-1.525-18.885-1.525-21.935 6.452-18.768 15.719 2.815 8.21 7.273 12.434 17.712 12.434 10.44 0 15.719-2.816 17.713-12.434.352-1.643.352-3.05.235-4.458 2.463-2.229 5.044-1.173 6.451-.117-.234 1.525-.234 3.167.118 5.044 1.994 9.619 7.272 12.434 17.712 12.434s14.898-4.223 17.713-12.434c3.284-9.15.234-17.009-18.651-15.601zm-26.041 15.366c-1.643 7.508-5.983 9.736-14.663 9.736-8.563 0-12.317-3.284-14.663-9.736-2.58-7.273-.117-13.372 15.484-12.317 8.68.704 15.601 4.458 13.842 12.317zm41.173.587c-2.346 6.451-5.983 9.736-14.663 9.736-8.563 0-13.02-2.229-14.663-9.736-1.76-7.86 5.161-11.613 13.725-12.317 15.718-1.173 18.181 5.044 15.6 12.317z" fill="#000" fill-rule="nonzero"/></g></g></svg>