<svg xmlns="http://www.w3.org/2000/svg" width="1440" height="711" viewBox="0 0 1440 711">
    <g fill="#FAF8F8" fill-rule="evenodd">
        <path d="M1610.722 923l4.625-533.12h3.028l-.5-369.962c-84.367 119.758-209.2 151.772-374.5 96.04C995.425 32.363 927.95-4.14 695.007 64.979 462.065 134.096 191.508-59.732 49.02 19.918c-94.992 53.099-51.923 176.42 129.208 369.961V923h1432.495z" opacity=".382" transform="matrix(1 0 0 -1 -176 713)"/>
        <path d="M1610.722 948l4.625-533.12h3.028l-.5-369.962c-84.367 119.758-209.2 151.772-374.5 96.04C995.425 57.363 927.95 20.86 695.007 89.979 462.065 159.096 191.508-34.732 49.02 44.918c-94.992 53.099-51.923 176.42 129.208 369.961V948h1432.495z" opacity=".7" transform="matrix(1 0 0 -1 -176 713)"/>
    </g>
</svg>
