<svg xmlns="http://www.w3.org/2000/svg" width="90" height="90" viewBox="0 0 90 90">
    <g fill="none">
        <circle cx="45" cy="45" r="45" fill="#E3E3E3" opacity=".5"/>
        <circle cx="45" cy="45" r="42.065" fill="#FFF"/>
        <g transform="translate(20 23)">
            <g fill="#B28F4B">
                <path d="M32.712 32.41c0-.378-.104-.747-.301-1.068l-1.919-3.088c-.239-.474-.363-.999-.36-1.53V17.21c0-6.176-5.007-11.183-11.183-11.183h-5.161c-6.176 0-11.183 5.007-11.183 11.183v9.513c.002.532-.122 1.057-.361 1.531L.326 31.342c-.198.321-.302.69-.301 1.067.004 1.106.899 2 2.004 2.004h28.678c1.106-.004 2-.899 2.005-2.004z" transform="translate(8.577)"/>
                <path d="M18.949 6.027L23.25 0.006 9.487 0.006 13.788 6.027 13.788 7.748 18.949 7.748z" transform="translate(8.577)"/>
            </g>
            <path fill="#FFF" d="M29.246 18.93v-.55c-.004-1.594-1.296-2.886-2.89-2.89h-.55v-1.721h-1.721v1.72h-.55c-1.597-.005-2.895 1.285-2.9 2.881-.004 1.212.748 2.298 1.884 2.72l1.566.584v3.277h-.55c-.647 0-1.17-.524-1.17-1.17v-.55h-1.72v.55c.004 1.594 1.296 2.886 2.89 2.89h2.82c1.597.006 2.895-1.284 2.9-2.88.005-1.212-.748-2.298-1.884-2.72l-1.566-.584V17.21h.55c.647 0 1.17.524 1.17 1.17v.55h1.721zm-2.477 3.75c.454.177.754.614.757 1.102 0 .646-.524 1.17-1.17 1.17h-.55v-2.633l.963.362zm-2.684-2.838l-.963-.361c-.455-.177-.755-.614-.757-1.101 0-.646.524-1.17 1.17-1.17h.55v2.632z"/>
            <g fill="#FDB62F">
                <path d="M42.149 6.951c-.293-1.765-1.676-3.148-3.44-3.44 1.764-.293 3.147-1.676 3.44-3.442.292 1.766 1.675 3.149 3.44 3.441-1.765.293-3.148 1.676-3.44 3.441zM3.44 24.155C3.149 22.39 1.766 21.006 0 20.714c1.765-.293 3.148-1.676 3.44-3.44.293 1.764 1.676 3.147 3.441 3.44-1.765.292-3.148 1.676-3.44 3.44z" transform="translate(0 1.657)"/>
            </g>
            <path fill="#FEC9A3" d="M49.52 30.018c-.706-1.189-2.223-1.61-3.44-.955l-12.206 5.213c-.215.09-.447.138-.68.137h-15.13c-.95 0-1.72-.77-1.72-1.72s.77-1.72 1.72-1.72h6.881c2.85 0 5.161-2.31 5.161-5.161H15.793c-2.373.001-4.616 1.08-6.099 2.933l-5.393 6.528 6.073 11.131 23.37-5.617c1.01-.233 1.988-.59 2.908-1.066l12.043-6.168c1.198-.753 1.566-2.33.826-3.535z"/>
            <path fill="#54B5F5" d="M0 34.413L0 49.897 11.182 49.897 13.763 47.316 3.441 31.833z"/>
            <circle cx="7.742" cy="45.598" r="1.72" fill="#FFF"/>
        </g>
    </g>
</svg>
