<svg xmlns="http://www.w3.org/2000/svg" width="90" height="90" viewBox="0 0 90 90">
    <g fill="none">
        <circle cx="45" cy="45" r="45" fill="#E3E3E3" opacity=".5"/>
        <circle cx="45" cy="45" r="42.065" fill="#FFF"/>
        <g transform="translate(20 19)">
            <g>
                <path fill="#F67555" d="M18.052 19.136l4.914.89c3.722.674 6.429 3.914 6.429 7.697v7.323c0 .556-.45 1.006-1.007 1.006H.06v-8.329c0-3.783 2.707-7.023 6.43-7.697l4.913-.89h6.649z" transform="translate(20.605 6.441)"/>
                <path fill="#C44F32" d="M14.727 25.394c3.273 0 5.966-2.526 6.235-5.731l-2.91-.527h-6.65l-2.909.527c.269 3.205 2.961 5.731 6.234 5.731z" transform="translate(20.605 6.441)"/>
                <path fill="#FCD0A3" d="M14.727 22.46c-1.836 0-3.324-1.488-3.324-3.324V16.79h6.65v2.346c-.001 1.836-1.49 3.325-3.326 3.325z" transform="translate(20.605 6.441)"/>
                <path fill="#FCD0A3" d="M14.727.069c-3.78 0-6.844 3.064-6.844 6.845v3.91c0 3.781 3.064 6.846 6.844 6.846 3.78 0 6.845-3.065 6.845-6.845V6.914c0-3.78-3.064-6.845-6.845-6.845z" transform="translate(20.605 6.441)"/>
            </g>
            <path fill="#54B5F5" d="M19.247 24.397l5.256.952c3.982.72 6.878 4.188 6.878 8.234v8.91H1.006C.45 42.494 0 42.044 0 41.489v-7.905c0-4.046 2.896-7.513 6.878-8.234l5.256-.952h7.113z"/>
            <path fill="#3687BD" d="M15.69 31.092c3.502 0 6.382-2.703 6.67-6.131l-3.113-.563h-7.113l-3.113.563c.288 3.428 3.168 6.131 6.67 6.131z"/>
            <path fill="#FCD0A3" d="M15.69 27.954c-1.964 0-3.556-1.592-3.556-3.556v-2.51h7.113v2.51c0 1.964-1.592 3.556-3.557 3.556z"/>
            <path fill="#FCD0A3" d="M15.69 4c-4.044 0-7.322 3.278-7.322 7.322v4.184c0 4.044 3.278 7.322 7.322 7.322 4.044 0 7.322-3.278 7.322-7.322v-4.184C23.012 7.278 19.735 4 15.69 4z"/>
            <path fill="#343433" d="M24.07 12.867c-.266.575-1.527 1.37-1.372 2.1 0 .044 0 .044 0 0-.177-.265.022-1.061 0-1.393-.045-.553-.155-1.061-.266-1.614-.266-1.127-.598-2.144-1.261-3.117-.776-1.127-1.661-1.879-3.166-1.812-.908.044-2.28.265-2.435 1.37-.775-1.857-4.095-1.812-5.202-.287-.642.906-.908 1.9-1.062 2.962-.09.641-.133 1.304-.244 1.945-.066.376-.133 1.172-.354 1.415 0 0-.222-1.127-1.24-1.636-1.018-.508-.088-5.482.11-6.234C8.62 3.007 11.742.93 15.305.554c1.793-.2 3.564-.664 5.401-.53-.398.287-.819.685-1.15 1.06C20.595.909 21.59.6 22.698.665c-.598.443-.31 1.084-.62 1.747 1.284-.089 2.258 1.525 2.922 2.431-.62-.154-1.196-.486-1.815-.663 2.7.84 1.704 6.942.885 8.688zM43.122 15.01c-.251.536-1.443 1.278-1.296 1.959 0 .041 0 .041 0 0-.167-.248.02-.99 0-1.3-.042-.516-.147-.99-.251-1.506-.251-1.052-.565-2.002-1.192-2.91-.732-1.052-1.568-1.753-2.99-1.691-.857.041-2.153.247-2.3 1.28-.73-1.734-3.867-1.693-4.912-.27-.606.847-.857 1.775-1.003 2.766-.084.598-.126 1.217-.23 1.815-.063.351-.126 1.094-.335 1.32 0 0-.21-1.051-1.17-1.526-.963-.474-.084-5.117.104-5.819.982-3.321 3.93-5.26 7.296-5.611 1.693-.186 3.366-.62 5.1-.495-.375.268-.773.64-1.086.99.983-.165 1.923-.453 2.969-.392-.565.413-.293 1.011-.586 1.63 1.213-.082 2.133 1.424 2.76 2.27-.585-.145-1.13-.454-1.715-.62 2.55.785 1.61 6.48.837 8.11z"/>
            <circle cx="25" cy="43.837" r="10.163" fill="#7FD061"/>
            <path fill="#FFF" d="M31.108 41.805h-3.07c-.555 0-1.005-.45-1.005-1.006v-3.07c0-.555-.45-1.005-1.007-1.005h-2.052c-.556 0-1.007.45-1.007 1.006v3.069c0 .555-.45 1.006-1.006 1.006h-3.069c-.555 0-1.006.45-1.006 1.006v2.053c0 .556.45 1.006 1.006 1.006h3.07c.555 0 1.005.45 1.005 1.006v3.07c0 .555.45 1.005 1.007 1.005h2.052c.556 0 1.007-.45 1.007-1.006v-3.069c0-.556.45-1.006 1.006-1.006h3.069c.555 0 1.006-.45 1.006-1.006V42.81c0-.556-.45-1.006-1.006-1.006z"/>
            <path fill="#C44F32" d="M45.083 42.494V37.8c0-.416-.338-.754-.754-.754-.417 0-.755.338-.755.754v4.694h1.51z"/>
            <path fill="#3687BD" d="M6.821 42.494v-5.021c0-.417-.337-.755-.754-.755s-.755.338-.755.755v5.02h1.51z"/>
        </g>
    </g>
</svg>
