<svg xmlns="http://www.w3.org/2000/svg" width="90" height="90" viewBox="0 0 90 90">
    <g fill="none">
        <circle cx="45" cy="45" r="45" fill="#E3E3E3" opacity=".5"/>
        <circle cx="45" cy="45" r="42.065" fill="#FFF"/>
        <g>
            <path fill="#F29F5C" d="M40.766 14.435L39.498 4.137l-2.375.293v-.002L32.52 1.836c-.492-.276-1.055-.396-1.617-.344l-7.271.672c-.894.083-1.693.593-2.144 1.369l-5.125 8.821c-.378.652-.081 1.487.623 1.753l.21.08c.403.152.818.24 1.232.275l-.65.565-1.298 1.132-3.696 3.152c-.657.573-.726 1.57-.153 2.228l.375.43c.736.843 2.017.93 2.862.195l1.412 1.62c.46.527 1.132.76 1.779.68.388-.047.767-.208 1.083-.485l1.411 1.62c.461.529 1.134.76 1.78.68.388-.047.767-.206 1.084-.483l.767.662c.736.846 2.018.933 2.863.197l1.042-.91 8.762-6.823.01-.009 3.457-.003-.551-4.475z" transform="translate(20 34)"/>
            <path fill="#D37D42" d="M37.01 16.26l-.009.01-8.761 6.823-1.043.91c-.845.735-2.127.648-2.863-.197l-.767-.663c-.317.277-.696.436-1.084.484-.646.08-1.319-.152-1.78-.68l-1.41-1.62c-.317.276-.696.437-1.084.485-.647.08-1.32-.154-1.778-.681l-1.413-1.62c-.724.63-1.766.655-2.513.12-.383.577-.352 1.36.126 1.908l.374.43c.736.843 2.017.93 2.862.195l1.413 1.62c.459.527 1.132.76 1.778.68.388-.047.767-.208 1.084-.485l1.41 1.62c.461.529 1.134.76 1.78.681.389-.048.768-.207 1.084-.484l.767.663c.736.845 2.018.932 2.864.196l1.042-.909 8.762-6.824.009-.008 3.457-.004-.382-3.107-3.924.458z" transform="translate(20 34)"/>
            <path fill="#F9C295" d="M38.606 20.715l-4.694-4.048-1.306-1.125-.934-.804-4.016-3.462.464-3.949c.157-1.335-.684-2.585-1.98-2.944l-8.755-2.422c-.926-.257-1.905.173-2.343 1.029L13.94 5.139l-4.726-.321-1.21 10.305-.527 4.478 4.6.306.01.008 9.61 8.284 1.048.904c.849.731 2.13.636 2.862-.213l1.402-1.626c.318.275.698.432 1.086.478.647.076 1.319-.16 1.776-.69l1.402-1.629c.318.275.698.434 1.087.48.646.076 1.318-.161 1.774-.69l1.403-1.629c.85.732 2.13.637 2.861-.21l.373-.432c.57-.661.495-1.658-.166-2.227z" transform="translate(20 34)"/>
            <g fill="#E59F6A">
                <path d="M16.579 1.319L15.149.086c.465.616.455 1.493-.07 2.102l-.395.458c-.776.9-2.135 1-3.037.224l-1.49 1.728c-.484.562-1.196.814-1.883.733-.412-.048-.816-.217-1.153-.509L5.633 6.55c-.487.564-1.2.814-1.886.733-.412-.048-.816-.215-1.153-.507L1.106 8.502c-.28.326-.637.545-1.021.659l.633.546c.85.731 2.132.637 2.863-.213l1.402-1.626c.318.275.698.432 1.086.478.647.076 1.318-.16 1.776-.69l1.402-1.628c.318.275.698.434 1.087.48.646.075 1.318-.162 1.774-.692L13.51 4.19c.85.731 2.13.636 2.861-.212l.373-.431c.569-.66.495-1.658-.166-2.227z" transform="translate(20 34) translate(22.027 19.396)"/>
                <path d="M13.986 3.647l-2.572-2.218c-.306-.264-.767-.23-1.031.076-.264.306-.23.768.076 1.031l2.568 2.214.484-.561c.193.166.41.288.636.37.167-.298.107-.681-.16-.912zM9.874 6.396c.176-.298.12-.69-.153-.924L7.411 3.48c-.306-.263-.768-.23-1.031.076-.264.306-.23.768.076 1.031l2.31 1.993.004.002.477-.554c.19.164.403.286.627.368z" transform="translate(20 34) translate(22.027 19.396)"/>
            </g>
            <g fill="#F29F5C">
                <path d="M1.012 18.434l-.557.735c-.606.801-.448 1.942.352 2.548.8.607 1.942.45 2.548-.352l.557-.735c.606-.8.449-1.941-.352-2.548-.8-.606-1.941-.448-2.548.352z" transform="translate(20 34) translate(11.306 1.462)"/>
                <path d="M4.404 19.98l-1.049 1.385c-.606.801-.449 1.942.352 2.548.8.606 1.941.449 2.548-.352l1.048-1.384c.607-.801.449-1.942-.352-2.548-.8-.606-1.941-.449-2.547.352z" transform="translate(20 34) translate(11.306 1.462)"/>
                <path d="M7.684 21.674l-1.43 1.887c-.606.801-.448 1.942.352 2.548.801.606 1.942.449 2.548-.352l1.43-1.887c.606-.8.448-1.941-.353-2.548-.8-.606-1.94-.449-2.547.352z" transform="translate(20 34) translate(11.306 1.462)"/>
                <path d="M10.666 23.76l-1.512 1.997c-.606.8-.449 1.941.352 2.548.8.606 1.941.449 2.548-.352l1.512-1.997c.606-.8.449-1.94-.352-2.547-.8-.607-1.941-.45-2.548.352zM25.818 2.966L21.212.374c-.49-.276-1.054-.396-1.616-.344l-7.271.672c-.894.083-1.693.593-2.144 1.37l-5.125 8.82c-.379.652-.081 1.487.623 1.753l.21.08c1.879.71 4 .105 5.224-1.487l1.963-2.556s4.72 5.466 9.917-.917" transform="translate(20 34) translate(11.306 1.462)"/>
            </g>
            <path fill="#54B5F5" d="M49.897 20.287L47.488.721c-.023-.193-.122-.368-.275-.487-.153-.12-.347-.173-.54-.15l-5.632.694c-1.463.18-2.506 1.517-2.326 2.98l1.934 15.71c.167 1.353 1.322 2.347 2.651 2.347.109 0 .218-.006.329-.02l5.632-.693c.4-.05.685-.414.636-.815z" transform="translate(20 34)"/>
            <path fill="#3580D3" d="M49.897 20.287l-.264-2.148c-.12.176-.312.302-.54.33l-5.904.727c-.115.014-.23.021-.344.021-.994 0-1.895-.53-2.393-1.349l.197 1.6c.166 1.353 1.322 2.347 2.651 2.347.108 0 .218-.006.329-.02l5.632-.693c.4-.05.685-.414.636-.815z" transform="translate(20 34)"/>
            <path fill="#B28F4B" d="M8.861.778L3.23.084c-.193-.023-.386.03-.54.15-.152.119-.251.294-.275.487L.006 20.287c-.05.4.235.766.636.815l5.632.693c.11.014.22.02.329.02 1.329 0 2.484-.994 2.65-2.346l1.935-15.712c.18-1.462-.864-2.8-2.327-2.98z" transform="translate(20 34)"/>
            <path fill="#D75E40" d="M.006 20.287l.264-2.148c.12.176.311.302.54.33l5.903.727c.116.014.231.021.345.021.994 0 1.895-.53 2.393-1.349l-.197 1.6c-.167 1.353-1.322 2.347-2.651 2.347-.109 0-.219-.006-.329-.02l-5.632-.693c-.401-.05-.686-.414-.636-.815z" transform="translate(20 34)"/>
            <g fill="#EBEEF2" transform="translate(20 34) translate(3.119 15.692)">
                <circle cx="42.105" cy="1.462" r="1.413"/>
                <circle cx="1.481" cy="1.462" r="1.413"/>
            </g>
        </g>
    </g>
</svg>
