<svg xmlns="http://www.w3.org/2000/svg" width="90" height="90" viewBox="0 0 90 90">
    <g fill="none">
        <circle cx="45" cy="45" r="45" fill="#E3E3E3" opacity=".5"/>
        <circle cx="45" cy="45" r="42.065" fill="#FFF"/>
        <g transform="translate(25 25)">
            <path fill="#FAF7F7" d="M.02 11.468h39.96V38.98c0 .552-.447 1-1 1H1.02c-.553 0-1-.448-1-1V11.468z"/>
            <path fill="#54B5F5" d="M0.019 3.321L39.98 3.321 39.98 11.468 0.019 11.468z"/>
            <g fill="#6D7A84">
                <path d="M10.396.019L12.98.019 12.98 6.621 10.396 6.621zM20.711.019L23.295.019 23.295 6.621 20.711 6.621zM.082.019L2.666.019 2.666 6.621.082 6.621z" transform="translate(8.312)"/>
            </g>
            <circle cx="20" cy="25.724" r="10.314" fill="#B28F4B"/>
            <path fill="#FFF" d="M26.873 25.118h-4.615c-.217-.805-.847-1.434-1.652-1.652v-4.614c0-.335-.271-.606-.606-.606-.335 0-.606.27-.606.606v4.614c-1.097.294-1.824 1.332-1.725 2.463.099 1.131.995 2.028 2.126 2.127 1.131.098 2.17-.63 2.463-1.726h4.615c.334 0 .606-.271.606-.606 0-.335-.272-.606-.606-.606zM20 26.853c-.623 0-1.129-.506-1.129-1.129s.506-1.129 1.129-1.129 1.129.506 1.129 1.129c-.001.623-.506 1.128-1.129 1.129z"/>
            <path fill="#C8D7DB" d="M37.007 37.653c-.335 0-.606-.271-.606-.606v-6.911c0-.335.271-.606.606-.606.334 0 .606.271.606.606v6.91c0 .336-.272.607-.606.607zM37.007 28.104c-.335 0-.606-.271-.606-.606v-1.774c0-.335.271-.606.606-.606.334 0 .606.271.606.606v1.775c0 .16-.064.314-.178.428-.113.113-.268.177-.428.177z"/>
        </g>
    </g>
</svg>
