<svg xmlns="http://www.w3.org/2000/svg" width="90" height="90" viewBox="0 0 90 90">
    <g fill="none">
        <circle cx="45" cy="45" r="45" fill="#E3E3E3" opacity=".5"/>
        <circle cx="45" cy="45" r="42.065" fill="#FFF"/>
        <g>
            <path fill="#F67555" d="M45.605 50H16.31c-2.424 0-4.395-1.971-4.395-4.395V10.45c0-2.423 1.971-4.394 4.395-4.394L30.957 9.96l14.648-3.906C48.03 6.055 50 8.026 50 10.449v35.156C50 48.03 48.029 50 45.605 50z" transform="translate(20 20)"/>
            <path fill="#F67555" d="M45.605 6.055L30.957 9.96V50h14.648C48.03 50 50 48.029 50 45.605V10.45c0-2.423-1.971-4.394-4.395-4.394z" transform="translate(20 20)"/>
            <path fill="#F1F4F6" d="M37.305 45.605H17.773c-.809 0-1.464-.655-1.464-1.464V6.055h29.296v31.25c0 .388-.154.76-.429 1.035l-6.836 6.836c-.274.275-.647.43-1.035.43z" transform="translate(20 20)"/>
            <path fill="#F1F4F6" d="M30.957 6.055v39.55h6.348c.388 0 .76-.154 1.036-.429l6.835-6.836c.275-.274.43-.647.43-1.035V6.055H30.957z" transform="translate(20 20)"/>
            <path fill="#0A617D" d="M30.957 38.77h-5.86c-.808 0-1.464-.656-1.464-1.465 0-.81.656-1.465 1.465-1.465h5.859c.809 0 1.465.656 1.465 1.465s-.656 1.465-1.465 1.465z" transform="translate(20 20)"/>
            <path fill="#E2E2EA" d="M38.281 36.816c-.809 0-1.465.656-1.465 1.465v7.324h.489c.388 0 .76-.154 1.035-.429l6.836-6.836c.275-.274.43-.647.43-1.035v-.489H38.28z" transform="translate(20 20)"/>
            <path fill="#0A617D" d="M37.793 11.426H24.121c-.809 0-1.465-.656-1.465-1.465V6.543c0-.672.458-1.258 1.11-1.421l2.797-.7V1.466c0-.81.655-1.465 1.464-1.465h5.86c.809 0 1.465.656 1.465 1.465v2.958l2.796.699c.652.163 1.11.749 1.11 1.421v3.418c0 .809-.656 1.465-1.465 1.465z" transform="translate(20 20)"/>
            <path fill="#F2BA23" d="M36.816 31.934H25.098c-.81 0-1.465-.656-1.465-1.465V18.75c0-.809.656-1.465 1.465-1.465h11.718c.81 0 1.465.656 1.465 1.465v11.719c0 .809-.656 1.465-1.465 1.465z" transform="translate(20 20)"/>
            <path fill="#D89D1E" d="M36.816 17.285h-5.859v14.649h5.86c.808 0 1.464-.656 1.464-1.465V18.75c0-.809-.656-1.465-1.465-1.465z" transform="translate(20 20)"/>
            <path fill="#0A617D" d="M29.492 17.285v4.395c0 .809.656 1.465 1.465 1.465s1.465-.656 1.465-1.465v-4.395h-2.93z" transform="translate(20 20)"/>
            <path fill="#08475E" d="M30.957 23.145c.809 0 1.465-.656 1.465-1.465v-4.395h-1.465v5.86z" transform="translate(20 20)"/>
            <path fill="#0A617D" d="M30.957 35.84v2.93c.809 0 1.465-.656 1.465-1.465 0-.81-.656-1.465-1.465-1.465z" transform="translate(20 20)"/>
            <path fill="#C6D0DA" d="M38.281 36.816c-.809 0-1.465.656-1.465 1.465v7.324h.489c.388 0 .76-.154 1.035-.429l6.836-6.836c.275-.274.43-.647.43-1.035v-.489H38.28z" transform="translate(20 20)"/>
            <path fill="#F67555" d="M36.816 31.934H25.098c-.81 0-1.465-.656-1.465-1.465V18.75c0-.809.656-1.465 1.465-1.465h11.718c.81 0 1.465.656 1.465 1.465v11.719c0 .809-.656 1.465-1.465 1.465z" transform="translate(20 20)"/>
            <path fill="#F67555" d="M36.816 17.285h-5.859v14.649h5.86c.808 0 1.464-.656 1.464-1.465V18.75c0-.809-.656-1.465-1.465-1.465z" transform="translate(20 20)"/>
            <path fill="#0A617D" d="M38.148 5.122l-2.796-.7V1.466c0-.81-.656-1.465-1.465-1.465h-2.93v11.426h6.836c.809 0 1.465-.656 1.465-1.465V6.543c0-.672-.458-1.258-1.11-1.421z" transform="translate(20 20)"/>
            <g>
                <path fill="#F1F4F6" d="M3.418 5.86c-.809 0-1.465-.656-1.465-1.465v-2.93C1.953.655 2.61 0 3.418 0s1.465.656 1.465 1.465v2.93c0 .809-.656 1.464-1.465 1.464z" transform="translate(20 20) translate(0 6.543)"/>
                <path fill="#E2E2EA" d="M4.883 4.395v-2.93C4.883.655 4.227 0 3.418 0v5.86c.809 0 1.465-.656 1.465-1.465z" transform="translate(20 20) translate(0 6.543)"/>
                <path fill="#F1F4F6" d="M3.418 41.504c-.654 0-1.229-.434-1.409-1.062L.056 33.606c-.126-.442-.037-.918.24-1.285.276-.367.71-.583 1.169-.583H5.37c.46 0 .893.216 1.17.583.276.367.365.843.239 1.284l-1.954 6.836c-.18.63-.754 1.063-1.408 1.063z" transform="translate(20 20) translate(0 6.543)"/>
                <path fill="#E2E2EA" d="M5.371 31.738H3.418v9.766c.654 0 1.229-.434 1.408-1.062l1.954-6.836c.126-.442.037-.918-.24-1.285-.276-.367-.71-.583-1.169-.583z" transform="translate(20 20) translate(0 6.543)"/>
                <path fill="#0A617D" d="M0 5.371v6.348c0 .809.656 1.465 1.465 1.465H5.37c.81 0 1.465-.656 1.465-1.465V5.37c0-.809-.656-1.465-1.465-1.465H1.465C.655 3.906 0 4.562 0 5.371z" transform="translate(20 20) translate(0 6.543)"/>
                <path fill="#0A617D" d="M5.371 3.906H3.418v9.278h1.953c.81 0 1.465-.656 1.465-1.465V5.37c0-.809-.656-1.465-1.465-1.465z" transform="translate(20 20) translate(0 6.543)"/>
                <path fill="#54B5F5" d="M0 11.719v21.484l.002.037h6.832l.002-.037V11.72H0z" transform="translate(20 20) translate(0 6.543)"/>
                <path fill="#54B5F5" d="M3.418 11.719V33.24h3.416l.002-.037V11.72H3.418z" transform="translate(20 20) translate(0 6.543)"/>
                <path fill="#0A617D" d="M1.953 40.442v1.55c0 .81.656 1.465 1.465 1.465s1.465-.656 1.465-1.465v-1.55h-2.93z" transform="translate(20 20) translate(0 6.543)"/>
                <path fill="#0A617D" d="M1.953 40.244v1.505c0 .943.656 1.708 1.465 1.708s1.465-.765 1.465-1.708v-1.505h-2.93z" transform="translate(20 20) translate(0 6.543)"/>
                <path fill="#0A617D" d="M4.883 41.992v-1.748H3.418v3.213c.809 0 1.465-.656 1.465-1.465z" transform="translate(20 20) translate(0 6.543)"/>
            </g>
        </g>
    </g>
</svg>
