<svg xmlns="http://www.w3.org/2000/svg" width="90" height="90" viewBox="0 0 90 90">
    <g fill="none">
        <circle cx="45" cy="45" r="45" fill="#E3E3E3" opacity=".5"/>
        <circle cx="45" cy="45" r="42.065" fill="#FFF"/>
        <g>
            <path fill="#09213D" d="M19.049 35.862L7.11 31.345 11.527 19.588 13.721 20.412 10.127 29.98 17.682 32.839 22.66 19.588 24.854 20.412z" transform="rotate(-25 93.006 -15.067)"/>
            <path fill="#233952" d="M0 20L0 25.859 10.547 25.859 10.547 15.313z" transform="rotate(-25 93.006 -15.067)"/>
            <path fill="#233952" d="M0 14.141L10.547 14.141 10.547 20 0 20z" transform="rotate(-25 93.006 -15.067)"/>
            <path fill="#F67555" d="M29.453 34.787L35.313 37.005 35.313 15.313 24.766 15.313z" transform="rotate(-25 93.006 -15.067)"/>
            <path fill="#F67555" d="M29.453 5.213L24.766 20 35.313 20 35.313 2.995z" transform="rotate(-25 93.006 -15.067)"/>
            <path fill="#EDEFF3" d="M5.859 20L5.859 25.859 29.453 34.787 29.453 20 17.656 15.313z" transform="rotate(-25 93.006 -15.067)"/>
            <path fill="#EDEFF3" d="M29.453 5.213L5.859 14.141 5.859 20 29.453 20z" transform="rotate(-25 93.006 -15.067)"/>
            <path fill="#233952" d="M32.969 20v15.313c0 2.584 2.103 4.687 4.687 4.687H40V20l-3.516-4.688L32.97 20z" transform="rotate(-25 93.006 -15.067)"/>
            <path fill="#233952" d="M40 0h-2.344c-2.584 0-4.687 2.103-4.687 4.688V20H40V0z" transform="rotate(-25 93.006 -15.067)"/>
        </g>
    </g>
</svg>
