<svg xmlns="http://www.w3.org/2000/svg" width="90" height="90" viewBox="0 0 90 90">
    <g fill="none" fill-rule="evenodd">
        <circle cx="45" cy="45" r="45" fill="#E3E3E3" opacity=".5"/>
        <circle cx="45" cy="45" r="42.065" fill="#FFF"/>
        <g fill-rule="nonzero">
            <path fill="#704537" d="M4.967 17.543L24.38 17.543 24.38 34.57 4.967 34.57z" transform="translate(30.326 25.435)"/>
            <path fill="#90A4AE" d="M27.003 16.559H2.345v-5.742C2.345 4.843 7.188 0 13.162 0h3.29c5.827 0 10.55 4.723 10.55 10.55v6.009z" transform="translate(30.326 25.435)"/>
            <path fill="#78909C" d="M16.454 0h-2.386c5.826 0 10.548 4.724 10.548 10.551v6.008h2.387V10.55C27.003 4.724 22.28 0 16.454 0z" transform="translate(30.326 25.435)"/>
            <path fill="#E8916F" d="M12.287 25.85L17.061 25.85 17.061 33.806 12.287 33.806z" transform="translate(30.326 25.435)"/>
            <path fill="#EBAD88" d="M6.084 18.573v-6.384c0-4.475 3.627-8.103 8.102-8.103h.975c4.475 0 8.103 3.627 8.103 8.103v6.384c0 4.742-3.844 8.586-8.586 8.586h-.008c-4.742 0-8.586-3.844-8.586-8.586z" transform="translate(30.326 25.435)"/>
            <path fill="#E8916F" d="M15.163 4.086h-.978c-.237 0-.472.01-.704.03 4.144.358 7.397 3.835 7.397 8.074v6.382c0 4.34-3.218 7.926-7.397 8.505.388.053.784.082 1.187.082h.011c4.742 0 8.585-3.845 8.585-8.587V12.19c0-4.476-3.627-8.104-8.101-8.104z" transform="translate(30.326 25.435)"/>
            <path fill="#F76C57" d="M10.06 30.46h9.228c4.043 0 7.32 3.278 7.32 7.32v1.285c0 .264-.213.477-.477.477H3.217c-.264 0-.477-.213-.477-.477V37.78c0-4.042 3.277-7.32 7.32-7.32z" transform="translate(30.326 25.435)"/>
            <path fill="#E7387F" d="M19.288 30.46h-2.386c4.042 0 7.32 3.278 7.32 7.32v1.762h1.909c.264 0 .477-.213.477-.477V37.78c0-4.042-3.277-7.32-7.32-7.32z" transform="translate(30.326 25.435)"/>
            <path fill="#FFF7E6" d="M12.2 29.066l-1.547 1.289c-.07.058-.077.161-.016.229l2.21 2.45c.071.079.198.067.254-.023l1.573-2.55-2.29-1.408c-.058-.036-.132-.03-.185.013z" transform="translate(30.326 25.435)"/>
            <path fill="#FFF7E6" d="M17.149 29.066l1.546 1.289c.07.058.076.161.016.229l-2.21 2.45c-.071.079-.198.067-.254-.023l-1.573-2.55 2.29-1.408c.058-.036.132-.03.185.013z" transform="translate(30.326 25.435)"/>
            <path fill="#7D4D3D" d="M24.397 14.853c-1.126.204-1.133 2.284-1.133 2.284s-.821.34-1.121-.149c-.286-.466-5.198-6.206-7.208-11.084-.096-.235-.427-.235-.524 0-2.017 4.878-6.92 10.618-7.206 11.084-.3.489-1.121.15-1.121.15s-.007-2.081-1.133-2.285c0 0-.972-2.513-.433-5.31.66-3.423 2.56-6.69 10.156-6.69 7.595 0 9.496 3.267 10.156 6.69.539 2.797-.433 5.31-.433 5.31z" transform="translate(30.326 25.435)"/>
            <path fill="#704537" d="M24.83 9.543c-.66-3.423-2.56-6.69-10.156-6.69-.415 0-.812.01-1.193.029 6.605.328 8.339 3.425 8.962 6.661.54 2.797-.432 5.31-.432 5.31-.435.079-.703.437-.868.847.551.705.927 1.17 1 1.288.3.489 1.121.15 1.121.15s.006-2.081 1.133-2.285c0 0 .972-2.513.433-5.31z" transform="translate(30.326 25.435)"/>
            <path fill="#FFD740" d="M24.355 21.283h2.727c1.225 0 2.227-1.002 2.227-2.228v-5.092c0-1.225-1.002-2.228-2.227-2.228h-2.727c-.6 0-1.09.491-1.09 1.091v7.366c0 .6.49 1.09 1.09 1.09z" transform="translate(30.326 25.435)"/>
            <path fill="#FFC400" d="M27.082 11.735h-2.386c1.225 0 2.227 1.003 2.227 2.228v5.092c0 1.225-1.002 2.228-2.227 2.228h2.386c1.225 0 2.227-1.003 2.227-2.228v-5.092c0-1.225-1.002-2.228-2.227-2.228z" transform="translate(30.326 25.435)"/>
            <path fill="#78909C" d="M12.299 22.931H3.854c-.12 0-.217-.097-.217-.216v-1.432c0-.32-.26-.58-.58-.58-.319 0-.578.26-.578.58v1.432c0 .758.616 1.375 1.375 1.375h8.445c.32 0 .579-.26.579-.58 0-.32-.26-.579-.58-.579z" transform="translate(30.326 25.435)"/>
            <path fill="#FFF7E6" d="M17.06 39.542v-2.068c0-.176.143-.319.319-.319h5.092c.176 0 .318.143.318.319v2.068h-5.728z" transform="translate(30.326 25.435)"/>
            <path fill="#607D8B" d="M16.424 24.784h-3.5c-.352 0-.637-.285-.637-.637v-1.273c0-.351.285-.636.637-.636h3.5c.352 0 .637.285.637.636v1.273c0 .352-.285.637-.637.637z" transform="translate(30.326 25.435)"/>
            <path fill="#546E7A" d="M16.424 22.238h-2.387c.352 0 .637.285.637.636v1.273c0 .352-.285.637-.637.637h2.387c.352 0 .637-.285.637-.637v-1.273c0-.351-.285-.636-.637-.636z" transform="translate(30.326 25.435)"/>
            <path fill="#FFD740" d="M4.993 21.283H2.266c-1.225 0-2.227-1.002-2.227-2.228v-5.092c0-1.225 1.002-2.228 2.227-2.228h2.727c.6 0 1.09.491 1.09 1.091v7.366c0 .6-.49 1.09-1.09 1.09z" transform="translate(30.326 25.435)"/>
            <path fill="#FFC400" d="M4.993 11.735H2.606c.6 0 1.091.491 1.091 1.092v7.365c0 .6-.49 1.091-1.09 1.091h2.386c.6 0 1.09-.491 1.09-1.091v-7.365c0-.6-.49-1.092-1.09-1.092z" transform="translate(30.326 25.435)"/>
        </g>
    </g>
</svg>
