<svg xmlns="http://www.w3.org/2000/svg" width="90" height="90" viewBox="0 0 90 90">
    <g fill="none">
        <circle cx="45" cy="45" r="45" fill="#E3E3E3" opacity=".5"/>
        <circle cx="45" cy="45" r="42.065" fill="#FFF"/>
        <g>
            <path fill="#CE966D" d="M9.817 38.958s1.48 4.123-2.723 7.285c0 0 9.608 9.888 22.217 0 0 0-4.804-.48-3.002-9.887L9.817 38.958z" transform="translate(27.391 18.587)"/>
            <path fill="#E1AB81" d="M32.433 23.467c0-12.25-6.724-18.895-14.97-18.895-8.247 0-14.931 6.645-14.971 18.895-.48 0-2.922.159-1.522 3.002 0 0 1.522 1.84 1.602 4.202 0 0 .52 1.282 1.32.681 1.842 4.924 5.244 8.726 8.527 11.089 0 0 5.564 3.642 9.727.4 3.963-2.442 7.366-6.085 9.087-11.368.68.24 1.121-.802 1.121-.802.12-2.361 1.6-4.202 1.6-4.202 1.441-2.843-1.04-3.003-1.52-3.003z" transform="translate(27.391 18.587)"/>
            <path fill="#343433" d="M32.594 23.547c-.48 1.04-2.762 2.482-2.482 3.802 0 .08 0 .08 0 0-.32-.48.04-1.921 0-2.522-.08-1-.28-1.921-.48-2.922-.48-2.041-1.081-3.883-2.282-5.644-1.402-2.042-3.003-3.403-5.725-3.282-1.641.08-4.123.48-4.403 2.481-1.4-3.362-7.405-3.282-9.407-.52-1.16 1.642-1.641 3.443-1.921 5.364-.16 1.161-.24 2.361-.44 3.523-.12.68-.24 2.121-.641 2.562 0 0-.401-2.042-2.241-2.963-1.842-.92-.16-9.927.2-11.289 1.88-6.444 7.525-10.206 13.97-10.887C19.984.89 23.187.05 26.509.29c-.72.52-1.481 1.241-2.08 1.922 1.88-.321 3.681-.88 5.683-.761-1.081.801-.56 1.961-1.121 3.162 2.322-.16 4.083 2.762 5.284 4.403-1.12-.28-2.162-.88-3.283-1.2 4.884 1.52 3.083 12.569 1.602 15.732v-.001z" transform="translate(27.391 18.587)"/>
            <path fill="#EDEEF0" d="M8.095 43.681l-3.802 2.122s6.725 6.124 13.65 6.164h.24c7.005-.08 11.849-2.08 14.49-6.965l-3.242-1.32s-5.324 4.723-9.887 4.603c0 0-4.843.24-11.449-4.604z" transform="translate(27.391 18.587)"/>
            <path fill="#343433" d="M5.413 26.909l-1.52.4-.601-4.043h2.482l-.361 3.643zm25.099 0l1.561.4.56-4.043h-2.481l.36 3.643z" transform="translate(27.391 18.587)"/>
        </g>
    </g>
</svg>
