<svg xmlns="http://www.w3.org/2000/svg" width="18" height="19" viewBox="0 0 18 19">
    <g fill="#B28F4B">
        <path stroke="#FFF" stroke-width=".2" d="M8.23 15.691H2.122c-.227 0-.433-.1-.567-.273-.134-.174-.17-.39-.101-.595.694-2.044 2.81-3.47 5.144-3.47 1.087 0 2.13.31 3.018.896.318.21.756.136.977-.165.222-.301.144-.716-.174-.926-.44-.29-.909-.527-1.4-.708.654-.563 1.087-1.35 1.162-2.233.991-.914 2.29-1.415 3.681-1.415 1.087 0 2.13.31 3.018.896.318.21.756.137.977-.165.222-.3.144-.715-.174-.925-.44-.29-.909-.527-1.4-.708.721-.621 1.174-1.516 1.174-2.51 0-1.869-1.606-3.39-3.58-3.39C11.906 0 10.3 1.521 10.3 3.391c0 .99.45 1.88 1.165 2.501-.097.036-.195.074-.291.114-.44.183-.852.408-1.236.672-.53-1.246-1.82-2.128-3.322-2.128-1.974 0-3.58 1.522-3.58 3.391 0 .987.447 1.876 1.16 2.496-1.904.676-3.448 2.128-4.076 3.978-.209.614-.098 1.265.303 1.786.4.522 1.02.82 1.701.82H8.23c.388 0 .702-.297.702-.665 0-.367-.314-.665-.702-.665zM13.878 1.33c1.2 0 2.175.924 2.175 2.06 0 1.137-.976 2.062-2.175 2.062-1.2 0-2.176-.925-2.176-2.061 0-1.137.976-2.061 2.176-2.061zM6.615 5.88c1.2 0 2.176.925 2.176 2.061 0 1.137-.977 2.062-2.176 2.062-1.2 0-2.176-.925-2.176-2.062 0-1.136.976-2.06 2.176-2.06z"/>
        <path d="M17.691 10.86c-.315-.213-.753-.145-.979.154l-3.46 4.578c-.094.104-.212.126-.276.13-.065.004-.192-.004-.3-.102l-2.24-2.037c-.28-.254-.724-.246-.992.02-.269.264-.26.685.02.94l2.242 2.038c.335.303.784.472 1.245.472.04 0 .079-.002.119-.004.502-.032.971-.263 1.286-.635l.024-.03 3.473-4.596c.226-.298.153-.714-.162-.928z"/>
    </g>
</svg>
