<svg xmlns="http://www.w3.org/2000/svg" width="16" height="16" viewBox="0 0 16 16">
    <g fill="#B28F4B">
        <path stroke="#B28F4B" stroke-width=".4" d="M15.441 3.926c-.327-.194-.732-.196-1.062-.008l-2.684 1.517c-.059-.449-.342-.836-.751-1.03.637-1.572-.067-3.368-1.603-4.088C7.805-.403 5.974.205 5.173 1.7 4.271.702 2.766.534 1.666 1.308c-1.1.775-1.449 2.25-.813 3.435-.206.24-.32.546-.32.863v2.957C.19 8.91 0 9.377 0 9.864v4.258c.001 1.029.835 1.862 1.863 1.863h5.323c1.028 0 1.862-.834 1.863-1.863v-2.395h1.33c.668-.002 1.23-.499 1.314-1.161l2.686 1.517c.33.189.735.186 1.062-.008.328-.189.53-.539.528-.917V4.845c.002-.38-.2-.73-.528-.92zM3.194 1.347c.74-.001 1.426.384 1.811 1.015.054.087.153.136.255.125.101-.01.188-.078.223-.175C5.91 1.12 7.118.394 8.37.577c1.253.182 2.204 1.222 2.274 2.486.07 1.264-.76 2.403-1.985 2.723-1.225.32-2.506-.268-3.063-1.406-.045-.09-.137-.149-.24-.148h-.001c-.103 0-.196.06-.24.152-.45.955-1.532 1.436-2.543 1.13-1.01-.306-1.645-1.307-1.489-2.351.156-1.045 1.054-1.817 2.11-1.816h0zm5.323 12.775c-.001.735-.596 1.33-1.331 1.331H1.863c-.735 0-1.33-.596-1.33-1.33V9.863c0-.735.595-1.33 1.33-1.33h5.323c.735 0 1.33.595 1.33 1.33v4.258zm2.661-3.726c0 .441-.357.799-.798.799H9.049v-1.33C9.048 8.834 8.214 8.001 7.186 8H1.863c-.276 0-.55.063-.798.182V5.606c0-.14.04-.279.112-.4.53.622 1.319.964 2.135.928.817-.037 1.571-.448 2.045-1.114.612.89 1.633 1.41 2.712 1.38 1.08-.028 2.071-.602 2.634-1.524.289.128.475.414.475.73v4.79zm4.259.762c0 .19-.101.364-.265.46-.164.095-.366.096-.53.003L11.71 9.964V6.038l2.931-1.657c.165-.093.367-.092.531.003.164.096.265.271.265.46v6.314z"/>
        <path d="M3.194 4.541c.588 0 1.064-.477 1.064-1.064 0-.588-.476-1.065-1.064-1.065-.588 0-1.065.477-1.065 1.065 0 .587.477 1.064 1.065 1.064zm0-1.597c.294 0 .532.239.532.533 0 .294-.238.532-.532.532-.294 0-.533-.238-.533-.532 0-.294.239-.533.533-.533zM7.984 5.073c1.03 0 1.863-.834 1.863-1.863s-.834-1.863-1.863-1.863-1.863.834-1.863 1.863c.002 1.029.835 1.862 1.863 1.863zm0-3.193c.735 0 1.331.595 1.331 1.33 0 .735-.596 1.331-1.33 1.331-.736 0-1.331-.596-1.331-1.33 0-.735.596-1.33 1.33-1.331zM3.395 10.865c.07-.067.097-.166.073-.26-.025-.092-.097-.165-.19-.19-.093-.024-.192.004-.26.073-.83.832-.83 2.18 0 3.011.068.07.167.097.26.073.093-.025.165-.097.19-.19.024-.093-.004-.192-.073-.26-.622-.623-.622-1.633 0-2.257zM6.03 10.488c-.104-.1-.27-.1-.373.003-.103.103-.104.27-.003.374.622.624.622 1.634 0 2.258-.07.067-.097.166-.073.259.025.093.097.165.19.19.093.024.192-.004.26-.073.83-.832.83-2.179 0-3.01z"/>
        <path d="M1.863 11.995c-.003-.733.3-1.435.835-1.937.107-.1.111-.27.01-.376-.1-.107-.27-.111-.376-.01-.64.604-1.002 1.445-1 2.324 0 .88.363 1.72 1.004 2.323.107.096.272.089.37-.016.099-.105.096-.27-.005-.371-.537-.501-.84-1.203-.838-1.937zM6.34 9.681c-.049.052-.075.12-.073.19.002.071.032.138.083.187.534.502.836 1.203.836 1.936 0 .733-.302 1.434-.836 1.937-.107.1-.111.27-.01.376.1.107.269.112.376.011.64-.603 1.003-1.444 1.003-2.324 0-.88-.363-1.72-1.003-2.323-.051-.049-.12-.075-.19-.073-.071.002-.138.032-.186.083z"/>
    </g>
</svg>
