<svg xmlns="http://www.w3.org/2000/svg" width="532" height="546" viewBox="0 0 532 546">
    <g fill="none" fill-rule="evenodd">
        <path fill="#5EB9F5" fill-rule="nonzero" d="M70.238 310.277l70.944 118.07c12.376 20.599 34.83 33.013 58.9 32.568l137.96-2.556c24.072-.446 46.104-13.684 57.798-34.728l67.025-120.612c11.694-21.044 11.274-46.698-1.103-67.296l-70.944-118.07c-12.376-20.599-34.83-33.013-58.9-32.568l-137.96 2.556c-24.072.446-46.104 13.684-57.798 34.728L69.135 242.981c-11.694 21.044-11.274 46.698 1.103 67.296z" opacity=".121"/>
        <path fill="#5EB9F5" fill-rule="nonzero" d="M99 211.519V334.48c0 21.452 11.477 41.275 30.109 52l106.782 61.474c18.632 10.727 41.586 10.727 60.218 0l106.782-61.473c18.632-10.726 30.109-30.549 30.109-52V211.518c0-21.452-11.477-41.275-30.109-52L296.11 98.044c-18.632-10.727-41.586-10.727-60.218 0L129.11 159.518C110.477 170.244 99 190.067 99 211.518z" opacity=".121"/>
        <g>
            <path fill="#FFF" d="M97.5 0L94.141 6.141 88 9.501 94.141 12.859 97.5 19 100.859 12.859 107 9.501 100.859 6.141zM240.5 169L243.152 173.526 248 176 243.152 178.475 240.5 183 237.848 178.475 233 176 237.848 173.526zM247.5 145L248.738 147.262 251 148.5 248.738 149.738 247.5 152 246.263 149.738 244 148.5 246.263 147.262zM73.5 2L74.737 4.262 77 5.5 74.737 6.737 73.5 9 72.263 6.737 70 5.5 72.263 4.262zM47.5 70L44.141 76.141 38 79.501 44.141 82.859 47.5 89 50.859 82.859 57 79.501 50.859 76.141zM23.5 72L24.737 74.262 27 75.5 24.737 76.737 23.5 79 22.263 76.737 20 75.5 22.263 74.262zM67.5 250L64.141 256.141 58 259.501 64.141 262.859 67.5 269 70.859 262.859 77 259.501 70.859 256.141zM43.5 252L44.737 254.262 47 255.5 44.737 256.737 43.5 259 42.263 256.737 40 255.5 42.263 254.262z" transform="translate(113 94)"/>
            <g fill="#FFF">
                <path d="M15.397 91.242c2.608-1.13 4.437-3.847 4.412-7.022-.038-4.157-3.24-7.502-7.154-7.47-3.913.033-7.056 3.43-7.019 7.588.029 3.203 1.942 5.906 4.606 6.97C-.64 93.086.007 104.886.007 104.886l25.787-.214s.434-11.943-10.397-13.43M262.749 169.034c-.366-1.849-2.196-3.294-4.084-3.225-1.873.066-3.578 1.612-3.832 3.46-.271-1.845-1.99-3.376-3.863-3.426-1.89-.052-3.707 1.41-4.055 3.26-.254 1.349.21 2.752.972 3.895.761 1.142 1.802 2.068 2.83 2.98 1.442 1.277 2.773 2.478 4.215 3.756 1.428-1.29 2.644-2.502 4.075-3.792 1.02-.921 2.053-1.856 2.804-3.005.751-1.15 1.203-2.557.938-3.903M279.543 16.043l2.764-.546 4.363-9.563-1.093-5.495s4.218-1.105 5.148 6.189c.93 7.295 1.11 5.355 1.11 5.355s9.075-1.757 9.984-1.12c.662.46 2.696 9.386 3.76 14.235.536 2.44-.52 5.017-2.69 6.048-.31.147-.628.26-.952.323-2.26.447-14.182.899-14.182.899l-4.774.943-3.438-17.268zM271.333 16.098L276.781 34.59 281.513 33.654 277.84 15.206z" transform="translate(113 94) translate(0 107)"/>
            </g>
            <g>
                <path fill="#263238" d="M122.609 295l-100.47-.06C10.054 294.934.263 285.162.265 273.112l.05-251.175C.317 9.881 10.122.11 22.212.117l100.471.059c12.084.007 21.875 9.779 21.872 21.828l-.049 251.177c-.002 12.056-9.807 21.827-21.898 21.819" transform="translate(113 94) translate(82 29)"/>
                <path fill="#FFF" d="M122.577 9.06L103.1 9.048c-2.613-.001-4.732 2.206-4.732 4.929l-.002 3.523c.001 2.724-2.118 4.93-4.73 4.928l-37.97-.022c-2.612-.001-4.73-2.21-4.728-4.933v-3.524c.001-2.724-2.117-4.933-4.73-4.934l-6.85-.004-17.05-.01C13.841 8.997 6.973 15.84 6.972 24.283l-.048 245.165c-.003 8.44 6.855 15.283 15.318 15.289l100.27.058c8.466.005 15.333-6.837 15.336-15.281l.048-245.166c.001-8.44-6.856-15.283-15.319-15.288" transform="translate(113 94) translate(82 29)"/>
                <path fill="#263238" d="M124.045 28.977c0 .066-2.534.14-5.658.166-3.125.026-5.659-.007-5.66-.073 0-.065 2.532-.14 5.658-.166 3.125-.025 5.659.008 5.66.073M124.068 31.865c0 .065-2.533.14-5.657.165-3.126.026-5.659-.006-5.66-.072 0-.066 2.532-.14 5.658-.166 3.124-.026 5.658.006 5.66.073M124.092 34.752c.001.065-2.532.14-5.658.165-3.125.027-5.658-.006-5.658-.072 0-.066 2.531-.14 5.657-.166 3.124-.025 5.659.007 5.66.073M17.501 37.568c.006-.006.107-.012.297-.02l.825-.027 3.045-.072-.084.085-.036-2.202c.005-.41-.036-.795.005-1.268.082-.471.503-.887 1.021-.935.491-.01.923-.032 1.455-.008.549.067 1.016.593 1 1.173.01 1.027.023 2.1.036 3.212l-.142-.14 3.842-.038-.146.149-.043-4.774-.01-1.216c-.002-.374-.23-.625-.54-.904l-1.68-1.651-1.62-1.594-.785-.774c-.27-.259-.482-.527-.794-.591-.303-.081-.638-.017-.882.168-.232.195-.48.474-.715.701l-1.378 1.386c-.867.898-1.77 1.719-2.427 2.495-.277.428-.173.952-.193 1.429l-.003 1.35-.013 2.174-.017 1.39c-.005.322-.01.495-.018.502-.007.007-.015-.151-.026-.46l-.039-1.37c-.013-.626-.03-1.357-.05-2.192l-.025-1.376-.011-.753c-.002-.272.067-.553.212-.802.71-.868 1.558-1.637 2.432-2.561l1.368-1.397c.246-.241.448-.481.74-.733.308-.235.73-.32 1.115-.218.409.089.674.423.922.657l.789.77c.53.52 1.074 1.05 1.624 1.59l1.684 1.647c.134.142.297.263.429.463.124.19.195.417.2.646.005.404.008.812.012 1.222l.036 4.773.002.147h-.148c-1.323.01-2.608.018-3.842.026h-.14v-.14l-.018-3.21c.016-.464-.344-.872-.776-.93-.442-.024-.963-.009-1.393-.005-.413.034-.758.365-.828.745-.037.385-.01.834-.017 1.223V37.62h-.084l-3.096-.022-.806-.014c-.18-.005-.27-.01-.266-.015" transform="translate(113 94) translate(82 29)"/>
                <path fill="#455A64" d="M83.779 229.141c0 .026-.375.05-1.053.074l-2.871.06c-2.424.034-5.772.055-9.471.055-3.7 0-7.049-.021-9.473-.055l-2.87-.06c-.678-.023-1.053-.048-1.053-.074 0-.026.375-.05 1.053-.074l2.87-.06c2.424-.034 5.774-.056 9.473-.056 3.699 0 7.047.022 9.47.056l2.872.06c.678.023 1.053.048 1.053.074M125.888 235.713c0 .105-15.425.19-34.448.19-19.03 0-34.452-.085-34.452-.19s15.422-.189 34.452-.189c19.023 0 34.448.084 34.448.19M104.357 241.896c0 .106-10.605.19-23.684.19-13.083 0-23.685-.084-23.685-.19 0-.104 10.602-.189 23.685-.189 13.079 0 23.684.085 23.684.19" transform="translate(113 94) translate(82 29)"/>
                <path fill="#263238" d="M125.11 251.524l.067.067 1.885 1.886.008-5.593-3.8-.006-.009 5.485 1.849-1.839zm2.14 2.408l-2.14-2.14-2.039 2.026.01-6.129 4.178.006-.008 6.237zM68.481 249.054c-1.077.01-1.947.89-1.94 1.965.01 1.075.893 1.942 1.972 1.934.277-.003.584-.1.941-.296l.031-.018.557.247-.126-.545.025-.028c.333-.365.514-.835.51-1.325-.009-1.075-.892-1.942-1.97-1.934zm1.767 4.081l-.756-.336c-.365.197-.686.295-.979.297-1.157.01-2.105-.922-2.114-2.075-.01-1.154.924-2.101 2.08-2.11 1.158-.01 2.107.922 2.115 2.075.005.514-.18 1.008-.521 1.396l.175.753zM72.982 249.37l1.382 1.265.738 1.795 1.238-3.087-3.358.026zm2.122 3.441l-.866-2.106-1.624-1.476 3.938-.031-1.448 3.613z" transform="translate(113 94) translate(82 29)"/>
                <path fill="#263238" d="M74.404 250.711L74.326 250.59 76.474 249.198 76.552 249.318z" transform="translate(113 94) translate(82 29)"/>
                <path fill="#E8505B" d="M64.05 249.67c-.113-.561-.67-.999-1.243-.976-.568.022-1.083.494-1.159 1.055-.084-.56-.607-1.023-1.176-1.036-.573-.014-1.123.432-1.227.995-.075.41.067.835.3 1.182.232.345.549.626.862.902.438.387.844.75 1.283 1.136.432-.393.8-.763 1.232-1.156.308-.28.62-.566.848-.916.227-.35.362-.778.28-1.186" transform="translate(113 94) translate(82 29)"/>
                <path fill="#263238" d="M131.638 259.354s-.009-.235-.013-.683l-.013-1.989-.031-7.671-.069-28.58.126.125-116.522.063h-.007l.19-.188-.007 38.923-.183-.183 83.38.085 24.342.051 6.531.024 1.693.011c.382.004.583.012.583.012s-.185.008-.56.011l-1.671.012-6.493.023-24.298.052-83.507.085h-.185v-.183l-.005-38.923v-.19h.197l116.522.065h.125v.125l-.068 28.655-.032 7.643-.012 1.967c-.004.44-.013.658-.013.658" transform="translate(113 94) translate(82 29)"/>
                <path fill="#EBEBEB" d="M52.233 227.117L52.086 252.85 19.808 252.667 19.955 226.934z" transform="translate(113 94) translate(82 29)"/>
                <path fill="#263238" d="M52.233 227.117c-.004.003-.059.006-.162.009l-.458.007-1.762.01-6.618.008c-5.677-.013-13.722-.029-23.28-.048l.171-.168-.126 25.73c.039.046-.355-.357-.183-.187h.131l.14.001.28.002.558.003 1.113.007 2.21.012 4.349.027 8.374.054c5.422.04 10.503.076 15.117.108l-.159.157.188-18.638.07-5.225.026-1.383c.008-.316.02-.486.02-.486s.012.148.015.452l.01 1.354.011 5.19-.024 18.738v.157h-.16l-15.116-.063-8.375-.041-4.349-.023c-.732-.004-1.47-.009-2.21-.012l-1.112-.006-.559-.004-.28-.001H19.875l-.035-.002h-.026c.166.17-.237-.23-.195-.193l.167-25.73v-.17l.17.002c9.602.09 17.685.163 23.39.216l6.579.083 1.728.03.439.012c.097.004.145.008.142.01" transform="translate(113 94) translate(82 29)"/>
                <path fill="#E0E0E0" d="M20.93 251.053L50.941 251.223 51.068 228.73 21.058 228.56z" transform="translate(113 94) translate(82 29)"/>
                <path fill="#F5F5F5" d="M20.93 251.053L31.492 237.132 37.934 245.915 42.365 241.264 50.941 251.223zM40.75 235.471c-.007 1.301-1.071 2.35-2.376 2.343-1.305-.008-2.357-1.068-2.35-2.37.008-1.301 1.072-2.35 2.377-2.343 1.305.008 2.357 1.069 2.35 2.37" transform="translate(113 94) translate(82 29)"/>
                <path fill="#263238" d="M74.385 60.181c0 .014-.119.027-.345.038l-.988.036-3.635.06c-3.07.034-7.31.055-11.994.055-4.685 0-8.926-.02-11.996-.055l-3.635-.06-.988-.036c-.226-.011-.344-.024-.344-.038 0-.013.118-.026.344-.038l.988-.036 3.635-.06c3.07-.033 7.311-.054 11.996-.054 4.683 0 8.924.02 11.994.055l3.635.06.988.035c.226.012.345.025.345.038M118.89 198.858l.1.099 2.8 2.801.014-8.31-5.649-.01-.012 8.153 2.748-2.733zm3.18 3.578l-3.18-3.182-3.029 3.012.014-9.108 6.21.01-.014 9.268zM37.819 193.446c-2.122.016-3.834 1.751-3.817 3.866.017 2.116 1.757 3.823 3.878 3.807.545-.005 1.151-.196 1.853-.583l.062-.035 1.096.489-.249-1.075.05-.055c.656-.717 1.013-1.645 1.005-2.609-.017-2.116-1.757-3.822-3.878-3.805zm3.476 8.032l-1.487-.661c-.718.388-1.35.578-1.925.583-2.278.019-4.145-1.814-4.163-4.085-.019-2.27 1.819-4.133 4.097-4.152 2.277-.018 4.144 1.815 4.162 4.085.008 1.012-.356 1.984-1.028 2.748l.344 1.482zM46.678 194.065l2.722 2.492 1.452 3.533 2.435-6.077-6.61.052zm4.176 6.776l-1.703-4.147-3.197-2.905 7.752-.062-2.852 7.114z" transform="translate(113 94) translate(82 29)"/>
                <path fill="#263238" d="M49.479 196.705L49.324 196.468 53.552 193.727 53.706 193.964z" transform="translate(113 94) translate(82 29)"/>
                <path fill="#E8505B" d="M29.097 194.656c-.222-1.105-1.318-1.965-2.447-1.92-1.118.044-2.133.972-2.281 2.077-.166-1.102-1.196-2.014-2.315-2.04-1.129-.027-2.21.85-2.415 1.958-.15.807.131 1.645.589 2.327.457.682 1.081 1.232 1.698 1.776.863.76 1.66 1.476 2.524 2.236.851-.774 1.576-1.502 2.427-2.276.607-.552 1.222-1.114 1.668-1.803.446-.689.714-1.532.552-2.335" transform="translate(113 94) translate(82 29)"/>
                <path fill="#EBEBEB" d="M33.648 60.181c0 2.896-2.354 5.244-5.257 5.244-2.905 0-5.26-2.348-5.26-5.244 0-2.895 2.355-5.243 5.26-5.243 2.903 0 5.257 2.348 5.257 5.243" transform="translate(113 94) translate(82 29)"/>
                <path fill="#455A64" d="M120.086 172.356c0 .105-22.05.19-49.241.19-27.202 0-49.247-.085-49.247-.19s22.045-.19 49.247-.19c27.191 0 49.24.085 49.24.19M120.086 164.178c0 .104-22.05.19-49.241.19-27.202 0-49.247-.086-49.247-.19 0-.105 22.045-.19 49.247-.19 27.191 0 49.24.085 49.24.19M75.206 180.643c0 .105-12.001.19-26.802.19-14.807 0-26.805-.085-26.805-.19 0-.104 11.998-.19 26.805-.19 14.8 0 26.802.086 26.802.19" transform="translate(113 94) translate(82 29)"/>
                <path fill="#263238" d="M68.591 269.746c-.005 1.169-.947 2.112-2.101 2.107-1.156-.005-2.089-.958-2.084-2.126.005-1.17.946-2.114 2.102-2.108 1.155.005 2.087.957 2.083 2.127M75.075 269.775c-.006 1.169-.947 2.113-2.102 2.107-1.155-.004-2.088-.956-2.083-2.126.005-1.169.946-2.113 2.102-2.107 1.155.005 2.087.957 2.083 2.126M81.558 269.805c-.005 1.168-.946 2.113-2.102 2.107-1.155-.004-2.088-.957-2.083-2.127.005-1.169.946-2.112 2.102-2.107 1.155.005 2.088.958 2.083 2.127" transform="translate(113 94) translate(82 29)"/>
                <path fill="#E0E0E0" d="M15.817 141.64L132.347 141.605 132.326 70.542 15.797 70.575z" transform="translate(113 94) translate(82 29)"/>
                <path fill="#F5F5F5" d="M26.564 141.635L59.956 97.068 80.658 124.939 94.689 110.032 122.206 141.608zM89.432 91.6c0 4.148-3.37 7.51-7.528 7.512-4.16.001-7.532-3.36-7.534-7.507 0-4.148 3.37-7.511 7.529-7.512 4.16 0 7.532 3.36 7.533 7.507" transform="translate(113 94) translate(82 29)"/>
                <path fill="#263238" d="M132.023 207.667l-.172-160.752.172.171-116.516.018h-.013l.19-.19-.037 160.753-.153-.153 116.529.153-116.53.155h-.154v-.155l-.035-160.752v-.19h.203l116.516.018h.172v.172l-.086 116.09-.045 32.953-.022 8.722-.01 2.237c-.003.5-.01.75-.01.75" transform="translate(113 94) translate(82 29)"/>
            </g>
            <path fill="#F67555" d="M261.5 18L262.384 19.616 264 20.5 262.384 21.384 261.5 23 260.616 21.384 259 20.5 260.616 19.616zM278.5 56L279.384 57.616 281 58.5 279.384 59.384 278.5 61 277.616 59.384 276 58.5 277.616 57.616zM1.617 156.617L0 157.5 1.617 158.383 2.5 160 3.383 158.383 5 157.5 3.383 156.617 2.5 155zM238.5 28L240.444 31.556 244 33.5 240.444 35.444 238.5 39 236.556 35.444 233 33.5 236.556 31.556zM18.5 131L20.444 134.556 24 136.5 20.444 138.444 18.5 142 16.556 138.444 13 136.5 16.556 134.556zM283.5 214L285.445 217.556 289 219.499 285.445 221.444 283.5 225 281.556 221.444 278 219.499 281.556 217.556z" transform="translate(113 94)"/>
        </g>
    </g>
</svg>
