<svg xmlns="http://www.w3.org/2000/svg" xmlns:xlink="http://www.w3.org/1999/xlink" width="431" height="429" viewBox="0 0 431 429">
    <defs>
        <path id="prefix__a" d="M0.386 0.658L143.451 0.658 143.451 126.943 0.386 126.943z"/>
    </defs>
    <g fill="none" fill-rule="evenodd">
        <path fill="#FFF" d="M148.151 52.677C218.366 68.989 282.228-10.962 353.247 1.96c7.858 1.43 15.695 4.13 21.53 9.249 7.615 6.677 10.915 16.651 12.02 26.351 3.942 34.624-15.414 72.753 3.456 102.781 5.781 9.2 14.59 16.353 21.682 24.712 24.815 29.246 25.341 74.26 1.218 104.005-8.529 10.515-19.712 19.227-26.403 30.843-20.47 35.533 5.487 88.59-26.965 115.225-13.33 10.942-32.395 12.9-50.137 13.342-10.85.27-22.29.022-31.657-5.104-13.178-7.213-18.87-22.04-29.089-32.642-16.355-16.966-43.167-21.674-67.503-19.537-24.334 2.136-47.65 9.997-71.7 14.078-8.36 1.42-17.041 2.371-25.295.481-13.128-3.005-23.305-12.773-30.699-23.34-41.395-59.16-14.695-134.786-23.759-200.261-6.221-44.937-68.655-118.049 11.39-142.072 39.465-11.844 71.128 24.314 106.815 32.605"/>
        <path fill="#F7FBFE" d="M156.975 73.855c61.07 14.178 116.615-55.312 178.385-44.08 6.835 1.243 13.65 3.59 18.727 8.039 6.623 5.804 9.493 14.473 10.454 22.904 3.429 30.093-13.407 63.233 3.006 89.333 5.028 7.995 12.69 14.212 18.858 21.478 21.584 25.42 22.041 64.544 1.059 90.397-7.418 9.139-17.145 16.711-22.964 26.807-17.804 30.884 4.772 77-23.453 100.15-11.595 9.51-28.177 11.212-43.607 11.595-9.439.235-19.388.02-27.535-4.436-11.462-6.269-16.412-19.157-25.3-28.37-14.226-14.747-37.546-18.84-58.712-16.982-21.166 1.857-41.446 8.69-62.362 12.237-7.272 1.233-14.823 2.06-22.002.418-11.418-2.613-20.27-11.102-26.7-20.287C38.823 291.638 62.046 225.908 54.163 169 48.753 129.942-5.55 66.397 64.07 45.517c34.325-10.295 61.865 21.132 92.905 28.338"/>
        <path stroke="#000" stroke-dasharray="8.06 8.06" stroke-linecap="round" stroke-linejoin="round" d="M359.736 231.259c0 72.851-59.118 131.909-132.043 131.909-72.925 0-132.043-59.058-132.043-131.91 0-72.85 59.118-131.907 132.043-131.907 72.925 0 132.043 59.057 132.043 131.908z"/>
        <path fill="#1F8DDF" d="M181 143.836L179.155 146 173 140.164 174.845 138z"/>
        <g>
            <path fill="#1F8DDF" d="M95.691 48.822s-.73-2.38-.795-3.586c-.056-1.051-1.232-2.31-1.534-2.618-.04-.04-.04-.103-.002-.144.54-.601 1.467-.651 2.069-.11l2.456 2.209 1.938-2.157c.638-.708 1.73-.766 2.44-.129l4.152 3.735c.709.637.767 1.73.13 2.439l-5.032 5.596c-.263.291-.713.315-1.005.053l-4.764-4.283c-.291-.263-.315-.713-.053-1.005" transform="translate(81 88)"/>
            <path fill="#5ACAA9" d="M279.896 94.306c3.599 7.608.35 16.694-7.257 20.293-7.608 3.6-16.693.351-20.292-7.257-3.6-7.607-.351-16.693 7.256-20.293 7.608-3.6 16.694-.35 20.293 7.257" transform="translate(81 88)"/>
            <path fill="#FFF" d="M265.457 108L262.949 109.188 259.387 101.66 261.896 100.474zM263.718 100.163s.245-2.478.652-3.616c.354-.99-.245-2.607-.405-3.006-.021-.052.003-.11.053-.134.732-.347 1.605-.034 1.951.697l1.413 2.986 2.62-1.24c.863-.407 1.892-.04 2.3.823l2.388 5.048c.408.863.04 1.892-.822 2.3l-6.802 3.218c-.355.168-.78.017-.948-.339l-2.739-5.79c-.169-.355-.016-.78.339-.947" transform="translate(81 88)"/>
            <path fill="#5ACAA9" d="M29.07 195.807c-1.727 7.162-8.934 11.568-16.096 9.842-7.163-1.727-11.57-8.934-9.842-16.096 1.727-7.163 8.932-11.57 16.096-9.842 7.162 1.726 11.568 8.933 9.842 16.096" transform="translate(81 88)"/>
            <path fill="#FFF" d="M11.705 197.206L9.343 196.636 11.052 189.55 13.413 190.119zM14.826 190.908s1.528-1.554 2.43-2.106c.786-.48 1.267-1.91 1.377-2.27.014-.047.062-.075.11-.063.688.166 1.112.858.946 1.547l-.678 2.811 2.467.596c.813.196 1.312 1.012 1.116 1.823L21.448 198c-.195.812-1.012 1.312-1.824 1.116l-6.405-1.544c-.334-.08-.54-.418-.46-.753l1.315-5.45c.081-.335.417-.54.752-.46" transform="translate(81 88)"/>
            <path fill="#FFC348" d="M48.749 116.92c-1.597 2.877-5.222 3.915-8.098 2.318-2.876-1.596-3.914-5.221-2.317-8.098 1.595-2.875 5.22-3.913 8.097-2.317 2.876 1.596 3.913 5.221 2.318 8.097" transform="translate(81 88)"/>
            <path fill="#FFF" d="M44.761 118.397l-5.57-3.092.736-1.328c.542-.976 1.772-1.328 2.747-.786l2.038 1.13c.976.542 1.328 1.772.787 2.747l-.738 1.33zM46.216 112.87c-.476.858-1.557 1.168-2.414.691-.858-.475-1.168-1.557-.692-2.414.476-.857 1.557-1.168 2.415-.691.857.476 1.167 1.557.69 2.414" transform="translate(81 88)"/>
            <path fill="#FFC348" d="M200.146 6.033c2.108 4.608.081 10.052-4.527 12.16-4.609 2.108-10.053.081-12.16-4.528-2.108-4.608-.081-10.052 4.527-12.16 4.609-2.108 10.053-.08 12.16 4.528" transform="translate(81 88)"/>
            <path fill="#FFF" d="M198.333 12.327l-8.927 4.083-.974-2.129c-.715-1.563-.026-3.41 1.536-4.125l3.265-1.494c1.565-.715 3.411-.027 4.126 1.536l.974 2.129zM192.808 5.471c.629 1.374.025 2.998-1.35 3.626-1.374.629-2.997.024-3.625-1.35-.63-1.373-.025-2.997 1.35-3.626 1.373-.628 2.997-.023 3.625 1.35" transform="translate(81 88)"/>
            <path fill="#1F8DDF" d="M232.277 191.026L230.588 188.823 237.195 183.756 238.885 185.958zM239.572 187.673s2.473-.283 3.671-.125c1.043.138 2.497-.789 2.854-1.03.046-.03.108-.02.142.025.493.643.371 1.562-.27 2.053l-2.622 2.011 1.765 2.302c.58.756.437 1.84-.32 2.42l-4.432 3.4c-.756.579-1.84.437-2.42-.32l-4.58-5.971c-.24-.313-.18-.76.131-.999l5.083-3.897c.311-.24.758-.181.998.131" transform="translate(81 88)"/>
            <path fill="#FF4D41" d="M148.87 50.332c-.552-1.274-2.034-1.859-3.31-1.306l-.207.091-.09-.208c-.555-1.274-2.036-1.858-3.31-1.305-1.276.554-1.86 2.036-1.306 3.311l.09.207 2.006 4.616 4.616-2.005.207-.09c1.275-.555 1.858-2.037 1.305-3.311M38.862 47.868c-.955-.354-2.016.132-2.371 1.086l-.057.156-.156-.058c-.955-.354-2.017.132-2.371 1.087-.354.954.132 2.015 1.086 2.37l.156.058 3.457 1.284 1.284-3.456.058-.156c.354-.954-.132-2.017-1.086-2.37M55.897 182.743c-.254-.986-1.26-1.579-2.246-1.324l-.16.04-.042-.16c-.254-.986-1.26-1.58-2.246-1.325-.986.254-1.58 1.26-1.325 2.246l.042.16.92 3.571 3.571-.92.161-.042c.986-.254 1.579-1.26 1.325-2.246" transform="translate(81 88)"/>
            <path fill="#FDA966" d="M194.711 161.161c-.18.082-.364.157-.544.234-1.434.6-2.88 1.17-4.31 1.71-.945.355-1.886.7-2.807 1.024-4.708 1.661-8.985 2.92-11.672 3.66-1.833.51-2.927.782-2.927.782s-48.34 20.703-72 46.21c-1.51 1.627-2.918 3.271-4.204 4.931-1.002 1.289-1.93 2.59-2.78 3.894-12.052 18.561-13.75 2.708-13.364-11.49.222-8.273 1.156-15.984 1.156-15.984s5.763-5.282 14.988-12.438c16.776-13.02 45.01-32.24 70.861-37.166 2.956-.562 5.706-1.113 8.27-1.641 1.98-.413 3.843-.81 5.602-1.197 3.324-.726 6.269-1.404 8.877-2.016 1.442-.337 2.78-.65 4.028-.945.278-.065.554-.13.826-.19 13.952-3.274 15.647-3.313 17.552 4.463 1.53 6.242-7.635 11.937-17.552 16.16" transform="translate(81 88)"/>
            <g transform="translate(81 88) translate(0 200.057)">
                <mask id="prefix__b" fill="#fff">
                    <use xlink:href="#prefix__a"/>
                </mask>
                <path fill="#FFB87F" d="M143.45 63.8s-.137.315-.41.893c-.072.161-.16.345-.256.555-.009.015-.017.032-.024.055-.057.114-.122.233-.177.362-.128.25-.257.523-.402.82-.153.297-.314.618-.483.955-.433.836-.94 1.808-1.517 2.877-.121.217-.241.434-.363.66-.61 1.108-1.293 2.305-2.047 3.575-.274.465-.563.94-.86 1.429-.49.803-1.012 1.631-1.55 2.475-.539.843-1.11 1.71-1.704 2.579-.732 1.085-1.51 2.185-2.314 3.295-4.973 6.78-11.328 13.81-18.8 18.59-2.137 1.367-4.13 2.773-5.97 4.179-10.042 7.704-15.73 15.65-18.293 19.845H.386l33.792-40.012 10.452-12.38s2.652-3.945 4.805-8.951c1.558-3.631 2.86-7.826 2.691-11.482v-.562c.04-1.173.402-2.305 1.076-3.27l3.816-5.422 1.8-2.547L80.1 12.06 88.127.658s0 .009.008.017l8.115 9.247 2.812 3.214 1.39 1.59 2.691 3.07L143.451 63.8z" mask="url(#prefix__b)"/>
            </g>
            <path fill="#FDA966" d="M208.954 188.758c-2.039 4.31-7.776 4.314-14.243 2.574-6.778-1.817-14.358-5.546-19.334-8.231-3.312-1.794-5.47-3.122-5.47-3.122l5.47-4.011 15.517-11.38s1.575.823 3.817 2.246c6.445 4.089 18.392 13.145 14.243 21.924M204.544 223.903c-2.586 2.866-6.046 3.003-9.833 1.538-6.414-2.478-13.757-9.565-19.334-15.804-5.167-5.779-8.82-10.831-8.82-10.831l8.82-2.062 13.226-3.09s2.735 1.832 6.108 4.723c7.213 6.177 17.345 17.208 9.833 25.526M203.19 249.68c-2.03 2.833-5.068 3.346-8.48 2.516-6.535-1.584-14.449-8.093-19.333-12.607-2.78-2.57-4.578-4.494-4.578-4.494l4.578-1.932 11.497-4.85s3.76 1.538 7.837 4.093c6.325 3.959 13.428 10.365 8.48 17.273" transform="translate(81 88)"/>
            <path fill="#141414" d="M178.062 274.61h-64.386c-8.07 0-14.612-6.543-14.612-14.613V85.343c0-8.07 6.543-14.613 14.612-14.613h64.386c8.07 0 14.612 6.543 14.612 14.613v174.654c0 8.07-6.542 14.613-14.612 14.613" transform="translate(81 88)"/>
            <path stroke="#000" stroke-width=".476" d="M178.062 274.61h-64.386c-8.07 0-14.612-6.543-14.612-14.613V85.343c0-8.07 6.543-14.613 14.612-14.613h64.386c8.07 0 14.612 6.543 14.612 14.613v174.654c0 8.07-6.542 14.613-14.612 14.613z" transform="translate(81 88)"/>
            <path fill="#FFF" d="M184.448 265.363h-77.156c-2.291 0-4.149-1.858-4.149-4.148V85.325c0-2.291 1.858-4.148 4.149-4.148h77.156c2.29 0 4.147 1.857 4.147 4.147v175.89c0 2.291-1.857 4.149-4.147 4.149" transform="translate(81 88)"/>
            <path fill="#FFB87F" d="M103.514 152.888c-3.533 17.385-2.466 18.494-6.945 22.273-.326.274-.68.566-1.067.875 0 0-.007.092-.03.272-.211 1.997-1.74 14.595-7.344 24.406 0 0 11.826 34.34 2.287 54.182l-30.468-.573-2.356-.047-5.465-.103-.004-.55v-.012l-.245-40.887c0-2.624.67-5.202 1.943-7.496l.91-1.638.153-.275.704-1.27 27.198-49.03s.026-.134.08-.376c.443-2.111 2.83-12.583 7.01-17.597.456-.543 1-.972 1.591-1.274 1.675-.86 3.753-.745 5.352.452 3.553 2.662 8.773 8.457 6.696 18.668" transform="translate(81 88)"/>
            <path fill="#FDA966" d="M133.657 281.091c-.731 1.086-1.51 2.186-2.314 3.295-4.973 6.78-11.328 13.81-18.8 18.591-2.137 1.366-4.13 2.772-5.97 4.178-10.042 7.705-15.73 15.65-18.293 19.846h-7.287c.867-2.195 2.233-4.203 3.495-6.204 1.205-1.904 2.394-3.848 3.06-5.985.33-1.036.523-2.121.53-3.206 0-1.245-.497-2.459-.433-3.687.024-.54.072-1.118-.37-1.535-.466-.442-1.189-.579-1.606-1.061-.49-.57-.732-1.294-1.069-1.936-2-3.744-3.326-7.914-5.728-11.45-4.451-6.555-10.453-10.436-15.731-16.414-3.335-3.768-6.155-7.776-6.837-12.847-.04.33-.065.515-.065.515l-6.901 9.545-15.16 14.253 10.452-12.38s2.651-3.946 4.804-8.952c1.559-3.63 2.86-7.825 2.692-11.48v-.563l-.25-40.887c0-2.627.668-5.206 1.945-7.496l.908-1.64.153-.273c.289-.312.538-.714.707-1.27-3.873 12.72-.033 26.506 1.237 40.326.08.843.144 1.695.193 2.546.2 3.126.273 6.283.57 9.352.707 7.264 2.643 14.02 10.316 18.705 2.748 1.67 5.865 2.964 7.938 5.334 2.032 2.33 2.788 5.391 4.121 8.131 2.427 4.99 6.966 9.039 12.405 11.056 5.44 2.017 11.714 1.985 17.17-.088 2.94-1.109 5.599-2.78 8.017-4.685 1.093-.86 2.443-1.358 3.6-2.129 2.74-1.832 6.098-3.897 8.476-6.09 1.285-1.188 2.643-2.314 4.025-3.415" transform="translate(81 88)"/>
            <path fill="#FCD8C9" d="M90.82 142.696c-.822 1.893-1.782 3.725-2.864 5.477-.941 1.518-2.023 3.025-3.576 3.901-.463.264-.983.459-1.515.566.444-2.112 2.83-12.584 7.01-17.598.456-.543.999-.971 1.591-1.273 1.423 2.635.41 6.495-.645 8.927" transform="translate(81 88)"/>
            <path fill="#E89C85" d="M96.569 175.16c-.326.276-.68.567-1.067.876 0 0-.007.092-.03.273-1.836.542-4.942 1.161-9.242 1.016 0 0 7.2-1.102 10.339-2.165" transform="translate(81 88)"/>
            <path fill="#E2F1FD" d="M158.873 207.478L183.659 154.438 108.04 168.302 125.684 182.586 125.235 206.844 147.404 197.465 141.467 192.283z" transform="translate(81 88)"/>
            <path fill="#039BE5" d="M111.36 148.576l72.299-13.255-57.975 28.148-15.02-12.16c-1.031-.834-.609-2.493.696-2.733" transform="translate(81 88)"/>
            <path fill="#0D92D2" d="M125.262 186.27l.422-22.801 57.975-28.148-57.34 51.433c-.412.37-1.068.07-1.057-.484" transform="translate(81 88)"/>
            <path fill="#039BE5" d="M139.023 171.031l44.636-35.71-23.913 51.171c-.437.936-1.65 1.193-2.427.513l-18.296-15.974z" transform="translate(81 88)"/>
            <path fill="#0875AA" d="M139.023 171.031L126.319 186.754 147.404 178.348z" transform="translate(81 88)"/>
            <path fill="#F7FBFE" d="M112.929 104.026L181.878 104.026 181.878 99.784 112.929 99.784zM112.929 114.986L181.878 114.986 181.878 110.744 112.929 110.744zM112.929 125.946L163.423 125.946 163.423 121.703 112.929 121.703zM112.929 228.081L181.878 228.081 181.878 223.84 112.929 223.84zM112.929 239.042L181.878 239.042 181.878 234.8 112.929 234.8zM112.929 250.002L181.878 250.002 181.878 245.76 112.929 245.76z" transform="translate(81 88)"/>
            <path fill="#FF4D41" d="M276.673 138.657c-.953-.354-2.016.131-2.37 1.086l-.058.156-.156-.057c-.954-.356-2.015.131-2.37 1.085-.354.955.132 2.017 1.087 2.37l.155.06 3.457 1.283 1.284-3.457.058-.156c.355-.954-.132-2.015-1.087-2.37M252.57 34.21c-.953-.355-2.015.131-2.37 1.086l-.057.156-.156-.058c-.955-.354-2.016.132-2.37 1.086-.355.955.131 2.016 1.086 2.371l.155.058 3.458 1.284 1.283-3.457.059-.155c.354-.955-.133-2.017-1.087-2.371" transform="translate(81 88)"/>
        </g>
    </g>
</svg>
