<svg xmlns="http://www.w3.org/2000/svg" width="532" height="546" viewBox="0 0 532 546">
    <defs>
        <linearGradient id="prefix__a" x1="-.003%" x2="99.973%" y1="49.994%" y2="49.994%">
            <stop offset="0%" stop-color="#FFCB5D"/>
            <stop offset="100%" stop-color="#FF705D"/>
        </linearGradient>
        <linearGradient id="prefix__b" x1="-.012%" x2="100.028%" y1="49.983%" y2="49.983%">
            <stop offset="0%" stop-color="#FFCB5D"/>
            <stop offset="100%" stop-color="#FF705D"/>
        </linearGradient>
    </defs>
    <g fill="none" fill-rule="evenodd">
        <path fill="#5EB9F5" fill-rule="nonzero" d="M70.238 310.277l70.944 118.07c12.376 20.599 34.83 33.013 58.9 32.568l137.96-2.556c24.072-.446 46.104-13.684 57.798-34.728l67.025-120.612c11.694-21.044 11.274-46.698-1.103-67.296l-70.944-118.07c-12.376-20.599-34.83-33.013-58.9-32.568l-137.96 2.556c-24.072.446-46.104 13.684-57.798 34.728L69.135 242.981c-11.694 21.044-11.274 46.698 1.103 67.296z" opacity=".121"/>
        <path fill="#5EB9F5" fill-rule="nonzero" d="M99 211.519V334.48c0 21.452 11.477 41.275 30.109 52l106.782 61.474c18.632 10.727 41.586 10.727 60.218 0l106.782-61.473c18.632-10.726 30.109-30.549 30.109-52V211.518c0-21.452-11.477-41.275-30.109-52L296.11 98.044c-18.632-10.727-41.586-10.727-60.218 0L129.11 159.518C110.477 170.244 99 190.067 99 211.518z" opacity=".121"/>
        <path fill="#DEDEDE" fill-rule="nonzero" d="M406.435 331.865c1.516-.022 2.96-.652 4.006-1.747 1.046-1.096 1.607-2.564 1.556-4.076l-4.511-196.543c-.07-2.563-1.265-4.966-3.27-6.573-2.003-1.606-4.614-2.253-7.14-1.769l-233.828 44.171c-4.11.757-7.112 4.305-7.168 8.473L153 336l253.435-4.135z"/>
        <path fill="#C2C2C2" fill-rule="nonzero" d="M387.258 334.965l-234.852 8.05-118.908 45.352-.263-3.663L21 388.063l.905 6.4c.224.556.769.919 1.373.912l289.618 3.62c9.47.14 18.703-2.924 26.18-8.688l69.104-53.576c2.071-1.596 3.12-4.172 2.745-6.747l-.277-1.984-23.39 6.965z"/>
        <path fill="#404040" fill-rule="nonzero" d="M410 328.119l-4.54-197.524c-.041-2.588-1.232-5.024-3.25-6.652-2.017-1.627-4.655-2.279-7.2-1.778L161.26 166.338c-4.11.757-7.11 4.305-7.167 8.473L151 337l259-8.881z"/>
        <path fill="#F57656" fill-rule="nonzero" d="M162.921 174.16L160 327 401 318.684 396.662 130z"/>
        <ellipse cx="278" cy="237.5" fill="#FFF" opacity=".941" rx="69" ry="60.5" transform="rotate(-17 278 237.5)"/>
        <ellipse cx="278" cy="237.5" fill="#FFF" stroke="#F57656" opacity=".941" rx="62.5" ry="54.5" transform="rotate(-17 278 237.5)"/>
        <g fill-rule="nonzero">
            <path fill="#01F8F0" d="M40 4V0h-8v44c0 6.618-5.382 12-12 12S8 50.618 8 44s5.382-12 12-12h4v-8h-4C8.972 24 0 32.972 0 44s8.972 20 20 20 20-8.972 20-20V19.962C43.348 22.484 47.494 24 52 24h4v-8h-4c-6.618 0-12-5.382-12-12z" transform="translate(248 201)"/>
            <path fill="#FF2850" d="M44 11V7h-8v44c0 6.618-5.382 12-12 12s-12-5.382-12-12 5.382-12 12-12h4v-8h-4C12.972 31 4 39.972 4 51s8.972 20 20 20 20-8.972 20-20V26.962C47.348 29.484 51.494 31 56 31h4v-8h-4c-6.618 0-12-5.382-12-12z" transform="translate(248 201)"/>
            <path fill="#000" d="M40 11V7h-8v44c0 6.618-5.382 12-12 12S8 57.618 8 51s5.382-12 12-12h4v-8h-4C8.972 31 0 39.972 0 51s8.972 20 20 20 20-8.972 20-20V26.962C43.348 29.484 47.494 31 52 31h4v-8h-4c-6.618 0-12-5.382-12-12z" transform="translate(248 201)"/>
        </g>
        <g fill-rule="nonzero" opacity=".3">
            <path fill="url(#prefix__a)" d="M198.82 78.948c10.066 9.016 11.554 24.222 10.212 37.652-1.342 13.429-4.99 26.989-2.451 40.258 2.598 13.38 11.33 24.767 23.59 30.762 12.402 5.776 26.886 4.916 38.515-2.287 11.861-7.618 20.702-22.168 34.81-22.562 12.08-.335 21.27 10.021 31.235 16.823 15.905 10.859 36.137 13.225 54.125 6.33 17.988-6.894 31.436-22.17 35.977-40.864 1.97-8.098 1.794-17.638-4.07-23.552-5.865-5.913-15.173-6.161-23.43-5.418-20.163 1.82-39.887 7.457-60.107 8.506-20.22 1.049-42.236-3.394-55.964-18.25-18.513-19.955-16.47-51.692-30.243-75.186-9.811-16.73-26.886-27.923-46.161-30.264-19.276-2.34-38.54 4.442-52.082 18.335-7.907 8.113-13.626 18.818-13.947 30.136-.291 10.195 8.053 33.835 21.46 31.65 6.303-1.02 11.176-7.18 18.237-7.997 7.3-.981 14.675 1.173 20.293 5.928z" style="mix-blend-mode:screen" transform="translate(37 62)"/>
            <path fill="url(#prefix__b)" d="M59.815 194.436c4.8 9.06 14.706 14.653 24.801 16.284 10.096 1.631 20.527-.218 30.419-3 26.339-7.467 50.342-21.501 69.75-40.783 10.927-10.91 20.658-23.683 34.474-30.587 13.816-6.904 33.686-5.316 41.068 8.244 9.03 16.604-5.646 39.457 4.595 55.348 5.588 8.739 16.91 11.87 27.238 11.652 10.33-.219 20.425-2.913 30.812-3.146 10.388-.233 21.665 2.796 27.428 11.36 5.237 7.75 4.478 18.528-.263 26.597-9.629 16.386-31.862 20.784-50.639 17.697-18.776-3.088-36.253-11.77-54.986-15.075-18.732-3.307-40.849.495-51.061 16.516-7.835 12.294-6.565 28.417-12.955 41.511-7.076 14.566-22.934 23.305-38.953 25.504-16.019 2.2-32.271-1.282-47.765-5.913-15.902-4.763-32.256-11.361-42.38-24.5-5.399-7.005-8.55-17.157-3.663-24.527 4.581-6.89 14.59-8.987 18.222-16.444 4.29-9.001-4.07-19.43-13.436-22.897-9.367-3.466-19.827-2.913-29.179-6.277C10.212 227.324.336 214.303.437 200.452c.103-13.852 11.06-27.165 24.802-28.898 8.958-1.121 18.018 2.36 25.327 7.647 7.309 5.287 13.13 12.322 18.965 19.27l-9.716-4.035z" style="mix-blend-mode:screen" transform="translate(37 62)"/>
        </g>
        <path fill="#DEDEDE" fill-rule="nonzero" d="M150.882 336.852L410 328l-72.446 56.289c-7.478 5.776-16.713 8.847-26.183 8.706L21.747 389.31c-.807.144-1.578-.389-1.723-1.19-.145-.802.39-1.568 1.197-1.713l129.661-49.555z"/>
        <path fill="#404040" fill-rule="nonzero" d="M192.63 339c.524 0 .494.161-.105.403l-4.257 1.774c-.665.268-1.36.437-2.068.5l-7.838.323c-.54 0-.465-.161.15-.42l4.316-1.757c.656-.26 1.342-.422 2.038-.484l7.763-.339zM182.654 342c.516 0 .444.148-.143.364l-8.222 2.99c-.663.233-1.357.378-2.063.43l-6.89.216c-.516 0-.43-.148.2-.377l8.337-2.977c.646-.223 1.32-.363 2.006-.417l6.775-.229zM164.64 353c.55 0 .463.186-.217.458l-9.376 3.668c-.738.282-1.513.456-2.301.516l-16.423.358c-.536 0-.391-.2.332-.473l9.594-3.61c.711-.267 1.456-.436 2.214-.502L164.64 353zM175.645 347c.54 0 .453.184-.19.445l-8.86 3.65c-.708.284-1.45.46-2.205.522l-13.05.383c-.54 0-.424-.184.262-.46l9.066-3.604c.685-.27 1.402-.44 2.131-.507l12.846-.429zM205.609 342c.529 0 .514.145 0 .356l-7.922 2.984c-.664.239-1.362.385-2.073.436l-7.235.224c-.543 0-.5-.145.115-.37l8.035-2.97c.647-.228 1.326-.37 2.016-.422l7.064-.238zM187.625 347c.547 0 .49.188-.13.455l-8.636 3.777c-.696.298-1.428.483-2.174.549l-7.326.219c-.547 0-.46-.204.202-.486l8.722-3.746c.68-.281 1.392-.455 2.116-.517l7.226-.251zM224.555 346c.586 0 .6.182 0 .455l-8.052 3.772c-.697.307-1.436.49-2.188.546l-7.88.227c-.587 0-.573-.197 0-.485l8.194-3.742c.676-.293 1.39-.472 2.117-.53l7.809-.243zM211.574 346c.575 0 .56.183 0 .459l-8.28 3.761c-.697.304-1.434.49-2.185.55l-7.705.23c-.575 0-.532-.199.1-.474l8.41-3.73c.68-.288 1.398-.464 2.128-.52l7.532-.276zM218.562 341c.584 0 .584.144 0 .353l-8.198 2.993c-.7.24-1.438.386-2.188.432l-7.763.222c-.57 0-.555-.144.075-.38l8.272-2.966c.678-.228 1.39-.37 2.113-.419l7.689-.235zM199.6 346c.56 0 .532.189-.086.472l-8.433 3.836c-.698.303-1.434.489-2.184.55l-7.513.142c-.56 0-.503-.204.144-.487l8.62-3.805c.68-.291 1.397-.471 2.125-.535L199.6 346zM371.193 332c.713 0 1.013.138.656.385l-2.598 1.72c-.618.31-1.302.48-1.999.496L356.76 335c-.714 0-.971-.151-.571-.4l2.726-1.706c.604-.29 1.267-.45 1.942-.467l10.336-.427zM355.254 333c.706 0 .95.142.562.382l-2.778 1.74c-.623.307-1.306.476-2.001.496l-10.321.382c-.706 0-.922-.156-.504-.396l2.879-1.727c.616-.294 1.288-.458 1.972-.48l10.191-.397zM230.545 340c.6 0 .614.177 0 .45l-7.957 3.714c-.692.304-1.426.489-2.172.547l-7.972.289c-.6 0-.584-.177 0-.466l8.106-3.682c.675-.291 1.388-.47 2.113-.53l7.882-.322z"/>
        <g fill="#404040" fill-rule="nonzero">
            <path d="M76.532 19.847c.57 0 .496.187-.175.462l-9.308 3.741c-.767.29-1.574.46-2.393.506l-7.616.173c-.555 0-.453-.202.262-.477l9.426-3.698c.72-.274 1.477-.444 2.246-.505l7.558-.202zM25.073 32.254c.423 0 .291.174-.307.405l-13.948 5.344c-.617.24-1.266.391-1.926.448H.372c-.424 0-.249-.188.393-.433L14.86 32.73c.59-.223 1.208-.364 1.838-.419l8.375-.058zM56.077 25.798c.583 0 .452.216-.277.505l-10.111 4.03c-.775.307-1.591.497-2.422.564l-23.082.36c-.555 0-.365-.216.408-.52l10.374-3.9c.75-.282 1.535-.462 2.334-.534l22.776-.505zM88.992 19.529c.584 0 .525.188-.131.462l-9.148 3.785c-.746.296-1.533.477-2.335.534l-7.82.173c-.584 0-.51-.202.19-.49l9.279-3.742c.723-.284 1.486-.46 2.262-.52l7.703-.202zM142.815 7.901c.598 0 .628.159.088.405l-7.573 3.365c-.673.277-1.388.443-2.115.491l-7.952.26c-.598 0-.613-.173 0-.419l7.675-3.336c.656-.265 1.35-.426 2.057-.477l7.82-.289zM37.562 32.067c.438 0 .306.173-.263.404l-13.773 5.417c-.62.244-1.275.395-1.94.448H12.83c-.437 0-.277-.188.35-.434l13.92-5.359c.59-.225 1.208-.366 1.838-.419l8.623-.057zM68.478 25.538c.599 0 .482.216-.233.505l-9.921 4.045c-.778.311-1.6.501-2.437.563l-7.879.116c-.598 0-.452-.231.307-.535l10.038-4c.751-.298 1.543-.483 2.349-.55l7.776-.144zM166.685 3.857c.613 0 .685.144.19.375l-3.604 1.676c-.644.271-1.33.432-2.028.476l-8.871.333c-.598 0-.671-.145-.146-.39l3.691-1.676c.637-.26 1.312-.416 2-.462l8.768-.332zM101.817 19.182c.598 0 .554.202-.088.477l-8.958 3.828c-.739.305-1.522.49-2.32.549l-8.039.173c-.598 0-.54-.202.16-.491l9.105-3.785c.722-.288 1.485-.463 2.261-.52l7.879-.23zM155.8 7.424c.613 0 .686.16.146.405l-7.368 3.409c-.676.286-1.396.457-2.13.505l-8.156.26c-.612 0-.656-.173-.087-.419l7.528-3.38c.66-.268 1.36-.43 2.072-.476l7.995-.304zM50.255 31.893c.453 0 .336.174-.233.405l-13.569 5.489c-.62.251-1.274.407-1.94.462h-9.017c-.453 0-.307-.202.32-.433l13.73-5.432c.592-.235 1.217-.381 1.853-.433l8.856-.058zM81.39 25.278c.613 0 .54.216-.16.505l-9.746 4.088c-.78.32-1.608.516-2.451.578l-8.098.13c-.613 0-.51-.231.248-.535l9.878-4.058c.76-.303 1.562-.488 2.378-.55l7.952-.158zM180.443 3.308c.628 0 .73.144.248.375l-3.501 1.705c-.643.275-1.33.437-2.028.476l-9.12.347c-.612 0-.7-.144-.189-.39l3.59-1.69c.634-.265 1.31-.422 1.998-.462l9.002-.361zM137.607 13c.612 0 .642.173 0 .433l-8.025 3.626c-.71.296-1.464.472-2.232.52l-8.258.231c-.613 0-.628-.188 0-.462l8.17-3.597c.692-.284 1.427-.454 2.174-.505l8.17-.246zM114.963 18.778c.627 0 .612.202 0 .476l-8.754 3.872c-.747.31-1.541.496-2.35.548l-8.258.174c-.627 0-.583-.202.088-.491l8.93-3.828c.724-.298 1.492-.479 2.275-.535l8.069-.216zM169.136 6.933c.613 0 .715.16.19.405l-7.164 3.438c-.675.29-1.396.461-2.13.505l-8.39.275c-.627 0-.7-.174-.146-.434l7.295-3.409c.686-.287 1.417-.453 2.16-.49l8.185-.29zM94.668 25.003c.627 0 .569.217-.117.52l-9.557 4.146c-.779.326-1.607.521-2.45.578l-8.332.13c-.627 0-.54-.231.205-.55l9.702-4.101c.753-.311 1.55-.501 2.364-.564l8.185-.159zM66.684 31.662c.467 0 .38.188-.175.42l-13.292 5.59c-.622.256-1.283.412-1.955.461l-12.737.101c-.453 0-.336-.202.277-.447l13.525-5.504c.592-.237 1.217-.383 1.853-.433l12.504-.188zM194.508 2.744c.642 0 .788.145.321.39l-3.385 1.72c-.645.284-1.337.45-2.042.49l-9.367.347c-.642 0-.744-.159-.248-.39l3.472-1.704c.633-.275 1.31-.436 1.999-.477l9.25-.376zM150.957 12.538c.642 0 .685.173.116.448l-7.805 3.668c-.707.307-1.463.488-2.233.535l-8.477.231c-.642 0-.656-.188 0-.462l7.981-3.64c.686-.287 1.416-.458 2.16-.506l8.258-.274zM128.473 18.474c.642 0 .642.203 0 .477l-8.564 3.915c-.74.32-1.53.51-2.335.563l-8.506.188c-.642 0-.613-.217 0-.506l8.754-3.885c.719-.301 1.483-.482 2.262-.535l8.39-.217zM182.836 6.442c.642 0 .759.16.263.405l-6.945 3.466c-.678.297-1.405.468-2.145.506l-8.608.274c-.642 0-.73-.173-.19-.433l7.12-3.438c.657-.282 1.358-.448 2.072-.49l8.433-.29zM108.31 24.714c.641 0 .627.217 0 .52l-9.353 4.204c-.781.335-1.615.536-2.466.592l-8.564.13c-.642 0-.598-.231.131-.549l9.513-4.16c.761-.317 1.57-.507 2.393-.563l8.346-.174zM208.894 2.181c.657 0 .832.145.38.39l-3.254 1.733c-.644.29-1.337.457-2.043.492l-9.615.36c-.656 0-.788-.158-.306-.404l3.356-1.719c.63-.279 1.308-.44 1.998-.476l9.484-.376zM164.788 12.104c.657 0 .744.174.19.448l-7.587 3.712c-.71.312-1.472.493-2.247.535l-8.754.245c-.657 0-.715-.187-.131-.462l7.761-3.683c.69-.297 1.425-.473 2.174-.52l8.594-.275zM142.26 18.113c.657 0 .701.203.103.491l-8.346 3.958c-.742.325-1.538.516-2.349.564l-8.754.187c-.642 0-.656-.216 0-.505l8.52-3.93c.718-.308 1.483-.493 2.262-.548l8.565-.217zM196.857 5.922c.657 0 .803.16.321.42l-6.697 3.51c-.67.304-1.393.48-2.13.52l-8.856.288c-.671 0-.788-.173-.263-.433l6.887-3.481c.66-.288 1.366-.455 2.086-.492l8.652-.332zM122.345 24.426c.657 0 .657.216 0 .534l-9.119 4.247c-.78.341-1.614.542-2.465.592l-8.842.13c-.657 0-.627-.231.073-.549l9.294-4.203c.753-.326 1.558-.522 2.378-.578l8.681-.173zM223.79 1.589c.672 0 .876.144.453.39l-3.122 1.748c-.642.295-1.336.462-2.043.49l-9.892.376c-.657 0-.832-.159-.38-.404l3.225-1.733c.63-.283 1.308-.445 1.999-.477l9.76-.39zM179.013 11.642c.672 0 .774.188.248.448l-7.295 3.756c-.702.321-1.46.507-2.232.548l-8.958.246c-.671 0-.744-.188-.175-.477l7.528-3.726c.682-.301 1.414-.477 2.16-.52l8.724-.275zM156.574 17.723c.67 0 .744.203.16.491l-8.112 4.016c-.74.335-1.537.53-2.349.578l-8.987.202c-.672 0-.715-.217-.088-.52l8.302-3.972c.72-.315 1.49-.5 2.276-.55l8.798-.245zM211.272 5.402c.686 0 .847.16.38.42l-6.45 3.538c-.667.312-1.391.488-2.13.52l-9.089.303c-.686 0-.817-.173-.321-.433l6.653-3.51c.652-.297 1.355-.469 2.072-.506l8.885-.332zM136.673 24.137c.686 0 .7.23 0 .534l-8.886 4.333c-.776.352-1.613.558-2.465.607l-9.105.145c-.67 0-.67-.246 0-.564l9.075-4.333c.753-.33 1.558-.525 2.379-.578l9.002-.144zM238.819.997c.7 0 .919.144.496.39l-2.918 1.762c-.634.306-1.324.478-2.028.505l-10.214.376c-.685 0-.89-.159-.437-.404l3.093-1.748c.626-.295 1.306-.462 1.999-.491l10.009-.39zM193.618 11.18c.686 0 .832.188.321.462l-7.09 3.8c-.706.326-1.47.513-2.248.548l-9.206.26c-.686 0-.817-.188-.263-.477l7.296-3.77c.684-.311 1.421-.492 2.173-.534l9.017-.289zM171.164 17.333c.686 0 .788.203.219.491l-7.85 4.06c-.737.341-1.535.538-2.349.577l-9.264.202c-.7 0-.76-.216-.146-.52l8.053-4.015c.717-.326 1.489-.517 2.276-.564l9.06-.23zM226.081 4.853c.7 0 .905.16.467.42l-6.186 3.581c-.67.323-1.4.505-2.145.535l-9.337.303c-.7 0-.89-.173-.409-.448l6.39-3.553c.651-.301 1.355-.473 2.072-.505l9.148-.333zM151.54 23.819c.7 0 .773.231.146.549L143.05 28.7c-.78.363-1.621.574-2.48.621l-9.368.145c-.7 0-.744-.246 0-.564l8.842-4.333c.754-.34 1.565-.542 2.393-.592l9.104-.16zM208.646 10.703c.7 0 .875.188.38.463l-6.814 3.842c-.698.336-1.457.528-2.232.563l-9.484.26c-.715 0-.86-.202-.336-.477l7.033-3.798c.683-.316 1.421-.497 2.174-.535l9.28-.318zM186.323 16.943c.715 0 .846.203.307.506l-7.587 4.102c-.74.353-1.544.555-2.364.592l-9.527.203c-.715 0-.832-.217-.234-.535l7.791-4.073c.72-.332 1.498-.523 2.291-.564l9.323-.23zM241.313 4.333c.715 0 .949.16.526.42l-5.836 3.61c-.663.33-1.39.512-2.13.535l-9.615.318c-.715 0-.92-.174-.467-.448l6.113-3.582c.642-.312 1.343-.49 2.057-.52l9.352-.333zM166.787 23.501c.73 0 .817.231.219.549l-8.36 4.42c-.772.369-1.61.58-2.466.621l-9.673.145c-.73 0-.788-.246-.132-.578l8.58-4.334c.75-.348 1.563-.549 2.392-.592l9.44-.23zM138.482 30.593c.715 0 .744.26.073.593l-11.395 5.777c-.823.39-1.715.617-2.626.665l-68.968.52c-.642 0-.525-.26.277-.607l12.737-5.388c.8-.33 1.647-.53 2.51-.592l67.392-.968zM224.082 10.212c.73 0 .934.188.467.462l-6.521 3.886c-.695.345-1.456.537-2.233.563l-9.76.275c-.715 0-.905-.202-.395-.491l6.756-3.843c.674-.326 1.41-.513 2.16-.548l9.526-.304zM201.876 16.524c.73 0 .89.203.365.506l-7.295 4.16c-.733.358-1.533.56-2.35.592l-9.833.217c-.744 0-.86-.217-.292-.535l7.514-4.116c.712-.344 1.486-.54 2.276-.578l9.615-.246zM182.617 23.111c.744 0 .89.231.307.549l-8.054 4.478c-.778.383-1.628.6-2.495.635l-9.95.16c-.745 0-.847-.246-.22-.593l8.288-4.434c.753-.36 1.572-.566 2.407-.607l9.717-.188zM239.986 9.707c.744 0 1.006.187.554.462l-6.2 3.929c-.696.357-1.464.554-2.248.578l-10.052.274c-.759 0-.978-.202-.482-.491l6.45-3.9c.676-.334 1.417-.521 2.173-.549l9.805-.303zM265.11 3.438c.744 0 1.05.159.657.433l-5.413 3.669c-.658.343-1.387.531-2.13.549l-18.734.607c-.744 0-.978-.174-.54-.448l5.836-3.626c.64-.318 1.342-.495 2.057-.52l18.267-.664zM158.193 30.333c.555 0 .628.203.146.448l-11.395 6.11c-.62.301-1.295.473-1.984.506l-15.422.115c-.569 0-.569-.216 0-.49l11.789-6.01c.59-.279 1.23-.44 1.882-.476l14.984-.203zM217.852 16.106c.76 0 .963.202.467.505l-6.974 4.218c-.733.372-1.54.58-2.363.607l-10.097.23c-.758 0-.934-.216-.394-.534l7.222-4.174c.715-.35 1.495-.547 2.291-.578l9.848-.274zM198.885 22.851c.774 0 .934.231.38.563l-7.733 4.55c-.768.397-1.615.619-2.48.65l-10.287.16c-.773 0-.904-.246-.291-.593l7.995-4.492c.746-.366 1.561-.573 2.393-.607l10.023-.23zM256.356 9.187c.773 0 1.05.187.627.476l-5.836 3.973c-.687.365-1.452.563-2.232.577l-10.374.29c-.773 0-1.021-.203-.554-.506l6.128-3.886c.668-.346 1.406-.538 2.16-.563l10.08-.361zM174.666 30.117c.569 0 .67.202.204.462l-11.001 6.197c-.616.311-1.293.489-1.984.52l-11.673.086c-.583 0-.627-.216-.116-.49l11.322-6.125c.587-.285 1.228-.448 1.882-.477l11.366-.173zM247.412 15.34c.803 0 1.08.217.628.52l-6.362 4.333c-.726.392-1.537.605-2.363.621l-23.826.52c-.788 0-.992-.23-.467-.548l6.901-4.233c.705-.361 1.483-.564 2.276-.592l23.213-.621zM185.098 33.583c.817 0 .948.29.335.665l-3.837 2.296c-.82.433-1.728.675-2.656.708l-11.832.087c-.788 0-.905-.303-.234-.679l3.984-2.268c.806-.408 1.692-.64 2.597-.679l11.643-.13zM209.098 29.582c.832 0 1.022.275.453.636l-4.509 2.889-15.013.173 4.683-2.889c.78-.407 1.643-.634 2.525-.664l11.861-.145zM237.17 22.057c.817 0 1.08.245.583.577l-6.93 4.695c-.754.418-1.601.647-2.466.664l-33.178.52c-.802 0-.963-.26-.379-.606l7.674-4.565c.742-.378 1.56-.59 2.393-.62l32.303-.665zM204.517 33.41l-4.669 2.961c-.81.445-1.715.692-2.64.722l-12.242.087c-.817 0-.977-.303-.335-.693l4.858-2.89 15.028-.187zM221.252 33.222c.86 0 1.123.29.554.68l-3.487 2.368c-.81.46-1.722.713-2.655.737l-12.65.086c-.86 0-1.065-.303-.452-.693l3.648-2.34c.802-.435 1.697-.678 2.611-.708l12.431-.13z" transform="translate(100 332)"/>
        </g>
        <path fill="#404040" fill-rule="nonzero" d="M203.602 338c.538 0 .523.16 0 .401l-4.168 1.78c-.661.27-1.356.438-2.061.498l-7.992.321c-.538 0-.508-.16.104-.417l4.228-1.765c.653-.26 1.337-.422 2.031-.481l7.858-.337zM194.63 342c.529 0 .486.147-.1.36l-8.07 2.987c-.663.238-1.36.386-2.07.44l-7.042.213c-.514 0-.457-.147.157-.373l8.17-2.974c.643-.227 1.315-.37 2-.426l6.956-.227zM253.515 336c.59 0 .647.153.143.398l-3.654 1.76c-.641.284-1.321.455-2.014.505l-8.532.337c-.576 0-.619-.153-.072-.413l3.74-1.745c.63-.274 1.295-.439 1.972-.49l8.417-.352zM240.546 337c.567 0 .61.155.087.402l-3.794 1.763c-.645.277-1.327.444-2.02.495l-8.388.34c-.567 0-.582-.155 0-.418l3.867-1.747c.632-.266 1.298-.427 1.977-.48l8.271-.355zM228.568 337c.569 0 .583.156 0 .406l-3.91 1.766c-.648.276-1.332.445-2.028.5l-8.214.328c-.555 0-.555-.156 0-.406l3.968-1.75c.636-.266 1.304-.429 1.984-.485l8.2-.359zM215.585 338c.56 0 .546.159 0 .397l-4.029 1.778c-.657.272-1.348.437-2.05.492l-8.102.333c-.546 0-.531-.159 0-.413l4.102-1.762c.649-.267 1.33-.432 2.022-.492l8.057-.333z"/>
        <path fill="#C2C2C2" fill-rule="nonzero" d="M407.47 334.532l-5.19 4.163c-.61.484-1.493.381-1.978-.23-.48-.617-.377-1.507.228-1.997l5.19-4.163c.61-.484 1.493-.381 1.978.23.48.617.377 1.507-.228 1.997z" style="mix-blend-mode:multiply"/>
        <g fill="#FFF" fill-rule="nonzero" opacity=".2">
            <path d="M60.305 212.723L83.739 211.921 231.431.328 205.079 5.319zM47.524 213.176L190.707 8.049 138.018 18.031.657 214.796z" transform="translate(161 122)"/>
        </g>
    </g>
</svg>
