<svg xmlns="http://www.w3.org/2000/svg" xmlns:xlink="http://www.w3.org/1999/xlink" width="434" height="436" viewBox="0 0 434 436">
    <defs>
        <path id="prefix__a" d="M0 434.897L434 434.897 434 0.634 0 0.634z"/>
        <path id="prefix__c" d="M0.519 0.516L328.104 0.516 328.104 157.837 0.519 157.837z"/>
    </defs>
    <g fill="none" fill-rule="evenodd">
        <g transform="translate(0 .235)">
            <path fill="#D6E0EF" d="M342.205 318.464H102.99c-6.6 0-11.951-5.356-11.951-11.959V152.341c0-6.604 5.35-11.958 11.951-11.958h239.215c6.6 0 11.952 5.354 11.952 11.958v154.164c0 6.603-5.352 11.959-11.952 11.959"/>
            <path fill="#2D2D2C" d="M101.757 229.423c0 1.674-1.356 3.031-3.031 3.031-1.672 0-3.029-1.357-3.029-3.031 0-1.674 1.357-3.03 3.029-3.03 1.675 0 3.03 1.356 3.03 3.03"/>
            <path fill="#575756" d="M342.625 223.984c3.002 0 5.436 2.436 5.436 5.44 0 3.005-2.434 5.439-5.436 5.439s-5.436-2.434-5.436-5.44c0-3.003 2.434-5.44 5.436-5.44"/>
            <mask id="prefix__b" fill="#fff">
                <use xlink:href="#prefix__a"/>
            </mask>
            <path fill="#FFF" d="M106.415 277.575L331.093 277.575 331.093 155.768 106.415 155.768z" mask="url(#prefix__b)"/>
            <g fill="#FF4C41" mask="url(#prefix__b)">
                <g>
                    <path d="M20.093 25.46V10.118c4.346 2.553 8.65 5.083 13.05 7.67l-13.05 7.672m30.27-13.168c-.02-.598-.052-1.194-.097-1.791-.193-2.527-.476-5.422-2.144-7.444-1.429-1.73-3.641-2.122-5.742-2.36-2.66-.3-5.332-.482-8.006-.585-5.416-.206-10.839-.086-16.256.034-2.783.062-5.567.124-8.342.344-3.408.272-6.913.772-8.5 4.18C-.15 7.728.026 11.61.01 14.9c-.017 2.951-.026 5.903.092 8.851.153 3.826.38 8.81 4.508 10.488 2.203.897 4.864 1.097 7.218 1.25 2.494.162 4.995.142 7.493.18 5.24.077 10.479-.102 15.716-.207 3.639-.072 7.372-.113 10.854-1.302 3.005-1.025 3.79-4.284 4.195-7.111.404-2.809.302-5.659.296-8.486-.002-2.09.053-4.182-.019-6.271M93.463 9.992h4.31v23.243h-4.225v-2.443c-.401.392-.71.702-1.028 1.003-1.004.948-2.06 1.785-3.543 1.795-1.342.01-2.37-.624-2.74-1.917-.264-.915-.427-1.891-.437-2.842-.064-6.168-.076-12.335-.103-18.503 0-.085.014-.17.026-.3h4.228c.008.184.026.382.026.58.027 5.926.052 11.853.078 17.78 0 .172-.01.346.011.516.091.722.613 1.122 1.277.834.53-.229.995-.646 1.438-1.037.584-.512.77-1.164.76-1.971-.057-5.323-.059-10.648-.078-15.972v-.766M71.02 2.189c-.772 2.57-1.518 5.056-2.267 7.543-1.058 3.511-2.118 7.021-3.168 10.533-.078.26-.112.54-.11.812.016 3.841.043 7.683.066 11.524v.612h-4.493v-.565c-.019-3.859-.028-7.717-.07-11.576-.003-.453-.14-.915-.278-1.354-1.774-5.648-3.56-11.293-5.341-16.94-.05-.16-.096-.32-.166-.56 1.528 0 2.988-.011 4.447.02.13.002.322.258.37.428.695 2.505 1.37 5.016 2.05 7.525.357 1.32.717 2.64 1.183 3.968.227-.871.458-1.742.68-2.614.751-2.953 1.505-5.906 2.238-8.863.09-.364.216-.51.61-.503 1.39.025 2.783.01 4.25.01M78.292 21.818h-.06c0-1.809.013-3.617-.01-5.425-.005-.476-.069-.967-.203-1.423-.243-.813-.88-1.23-1.715-1.214-.82.016-1.433.476-1.642 1.305-.108.43-.174.884-.173 1.326.008 3.564.027 7.129.067 10.693.005.51.08 1.034.222 1.522.236.813.876 1.236 1.704 1.231.775-.005 1.399-.454 1.62-1.27.128-.474.176-.983.182-1.477.021-1.756.008-3.512.008-5.268zm-7.985-.228c0-1.774-.05-3.548.021-5.318.035-.866.203-1.753.47-2.579.668-2.062 2.055-3.41 4.249-3.738 2.453-.368 4.643.118 6.164 2.285.772 1.1 1.075 2.384 1.179 3.7.09 1.13.1 2.268.11 3.404.017 2.479.042 4.96 0 7.437-.016.87-.134 1.759-.354 2.6-.665 2.552-2.932 4.248-5.603 4.279-2.686.03-5.093-1.66-5.77-4.216-.304-1.15-.39-2.372-.452-3.568-.074-1.425-.017-2.857-.017-4.286h.003zM131.595 21.614h-.036c0 2.083.049 4.167-.023 6.248-.03.826.329 1.241.98 1.548.201.094.41.182.623.243 1.005.286 1.756-.1 2.035-1.101.137-.493.22-1.016.223-1.526.025-3.667.03-7.333.019-11-.002-.474-.093-.962-.223-1.42-.197-.683-.627-.962-1.34-.991-.692-.03-1.26.27-1.813.64-.335.223-.457.5-.453.904.016 2.151.008 4.304.008 6.455m0-9.659c.876-.637 1.658-1.37 2.572-1.841 2.302-1.184 4.618-.125 5.203 2.392.31 1.33.488 2.718.513 4.084.064 3.427.043 6.856-.018 10.283-.022 1.266-.12 2.559-.406 3.788-.633 2.715-3.205 3.778-5.617 2.357-.816-.48-1.514-1.162-2.285-1.767 0 .386.006.824-.001 1.264-.015.904.097.81-.792.816-.912.006-1.825.005-2.737.003-.683-.002-.686-.006-.686-.674l.019-16.382c.006-4.514.02-9.028.007-13.54-.002-.508.155-.642.642-.627 1.032.032 2.067.027 3.098-.006.427-.013.52.143.516.535-.02 2.86-.021 5.719-.028 8.579v.736M119.5 30.938c-.56.525-1.03.995-1.53 1.43-.805.704-1.707 1.226-2.808 1.289-1.758.101-2.954-.884-3.269-2.75-.134-.794-.212-1.608-.213-2.413-.018-5.926-.005-11.85-.02-17.777-.001-.48.106-.668.621-.651 1.084.035 2.17.03 3.253-.004.481-.016.607.143.606.614-.014 5.736-.008 11.472-.007 17.208 0 .31-.01.62.01.93.043.737.458 1.05 1.176.9.964-.2 2.181-1.678 2.182-2.652l.01-16.33c0-.669.003-.671.675-.673 1.085-.004 2.17.01 3.253-.013.387-.008.55.084.549.51-.017 7.425-.022 14.848-.022 22.272 0 .365-.092.525-.491.517-1.17-.02-2.342-.02-3.512 0-.369.004-.48-.132-.469-.482.02-.612.006-1.226.006-1.925M150.989 18.845c-.061-1.36-.057-2.664-.196-3.952-.103-.945-.683-1.305-1.73-1.306-1.12 0-1.709.36-1.815 1.332-.131 1.191-.121 2.397-.146 3.598-.002.107.18.312.281.313 1.163.023 2.326.015 3.606.015m-.082 6.27c1.455 0 2.812-.006 4.168.01.104.002.297.165.296.251-.02 1.717.094 3.462-.763 5.05-1.08 1.999-2.769 3.05-5.034 3.165-2.898.145-5.053-1.063-6.203-3.473-.536-1.124-.77-2.328-.772-3.557-.001-3.427-.02-6.856.093-10.28.069-2.07.771-3.929 2.461-5.313 2.876-2.353 8.786-1.815 9.954 3.531.197.902.278 1.839.308 2.764.046 1.479.007 2.961.001 4.442-.003.685-.006.686-.668.688l-6.97.012h-.612c-.037.068-.082.111-.082.154.012 1.72.014 3.441.052 5.16.006.318.118.647.242.945.317.76.913 1.101 1.769 1.06.77-.038 1.372-.431 1.56-1.198.154-.625.155-1.29.195-1.94.028-.46.005-.925.005-1.471" transform="translate(138.88 203.87)"/>
                    <path d="M102.652 6.694c-1.097 0-2.16.01-3.222-.004-.507-.006-1.18.125-1.472-.142-.258-.236-.102-.937-.11-1.432-.009-.793.02-1.587-.012-2.377-.018-.427.146-.52.535-.52 3.53-.002 7.059-.02 10.588-.032 1-.004 1.998.013 2.996-.02.407-.013.494.142.49.51-.018 1.153-.022 2.307.001 3.461.008.407-.126.539-.53.534-1.222-.018-2.445-.001-3.667.001h-.876v1.029l.019 24.858c0 .779-.001.78-.777.782-1.068.001-2.135 0-3.202-.001-.689 0-.697-.002-.698-.718-.009-4.633-.014-9.267-.021-13.901L102.678 7.3c0-.184-.015-.369-.026-.606" transform="translate(138.88 203.87)"/>
                </g>
            </g>
        </g>
        <g transform="translate(105.896 277.294)">
            <mask id="prefix__d" fill="#fff">
                <use xlink:href="#prefix__c"/>
            </mask>
            <path fill="#454058" d="M0.519 26.018L225.197 26.018 225.197 0.516 0.519 0.516z" mask="url(#prefix__d)"/>
            <path fill="#D9E3E9" d="M7.796 6.32L216.908 6.32 216.908 5.154 7.796 5.154z" mask="url(#prefix__d)"/>
            <path fill="#FF4C41" d="M7.796 6.32L93.196 6.32 93.196 5.154 7.796 5.154z" mask="url(#prefix__d)"/>
            <path fill="#FFF" d="M47.853 11.648L47.853 19.448 53.39 15.548zM54.352 19.448L55.648 19.448 55.648 11.649 54.352 11.649zM32.14 11.648L32.14 19.448 37.678 15.548zM21.965 11.648L21.965 19.448 16.428 15.548zM14.17 19.448L15.467 19.448 15.467 11.649 14.17 11.649zM175.486 15.25c0 .877-.728 1.59-1.623 1.59-.893 0-1.622-.713-1.622-1.59 0-.875.729-1.587 1.622-1.587.896 0 1.623.712 1.623 1.588m2.047-1.137l-.256-.607s.595-1.342.543-1.393l-.788-.77c-.054-.053-1.395.56-1.395.56l-.62-.25s-.546-1.36-.622-1.36h-1.11c-.077 0-.583 1.363-.583 1.363l-.618.25s-1.37-.582-1.423-.53l-.785.77c-.054.053.57 1.368.57 1.368l-.255.606s-1.388.536-1.388.608v1.089c0 .075 1.391.572 1.391.572l.256.606s-.594 1.34-.542 1.392l.786.771c.054.052 1.396-.561 1.396-.561l.62.252s.546 1.36.622 1.36h1.11c.077 0 .583-1.364.583-1.364l.621-.251s1.366.582 1.42.531l.787-.77c.054-.053-.573-1.368-.573-1.368l.255-.606s1.389-.536 1.389-.61v-1.088c0-.075-1.39-.57-1.39-.57M186.944 18.134h9.845v-5.9h-9.845v5.9zm-.85.85h11.546v-7.6h-11.546v7.6zM210.046 11.428L212.976 11.428 212.976 14.36 213.827 14.36 213.827 10.578 210.046 10.578zM205.468 14.36L205.468 11.428 208.398 11.428 208.398 10.578 204.618 10.578 204.618 14.36zM212.976 16.008L212.976 18.941 210.046 18.941 210.046 19.791 213.826 19.791 213.826 16.008zM208.399 18.941L205.468 18.941 205.468 16.008 204.619 16.008 204.619 19.791 208.399 19.791z" mask="url(#prefix__d)"/>
            <path fill="#FF4C41" d="M95.288 5.703c0 1.11-.899 2.01-2.008 2.01-1.11 0-2.009-.9-2.009-2.01 0-1.11.9-2.01 2.009-2.01 1.11 0 2.008.9 2.008 2.01" mask="url(#prefix__d)"/>
            <path fill="#F4C7A1" d="M175.709 91.884L227.937 39.624 232.958 44.648 240.841 74.088 199.383 115.57z" mask="url(#prefix__d)"/>
            <path fill="#F4C7A1" d="M191.145 86.487L179.408 98.23l-72.42-72.461c-3.24-3.245-3.24-8.502 0-11.745 3.243-3.243 8.497-3.243 11.738 0l72.419 72.462z" mask="url(#prefix__d)"/>
            <path fill="#F4C7A1" d="M193.903 27.119L151.121 69.927 354.962 273.893 397.744 231.085z" mask="url(#prefix__d)"/>
            <path fill="#F4C7A1" d="M204.738 28.155l-41.814 41.838-10.557-10.562 5.87-5.873c.606.61 1.592.61 2.2 0 .608-.607.607-1.593 0-2.2l11.737-11.745c.607.608 1.593.608 2.201 0 .608-.609.607-1.594 0-2.203l11.737-11.744c.607.608 1.592.608 2.2 0 .609-.607.607-1.593 0-2.2l5.87-5.873 10.556 10.562zM199.383 115.57l-64.665-17.336c-5.313-1.425-8.467-6.89-7.043-12.206 1.423-5.316 6.884-8.471 12.196-7.047l75.775 20.317-16.263 16.272z" mask="url(#prefix__d)"/>
            <path fill="#F4C7A1" d="M232.958 44.648l-37.207-37.23c-3.24-3.243-8.496-3.243-11.738 0-3.24 3.244-3.24 8.502 0 11.744l37.208 37.23 11.737-11.744zM219.02 58.594l-43.076-43.1c-3.241-3.245-8.496-3.243-11.736 0-3.242 3.242-3.242 8.5-.001 11.743l43.076 43.101 11.737-11.744zM205.082 72.54l-46.009-46.038c-3.243-3.243-8.497-3.242-11.738 0-3.242 3.245-3.242 8.5 0 11.745l46.01 46.038 11.737-11.745z" mask="url(#prefix__d)"/>
            <path fill="#FFF" d="M400.195 228.634L249.16 77.508 201.477 125.218 352.512 276.345z" mask="url(#prefix__d)"/>
            <path fill="#B28F4B" d="M402.645 226.182L263.347 86.8 210.765 139.415 350.063 278.796z" mask="url(#prefix__d)"/>
            <path fill="#3C3C3A" d="M250.999 87.412c1.016 1.016 1.016 2.663 0 3.68-1.016 1.015-2.662 1.017-3.679 0-1.015-1.017-1.015-2.664 0-3.679 1.017-1.017 2.663-1.017 3.679 0" mask="url(#prefix__d)"/>
            <path fill="#DE5C3B" d="M237.056 113.107L210.765 139.414 350.062 278.797 376.353 252.488z" mask="url(#prefix__d)"/>
        </g>
    </g>
</svg>
