<svg xmlns="http://www.w3.org/2000/svg" width="19" height="26" viewBox="0 0 19 26">
    <g fill="none">
        <path fill="#116C93" d="M10.363 21.506L10.905 19.567 9.241 18.348 7.572 19.571 8.175 21.506z"/>
        <path fill="#116C93" d="M8.175 21.004L8.207 21.08 7.462 25.675 11.082 25.675 10.336 21.075 10.363 21.004z"/>
        <path fill="#116C93" d="M7.927 25.675L8.68 21.024 7.952 19.293 5.615 17.081 6.072 20.397 7.558 25.675zM10.994 25.675L12.496 20.337 12.954 17.02 10.522 19.286 9.865 21.029 10.618 25.675z"/>
        <path fill="#116C93" d="M11.028 20.218c.481.352.772.038.88-.125l1.533-3.135-1.978-1.299-.466.837-1.74 1.797-1.693-1.641-.328-1.135-2.194 1.441 1.496 3.061c.042.082.345.622.924.2l1.78-1.304 1.696 1.242c.026.016.056.036.09.06z"/>
        <path fill="#40290F" d="M9.494 0H9.03C5.859 0 3.28 2.567 3.28 5.723v2.684s1.309-.13 1.47-.76l-.001-.002c.055-.06.101-.128.134-.204.743-.022 4.211-.049 6.192-2.43.237.688 1.036 1.992 2.575 2.402.032.083.079.158.136.223l-.012.01c.16.632 1.47.761 1.47.761V5.723c0-3.156-2.58-5.723-5.75-5.723zm4.347 7.272l.079-.077h.011l-.129.129.039-.052zm-.027.052l.016-.044.05-.085h.02l-.06.107-.026.022zm-.166.065l-.002-.003.142-.121-.033.038-.104.09-.003-.004zm.158-.052l-.078.091h-.001l-.01-.003-.006-.002.126-.143.003-.002-.034.059z"/>
        <path fill="#EDBD97" d="M14.553 7.577c-.22-.068-.459-.028-.644.108-.186.136-.295.351-.295.58v2.053c0 .23.11.445.295.58.126.093.276.14.429.14.072 0 .145-.01.215-.032.139-.043.275-.105.405-.184.077-.047.144-.108.198-.179.08-.04.152-.096.211-.163.293-.33.454-.751.454-1.188 0-.79-.51-1.48-1.268-1.715zM4.636 7.685c-.186-.136-.425-.176-.645-.108-.758.236-1.268.925-1.268 1.715s.51 1.479 1.268 1.714c.07.022.144.033.216.033.152 0 .303-.048.429-.14.185-.136.295-.352.295-.58V8.264c0-.229-.11-.445-.295-.58zM11.249 13.898c-.143-.136-.333-.207-.532-.2l-.024.001c-.045.002-.089.008-.132.017-.28.062-.564.093-.846.093H8.83c-.29 0-.584-.033-.872-.099-.215-.049-.44.002-.613.139-.172.137-.273.344-.273.564V16.515c-.011.208.068.411.218.556l1.454 1.41c.136.132.317.205.505.205h.012c.193-.003.376-.083.51-.221l1.498-1.548c.13-.134.203-.314.203-.5v-1.999c0-.197-.08-.384-.223-.52z"/>
        <path fill="#F6CEAF" d="M13.505 6.99c-.088-.033-.17-.07-.251-.111-1.217-.565-1.722-1.3-1.925-1.738-.012-.017-.024-.035-.036-.058-.146-.266-.372-.097-.372-.097l-.001-.001c-1.136.867-2.377 1.374-3.409 1.67-.402.117-.786.203-1.134.265-.692.126-1.136.143-1.136.143-.38.027-.672.34-.672.719v2.94c0 2.338 1.911 4.24 4.26 4.24h.886c2.35 0 4.26-1.902 4.26-4.24V7.663c0-.3-.187-.57-.47-.675z"/>
        <g fill="#052F41">
            <path d="M.977 9.026h8.295L5.505.042 2.897 1.123l-.004.002C1.833 1.495.041 2.837.041 5.52v2.577c.014.277.133.93.936.93z" transform="translate(0 16.649)"/>
            <path d="M18.4 8.128V5.52c0-2.716-1.864-4.062-2.855-4.397l-2.51-1.04-3.764 8.943h8.196c.775 0 .912-.606.934-.898z" transform="translate(0 16.649)"/>
        </g>
        <g fill="#15222B">
            <path d="M12.388 4.012V.43c0-.225-.183-.407-.41-.407-.225 0-.408.182-.408.407v3.582h.818zM.828 4.012V.43C.828.205.644.023.418.023.192.023.01.205.01.43v3.582h.819z" transform="translate(3.074 21.663)"/>
        </g>
        <path fill="#EDBD97" d="M9.688 11.067c.15 0 .272.121.272.271 0 .15-.122.272-.272.272H8.99c-.15 0-.273-.122-.273-.272v-1.323c0-.15.122-.272.273-.272.15 0 .272.122.272.272v1.052h.425z"/>
    </g>
</svg>
