<svg xmlns="http://www.w3.org/2000/svg" width="30" height="30"><g fill="none"><circle cx="14.998" cy="14.998" r="14.998" fill="#F3F2F2"/><path fill="#0683C2" d="M20.185 22.614l.372-.01.364-.028.362-.045.355-.064.348-.08.343-.097.334-.114.327-.128.32-.145.31-.158.302-.175.293-.188.284-.2.27-.215.263-.226.25-.239.238-.25.227-.262.215-.273.2-.282.188-.292.174-.302.158-.31.145-.32.128-.327.115-.336.097-.34.079-.351.065-.354.044-.361.029-.366.01-.372-.01-.368-.029-.364-.044-.36-.065-.351-.08-.349-.096-.34-.115-.333-.128-.325-.145-.318-.158-.31-.174-.3-.187-.293-.201-.282-.215-.272-.227-.26-.239-.25-.25-.238-.261-.227-.271-.213-.284-.2-.293-.186-.302-.174-.31-.16-.32-.144-.327-.13-.334-.112-.343-.097-.348-.08-.355-.064-.362-.045-.364-.029-.372-.009-.371.01-.367.028-.36.045-.355.065-.348.079-.343.097-.334.113-.326.13-.32.143-.309.16-.301.174-.293.187-.282.199-.272.213-.262.227-.25.239-.236.249-.227.26-.213.272-.202.282-.186.292-.172.3-.16.31-.144.319-.128.325-.112.334-.097.339-.081.349-.063.351-.045.36-.029.364-.009.368.01.372.028.366.045.361.063.354.08.35.098.341.112.336.128.327.144.32.16.31.172.302.186.292.202.282.213.273.227.263.237.249.25.239.261.226.272.216.282.199.293.188.301.175.309.158.32.145.326.128.334.114.343.098.348.079.356.064.36.045.366.029z"/><path fill="#305499" d="M10.638 22.614l.372-.01.366-.028.359-.045.356-.064.348-.08.343-.097.334-.114.327-.128.32-.145.308-.158.302-.175.293-.188.281-.2.271-.215.262-.226.25-.239.237-.25.226-.262.214-.273.201-.282.187-.292.172-.302.16-.31.144-.32.127-.327.113-.336.098-.34.08-.351.063-.354.045-.361.028-.366.01-.372-.01-.368-.028-.364-.045-.36-.063-.351-.08-.349-.098-.34-.113-.333-.127-.325-.143-.318-.16-.31-.173-.3-.187-.293-.201-.282-.214-.272-.226-.26-.237-.25-.25-.238-.262-.227-.27-.213-.282-.2-.293-.186-.302-.174-.309-.16-.32-.144-.326-.13-.334-.112-.343-.097-.348-.08-.356-.064-.36-.045-.365-.029-.372-.009-.372.01-.365.028-.36.045-.356.065-.349.079-.342.097-.334.113-.33.13-.317.143-.312.16-.302.174-.292.187-.283.199-.272.213-.26.227-.252.239-.239.249-.226.26-.214.272-.201.282-.189.292-.172.3-.16.31-.143.319-.13.325-.113.334-.099.339-.079.349-.064.351-.045.36-.029.364-.009.368.009.372.03.366.044.361.064.354.08.35.098.341.113.336.13.327.143.32.16.31.172.302.189.292.2.282.215.273.226.263.239.249.251.239.26.226.273.216.283.199.292.188.302.175.312.158.318.145.329.128.334.114.342.098.349.079.356.064.36.045.365.029z"/><path d="M14.523 10.962h3.65v-.402h-3.296zm-.573.852h4.224v-.402h-3.966zm-.425.864h4.649v-.402h-4.455zm-.28.853h4.929v-.402h-4.807zm-.183.853h5.112v-.402h-5.039zm-.074.851h5.186v-.402h-5.16zm.038.852h5.148v-.403h-5.186zm.122.853h5.026v-.403h-5.1zm.242.85h4.784v-.4h-4.906zm.367.853h4.417v-.402H13.56zm.51.866h3.907v-.415h-4.175zm.695.851h3.212v-.4h-3.566z" fill="#0683C2"/><g fill="#FFF"><path d="M25.633 17.438l.002-.008.009-.035.011-.032.016-.028.018-.03.02-.026.023-.024.025-.021.027-.02.029-.016.03-.014.033-.011.034-.007.035-.006.037-.002.034.002.032.006.033.007.03.01.03.015.03.016.024.02.025.021.022.024.022.027.016.029.016.028.01.032.01.035.001.008h-.063l-.016-.05-.026-.046-.036-.042-.042-.033-.047-.026-.051-.016-.054-.006-.03.003-.028.003-.028.007-.027.009-.026.01-.023.016-.023.015-.02.018-.02.02-.018.022-.014.023-.013.023-.009.027-.007.023z"/><path d="M25.847 17.442v-.1h.147l.029.002.025.005.021.008.017.01.013.016.008.016.006.02.001.023h-.05l.002-.013-.002-.013-.007-.01-.009-.005-.01-.005-.014-.002-.014-.002h-.102v.05zm-.219.084l.002-.045.006-.04h.092l-.003.006-.006.045-.002.034z"/><path d="M25.847 17.526v-.085h.06v.077h.085l.02-.005.015-.006.015-.009.01-.012.008-.016.005-.023v-.006h.05l-.001.026-.006.025-.007.02-.007.014zm.418 0l-.008-.079-.003-.006h.092l.006.04.002.045z"/><path d="M25.628 17.492v.008l.001.037.006.036.009.036.011.032.016.031.018.03.02.026.023.025.025.021.027.02.029.018.03.015.033.01.034.007.035.006.037.002.034-.002.032-.006.033-.007.03-.01.03-.015.03-.018.024-.02.025-.021.022-.025.022-.025.016-.031.016-.03.01-.033.01-.036.005-.036.002-.037v-.008h-.061v.008l-.006.06-.018.057-.026.05-.036.043-.042.034-.047.025-.051.016-.054.005-.03-.001-.028-.004-.028-.007-.027-.009-.026-.01-.023-.015-.023-.016-.02-.018-.02-.022-.018-.021-.014-.024-.013-.026-.009-.028-.009-.028-.003-.03-.002-.031v-.008z"/><path d="M25.847 17.492v.153h.06v-.122h.062l.074.122h.06l-.073-.122.018-.005.016-.007.015-.008.012-.009.002-.002z"/><path d="M26.11 18.133l-.05-.002-.099-.018-.046-.015-.045-.02-.08-.055-.036-.03-.062-.073-.049-.087-.017-.049-.013-.05-.008-.052-.003-.054.003-.052.008-.05.028-.094.048-.085.029-.038.07-.066.038-.028.085-.045.047-.015.1-.019.051-.003.05.003.092.018.045.015.085.044.072.059.063.072.046.082.03.098.008.048.002.052-.002.055-.008.052-.027.097-.046.087-.063.074-.07.06-.042.026-.045.021-.045.016-.092.018-.052.003zm-.002-.932l-.044.003-.089.016-.04.014-.072.038-.064.052-.03.03-.045.068-.021.037-.024.082-.006.042-.002.045.002.047.019.09.013.04.043.077.054.06.065.052.036.023.037.018.04.012.087.016.044.002.044-.003.081-.016.037-.013.038-.018.034-.022.063-.053.055-.064.039-.075.023-.084.006-.046.003-.047-.003-.045-.018-.085-.014-.041-.04-.071-.054-.062-.063-.051-.073-.037-.037-.013-.081-.016-.043-.002z"/><path d="M26.821 18.316h-.368l-.225-.344h-.065v.344h-.342v-1l.618.005.09.017.074.023.082.05.04.04.037.06.024.07.007.075-.005.057-.02.062-.078.101-.116.062.247.378zm-.28-.143h.005l-.205-.315.25-.092.037-.05.011-.061-.004-.05-.035-.072-.02-.018-.043-.027-.116-.026-.075-.002h-.368v.712h.03v-.345h.309l.224.346z"/><path d="M26.41 18.365h-.527v-1l.796.043.13.117.057.098.017.153-.019.175-.026.098-.079.152-.078.069-.16.067-.11.028zm-.284-.345l.346-.02.13-.066.03-.077.005-.074-.002-.016-.049-.038-.11-.021-.351.002v.31z"/><path d="M26.174 18.194l-.097-.008-.098-.028-.043-.019-.082-.053-.07-.07-.03-.036-.027-.042-.022-.047-.031-.095-.01-.108.008-.1.031-.095.047-.083.032-.04.067-.064.08-.054.094-.035.048-.013.1-.01.093.01.091.027.083.044.073.059.061.071.048.081.032.094.011.102-.008.105-.031.1-.046.087-.062.076-.072.06-.081.045-.09.03-.099.01zm-.005-.918l-.083.008-.081.024-.038.016-.068.046-.057.056-.026.031-.038.068-.026.08-.007.082.008.09.027.083.04.072.084.089.069.045.075.027.044.012.08.006.084-.008.075-.024.068-.038.06-.05.051-.064.039-.073.026-.084.007-.089-.009-.085-.026-.077-.04-.068-.053-.06-.061-.05-.07-.036-.074-.023-.08-.006zm-.76-2.856l-.058-.004-.053-.005-.051-.005-.05-.007-.049-.008-.05-.008-.052-.008-.054-.009-.057-.007-.063-.005-.07-.004-.075-.004h-.175l-.102.006-.113.007-.08.013-.078.016-.069.023-.062.027-.056.03-.049.035-.04.04-.033.04-.026.044-.016.046-.006.049v.05l.01.05.022.052.029.054.04.052.039.04.043.034.045.032.05.03.054.026.055.025.06.022.06.023.063.022.065.02.065.02.064.022.065.024.066.025.063.027.065.029.061.032.06.036.057.038.055.044.05.047.05.054.044.06.04.064.034.07.03.079.024.084.017.094.013.1.005.11-.003.118-.01.13-.012.095-.018.09-.02.084-.028.08-.03.078-.035.072-.037.068-.044.064-.044.06-.049.056-.05.052-.054.05-.055.045-.06.041-.06.04-.062.034-.065.032-.064.03-.067.028-.068.023-.067.021-.07.02-.068.016-.07.015-.068.012-.068.011-.069.007-.067.007-.067.006-.067.003-.063.002h-.233l-.079-.002h-.075l-.072-.001-.07-.002-.065-.002-.063-.002-.06-.004-.058-.003-.054-.002-.052-.003-.05-.006-.049-.004-.045-.005-.045-.005-.041-.005-.041-.006-.04-.007-.038-.007-.037-.007-.036-.008-.036-.007-.034-.009-.034-.009-.035-.009-.034-.01-.034-.01-.032-.01-.034-.013-.034-.01-.036-.013.183-.89.016.005.02.007.022.007.023.007.027.009.029.007.032.009.032.01.036.008.038.01.041.008.041.01.043.008.045.009.047.009.049.009.048.007.05.01.052.006.054.007.054.006.056.005.055.006.056.003.057.004.06.003h.057l.06.002h.059l.059-.002.06-.003.058-.004.06-.007.052-.009.048-.014.044-.018.037-.02.032-.023.03-.025.026-.027.023-.029.019-.03.016-.031.014-.033.012-.03.01-.032.008-.03.008-.031.007-.063-.002-.056-.013-.05-.023-.047-.03-.043-.04-.04-.047-.035-.051-.033-.058-.032-.065-.029-.068-.029-.072-.028-.073-.029-.077-.03-.078-.03-.079-.033-.079-.034-.079-.038-.077-.041-.074-.044-.072-.05-.068-.052-.064-.06-.06-.066-.052-.071-.046-.078-.042-.086-.03-.095-.024-.102-.014-.112-.004-.122.008-.13.008-.082.011-.079.015-.075.014-.074.02-.07.02-.068.023-.065.027-.063.029-.06.03-.058.036-.055.038-.053.04-.05.046-.047.046-.045.053-.043.053-.04.06-.037.063-.034.066-.032.07-.03.074-.028.077-.023.083-.022.087-.02.092-.016.095-.014.101-.012.104-.01.11-.005.114-.003.12-.002h.15l.068.002.067.001.062.002.06.002.057.002.054.001.052.004.049.004.046.002.044.003.04.004.04.003.036.006.036.003.033.004.031.003.03.004.026.005.027.004.025.004.024.003.021.006.02.003.02.004.02.003.017.004.017.002.016.003.016.004.014.002z"/><path d="M23.706 17.829l-.657-.01-.499-.043-.292-.063-.228-.074.005-.022.19-.919.261.079.302.062.368.047.171.01h.234l.117-.007.109-.016.045-.014.04-.016.036-.02.059-.045.044-.052.032-.057.026-.06.024-.09.006-.06-.002-.052-.011-.045-.022-.041-.028-.04-.037-.036-.045-.034-.05-.03-.056-.032-.13-.057-.459-.185-.08-.038-.078-.042-.074-.043-.074-.051-.069-.053-.066-.061-.06-.068-.055-.074-.048-.08-.042-.088-.032-.098-.024-.104-.015-.114-.004-.125.007-.133.02-.162.03-.15.039-.14.024-.067.056-.126.032-.059.075-.11.042-.052.094-.094.054-.044.054-.04.061-.04.132-.067.07-.031.076-.027.079-.024.083-.022.089-.02.189-.03.101-.013.105-.01.226-.009.27-.002.641.03.459.07-.007.028-.211.923-.184-.016-.313-.047-.206-.012h-.173l-.214.013-.078.012-.076.016-.065.022-.062.027-.053.029-.046.033-.038.037-.03.038-.024.04-.014.043-.006.043v.047l.01.045.021.048.028.051.038.049.036.037.085.064.1.053.055.025.181.066.26.086.13.053.065.029.063.033.118.075.058.046.052.048.05.055.046.061.04.067.036.072.032.081.024.087.018.095.013.102.006.112-.004.12-.009.13-.013.098-.018.091-.022.086-.028.082-.03.08-.035.072-.039.07-.044.066-.046.06-.05.058-.05.053-.055.051-.057.046-.12.082-.13.068-.066.031-.068.028-.136.045-.07.02-.141.031-.138.024-.204.02-.132.005zm-.312-.053l.312.002.128-.005.202-.02.135-.023.137-.03.134-.041.068-.023.065-.027.127-.061.062-.034.117-.08.054-.044.052-.049.05-.05.047-.055.044-.059.042-.063.037-.066.033-.07.03-.076.027-.08.02-.082.018-.089.013-.093.009-.128.003-.118-.005-.108-.013-.098-.017-.092-.023-.082-.03-.077-.034-.068-.038-.062-.043-.057-.047-.053-.05-.045-.053-.044-.114-.071-.06-.032-.126-.054-.193-.07-.314-.108-.111-.053-.052-.03-.091-.068-.04-.042-.043-.054-.032-.058-.023-.054-.012-.055v-.055l.007-.052.017-.051.028-.048.034-.044.044-.042.051-.037.058-.032.065-.028.07-.024.08-.017.083-.013.218-.013h.175l.21.013.453.06.195-.854-.329-.053-.342-.03-.516-.01-.234.005-.109.006-.103.009-.195.027-.09.016-.169.04-.076.024-.073.026-.133.062-.062.033-.058.037-.053.039-.05.042-.09.09-.04.048-.072.106-.03.055-.054.122-.023.064-.039.136-.028.147-.02.158-.007.13.004.12.014.109.023.1.03.093.04.082.046.075.05.07.058.065.063.057.067.051.07.05.073.041.076.041.156.071.512.209.06.033.053.033.048.038.042.041.034.046.025.05.015.056.002.06-.007.067-.026.098-.028.066-.035.064-.025.032-.027.028-.067.052-.04.022-.045.019-.051.015-.116.017-.18.009-.177-.002-.34-.027-.347-.058-.294-.07-.082-.027-.173.84.284.085.266.047.24.023.514.016zM9.591 13.799l-.026-.015-.026-.012-.027-.014-.027-.015-.027-.012-.029-.015-.03-.012-.031-.015-.03-.012-.033-.013-.032-.012-.032-.013-.034-.013-.035-.01-.036-.01-.035-.014-.038-.009-.038-.01-.04-.01-.039-.008-.041-.008-.042-.009-.04-.005-.046-.007-.043-.005-.045-.004-.046-.005-.047-.002-.048-.004h-.199l-.051.002-.052.002-.054.005-.052.006-.055.007-.055.009-.055.01-.056.015-.056.018-.055.02-.058.023-.055.027-.056.028-.054.035-.056.04-.053.04-.052.047-.053.052-.052.058-.05.06-.049.07-.046.073-.047.079-.045.084-.043.091-.04.1-.04.104-.035.11-.036.121-.03.126-.03.135-.027.138-.019.138-.007.137.002.132.014.131.024.126.036.122.046.115.06.11.07.1.082.094.095.084.108.074.12.062.135.053.15.037.022.006.03.003.028.006.032.003.036.006.038.003.038.004.04.002.044.003.045.002h.142l.048-.002.05-.003.05-.006.053-.005.05-.007.052-.01.05-.01.053-.013.05-.012.05-.016.05-.018.049-.02.046-.024.047-.024.045-.028.043-.028.042-.032.039-.035.038-.038-.183 1.073-.011.008-.013.01-.012.01-.015.01-.016.014-.016.013-.016.012-.02.012-.021.015-.024.012-.025.015-.027.014-.03.014-.035.013-.035.013-.04.012-.041.013-.047.012-.05.011-.054.01-.057.01-.061.007-.067.007-.07.007-.077.004-.081.004-.085.001H7.7l-.103-.003-.107-.006-.115-.007-.092-.007-.091-.01-.092-.019-.091-.021-.094-.027-.092-.03-.09-.037-.09-.043-.089-.045-.087-.052-.085-.055-.083-.063-.08-.067-.078-.072-.075-.075-.07-.082-.068-.087-.063-.093-.058-.097-.054-.102-.05-.108-.043-.113-.038-.119-.032-.122-.025-.13-.02-.134-.012-.138-.006-.146.004-.149.009-.156.018-.16.026-.167.031-.167.036-.161.038-.157.041-.148.043-.146.049-.138.052-.133.054-.128.059-.122.06-.116.067-.112.068-.106.075-.1.075-.096.08-.09.085-.084.088-.08.091-.074.096-.068.098-.065.104-.058.108-.053.112-.049.114-.045.12-.037.124-.034.13-.03.13-.023.137-.017.142-.015.146-.009.149-.005h.065l.064.003.063.002.063.006.061.005.061.007.06.007.058.007.058.01.058.01.053.01.054.01.054.013.05.01.049.013.048.01.045.013.045.013.043.01.04.013.039.01.036.012.034.01.033.011.028.01.027.008.025.01.024.006.02.006.016.005.014.004.013.003z"/><path d="M7.888 17.845H7.7l-.211-.01-.208-.014-.093-.01-.093-.019-.093-.022-.094-.027-.093-.03-.091-.037-.093-.044-.089-.045-.09-.053-.085-.056-.084-.064-.082-.067-.078-.073-.076-.076-.071-.084-.07-.087-.063-.095-.059-.098-.054-.104-.05-.108-.045-.115-.038-.12-.033-.123-.025-.132-.02-.135-.013-.14-.005-.147.004-.15.009-.157.018-.161.026-.169.031-.167.074-.32.085-.295.049-.14.052-.133.054-.128.06-.123.061-.118.068-.113.068-.106.075-.102.076-.096.081-.091.086-.085.089-.082.093-.075.096-.069.1-.065.105-.059.109-.054.113-.05.115-.044.122-.039.125-.034.13-.03.132-.023.138-.018.143-.015.147-.009.215-.005.253.016.239.03.271.055.602.173-.004.023-.202 1.156-.192-.1-.22-.088-.258-.07-.209-.034-.186-.015-.298.004-.213.026-.054.01-.055.015-.109.037-.056.023-.109.055-.052.033-.108.08-.05.045-.052.05-.05.057-.05.06-.048.067-.092.151-.044.083-.043.09-.078.202-.072.23-.06.259-.027.137-.017.137-.008.134.002.132.015.128.023.124.035.12.046.112.058.107.068.098.081.091.093.083.105.071.118.062.132.05.17.043.28.03.186.001.097-.005.202-.027.15-.035.1-.034.046-.02.091-.046.086-.055.078-.064.094-.094-.199 1.16-.15.112-.108.058-.155.052-.099.024-.112.02-.2.021-.244.01zm.561-5.409h-.063l-.148.006-.145.008-.141.015-.136.018-.13.023-.128.028-.123.034-.12.037-.112.045-.111.048-.107.053-.103.057-.097.064-.094.068-.09.072-.087.08-.084.084-.08.088-.074.094-.073.1-.067.105-.066.11-.06.116-.06.122-.053.126-.052.132-.048.137-.084.293-.074.317-.03.166-.027.166-.017.159-.01.155-.003.148.006.144.012.136.02.134.024.128.032.12.038.118.043.112.049.106.053.101.057.096.062.092.068.085.069.081.074.074.077.072.08.065.081.062.084.055.086.051.087.044.09.043.089.035.09.03.093.027.09.021.09.018.09.01.313.02.102.004.271-.002.157-.007.253-.03.148-.034.149-.05.102-.054.13-.095.168-.987-.065.053-.09.058-.096.049-.101.039-.051.016-.155.037-.104.017-.155.014-.192.002-.207-.014-.153-.024-.15-.038-.137-.053-.123-.064-.11-.075-.098-.087-.084-.095-.072-.103-.061-.112-.048-.118-.037-.124-.024-.129-.014-.133-.003-.135.008-.138.018-.14.027-.14.061-.262.073-.233.08-.205.043-.093.045-.085.095-.155.049-.069.052-.063.052-.058.053-.053.054-.047.111-.083.056-.035.113-.057.116-.044.056-.018.057-.015.112-.02.163-.019.304-.004.233.02.25.047.184.055.224.09.134.067.185-1.063-.712-.194-.347-.05-.123-.01-.126-.006zm2.421 5.344l.694-4.188h-1.316l-.693 4.188z"/><path d="M10.89 17.805H9.526l.005-.03.697-4.208h1.367l-.005.03-.698 4.208zm-1.305-.05h1.263l.686-4.137h-1.265l-.684 4.136zm2.112.025h1.34l.488-2.545.029-.07.034-.064.036-.06.04-.052.043-.05.044-.043.047-.04.048-.034.049-.032.048-.027.05-.023.05-.022.05-.018.046-.014.047-.013.045-.01.02-.004h.05l.03.003.031.004.03.006.033.005.03.007.03.007.03.007.025.006.023.007.018.005.014.004.01.002.003.002.354-1.218-.063-.002-.06-.001h-.06l-.058.001-.057.002-.056.006-.054.005-.052.007-.052.01-.052.008-.049.013-.048.012-.047.015-.046.014-.045.018-.045.018-.042.02-.043.02-.04.023-.04.023-.038.025-.038.025-.038.029-.036.029-.034.03-.034.03-.034.033-.032.036-.03.034-.031.038-.03.038-.03.04.049-.561h-1.156z"/><path d="M13.058 17.805h-1.391l.005-.03.747-4.257h1.206l-.044.5.101-.116.104-.095.075-.06.077-.05.082-.048.178-.077.193-.055.16-.025.11-.011.178-.004.156.004-.372 1.281-.033-.017-.233-.054-.059-.006-.063.003-.135.037-.096.039-.05.023-.047.026-.094.065-.045.038-.044.042-.042.049-.038.05-.034.058-.033.063-.028.067-.491 2.56zm-1.33-.05h1.288l.484-2.524.03-.075.035-.067.037-.06.04-.055.045-.052.046-.044.048-.04.1-.07.05-.027.102-.046.099-.033.114-.028h.055l.128.018.161.04.338-1.161-.15-.003-.114.004-.159.017-.103.018-.187.053-.171.075-.153.094-.072.057-.1.092-.122.143-.082.112.054-.624h-1.107l-.735 4.185zm9.82.035h-1.29l.096-.619-.03.034-.031.034-.029.034-.029.033-.03.032-.029.03-.03.03-.029.028-.03.029-.033.027-.032.027-.034.023-.034.025-.036.024-.038.021-.04.02-.04.02-.046.02-.045.015-.048.017-.05.016-.054.012-.057.013-.06.013-.063.009-.066.009-.07.006-.072.008-.08.004-.08.003-.086.003h-.09l-.063-.001-.063-.007-.062-.011-.06-.014-.06-.018-.058-.022-.056-.027-.055-.03-.055-.033-.051-.038-.05-.04-.047-.044-.047-.048-.045-.05-.041-.054-.04-.058-.036-.061-.036-.063-.03-.066-.03-.068-.026-.072-.023-.076-.022-.077-.016-.079-.014-.083-.011-.084-.007-.086-.004-.09v-.092l.004-.093.009-.095.01-.097.39-2.433h1.291l-.341 2.153-.015.104-.005.095.002.09.011.082.016.074.022.068.028.061.034.054.038.049.043.04.045.033.05.03.052.02.054.015.056.009.056.004.07-.002.073-.01.076-.012.075-.02.077-.025.076-.03.075-.04.072-.044.07-.055.065-.06.06-.07.055-.078.048-.088.04-.097.032-.106.023-.115.329-2.117h1.29z"/><path d="M21.57 17.816h-1.343l.088-.564-.12.134-.157.143-.106.073-.08.043-.087.04-.147.05-.173.038-.13.018-.144.015-.247.01-.155-.002-.064-.007-.065-.01-.06-.016-.061-.018-.061-.022-.058-.028-.112-.064-.054-.04-.051-.041-.048-.044-.093-.1-.043-.056-.04-.059-.073-.125-.062-.137-.05-.15-.022-.079-.03-.164-.012-.085-.007-.088-.004-.09v-.093l.004-.095.02-.193.393-2.456h1.342l-.36 2.286-.005.093.002.088.01.08.016.071.021.066.028.058.032.051.036.047.04.036.044.033.047.026.05.02.05.014.053.008.054.004.067-.002.146-.021.073-.02.076-.024.074-.03.073-.039.07-.044.068-.052.063-.06.06-.068.051-.075.047-.085.039-.095.031-.104.023-.112.331-2.138h1.343l-.64 4.25zm-3.41-4.21l-.387 2.411-.019.19-.004.092v.09l.004.09.007.085.01.083.03.16.045.15.025.071.06.133.07.121.08.109.09.097.045.041.05.04.05.038.107.06.054.027.057.02.058.018.058.014.06.01.062.007.15.002.245-.011.269-.032.168-.037.141-.048.123-.058.072-.044.13-.1.147-.147.175-.198-.105.674h1.239l.626-4.147h-1.24l-.325 2.096-.023.116-.033.108-.04.1-.05.09-.056.08-.062.071-.067.063-.072.055-.074.047-.077.04-.077.032-.08.026-.076.02-.152.022-.073.002-.058-.004-.058-.009-.057-.015-.054-.023-.054-.03-.047-.036-.045-.04-.04-.051-.036-.056-.03-.064-.023-.071-.016-.076-.012-.085-.002-.093.005-.097.015-.106.336-2.124h-1.24zm-3.575 4.174h1.312l.5-2.545.03-.07.032-.064.038-.06.04-.052.043-.05.044-.043.047-.04.047-.034.05-.032.049-.027.05-.023.05-.022.049-.018.046-.014.047-.013.045-.01.02-.004h.05l.03.003.03.004.031.006.033.005.03.007.03.007.03.007.024.006.024.007.018.005.015.004.008.002.004.002.354-1.218-.063-.002-.06-.001h-.06l-.058.001-.057.002-.056.006-.054.005-.054.007-.052.01-.05.008-.049.013-.048.012-.049.015-.045.014-.046.018-.043.018-.043.02-.042.02-.041.023-.04.023-.039.025-.038.025-.036.029-.035.029-.037.03-.034.03-.032.033-.032.036-.03.034-.031.038-.03.038-.03.04.049-.561h-1.144z"/><path d="M15.918 17.805h-1.364l.005-.03.745-4.257h1.193l-.043.5.1-.116.07-.065.108-.089.12-.075.084-.044.087-.039.094-.032.147-.04.16-.026.11-.011.179-.004.155.005-.371 1.278-.034-.015-.233-.054-.06-.006-.062.003-.135.037-.096.039-.05.023-.047.026-.049.031-.045.033-.045.039-.044.041-.041.049-.039.05-.036.059-.032.062-.03.069-.5 2.56zm-1.303-.05h1.261l.495-2.524.033-.076.033-.066.039-.061.04-.054.044-.051.047-.045.048-.04.048-.036.052-.033.05-.028.103-.046.097-.033.115-.028h.054l.128.018.162.04.337-1.161-.149-.003-.114.004-.161.017-.101.018-.187.053-.088.036-.083.039-.155.095-.14.116-.092.1-.088.113-.054.074.053-.623h-1.094l-.733 4.184zm-2.175-4.193h1.17-1.17zm0-.044h1.169v1H12.44zm2.886.044h1.156-1.156z"/><path d="M15.326 13.518h1.156v1h-1.156z"/></g></g></svg>