<svg xmlns="http://www.w3.org/2000/svg" width="30" height="30"><g fill="none"><circle cx="14.998" cy="14.998" r="14.998" fill="#F3F2F2"/><circle cx="15.971" cy="14.067" r="1.973" fill="#F26E21"/><path d="M5.342 15.012c-.232.208-.532.298-1.009.298h-.198v-2.477h.198c.477 0 .765.084 1.01.303.254.225.406.573.406.932 0 .36-.152.72-.407.944zm-.861-2.814H3.398v3.746h1.077c.572 0 .985-.134 1.348-.432.43-.354.685-.887.685-1.439 0-1.106-.833-1.875-2.027-1.875m2.367 3.746h.736v-3.746h-.736v3.746m2.538-2.309c-.442-.162-.573-.27-.573-.47 0-.237.232-.417.55-.417.22 0 .402.09.595.303l.385-.5a1.658 1.658 0 0 0-1.11-.415c-.668 0-1.179.46-1.179 1.072 0 .518.238.781.93 1.03.288.1.435.167.51.212a.45.45 0 0 1 .22.388c0 .304-.243.528-.572.528-.351 0-.634-.174-.805-.5l-.475.455c.34.494.747.714 1.309.714.764 0 1.302-.506 1.302-1.23 0-.596-.249-.866-1.087-1.17m1.319.438c0 1.102.873 1.956 1.994 1.956.318 0 .589-.062.924-.219v-.86c-.295.292-.556.41-.89.41-.742 0-1.269-.534-1.269-1.292 0-.719.544-1.287 1.235-1.287.35 0 .617.124.924.422v-.86a1.894 1.894 0 0 0-.907-.23c-1.116 0-2.01.872-2.01 1.96m8.886.642l-1.008-2.517h-.805l1.604 3.842h.396l1.632-3.842h-.8l-1.019 2.517m2.153 1.229h2.09v-.634h-1.353v-1.012h1.301v-.634h-1.301v-.831h1.353v-.635h-2.09v3.746m3.528-2.021h-.215v-1.136h.227c.46 0 .709.192.709.557 0 .376-.25.579-.721.579zm1.478-.62c0-.7-.486-1.105-1.337-1.105h-1.093v3.746h.737V14.44h.097l1.019 1.505h.906l-1.19-1.578c.556-.112.861-.489.861-1.062" fill="#0B161F"/><path fill="#000" d="M8.773 19.426V17.32l1.439 1.505v-1.371h.298v2.093l-1.44-1.502v1.382h-.297zm3.298-1.693h-.79v.474h.767v.28h-.768v.66h.791v.28h-1.088v-1.974h1.088v.28zm.936 0v1.693h-.298v-1.693h-.453v-.28h1.203v.28zm.933-.28l.514 1.319.537-1.415.514 1.415.545-1.319h.324l-.882 2.098-.508-1.398-.529 1.4-.838-2.1zm2.49.977c0-.277.103-.516.306-.715.203-.2.447-.3.732-.3.28 0 .522.101.723.302a.986.986 0 0 1 .303.725.972.972 0 0 1-.304.722c-.204.199-.45.298-.738.298a1.02 1.02 0 0 1-.686-.264.97.97 0 0 1-.335-.767zm.301.004c0 .218.074.397.22.537a.705.705 0 0 0 .505.211.711.711 0 0 0 .524-.214.725.725 0 0 0 .213-.529.72.72 0 0 0-.21-.528.696.696 0 0 0-.52-.215.702.702 0 0 0-.52.215.709.709 0 0 0-.212.523zm2.806.151l.61.841h-.364l-.563-.807h-.054v.807h-.298v-1.973h.349c.26 0 .449.049.565.147a.54.54 0 0 1 .192.432c0 .14-.04.26-.12.36a.535.535 0 0 1-.317.193zm-.37-.226h.093c.282 0 .424-.108.424-.323 0-.202-.138-.303-.412-.303h-.106v.626zm1.575-.119l.768-.787h.398l-.893.893.898 1.08h-.399l-.71-.878-.062.062v.816h-.298v-1.973h.298v.787z"/><path fill="#F26E21" d="M29.949 16.123c-2.82 3.573-9.368 9.745-21.012 12.594a14.939 14.939 0 0 0 6.06 1.279c7.904 0 14.376-6.116 14.952-13.873z"/></g></svg>