<svg xmlns="http://www.w3.org/2000/svg" width="30" height="30" viewBox="0 0 30 30">
    <g fill="none" fill-rule="evenodd">
        <circle cx="15" cy="15" r="15" fill="#FFF"/>
        <g fill-rule="nonzero">
            <path fill="#4285F4" d="M16.752 8.762c0-.583-.048-1.164-.147-1.739h-8.06v3.29h4.615c-.19 1.063-.806 2.002-1.706 2.598v2.137h2.755c1.613-1.485 2.543-3.685 2.543-6.286z" transform="translate(6 6)"/>
            <path fill="#34A853" d="M8.545 17.114c2.306 0 4.249-.757 5.664-2.064l-2.755-2.137c-.767.52-1.754.817-2.909.817-2.228 0-4.12-1.502-4.797-3.527H.91v2.203c1.45 2.887 4.405 4.708 7.635 4.708z" transform="translate(6 6)"/>
            <path fill="#FBBC04" d="M3.748 10.203c-.358-1.06-.358-2.21 0-3.27V4.73H.91c-1.213 2.415-1.213 5.26 0 7.676l2.838-2.203z" transform="translate(6 6)"/>
            <path fill="#EA4335" d="M8.545 3.405c1.218-.02 2.395.44 3.278 1.282l2.44-2.44C12.716.797 10.667-.002 8.545.023 5.315.022 2.361 1.845.91 4.73l2.838 2.202c.676-2.024 2.569-3.527 4.797-3.527z" transform="translate(6 6)"/>
        </g>
    </g>
</svg>
