<svg xmlns="http://www.w3.org/2000/svg" width="30" height="30"><g fill="none"><circle cx="14.998" cy="14.998" r="14.998" fill="#3C80AD"/><path fill="#931B1D" d="M10.095 7.719c-3.785.024-6.849 3.11-6.849 6.907 0 3.813 3.088 6.908 6.893 6.908a6.858 6.858 0 0 0 4.638-1.8c.252-.23.486-.477.7-.74h-1.411a6.686 6.686 0 0 1-.514-.712h2.435c.149-.237.282-.484.402-.74H13.15a6.727 6.727 0 0 1-.288-.725h3.815a6.969 6.969 0 0 0 .196-3.67h-4.214c.053-.246.118-.488.197-.726h3.817a6.925 6.925 0 0 0-.297-.74H13.15c.116-.249.248-.49.395-.725h2.434a6.863 6.863 0 0 0-.535-.739h-1.357c.21-.248.44-.481.69-.697a6.855 6.855 0 0 0-4.637-1.801h-.045z"/><path fill="#F16622" d="M26.278 14.629c0 3.814-3.084 6.907-6.892 6.908-3.806.002-6.893-3.09-6.894-6.906v-.002c0-3.816 3.084-6.91 6.891-6.91 3.807-.002 6.894 3.09 6.895 6.906v.004z"/><path fill="#F7981D" d="M26.278 14.705c0 3.815-3.084 6.908-6.892 6.909-3.806.001-6.893-3.091-6.894-6.906v-.003c0-3.815 3.084-6.909 6.891-6.91 3.807-.001 6.894 3.091 6.895 6.906v.004z"/><path fill="#CB2026" d="M10.095 7.797c-3.785.024-6.849 3.11-6.849 6.908 0 3.813 3.088 6.908 6.893 6.908a6.859 6.859 0 0 0 4.638-1.8v-.001c.252-.229.486-.476.7-.74h-1.411a6.63 6.63 0 0 1-.514-.71h2.435c.149-.238.282-.486.402-.74H13.15a6.78 6.78 0 0 1-.288-.726h3.815a6.966 6.966 0 0 0 .196-3.67h-4.214c.053-.246.118-.489.197-.726h3.817a6.932 6.932 0 0 0-.297-.74H13.15c.116-.248.248-.491.395-.725h2.434a6.99 6.99 0 0 0-.535-.74h-1.357c.21-.247.44-.48.69-.697a6.856 6.856 0 0 0-4.637-1.801h-.045z"/><path d="M12.618 16.463l.092-.625c-.05 0-.124.022-.19.022-.255 0-.283-.136-.267-.237l.207-1.276h.388l.094-.691h-.366l.074-.43h-.734c-.016.016-.433 2.419-.433 2.71 0 .434.242.627.584.624.268-.002.477-.077.55-.097zm.232-1.191c0 1.039.684 1.286 1.268 1.286.538 0 .775-.12.775-.12l.13-.71s-.41.182-.78.182c-.788 0-.65-.59-.65-.59h1.492s.096-.477.096-.67c0-.485-.241-1.076-1.047-1.076-.738 0-1.284.797-1.284 1.698zm1.287-1.04c.414 0 .338.467.338.505h-.815c0-.048.077-.504.477-.504zm4.647 2.231l.132-.802s-.36.182-.607.182c-.52 0-.73-.4-.73-.827 0-.868.448-1.346.947-1.346.374 0 .674.21.674.21l.12-.778s-.445-.181-.826-.181c-.848 0-1.672.736-1.672 2.12 0 .917.445 1.523 1.32 1.523.248 0 .642-.1.642-.1zM8.581 13.586c-.503 0-.889.161-.889.161l-.106.634s.319-.13.8-.13c.273 0 .472.031.472.254 0 .135-.024.185-.024.185s-.215-.018-.315-.018c-.635 0-1.301.271-1.301 1.09 0 .645.437.793.708.793.518 0 .74-.336.753-.338l-.024.282H9.3l.288-2.026c0-.86-.748-.887-1.008-.887zm.158 1.648c.014.124-.078.704-.52.704-.228 0-.287-.174-.287-.278 0-.2.109-.442.647-.442.125 0 .138.013.16.016zm1.537 1.306c.165 0 1.11.042 1.11-.935 0-.914-.874-.733-.874-1.1 0-.183.142-.24.403-.24.103 0 .501.033.501.033l.093-.65s-.258-.058-.677-.058c-.543 0-1.094.217-1.094.96 0 .843.919.758.919 1.113 0 .236-.257.256-.455.256-.342 0-.65-.118-.652-.112l-.097.642c.017.006.207.09.823.09zm14.587-3.537l-.158.984s-.276-.382-.708-.382c-.673 0-1.233.812-1.233 1.746 0 .603.298 1.193.91 1.193.44 0 .683-.307.683-.307l-.032.262h.714l.56-3.498-.736.002zm-.34 1.92c0 .388-.193.906-.59.906-.265 0-.388-.222-.388-.57 0-.57.255-.947.577-.947.265 0 .4.182.4.61zM4.607 16.502l.447-2.64.066 2.64h.505l.944-2.64-.418 2.64h.75L7.482 13H6.319l-.724 2.147L5.558 13H4.487L3.9 16.5zm11.308.005c.213-1.217.253-2.206.763-2.026.09-.47.175-.653.272-.852 0 0-.045-.01-.141-.01-.328 0-.572.45-.572.45l.065-.413h-.684l-.457 2.85h.754zm4.563-2.921c-.504 0-.89.161-.89.161l-.105.634s.318-.13.8-.13c.272 0 .472.031.472.254 0 .135-.024.185-.024.185s-.215-.018-.316-.018c-.635 0-1.301.271-1.301 1.09 0 .645.437.793.708.793.518 0 .741-.336.753-.338l-.024.282h.647l.288-2.026c0-.86-.748-.887-1.008-.887zm.157 1.648c.014.124-.077.704-.52.704-.227 0-.286-.174-.286-.278 0-.2.11-.442.646-.442.126 0 .139.013.16.016zm1.441 1.273c.214-1.217.253-2.206.763-2.026.09-.47.176-.653.273-.852 0 0-.046-.01-.142-.01-.329 0-.572.45-.572.45l.066-.413h-.684l-.458 2.85h.754z" fill="#FFF"/></g></svg>