<svg xmlns="http://www.w3.org/2000/svg" width="15" height="24"><path fill="#FF7745" fill-rule="evenodd" d="M.221 12.88c.361-.684 1.349-1.26 2.659-.267 0 0 1.768 1.355 4.622 1.355 2.853 0 4.621-1.355 4.621-1.355 1.31-.989 2.294-.417 2.66.267.603 1.205-.093 1.78-1.68 2.77-1.334.816-3.17 1.14-4.383 1.261l1.018.966 3.716 3.576c1.36 1.34-.852 3.435-2.226 2.14-.93-.908-2.293-2.22-3.716-3.589L3.795 23.59c-1.373 1.289-3.585-.824-2.211-2.141.944-.909 2.294-2.22 3.717-3.576l1.004-.966c-1.198-.122-3.063-.427-4.413-1.26C.304 14.66-.392 14.085.22 12.88zM7.499 0c3.477 0 6.317 2.718 6.317 6.078 0 3.346-2.84 6.063-6.317 6.063-3.48 0-6.32-2.717-6.32-6.063C1.18 2.718 4.02 0 7.5 0zm0 3.079c-1.71 0-3.104 1.34-3.103 2.999 0 1.644 1.394 2.985 3.103 2.985 1.709 0 3.102-1.341 3.102-2.985 0-1.658-1.393-3-3.102-3z"/></svg>