<svg xmlns="http://www.w3.org/2000/svg" width="19" height="24"><path fill="#E91515" fill-rule="evenodd" d="M9.7 0C3.365 0 0 4.418 0 9.228c0 2.237 1.147 5.02 2.98 5.908.279.133.427.075.491-.204.05-.212.297-1.248.408-1.73a.465.465 0 0 0-.102-.436c-.606-.765-1.092-2.17-1.092-3.48 0-3.364 2.452-6.62 6.628-6.62 3.607 0 6.132 2.554 6.132 6.205 0 4.125-2.006 6.983-4.615 6.983-1.441 0-2.52-1.238-2.173-2.755.413-1.814 1.216-3.77 1.216-5.077 0-1.172-.606-2.149-1.858-2.149-1.472 0-2.657 1.583-2.657 3.703 0 1.351.44 2.264.44 2.264s-1.454 6.39-1.721 7.58c-.258 1.152-.202 2.71-.098 3.89a.752.752 0 0 0 .485.646.718.718 0 0 0 .875-.33c.563-1.003 1.237-2.35 1.515-3.46.178-.713.914-3.625.914-3.625.479.948 1.877 1.75 3.365 1.75 4.427 0 7.617-4.227 7.617-9.484C18.75 3.77 14.792 0 9.7 0"/></svg>