<svg xmlns="http://www.w3.org/2000/svg" width="38" height="38" viewBox="0 0 38 38">
    <g fill="#54B5F5" fill-rule="evenodd">
        <path d="M19 0c10.493 0 19 8.507 19 19s-8.507 19-19 19S0 29.493 0 19v-.271c0 10.343 8.385 18.728 18.729 18.728 10.343 0 18.728-8.385 18.728-18.728C37.457 8.43 29.145.074 18.865 0z"/>
        <path d="M19 35.286c-8.994 0-16.286-7.292-16.286-16.286 0-8.994 7.292-16.286 16.286-16.286 8.994 0 16.286 7.292 16.286 16.286v.233c0-8.866-7.187-16.053-16.053-16.053S3.18 10.367 3.18 19.233c0 8.827 7.124 15.99 15.936 16.052z"/>
        <path d="M19 5.429c7.495 0 13.571 6.076 13.571 13.571S26.495 32.571 19 32.571 5.429 26.495 5.429 19 11.505 5.429 19 5.429zm1.205 7.755h-5.212v9.518h-1.81v1.266h1.81v1.882h2.353v-1.882h3.98v-1.266h-3.98V21.67h2.859c1.689 0 3.006-.362 3.953-1.085.947-.724 1.42-1.774 1.42-3.149 0-1.387-.473-2.443-1.42-3.167-.883-.675-2.09-1.035-3.62-1.08l-.333-.005zm-.018 1.99c.977 0 1.725.196 2.243.588.52.392.778.956.778 1.692s-.262 1.306-.787 1.71c-.524.404-1.27.606-2.234.606h-2.841v-4.596h2.84z"/>
    </g>
</svg>
