<svg xmlns="http://www.w3.org/2000/svg" width="500" height="500"><defs><linearGradient id="a" x1="6.714%" x2="93.608%" y1="93.485%" y2="6.619%"><stop offset="0%" stop-color="#FD5"/><stop offset="50%" stop-color="#FF543E"/><stop offset="100%" stop-color="#C837AB"/></linearGradient></defs><g fill="none" fill-rule="evenodd"><g fill-rule="nonzero"><path fill="#ECF4FF" d="M431.966 254.77c-5.615-20.14 12.233-20.918 12.626-46.869.161-10.614-5.654-21.424-19.645-26.382-6.876-2.437-13.729-4.112-19.847-7.986-13.941-8.83-13.69-25.631-17.493-39.954-8.353-31.459-40.499-56.45-73.038-55.638-23.457.586-44.664 1.304-66.049 21.215-14.632 13.623-24.143 30.386-37.728 44.432-14.386 14.873-31.917 22.009-51.602 26.787-18.618 4.519-38.869 9.897-53.119 23.449-13.391 12.735-11.439 26.055-5.697 41.692 6.331 17.243-7.397 28.975-21.712 35.689-12.053 5.653-32.229 17.152-32.888 38.355-2.042 65.675 39.674 65.938 55.226 72.18 143.075 57.422 197.982 13.132 258.647 14.028 60.476.893 95.143-72.244 93.043-93.782-2.668-27.35-16.803-33.151-20.724-47.216z"/><path fill="#6684C0" d="M102.506 299.503l-3.913 1.081-1.175-5.541a1.69 1.69 0 1 1 3.252-.899l1.836 5.359z"/><path fill="#3A3E71" d="M119.81 371.989c.57 1.972 1.247 3.462 1.549 3.379.301-.083.118-1.709-.406-3.694l-1.143.315z"/><path fill="#FFF" d="M122.206 363.536a87.91 87.91 0 0 1-4.281-12.019l-15.292-55.354-5.863 1.62 15.292 55.353a87.809 87.809 0 0 1 2.496 12.514l.161 1.288c.025.199.104.387.228.544l4.896 6.178a1.095 1.095 0 0 0 1.941-.536l1.03-7.815a1.1 1.1 0 0 0-.083-.583l-.525-1.19z"/><path fill="#FFF" d="M96.773 297.783l5.863-1.62 8.5 30.769-5.863 1.62zm19.289 71.106l6.516-1.8.156-1.178-7.41 2.047z"/><path fill="#6684C0" d="M111.094 342.416l2.14-.592 3.703 13.402-2.14.592z"/><path fill="#FFF" d="M112.92 349.024l2.14-.592 1.877 6.795-2.14.591z"/><path fill="#6684C0" d="M105.14 328.062l5.862-1.62.29 1.054-5.861 1.62zm-8.008-28.922l5.863-1.619.29 1.054-5.862 1.62z"/><path fill="#F67555" d="M115.957 295.257l4.994 68.106 2.996-2.844-4.801-65.495zm-3.188.233l4.802 65.496 3.348 1.954-4.962-67.683z"/><path fill="#FFF" d="M122.177 361.547s-.6-.854-1.418-.794c-.818.06-1.287.993-1.287.993-.935-1.038-1.901-.759-1.901-.759l2.423 6.41 2.49-.181 1.463-6.696c0-.001-.996-.136-1.77 1.027z"/><path fill="#3A3E71" d="M121.232 367.208c-.428.031-.84.098-1.237.189l1.232 3.259a.261.261 0 0 0 .27.18h.003a.26.26 0 0 0 .241-.217l.744-3.403a8.171 8.171 0 0 0-1.253-.008z"/><path fill="#FFF" d="M112.615 293.259l6.376-.468.163 2.22-6.376.467z"/><path fill="#6684C0" d="M116.899 287.681l-2.978.218a1.704 1.704 0 0 0-1.575 1.824l.26 3.549 6.376-.467-.26-3.549a1.702 1.702 0 0 0-1.823-1.575z"/><path fill="#65A6EA" d="M126.615 293.365l1.466 68.273 3.14-2.686-1.41-65.656z"/><path fill="#65A6EA" d="M123.419 293.433l1.41 65.656 3.243 2.125-1.457-67.849z"/><path fill="#FFF" d="M129.4 359.887s-.555-.884-1.375-.867c-.82.018-1.337.925-1.337.925-.88-1.085-1.859-.856-1.859-.856l2.088 6.527 2.496-.052 1.808-6.612s-.988-.186-1.821.935z"/><path fill="#3A3E71" d="M128.164 365.493a8.257 8.257 0 0 0-1.246.125l1.062 3.318a.26.26 0 0 0 .261.193h.003a.26.26 0 0 0 .252-.204l.919-3.361a8.299 8.299 0 0 0-1.251-.071z"/><path fill="#FFF" d="M123.38 291.215l6.392-.137.048 2.224-6.391.137z"/><path fill="#6684C0" d="M127.947 285.847l-2.985.064a1.704 1.704 0 0 0-1.667 1.74l.076 3.557 6.392-.137-.076-3.557a1.704 1.704 0 0 0-1.74-1.667zm12.177 15.171l-3.834-1.335 2.183-5.226a1.69 1.69 0 0 1 3.187 1.11l-1.536 5.451z"/><path fill="#3A3E71" d="M113.15 370.488c-.652 1.947-.942 3.557-.647 3.66.295.103 1.068-1.339 1.767-3.27l-1.12-.39z"/><path fill="#FFF" d="M119.927 364.896c.804-4.182 1.91-8.3 3.311-12.322l18.889-54.232-5.745-2.001-18.889 54.231a87.86 87.86 0 0 1-5.061 11.714l-.6 1.151a1.08 1.08 0 0 0-.121.577l.516 7.866a1.093 1.093 0 0 0 1.901.662l5.291-5.844c.134-.148.225-.331.263-.527l.245-1.275z"/><path fill="#FFF" d="M125.894 326.475l10.5-30.146 5.744 2-10.499 30.146zm-14.065 39.332l6.384 2.224.798-.881-7.26-2.528z"/><path fill="#6684C0" d="M118.242 354.323l4.573-13.13 2.098.73-4.573 13.13z"/><path fill="#FFF" d="M118.242 354.324l2.318-6.657 2.098.73-2.319 6.657z"/><path fill="#6684C0" d="M125.702 327.027l.36-1.032 5.743 2-.36 1.033zm9.855-28.344l.36-1.032 5.743 2-.36 1.032z"/><path fill="#3A3E71" d="M134.728 377.89h-32.546a2.89 2.89 0 0 1-2.89-2.89v-49.808h38.325V375a2.888 2.888 0 0 1-2.889 2.89z"/><path fill="#B4CF66" d="M391.02 287.082c.553 8.27-3.83 16.16-10.843 19.666-4.383 2.63-9.643 1.753-14.026 0-3.506-1.753-6.136-4.383-7.889-7.014-2.63-5.259-4.383-9.642-3.507-15.779.877-4.383 1.754-8.766 5.26-11.396 3.506-3.507 7.889-5.26 13.149-5.26 2.63 0 4.383.876 7.013 1.753 4.383 2.63 7.89 6.137 9.368 10.195.929 2.371 1.452 5.014 1.475 7.835z"/><path fill="#CFE789" d="M386.268 287.594c.045 8.635-2.585 20.031-13.105 20.908-4.383 0-7.89-2.63-9.643-6.136-.876-3.507-2.63-6.137-3.506-9.643 0-5.26-.877-11.396 1.753-16.656.877-1.753 1.754-3.506 3.507-5.26 1.753-2.63 5.26-2.63 7.89-3.507 1.754 0 3.507.876 5.26 1.753 3.507 2.63 5.26 7.013 6.745 10.505.682 2.443 1.073 5.159 1.099 8.036z"/><path fill="#B4CF66" d="M381.35 288.002c-.297 7.35-.297 20.5-7.31 18.747-13.149-3.507-14.026-33.312-.876-38.573 4.383-1.753 6.137 7.014 7.47 11.629.431 2.502.686 5.278.716 8.197z"/><path fill="#CFE789" d="M377.116 288.206c-.446 7.146.431 14.159-3.953 20.295-6.137-12.273-6.137-28.929 0-41.202 2.63 3.507 3.507 7.89 3.555 12.627.226 2.533.366 5.34.398 8.28z"/><path fill="#3A3E71" d="M351.818 303.96l8.778 29.346s3.494 2.651 11.237 2.798c7.744.146 13.256-1.818 13.256-1.818l9.829-29.449-43.1-.877z"/><path fill="#3A5095" d="M396.764 310.243c0 .968-.785 1.753-1.753 1.753H351.38a1.753 1.753 0 0 1-1.754-1.753v-8.328c0-.968.785-1.753 1.754-1.753h43.631c.968 0 1.753.785 1.753 1.753v8.328z"/><path fill="#052F41" d="M424.345 362.118c-.122 0-.269.024-.269.067v-.483H322.045c-1.596 0-2.889 3.927-2.889 8.514 0 4.588 1.294 8.514 2.889 8.514h102.031v-.067c0 .043.146.067.269.067 1.596 0 2.889-3.719 2.889-8.307 0-4.586-1.294-8.305-2.889-8.305z"/><path fill="#116C93" d="M419.919 364.449h-19.642c.948 1.099 1.223 3.844 1.223 6.622 0 2.736-.256 4.913-1.18 6.561h19.599c.998 0 1.806-3.001 1.806-6.592 0-3.589-.809-6.591-1.806-6.591zm-93.901 6.223c0-2.848.536-5.124 1.334-6.772h-3.64c-.998 0-1.806 3.001-1.806 6.592 0 3.59.808 6.592 1.806 6.592h3.445c-.689-1.648-1.139-3.802-1.139-6.412z"/><path fill="#F67555" d="M414.968 346.935a5.46 5.46 0 0 1-.466-.064h-80.764c-1.271 0-2.302 3.168-2.302 7.416 0 4.249 1.031 7.416 2.302 7.416h81v.296c0 .04.258.062.355.062 1.272 0 2.243-3.449 2.243-7.697 0-4.249-1.096-7.429-2.368-7.429z"/><path fill="#F67555" d="M414.968 346.884c-.097 0-.466-.013-.466-.013h-80.764c-1.271 0-2.302 3.296-2.302 7.141h85.84c0-3.845-1.036-7.128-2.308-7.128z"/><path fill="#C95843" d="M336.167 354.472c0-2.764.564-4.854 1.396-6.502h-1.572c-.997 0-1.806 3.001-1.806 6.592 0 3.591.808 6.592 1.806 6.592h1.706c-.904-1.099-1.53-3.774-1.53-6.682z"/><path fill="#FFE3DC" d="M371.341 351.266h40.65v3.296h-40.65z"/><path fill="#65A6EA" d="M401.636 331.732a6.56 6.56 0 0 0-.082.004v.304h-60.425v-.304c-1.648.045-1.908 3.377-1.908 7.486s.26 7.441 1.908 7.486v.164h60.425v-.164l.082.004c1.065 0 1.929-3.354 1.929-7.49 0-4.137-.865-7.49-1.929-7.49z"/><path fill="#C3CBDB" d="M266.035 373.684c-3.564-5.185-3.888-12.175-3.888-12.175h-23.742s-.324 6.991-3.888 12.175c-3.564 5.185-11.017 8.425-11.017 8.425h53.553c-.001-.001-7.453-3.241-11.018-8.425z"/><path fill="#202020" d="M367.43 357.714a7.777 7.777 0 0 1-7.777 7.777h-219.43a7.776 7.776 0 0 1-7.776-7.777V213.179a7.775 7.775 0 0 1 7.776-7.776h219.43a7.776 7.776 0 0 1 7.777 7.776v144.535z"/><path fill="#DEE5F3" d="M132.446 343.283v14.432a7.776 7.776 0 0 0 7.776 7.777h219.43a7.777 7.777 0 0 0 7.777-7.777v-14.432H132.446z"/><path fill="#A7B2D4" d="M100.486 159.884c-.104-.158-.138-.159-.101-.003-.177-.673-1.042-.998-1.504-.367-.46.627.108 1.357.804 1.323-.16.012-.149.044.033.095.588.286 1.218-.574.768-1.048zm-5.929 19.846c.279-.335.585-.684.578-1.141-.007-.425-.335-.666-.743-.544-.437.131-.678.529-.913.895-.464.725.527 1.453 1.078.79zm11.456-2.489c.681.499 1.458-.559.775-1.059-.681-.498-1.458.56-.775 1.059zm253.896-49.495l.794.035c.333.015.687-.255.763-.581a.857.857 0 0 0 0-.421c-.076-.324-.428-.596-.763-.581l-.794.035c-.972.044-.974 1.47 0 1.513zm6.454 16.119c.633 0 .634-.984 0-.984-.633 0-.634.984 0 .984zm-8.936-7.312c.807 0 .808-1.254 0-1.254-.807 0-.808 1.254 0 1.254zM163.11 231.657c-.287-.171-.573-.23-.902-.266-.231-.025-.488.233-.463.463.036.329.095.613.266.902.676 1.136 2.243-.419 1.099-1.099zm-7.355-5.892l.331-.026c1.073-.086 1.075-1.584 0-1.67l-.331-.026c-1.108-.089-1.11 1.811 0 1.722zm13.907-31.415c.958 0 .959-1.488 0-1.488-.958 0-.959 1.488 0 1.488zm1.986 5.963c.965 0 .967-1.5 0-1.5-.965 0-.967 1.5 0 1.5zm201.22 56.168c.905 0 .906-1.406 0-1.406-.905-.001-.906 1.406 0 1.406zm8.44-1.465c-.456.021-.732.084-1.007.463a.572.572 0 0 0 0 .597c.275.379.552.442 1.007.463.98.046.981-1.569 0-1.523zm-4.443-5.718a3.563 3.563 0 0 0-.541-.455c-.575-.386-1.345.384-.958.958.135.201.284.37.455.541.673.673 1.717-.371 1.044-1.044zm3.946-4.288c.837 0 .838-1.301 0-1.301-.837 0-.838 1.301 0 1.301z"/><path fill="#B1C0DE" d="M416.817 341.371c2.081 0 2.085-3.234 0-3.234-2.082 0-2.085 3.234 0 3.234zm1.295-18.327l-.055.316c-.142.813.352 1.63 1.242 1.63.883 0 1.384-.817 1.242-1.63l-.055-.316c-.206-1.174-2.168-1.175-2.374 0zm8.634 17.217c1.93 0 1.934-3 0-3-1.931 0-1.934 3 0 3z"/><path fill="#FFE3DC" d="M105.38 367.2l.299.114c1.03.394 2.108-.603 2.108-1.606 0-1.006-1.08-1.999-2.108-1.606l-.299.115c-1.462.559-1.464 2.424 0 2.983zm16.297 1.283c2.292 0 2.296-3.562 0-3.562-2.292-.001-2.296 3.562 0 3.562zm-5.957-17.192c1.252 0 1.254-1.945 0-1.945-1.252 0-1.254 1.945 0 1.945z"/><path fill="#B1C0DE" d="M186.039 108.387c2.187 0 2.19-3.398 0-3.398-2.187-.001-2.19 3.398 0 3.398zm15.886 6.09c1.719 0 1.722-2.672 0-2.672-1.719 0-1.722 2.672 0 2.672zm1.138-14.031l-.316.055c-1.21.209-1.211 2.236 0 2.445l.316.055c.836.144 1.676-.361 1.676-1.277 0-.91-.84-1.423-1.676-1.278z"/><path fill="#DEE5F3" d="M278.557 384.75h-56.182a.875.875 0 0 1-.875-.875v-4.268c0-.483.392-.875.875-.875h56.182c.483 0 .875.392.875.875v4.268a.875.875 0 0 1-.875.875z"/><path fill="#414D5A" d="M354.775 335.112H144.374a3.407 3.407 0 0 1-3.407-3.407V216.626a3.407 3.407 0 0 1 3.407-3.407h210.401a3.407 3.407 0 0 1 3.407 3.407v115.079a3.408 3.408 0 0 1-3.407 3.407z"/><path fill="#C9D6EB" d="M351.818 225.517a3.407 3.407 0 0 0-3.407-3.407H152.666a3.407 3.407 0 0 0-3.407 3.407v9.572h202.559v-9.572z"/><path fill="#FFF" d="M149.259 235.089v87.726a3.407 3.407 0 0 0 3.407 3.407h195.745a3.407 3.407 0 0 0 3.407-3.407v-87.726H149.259z"/><path fill="#3A3E71" d="M366.838 223.448c.252.253.457.551.591.878v-1.531l-.591.653z"/><g><path fill="#C3CBDB" d="M178.714 389.368H314.85l22.162 10.655H153.615z"/><path fill="#DEE5F3" d="M153.615 400.023h183.398v2.916H153.615z"/></g><path fill="#202020" d="M250.707 359.883h-1.224a5.63 5.63 0 0 1-5.631-5.631v-1.224a5.63 5.63 0 0 1 5.631-5.631h1.224a5.63 5.63 0 0 1 5.631 5.631v1.224a5.63 5.63 0 0 1-5.631 5.631z"/><g fill="#DEE5F3"><path d="M194.399 393.292l-7.004-.006 4.542-1.986h6.439zm-8.541-.008l-7.004-.006 5.231-1.978h6.439zm25.627.023l-7.004-.007 3.163-2h6.439zm-8.541-.008l-7.004-.006 3.852-1.993h6.439zm25.763.023l-7.004-.006 1.774-2.016h6.438zm-8.542-.007l-7.004-.007 2.463-2.008h6.439zm25.627.022l-7.003-.006.395-2.031h6.438zm-8.541-.007l-7.004-.006 1.085-2.024h6.439zM262.939 393.353l-7.003-.007-.988-2.046h6.438zm-8.541-.008l-7.004-.006-.299-2.039h6.439zm25.627.022l-7.003-.006-2.367-2.061h6.438zm-8.541-.007l-7.004-.006-1.677-2.054h6.439zm25.762.023l-7.003-.006-3.756-2.077h6.438zm-8.541-.008l-7.003-.006-3.067-2.069h6.439zm25.627.023l-7.003-.006-5.135-2.092h6.439zm-8.541-.008l-7.004-.006-4.445-2.084h6.439zM189.873 395.687l-7.683-.014 4.523-1.986 7.118.007zm-9.369-.017l-7.683-.014 5.212-1.979 7.118.008zm28.112.05l-7.683-.014 3.144-2.001 7.118.007zm-9.37-.017l-7.682-.014 3.833-1.993 7.118.008zm28.261.05l-7.683-.013 1.755-2.017 7.118.008zm-9.37-.016l-7.682-.014 2.444-2.008 7.118.007zm28.112.05l-7.682-.014.376-2.032 7.118.008zm-9.369-.017l-7.683-.014 1.066-2.024 7.118.008zM265.059 395.82l-7.683-.014-1.007-2.047 7.119.008zm-9.37-.016l-7.683-.014-.317-2.04 7.118.008zm28.113.05l-7.683-.014-2.385-2.062 7.117.007zm-9.37-.017l-7.684-.014-1.696-2.054 7.119.007zm28.26.05l-7.683-.014-3.774-2.077 7.118.008zm-9.369-.017l-7.683-.013-3.085-2.07 7.117.007zm28.112.051l-7.683-.014-5.153-2.092 7.118.007zm-9.369-.017l-7.683-.014-4.464-2.085 7.117.007z"/><g><path d="M185.239 398.019l-8.345-.02 4.523-1.986 7.779.014zm-10.176-.025l-8.345-.021 5.212-1.979 7.779.016zm30.532.077l-8.344-.021 3.144-2.002 7.78.015zm-10.176-.026l-8.345-.02 3.834-1.994 7.78.014zm50.776.127l-28.426-.071 1.755-2.016 26.501.05zm-30.258-.075l-8.345-.021 2.445-2.009 7.779.014zM266.899 398.224l-8.344-.02-1.007-2.048 7.78.015zm-10.176-.025l-8.344-.021-.318-2.04 7.779.015zm30.532.076l-8.343-.021-2.385-2.062 7.779.015zm-10.175-.025l-8.345-.021-1.696-2.055 7.78.015zm30.694.077l-8.345-.021-3.775-2.078 7.78.016zm-10.177-.026l-8.344-.02-3.086-2.071 7.78.016zm30.533.077l-8.344-.021-5.153-2.093 7.779.016zm-10.176-.026l-8.344-.021-4.464-2.084 7.779.014z"/></g></g><path fill="#C9D6EB" d="M209.544 261.068h81.762v1.487h-81.762zm-40.995-15.245h164.107v3.402H168.549zm40.749 19.868h82.007v1.486h-82.007zm0-9.245h82.007v1.486h-82.007zm0 13.868h82.007v1.486h-82.007zm0 4.623h82.007v1.486h-82.007zm0 4.623h82.007v1.487h-82.007zm0 4.623h82.007v1.486h-82.007zm0 4.622h82.007v1.486h-82.007zm0 4.623h44.328v1.486h-44.328z"/><path fill="#3A3E71" d="M326.784 228.696a2.406 2.406 0 1 1-4.811 0 2.406 2.406 0 0 1 4.811 0zm9.808 0a2.406 2.406 0 1 1-4.811 0 2.406 2.406 0 0 1 4.811 0zm9.807 0a2.406 2.406 0 1 1-4.811 0 2.406 2.406 0 0 1 4.811 0z"/><path fill="#C9D6EB" d="M202.585 319H171.78a3.162 3.162 0 0 1-3.162-3.162v-56.284a3.162 3.162 0 0 1 3.162-3.162h30.805a3.162 3.162 0 0 1 3.162 3.162v56.284a3.162 3.162 0 0 1-3.162 3.162zm126.54 0H298.32a3.162 3.162 0 0 1-3.162-3.162v-56.284a3.162 3.162 0 0 1 3.162-3.162h30.805a3.162 3.162 0 0 1 3.162 3.162v56.284a3.162 3.162 0 0 1-3.162 3.162z"/><g><path fill="#FFD954" d="M286.056 161.257c0-20.729-16.948-37.499-37.744-37.209-20.115.28-36.5 16.751-36.681 36.867a37.044 37.044 0 0 0 7.614 22.9c8.182 10.717 12.687 23.79 13.251 37.261h32.692v-.002c.565-13.512 5.151-26.579 13.323-37.354a37.038 37.038 0 0 0 7.545-22.463z"/><path fill="#FFE3DC" d="M240.511 210.151l-.044-.974c-.013-.279-1.372-28.034-11.8-38.791l-3.486-3.595 4.603 1.975c.099.043 10.052 4.234 18.947 1.315l.313-.103.313.103c8.913 2.926 18.847-1.272 18.946-1.315l4.615-1.987-3.498 3.608c-10.434 10.762-11.788 38.511-11.8 38.791l-2.006-.045c0 .576.455.915.763.963-.836-.128-9.577-.043-14.891.041l-.975.014zm-8.106-38.376c7.969 11.242 9.709 31.585 10.012 36.338 7.972-.123 11.569-.133 13.255-.054.313-4.851 2.07-25.084 10.009-36.284-3.843 1.086-10.361 2.266-16.638.313-6.278 1.953-12.795.774-16.638-.313z"/><g transform="translate(228 208)"><ellipse cx="20.843" cy="30.138" fill="#052F41" rx="14.275" ry="11.442"/><path fill="#052F41" d="M33.967 33.752H7.718a3.115 3.115 0 0 1-3.109-2.929L2.776.029h36.132l-1.833 30.794a3.113 3.113 0 0 1-3.108 2.929z"/><path d="M2.659 10.802a2.41 2.41 0 0 1-.379-4.788L38.642.189a2.41 2.41 0 0 1 .762 4.758L3.042 10.772a2.49 2.49 0 0 1-.383.03zm0 7.976a2.41 2.41 0 0 1-.379-4.788l36.362-5.825a2.41 2.41 0 0 1 .762 4.758L3.042 18.748a2.49 2.49 0 0 1-.383.03zm.733 7.86a2.41 2.41 0 0 1-.379-4.788l34.895-5.59a2.41 2.41 0 0 1 .762 4.758l-34.895 5.59c-.128.019-.256.03-.383.03zm1.973 7.333a2.41 2.41 0 0 1-.379-4.788L36.6 24.118a2.41 2.41 0 0 1 .762 4.758L5.748 33.941a2.48 2.48 0 0 1-.383.03z" fill="#116C93"/></g><path d="M248.843 120.054a1.19 1.19 0 0 1-1.189-1.189V96.924a1.19 1.19 0 0 1 2.378 0v21.941c0 .657-.532 1.189-1.189 1.189zm-21.651 5.802c-.411 0-.811-.213-1.031-.595l-10.971-19.002a1.19 1.19 0 0 1 2.061-1.189l10.971 19.002a1.19 1.19 0 0 1-1.03 1.784zm-15.852 15.85c-.202 0-.406-.052-.594-.16l-19.001-10.97a1.19 1.19 0 0 1 1.189-2.061l19.001 10.97a1.19 1.19 0 0 1-.595 2.221zm-5.8 21.652h-21.941a1.19 1.19 0 0 1 0-2.378h21.941a1.19 1.19 0 0 1 0 2.378zm-13.2 32.622a1.19 1.19 0 0 1-.595-2.22l19.001-10.971a1.19 1.19 0 0 1 1.189 2.061l-19.001 10.971a1.195 1.195 0 0 1-.594.159zm113.005 0c-.202 0-.406-.052-.594-.16l-19.001-10.97a1.19 1.19 0 0 1 1.189-2.061l19.001 10.971a1.19 1.19 0 0 1-.595 2.22zm8.742-32.622h-21.941a1.19 1.19 0 0 1 0-2.378h21.941a1.19 1.19 0 0 1 0 2.378zm-27.741-21.652a1.19 1.19 0 0 1-.595-2.22l19.001-10.97a1.19 1.19 0 1 1 1.189 2.061l-19.001 10.97a1.198 1.198 0 0 1-.594.159zm-15.853-15.85a1.187 1.187 0 0 1-1.03-1.784l10.971-19.002a1.19 1.19 0 0 1 2.061 1.189l-10.971 19.002c-.22.382-.62.595-1.031.595z" fill="#FFD954"/></g></g><g fill-rule="nonzero"><path fill="url(#a)" d="M1.764 1.652C-.1 3.587.28 5.643.28 11.89c0 5.188-.905 10.388 3.833 11.613 1.48.38 14.588.38 16.066-.002 1.972-.51 3.577-2.11 3.797-4.898.03-.39.03-13.029-.001-13.426-.233-2.971-2.063-4.684-4.473-5.03-.553-.08-.663-.104-3.498-.11C5.951.044 3.747-.404 1.764 1.653z" transform="translate(318 91)"/><path fill="#FFF" d="M330.106 94.194c-3.567 0-6.954-.317-8.247 3-.535 1.371-.457 3.15-.457 5.699 0 2.236-.072 4.337.457 5.696 1.29 3.32 4.705 3.002 8.245 3.002 3.416 0 6.937.355 8.247-3.002.535-1.384.456-3.137.456-5.696 0-3.398.188-5.592-1.461-7.24-1.67-1.668-3.929-1.459-7.244-1.459h.004zm-.78 1.568c7.44-.012 8.387-.838 7.865 10.643-.186 4.06-3.28 3.614-7.084 3.614-6.935 0-7.134-.198-7.134-7.13 0-7.013.55-7.123 6.353-7.13v.003zm5.426 1.444a1.044 1.044 0 1 0 0 2.087 1.044 1.044 0 0 0 0-2.087zm-4.646 1.22a4.468 4.468 0 0 0 0 8.933 4.467 4.467 0 1 0 0-8.933zm0 1.567c3.836 0 3.84 5.799 0 5.799-3.835 0-3.84-5.799 0-5.799z"/></g><g fill-rule="nonzero" transform="translate(415 36)"><circle cx="12" cy="12" r="12" fill="#039BE5"/><path fill="#FFF" d="M5.491 11.74l11.57-4.461c.537-.194 1.006.131.832.943l.001-.001-1.97 9.281c-.146.658-.537.818-1.084.508l-3-2.211-1.447 1.394c-.16.16-.295.295-.605.295l.213-3.053 5.56-5.023c.242-.213-.054-.333-.373-.121l-6.871 4.326-2.962-.924c-.643-.204-.657-.643.136-.953z"/></g><g fill-rule="nonzero"><path fill="#D8362A" d="M248.752 27.968s-.249-1.78-.952-2.565c-.91-1.035-1.945-1.035-2.4-1.076-3.352-.248-8.4-.29-8.4-.29s-5.048.042-8.4.29c-.455.041-1.49.083-2.4 1.076-.745.786-.952 2.565-.952 2.565s-.248 2.11-.248 4.22v1.946c0 2.11.248 4.18.248 4.18s.249 1.778.952 2.565c.91 1.034 2.11.993 2.648 1.117 1.904.207 8.152.248 8.152.248s5.048 0 8.4-.29c.455-.041 1.49-.082 2.4-1.075.703-.787.952-2.566.952-2.566s.248-2.11.248-4.18V32.19c0-2.11-.248-4.22-.248-4.22"/><path fill="#FFF" d="M234.103 28.961v8.98l7.863-4.387z"/></g><path fill="#40C1F5" d="M148.548 134.5c9.056 0 14.01-7.502 14.01-14.006 0-.213-.004-.426-.015-.636a10.006 10.006 0 0 0 2.457-2.55 9.85 9.85 0 0 1-2.828.776 4.94 4.94 0 0 0 2.165-2.723 9.857 9.857 0 0 1-3.126 1.194 4.924 4.924 0 0 0-8.391 4.49 13.98 13.98 0 0 1-10.15-5.143 4.912 4.912 0 0 0-.667 2.474c0 1.708.87 3.215 2.192 4.097a4.885 4.885 0 0 1-2.23-.616c-.002.021-.002.042-.002.063a4.926 4.926 0 0 0 3.95 4.826 4.938 4.938 0 0 1-2.223.085 4.93 4.93 0 0 0 4.6 3.419 9.88 9.88 0 0 1-6.116 2.107c-.397 0-.789-.023-1.174-.068a13.945 13.945 0 0 0 7.548 2.211"/><path fill="#FF7745" d="M403.221 209.88c.361-.684 1.349-1.26 2.659-.267 0 0 1.768 1.355 4.622 1.355 2.853 0 4.621-1.355 4.621-1.355 1.31-.989 2.294-.417 2.66.267.603 1.205-.093 1.78-1.68 2.77-1.334.816-3.17 1.14-4.383 1.261l1.018.966 3.716 3.576c1.36 1.34-.852 3.435-2.226 2.14-.93-.908-2.293-2.22-3.716-3.589l-3.717 3.585c-1.373 1.289-3.585-.824-2.211-2.141.944-.909 2.294-2.22 3.717-3.576l1.004-.966c-1.198-.122-3.063-.427-4.413-1.26-1.588-.985-2.284-1.56-1.671-2.766zm7.278-12.88c3.477 0 6.317 2.718 6.317 6.078 0 3.346-2.84 6.063-6.317 6.063-3.48 0-6.32-2.717-6.32-6.063 0-3.36 2.84-6.078 6.32-6.078zm0 3.079c-1.71 0-3.104 1.34-3.103 2.999 0 1.644 1.394 2.985 3.103 2.985 1.709 0 3.102-1.341 3.102-2.985 0-1.658-1.393-3-3.102-3z"/><path fill="#E91515" d="M96.7 53c-6.335 0-9.7 4.418-9.7 9.228 0 2.237 1.147 5.02 2.98 5.908.279.133.427.075.491-.204.05-.212.297-1.248.408-1.73a.465.465 0 0 0-.102-.436c-.606-.765-1.092-2.17-1.092-3.48 0-3.364 2.452-6.62 6.628-6.62 3.607 0 6.132 2.554 6.132 6.205 0 4.125-2.006 6.983-4.615 6.983-1.441 0-2.52-1.238-2.173-2.755.413-1.814 1.216-3.77 1.216-5.077 0-1.172-.606-2.149-1.858-2.149-1.472 0-2.657 1.583-2.657 3.703 0 1.351.44 2.264.44 2.264s-1.454 6.39-1.721 7.58c-.258 1.152-.202 2.71-.098 3.89a.752.752 0 0 0 .485.646.718.718 0 0 0 .875-.33c.563-1.003 1.237-2.35 1.515-3.46.178-.713.914-3.625.914-3.625.479.948 1.877 1.75 3.365 1.75 4.427 0 7.617-4.227 7.617-9.484 0-5.037-3.958-8.807-9.05-8.807"/><g fill-rule="nonzero"><path fill="#01F8F0" d="M72.867 179.911v-1.555h-3.111v17.11a4.671 4.671 0 0 1-4.667 4.667 4.671 4.671 0 0 1-4.667-4.666 4.671 4.671 0 0 1 4.667-4.667h1.555v-3.111H65.09c-4.289 0-7.778 3.489-7.778 7.778 0 4.288 3.49 7.777 7.778 7.777 4.289 0 7.778-3.489 7.778-7.777v-9.348a7.728 7.728 0 0 0 4.666 1.57h1.556v-3.111h-1.556a4.671 4.671 0 0 1-4.666-4.667z"/><path fill="#FF2850" d="M74.467 182.578v-1.556h-3.111v17.111a4.671 4.671 0 0 1-4.667 4.667 4.671 4.671 0 0 1-4.667-4.667 4.671 4.671 0 0 1 4.667-4.666h1.555v-3.111H66.69c-4.289 0-7.778 3.489-7.778 7.777 0 4.29 3.49 7.778 7.778 7.778 4.289 0 7.778-3.489 7.778-7.778v-9.348a7.728 7.728 0 0 0 4.666 1.57h1.556v-3.11h-1.556a4.671 4.671 0 0 1-4.666-4.667z"/><path fill="#000" d="M72.867 182.578v-1.556h-3.111v17.111a4.671 4.671 0 0 1-4.667 4.667 4.671 4.671 0 0 1-4.667-4.667 4.671 4.671 0 0 1 4.667-4.666h1.555v-3.111H65.09c-4.289 0-7.778 3.489-7.778 7.777 0 4.29 3.49 7.778 7.778 7.778 4.289 0 7.778-3.489 7.778-7.778v-9.348a7.728 7.728 0 0 0 4.666 1.57h1.556v-3.11h-1.556a4.671 4.671 0 0 1-4.666-4.667z"/></g><path fill="#FF8363" d="M433 142h1.5v-11.02a3.739 3.739 0 0 0-1.5.965V142zm-3-7.455v7.443l.097.012h1.403v-7.467h-1.403l-.097.012zm-3 3.72c0 1.356.605 2.53 1.5 3.186v-6.368c-.895.654-1.5 1.83-1.5 3.182zm9 3.735h1.5v-10.535a3.418 3.418 0 0 0-1.5-.625V142zm11.903-7.467h-.844c.043-.304.07-.613.07-.933 0-3.093-2.08-5.6-4.645-5.6-1.392 0-2.633.747-3.484 1.918V142h8.903c1.71 0 3.097-1.671 3.097-3.735 0-2.061-1.388-3.732-3.097-3.732z"/></g></svg>