<svg xmlns="http://www.w3.org/2000/svg" width="30" height="30" viewBox="0 0 30 30">
    <g fill="none" fill-rule="evenodd">
        <circle cx="15" cy="15" r="15" fill="#FCB316"/>
        <g fill="#FFF" fill-rule="nonzero">
            <path d="M16.906 17.349c-.08-.22-.224-.368-.328-.562-.254-.333-.552-.622-.85-.91-.105-.035-.15-.134-.249-.174-.065-.085-.17-.13-.254-.194-.169-.13-.353-.239-.542-.348-.358-.229-.8-.373-1.238-.522-.472-.115-.97-.2-1.486-.269-.513-.074-1.025-.144-1.413-.348-.223-.065-.387-.189-.581-.288-.18-.12-.373-.22-.522-.368-.184-.11-.299-.294-.443-.443-.05-.1-.134-.159-.174-.268-.05-.02-.065-.08-.095-.115-.034-.04-.034-.119-.094-.134-.03.204-.02.448 0 .656.025.09.035.2.06.289.015.08.09.209.06.268-1.552-.08-2.686-.571-3.67-1.218-.488-.323-.905-.716-1.293-1.139-.17-.233-.353-.457-.502-.716-.154-.253-.284-.542-.423-.81-.229-.582-.442-1.179-.522-1.91-.104-.68-.08-1.55.075-2.182.054-.348.169-.642.268-.945.065-.14.134-.279.194-.423.085-.12.13-.283.234-.388.283-.532.706-.93 1.138-1.312.468-.343 1-.622 1.641-.79.617-.14 1.457-.165 2.123-.02 1.353.278 2.372.884 3.228 1.66.865.76 1.531 1.725 1.988 2.899.473 1.114.637 2.849.214 4.112-.174-.1-.348-.194-.522-.288-.209-.06-.413-.13-.656-.155-.294-.004-.582 0-.77.095.382-.04.69.065.929.154.14.055.219.09.328.154.214.125.403.239.562.408.452.398.776.925.93 1.621 0 .02.025.015.02-.02.02-.005.03-.02.04-.04.024-.03.054-.06.08-.094.049-.06.099-.12.133-.194.105-.124.19-.264.269-.408.184-.268.323-.577.482-.87.274-.627.497-1.303.637-2.069.278-1.7-.055-3.311-.637-4.5-.597-1.198-1.432-2.158-2.51-2.879C11.674.636 10.401.11 8.651.06c-.01-.035-.025.005-.06 0-.925-.03-1.67.1-2.411.288-.343.114-.701.214-1.005.368-.348.114-.626.303-.945.443-.114.109-.288.164-.407.268-.154.075-.269.194-.423.269-.249.218-.512.412-.756.636-.238.219-.447.467-.676.696-.035.08-.094.134-.154.194-.04.075-.09.14-.154.194-.025.09-.105.124-.134.214-.065.05-.08.149-.155.194-.064.159-.179.273-.253.422-.09.145-.16.304-.249.443-.14.323-.288.636-.403.984C.348 6.012.25 6.37.18 6.757c-.075.363-.144.836-.134 1.219-.05.139-.01.397 0 .562 0 .03-.02.04-.02.06 0 .183.05.407.06.521.04.423.114.816.233 1.159.075.383.234.681.348 1.024.174.289.294.632.503.89.154.304.372.542.581.79.224.24.448.483.716.677.493.428 1.07.77 1.7 1.064 1.18.572 2.94.945 4.52.85.404-.054.811-.104 1.18-.193.337-.125.73-.2 1.138-.25.93-.059 1.735.026 2.451.235.726.194 1.353.487 1.895.87.288.169.527.388.77.596.25.214.448.478.677.717.03.089.09.154.134.233.06.065.03.214.174.194.09-.09-.015-.219-.02-.328-.09-.095-.11-.219-.179-.298z" transform="translate(7 7)"/>
            <path d="M13.296 12.058c-.02 0-.025.015-.04.02-.034.074-.02.194 0 .268.105.214.14.493.368.582.11-.035.1-.194.095-.348-.05-.189-.12-.358-.234-.482-.08-.03-.134-.08-.189-.04zm-1.352.542c0-.01-.015-.02-.02 0-.19-.025-.254.08-.348.154-.164.433.1.855.562.85.184-.044.298-.164.328-.368-.025-.363-.18-.596-.522-.636z" transform="translate(7 7)"/>
        </g>
    </g>
</svg>
