<svg xmlns="http://www.w3.org/2000/svg" width="26" height="26"><g fill="none"><path fill="#116C93" d="M16.974 4.462H9.026a8.518 8.518 0 0 0 0 17.035h5.71l3.995 3.995v-4.177a8.518 8.518 0 0 0-1.757-16.854z"/><path d="M6.29.508v1.52c-.976.088-1.463.794-1.463 2.118H6.29c.161 0 .292.13.292.292v2.455a.292.292 0 0 1-.292.292H3.542a.292.292 0 0 1-.292-.292V4.25C3.25 1.87 4.263.622 6.29.508zm5.19 0v1.52c-.974.088-1.462.794-1.462 2.118h1.463c.162 0 .292.13.292.292v2.455c0 .161-.13.292-.292.292H8.734a.292.292 0 0 1-.292-.292V4.25c0-2.38 1.013-3.628 3.039-3.742z" fill="#B28F4B"/><path fill="#FFF" d="M19.25 10.029H6.75a.508.508 0 1 1 0-1.016h12.5a.508.508 0 1 1 0 1.016zm0 2.708H6.75a.508.508 0 1 1 0-1.015h12.5a.508.508 0 1 1 0 1.015zm0 2.709H6.75a.508.508 0 0 1 0-1.016h12.5a.508.508 0 1 1 0 1.016zm0 2.708h-6.663a.508.508 0 0 1 0-1.016h6.662a.508.508 0 0 1 0 1.016zm-9.52 0h-.008a.508.508 0 0 1 0-1.016h.008a.508.508 0 0 1 0 1.016z"/></g></svg>