<svg xmlns="http://www.w3.org/2000/svg" width="30" height="30" viewBox="0 0 30 30">
    <defs>
        <linearGradient id="prefix__a" x1="50%" x2="50%" y1="0%" y2="84.329%">
            <stop offset="0%" stop-color="#FFF25B"/>
            <stop offset="100%" stop-color="#FFD505"/>
        </linearGradient>
    </defs>
    <path fill="url(#prefix__a)" fill-rule="evenodd" stroke="#F3CD0B" stroke-width=".5" d="M7.925 25.893L15 22.003l7.075 3.89c.153.084.33.112.502.08.407-.078.674-.471.596-.878l-1.512-7.93 5.885-5.528c.127-.12.209-.28.23-.453.053-.41-.239-.786-.65-.838l-8.01-1.012-3.437-7.305c-.075-.158-.202-.285-.36-.36-.374-.176-.821-.015-.998.36l-3.438 7.305-8.01 1.012c-.173.022-.333.104-.452.231-.284.302-.269.777.033 1.06l5.885 5.527-1.512 7.931c-.033.171-.005.349.08.502.199.363.655.495 1.018.296z"/>
</svg>
