<svg xmlns="http://www.w3.org/2000/svg" width="92" height="92"><g fill="none" fill-rule="evenodd"><circle cx="46" cy="46" r="46" fill="#E3E3E3" opacity=".5"/><circle cx="46" cy="46" r="43" fill="#FFF"/><g fill-rule="nonzero"><path fill="#CE966D" d="M38.035 58.823s1.514 4.215-2.782 7.448c0 0 9.82 10.107 22.71 0 0 0-4.91-.491-3.069-10.107l-16.859 2.66z"/><path fill="#E1AB81" d="M61.155 42.988c0-12.522-6.875-19.314-15.304-19.314-8.43 0-15.263 6.792-15.304 19.314-.491 0-2.987.163-1.555 3.069 0 0 1.555 1.882 1.637 4.296 0 0 .532 1.31 1.35.696 1.882 5.033 5.36 8.92 8.716 11.334 0 0 5.688 3.724 9.943.41 4.051-2.496 7.53-6.22 9.29-11.621.695.245 1.145-.819 1.145-.819.123-2.414 1.637-4.296 1.637-4.296 1.473-2.906-1.064-3.07-1.555-3.07z"/><path fill="#51361D" d="M56.783 43.171c-.573.229-2.401-.758-3.852-.405-1.45.353-3.215 1.428-3.215 1.428l-.223-.618s1.168-2 3.177-2.088c2.201-.737 4.686 1.455 4.113 1.683zm-21.283 0c.573.229 2.4-.758 3.852-.405 1.45.353 3.215 1.428 3.215 1.428l.223-.618s-1.168-2-3.177-2.088c-2.202-.737-4.686 1.455-4.113 1.683z"/><g transform="translate(34.925 44.673)"><path fill="#2D120E" d="M4.303.87C2.262.71 2.442 2.2 1.736 2.546c-.128-.144-1.327-.64-1.327-.64S1.607.257 4.192.46c2.585.2 3.564 2.02 3.564 2.02s-.408-.033-.552.09c-.52-.442-.86-1.541-2.901-1.7z"/><path fill="#FFF" d="M1.23 1.893s.305 1.55 2.837 1.746c2.532.197 3.703-1.377 3.703-1.377S6.8.662 4.267.464C1.726.406 1.23 1.893 1.23 1.893z"/><path fill="#2D120E" d="M5.725 2.173c-.042.661-.338 1.17-.88 1.394-.262-.02-.663.081-1.057.05-.394-.03-.656-.05-1.041-.213-.377-.295-.738-.855-.696-1.517.042-.661.337-1.17.879-1.394.262.02.664-.08 1.058-.05.393.03.656.05 1.041.214.5.437.729.987.696 1.516z"/><ellipse cx="4.296" cy="2.062" fill="#170000" rx="1" ry="1" transform="rotate(4 4.296 2.062)"/><circle cx="4.761" cy="1.186" r="1" fill="#FFF" transform="rotate(4 4.761 1.186)"/><circle cx="4.296" cy="2.062" r="1" fill="#FFF" transform="rotate(4 4.296 2.062)"/></g><g transform="translate(48.429 44.673)"><path fill="#2D120E" d="M4.153.848c-2.04.159-1.676 1.605-2.331 2.058-.145-.123-1.395-.428-1.395-.428S1.407.66 3.992.458c2.585-.2 3.783 1.45 3.783 1.45s-.408.031-.536.175C6.67 1.725 6.194.69 4.153.848z"/><path fill="#FFF" d="M.423 2.4S.918 3.888 3.45 3.691c2.533-.197 3.495-1.936 3.495-1.936S5.783.319 3.251.516C.727.851.423 2.4.423 2.4z"/><path fill="#2D120E" d="M6.133 1.887c.042.662-.188 1.211-.696 1.517-.262.02-.647.183-1.041.214-.394.03-.656.05-1.058-.051-.41-.234-.837-.733-.879-1.394-.041-.662.188-1.211.696-1.516.262-.02.648-.184 1.041-.214.394-.03.656-.051 1.058.05.55.356.846.865.879 1.394z"/><ellipse cx="3.888" cy="2.062" fill="#170000" rx="1" ry="1" transform="rotate(-4 3.888 2.062)"/><circle cx="3.423" cy="1.186" r="1" fill="#FFF" transform="rotate(-4 3.423 1.186)"/><circle cx="3.888" cy="2.062" r="1" fill="#FFF" transform="rotate(-4 3.888 2.062)"/></g><path fill="#843921" d="M41.513 57.273s.168.176 1.048 0c.754-.176 2.077-.433 2.454-.257.377.176 1.069.257 1.31.257.242 0 1.088-.257 1.465-.257s1.808.257 2.436.257c.628-.176 1.067 0 1.067 0s-.69.704-1.444 1.056c-1.257.528-2.317.572-3.523.572-1.207 0-2.175-.173-3.645-.77-1.47-.596-1.168-.858-1.168-.858z"/><path fill="#343433" d="M61.318 43.07c-.49 1.063-2.823 2.536-2.537 3.887 0 .082 0 .082 0 0-.327-.491.041-1.964 0-2.578-.081-1.023-.286-1.964-.49-2.987-.492-2.087-1.105-3.97-2.333-5.77-1.432-2.087-3.069-3.478-5.852-3.355-1.677.082-4.214.49-4.5 2.537-1.433-3.437-7.57-3.356-9.617-.532-1.186 1.678-1.677 3.519-1.964 5.483-.164 1.187-.245 2.414-.45 3.6-.123.697-.245 2.17-.655 2.62 0 0-.409-2.087-2.291-3.028-1.882-.941-.164-10.148.204-11.54 1.924-6.588 7.693-10.434 14.281-11.13 3.315-.368 6.588-1.227 9.985-.982-.737.532-1.514 1.269-2.128 1.964 1.923-.327 3.764-.9 5.81-.777-1.104.818-.573 2.005-1.145 3.233 2.373-.164 4.173 2.823 5.401 4.5-1.146-.286-2.21-.9-3.355-1.227 4.992 1.555 3.15 12.849 1.636 16.081z"/><path fill="#EDEEF0" d="M36.276 63.652l-3.888 2.169s6.875 6.26 13.954 6.301h.245c7.161-.082 12.113-2.128 14.813-7.12l-3.314-1.35s-5.443 4.828-10.107 4.706c0 0-4.952.245-11.703-4.706z"/><path d="M33.534 46.507l-1.555.409-.614-4.133h2.537zm25.656 0l1.596.409.573-4.133h-2.537z" fill="#343433"/></g></g></svg>