<svg xmlns="http://www.w3.org/2000/svg" width="30" height="30"><g fill="none"><circle cx="14.999" cy="14.999" r="14.998" fill="#F3F2F2"/><path d="M11.107 17.876l1.147-6.776h1.858l-1.147 6.776zm8.473-6.601a4.825 4.825 0 0 0-1.666-.285c-1.837 0-3.13.92-3.141 2.237-.01.973.923 1.516 1.628 1.84.724.332.967.545.963.841-.004.455-.578.662-1.112.662-.743 0-1.139-.103-1.749-.355l-.24-.108-.26 1.517c.434.189 1.236.353 2.07.361 1.953 0 3.221-.908 3.236-2.315.007-.77-.489-1.358-1.56-1.841-.65-.313-1.048-.523-1.044-.84 0-.282.337-.583 1.064-.583a3.445 3.445 0 0 1 1.392.26l.166.078.252-1.47zm3.167-.175c-.445 0-.767.136-.962.577l-2.754 6.2h1.967l.383-1.039h2.35l.218 1.039h1.75l-1.53-6.777h-1.422zm-.844 4.382l.74-1.894c-.01.018.152-.392.246-.646l.126.584.43 1.956h-1.542zm-14.185.263l-.164-.93c-.339-1.082-1.391-2.254-2.57-2.84l1.641 5.901h1.968l2.95-6.776H9.578l-1.859 4.645z" fill="#293688"/><path d="M2.963 11.1v.109c2.332.56 3.95 1.978 4.591 3.607l-.673-3.138c-.113-.429-.454-.564-.857-.578h-3.06zm12.035 18.897c5.789 0 10.808-3.281 13.308-8.084H1.69c2.5 4.803 7.52 8.084 13.308 8.084z" fill="#F7981D"/><path fill="#293688" d="M14.998 0C9.3 0 4.346 3.176 1.807 7.855h26.382C25.65 3.176 20.695 0 14.998 0z"/></g></svg>