<svg xmlns="http://www.w3.org/2000/svg" width="30" height="30"><g fill="none"><circle cx="14.998" cy="14.998" r="14.998" fill="#FFDF1B"/><path fill="#000" d="M2.09 12.117h.917l.218 1.626h.007l.24-1.626h1.06l.24 1.626h.008L5 12.117h.916l-.56 2.587h-1.11l-.24-1.677h-.008l-.24 1.677h-1.11l-.559-2.587m4.454 0H8.51v.673h-.985v.276h.91v.674h-.91v.29h1.018v.674h-2v-2.587m4.096.735c-.004-.162-.093-.216-.226-.216-.165 0-.237.072-.237.151 0 .093.061.133.169.165.197.057.558.129.82.24.326.136.47.369.47.68 0 .635-.517.9-1.248.9-.623 0-1.196-.194-1.196-.867h.982c0 .072.014.144.053.197.04.05.104.082.2.082.152 0 .248-.096.248-.211 0-.097-.075-.147-.172-.175l-.728-.216c-.397-.118-.537-.358-.537-.69 0-.538.434-.843 1.19-.843.645 0 1.128.2 1.128.803h-.916m2.218-.04h-.638v-.695h2.3v.695h-.637v1.892h-1.025v-1.892m2.357-.695h1.968v.673h-.985v.276h.91v.674h-.91v.29h1.017v.674h-2v-2.587m2.76 0h1.53c.555 0 .88.168.88.655 0 .298-.124.523-.512.617v.007c.251.021.388.133.438.33.057.222.05.587.168.978h-1.004c-.06-.194-.092-.52-.128-.742-.022-.128-.086-.18-.25-.18h-.119v.922h-1.003v-2.587m1.089 1.079c.196 0 .34-.069.34-.262 0-.19-.133-.23-.333-.23h-.093v.492h.086zm2.127-1.079h1.23l.548 1.566h.007v-1.566h.831v2.587h-1.228l-.548-1.577h-.008v1.577h-.831v-2.587m-9.577 4.813c0 .623-.449.935-1.23.935-.78 0-1.228-.312-1.228-.935v-1.72h1.024v1.677c0 .204.097.283.204.283.108 0 .205-.079.205-.283V15.21h1.025v1.72m.848-1.72h1.23l.548 1.566h.007V15.21h.831v2.587h-1.23l-.547-1.577h-.007v1.577h-.832V15.21m3.483.001h1.024v2.587h-1.024zm3.135-.069c.893 0 1.337.555 1.337 1.361 0 .806-.444 1.362-1.336 1.362-.893 0-1.337-.556-1.337-1.362s.444-1.361 1.337-1.361m0 2.05c.157 0 .275-.09.275-.688 0-.585-.111-.689-.275-.689-.165 0-.277.104-.277.689 0 .598.119.688.277.688zm2.109-1.982h1.23l.548 1.566h.007V15.21h.831v2.587h-1.228l-.548-1.577h-.008v1.577h-.831V15.21m3.36-3.144h1v5.741h-1zm2.319.054h1v5.682h-1z"/><path fill="#000" d="M27.48 12.582a.5.5 0 1 1 1 .002.5.5 0 0 1-1-.002m.92 0a.417.417 0 0 0-.42-.432.418.418 0 0 0-.421.432.42.42 0 0 0 .421.436c.244 0 .42-.19.42-.436zm-.17.28h-.082l-.16-.258h-.125v.258h-.068v-.559h.243c.149 0 .199.056.199.148 0 .11-.077.15-.175.153l.168.258zm-.262-.312c.08 0 .195.013.195-.1 0-.087-.071-.098-.14-.098h-.16v.198h.105z"/></g></svg>