<svg xmlns="http://www.w3.org/2000/svg" width="30" height="30" viewBox="0 0 30 30">
    <g fill="none" fill-rule="evenodd">
        <circle cx="15" cy="15" r="15" fill="#FCB316"/>
        <path fill="#FFF" fill-rule="nonzero" d="M23.758 12.812c-.1-.576-.586-.922-1.287-.93-.217-.003-.432.019-.643-.004-.414-.043-.523.095-.52.424.02 1.612.014 3.224.007 4.832-.004.843-.827 1.71-1.817 1.93-3.072.673-6.14 1.358-9.216 2.027-.345.075-.71.113-1.061.11-.154 0-.366-.117-.432-.23-.043-.075.093-.258.199-.352.14-.114.317-.204.5-.267.564-.201 1.137-.384 1.707-.573 2.28-.759 4.566-1.508 6.844-2.272 1.028-.347 1.582-1.032 1.6-1.897.051-2.801.025-5.603.013-8.408 0-.444-.23-.814-.759-1.006-.608-.218-1.143-.045-1.671.207-3.229 1.541-6.456 3.079-9.688 4.616-.95.453-1.48 1.11-1.476 2.043.011 2.65.003 5.295.007 7.941 0 .132.013.267.055.393.318.9 1.143 1.416 2.282 1.416 2.272.007 4.551.004 6.825.004 2.265 0 4.523.003 6.789-.004.491 0 .945-.1 1.313-.405.478-.384.453-.872.453-1.36.005-2.58.005-5.157.002-7.742.004-.162.001-.33-.026-.493zm-9.447-.828c.23-.595.728-.966 1.49-1.062.504-.064.943.248 1.016.702.109.7-.767 1.515-1.632 1.512-.722 0-1.124-.506-.874-1.152z"/>
    </g>
</svg>
