<svg xmlns="http://www.w3.org/2000/svg" width="24" height="19"><g fill="none"><path fill="#D8362A" d="M23.752 3.968s-.249-1.78-.952-2.565C21.89.368 20.855.368 20.4.327 17.048.079 12 .037 12 .037S6.952.08 3.6.327C3.145.368 2.11.41 1.2 1.403.455 2.189.248 3.968.248 3.968S0 6.078 0 8.188v1.946c0 2.11.248 4.18.248 4.18s.249 1.778.952 2.565c.91 1.034 2.11.993 2.648 1.117 1.904.207 8.152.248 8.152.248s5.048 0 8.4-.29c.455-.041 1.49-.082 2.4-1.075.703-.787.952-2.566.952-2.566s.248-2.11.248-4.18V8.19c0-2.11-.248-4.22-.248-4.22"/><path fill="#FFF" d="M9.103 4.961v8.98l7.863-4.387z"/></g></svg>