<svg width="18" height="18" viewBox="0 0 18 18" fill="none" xmlns="http://www.w3.org/2000/svg">
<g clip-path="url(#clip0)">
<path d="M18 9C18 7.95466 17.7907 6.95734 17.4246 6.03176C17.3271 9.0764 14.0505 11.4345 12.1266 12.995H16.9426C17.6161 11.803 18 10.4444 18 9ZM14.5183 2.2954C12.9941 1.17366 11.0823 0.499999 8.99948 0.499999C4.02926 0.499999 0 4.30554 0 9C0 13.6945 4.02926 17.5 8.99948 17.5C11.2764 17.5 13.3492 16.6963 14.9332 15.3799H8.41727L8.39787 13.5721C12.3238 10.3489 14.7308 8.16889 14.7308 6.06325C14.7308 5.28067 14.415 4.29315 12.9952 4.29315C11.8706 4.29315 10.7854 4.90848 10.9821 7.47923H8.69421C8.12145 4.4986 9.83816 2.13124 13.1132 2.13124C13.6198 2.13124 14.0903 2.18906 14.5183 2.2954" fill="#AFCA0B"/>
</g>
<defs>
<clipPath id="clip0">
<rect width="18" height="18" fill="white"/>
</clipPath>
</defs>
</svg>
