<svg width="18" height="18" viewBox="0 0 18 18" fill="none" xmlns="http://www.w3.org/2000/svg">
<path fill-rule="evenodd" clip-rule="evenodd" d="M9 0.617535C4.37049 0.617535 0.617535 4.37049 0.617535 9C0.617535 13.6295 4.37049 17.3825 9 17.3825C13.6295 17.3825 17.3825 13.6295 17.3825 9C17.3825 4.37049 13.6295 0.617535 9 0.617535ZM0 9C0 4.02944 4.02944 0 9 0C13.9706 0 18 4.02944 18 9C18 13.9706 13.9706 18 9 18C4.02944 18 0 13.9706 0 9Z" fill="url(#paint0_linear)"/>
<path d="M12.3 4.01097C12.4833 3.97805 12.6458 4.0192 12.7875 4.13445C12.9292 4.2497 13 4.39787 13 4.57895V10.9132C13 11.4976 12.8333 11.9545 12.5 12.2837C12.1667 12.6047 11.7083 12.7653 11.125 12.7653C10.725 12.7653 10.3958 12.6624 10.1375 12.4566C9.87918 12.2425 9.75 11.975 9.75 11.654C9.75 11.2507 9.9125 10.9132 10.2375 10.6415C10.5625 10.3699 10.9833 10.2341 11.5 10.2341C11.6917 10.2341 11.8958 10.267 12.1125 10.3328C12.1208 10.3328 12.1292 10.3287 12.1375 10.3205C12.1458 10.3205 12.15 10.3164 12.15 10.3081V6.2335C12.15 6.20881 12.1375 6.18824 12.1125 6.17176C12.0875 6.14707 12.0625 6.13885 12.0375 6.14707L7.35 7.03608C7.28332 7.05255 7.25 7.09369 7.25 7.15955V12.1479C7.25 12.7323 7.08332 13.1892 6.75 13.5185C6.41667 13.8395 5.95832 14 5.375 14C4.975 14 4.64582 13.893 4.3875 13.679C4.12917 13.4732 4 13.2098 4 12.8887C4 12.4854 4.1625 12.1479 4.4875 11.8763C4.8125 11.6046 5.23332 11.4688 5.75 11.4688C5.94167 11.4688 6.14582 11.5017 6.3625 11.5676C6.37082 11.5676 6.37917 11.5634 6.3875 11.5552C6.39582 11.5552 6.4 11.5511 6.4 11.5429V5.81369C6.4 5.60791 6.4625 5.4268 6.5875 5.27041C6.72082 5.10577 6.8875 5.00699 7.0875 4.97407L12.3 4.01097Z" fill="url(#paint1_linear)"/>
<defs>
<linearGradient id="paint0_linear" x1="17.3367" y1="17.0851" x2="2.22999" y2="9.93379e-07" gradientUnits="userSpaceOnUse">
<stop stop-color="#5AC8FA"/>
<stop offset="0.523465" stop-color="#AF52DE" stop-opacity="0.922227"/>
<stop offset="0.818643" stop-color="#FF2D55" stop-opacity="0.74"/>
<stop offset="1" stop-color="#FF3B30"/>
</linearGradient>
<linearGradient id="paint1_linear" x1="-0.126025" y1="0.294413" x2="17.0578" y2="17.8906" gradientUnits="userSpaceOnUse">
<stop offset="0.0635411" stop-color="#FB413E"/>
<stop offset="0.381554" stop-color="#FF3C32"/>
<stop offset="0.520016" stop-color="#AD69E3" stop-opacity="0.75"/>
<stop offset="0.629314" stop-color="#5DC4F9"/>
<stop offset="0.962717" stop-color="#60C2F8"/>
</linearGradient>
</defs>
</svg>
