<?xml version="1.0" encoding="UTF-8"?>
<svg width="20px" height="22px" viewBox="0 0 20 22" version="1.1" xmlns="http://www.w3.org/2000/svg" xmlns:xlink="http://www.w3.org/1999/xlink">
    <!-- Generator: Sketch 63.1 (92452) - https://sketch.com -->
    <title>appraisal</title>
    <desc>Created with Sketch.</desc>
    <g id="desktop" stroke="none" stroke-width="1" fill="none" fill-rule="evenodd">
        <g id="Icon" transform="translate(-577.000000, -329.000000)" fill="#B28F4B" fill-rule="nonzero">
            <g id="appraisal" transform="translate(577.000000, 329.000000)">
                <path d="M9.51135342,6.0057589 C9.82441644,5.85410959 10.2011288,5.98496438 10.3527178,6.2980274 L10.3527178,6.2980274 L12.6199836,10.8640822 L17.6584055,11.5883342 C17.8970301,11.6264877 18.0928,11.7977863 18.1622356,12.0291781 C18.2235342,12.2521918 18.1638027,12.4909973 18.0048,12.6589808 L18.0048,12.6589808 L14.3519562,16.2173753 L15.2021808,21.224274 C15.2404548,21.4645863 15.1436548,21.7064658 14.9502356,21.8540767 C14.846926,21.9461753 14.7102849,21.9917425 14.5723781,21.9800493 L14.5723781,21.9800493 L14.2889699,21.917063 L9.78590137,19.5238247 L5.28283288,21.917063 C5.06837808,22.0234466 4.81209315,21.9990356 4.62156712,21.8540767 C4.42808767,21.7064658 4.33134795,21.4645863 4.36962192,21.224274 L4.36962192,21.224274 L5.21984658,16.2173753 L1.56700274,12.6589808 C1.408,12.4909973 1.34832877,12.2521918 1.40956712,12.0291781 C1.47900274,11.797726 1.6747726,11.6264877 1.91339726,11.5883342 L1.91339726,11.5883342 L6.95181918,10.8640822 L9.21908493,6.2980274 C9.28080548,6.17048767 9.3838137,6.06753973 9.51135342,6.0057589 Z M9.78590137,7.99847671 L7.95947945,11.7143068 C7.86454795,11.8969973 7.68987397,12.0250795 7.48711233,12.0607014 L7.48711233,12.0607014 L3.36190137,12.6590411 L6.35347945,15.5561096 C6.48234521,15.7026356 6.53996712,15.898526 6.51091507,16.091463 L6.51091507,16.091463 L5.81812603,20.1851507 L9.50249315,18.2642795 C9.68186849,18.1791726 9.88993425,18.1791726 10.0693096,18.2642795 L10.0693096,18.2642795 L13.7536767,20.1851507 L13.0608877,16.091463 C13.0318356,15.898526 13.0894575,15.7025753 13.2183233,15.5561096 L13.2183233,15.5561096 L16.2099014,12.6590411 L12.0846904,12.0607014 C11.8818685,12.0250795 11.7072548,11.8969973 11.6123233,11.7143068 L11.6123233,11.7143068 L9.78590137,7.99847671 Z M18.4141205,3.46394521 C18.6228493,3.18566027 19.0175836,3.12924384 19.2958685,3.3379726 C19.5741534,3.5466411 19.6305699,3.94143562 19.4217808,4.21972055 L19.4217808,4.21972055 L17.5323726,6.73893151 C17.4103781,6.89383562 17.2256384,6.98623562 17.0285425,6.99087671 C16.8919014,6.99328767 16.7585753,6.94880548 16.6506849,6.86490411 C16.3724,6.65617534 16.3160438,6.2614411 16.5247123,5.98315616 L16.5247123,5.98315616 Z M0.275873973,3.33791233 C0.554158904,3.12924384 0.948893151,3.1856 1.15762192,3.46388493 L1.15762192,3.46388493 L3.04696986,5.98309589 C3.25563836,6.26138082 3.19928219,6.65611507 2.92099726,6.86484384 C2.81316712,6.94874521 2.67978082,6.9932274 2.54313973,6.99081644 C2.34604384,6.98611507 2.16130411,6.89377534 2.03930959,6.73887123 L2.03930959,6.73887123 L0.14990137,4.21966027 C-0.0587671233,3.94137534 -0.0024109589,3.54658082 0.275873973,3.33791233 Z M9.78590137,4.3298698e-13 C10.1336822,4.3298698e-13 10.4157041,0.281961644 10.4157041,0.62980274 L10.4157041,0.62980274 L10.4157041,3.77881644 C10.4157041,4.12665753 10.1337425,4.40861918 9.78590137,4.40861918 C9.43806027,4.40861918 9.15609863,4.12665753 9.15609863,3.77881644 L9.15609863,3.77881644 L9.15609863,0.62980274 C9.15609863,0.281961644 9.43812055,4.3298698e-13 9.78590137,4.3298698e-13 Z" id="Combined-Shape"></path>
            </g>
        </g>
    </g>
</svg>