<?xml version="1.0" encoding="UTF-8"?>
<svg width="24px" height="14px" viewBox="0 0 24 14" version="1.1" xmlns="http://www.w3.org/2000/svg" xmlns:xlink="http://www.w3.org/1999/xlink">
    <!-- Generator: Sketch 63.1 (92452) - https://sketch.com -->
    <title>deezer </title>
    <desc>Created with Sketch.</desc>
    <g id="desktop" stroke="none" stroke-width="1" fill="none" fill-rule="evenodd">
        <g id="Icon" transform="translate(-572.000000, -409.000000)">
            <g id="deezer-" transform="translate(572.000000, 409.000000)">
                <polygon id="Path" fill="#FE3D03" points="4.27853571 13.0969286 6.52811138e-14 13.0969286 6.52811138e-14 11.8006071 4.27853571 11.8006071 4.27853571 13.0969286"></polygon>
                <polygon id="Path" fill="#FE3D03" points="4.27853571 11.412 6.52811138e-14 11.412 6.52811138e-14 10.1147143 4.27853571 10.1147143 4.27853571 11.412"></polygon>
                <polygon id="Path" fill="#FE3D03" points="4.27853571 9.72642857 6.52811138e-14 9.72642857 6.52811138e-14 8.42946429 4.27853571 8.42946429 4.27853571 9.72642857"></polygon>
                <polygon id="Path" fill="#FF9D7F" points="4.27853571 8.04021429 6.52811138e-14 8.04021429 6.52811138e-14 6.74389286 4.27853571 6.74389286 4.27853571 8.04021429"></polygon>
                <polygon id="Path" fill="#FF9D7F" points="4.27853571 6.35432143 6.52811138e-14 6.35432143 6.52811138e-14 5.05767857 4.27853571 5.05767857 4.27853571 6.35432143"></polygon>
                <polygon id="Path" fill="#FEEA3A" points="9.07682143 13.0969286 4.79764286 13.0969286 4.79764286 11.8006071 9.07682143 11.8006071"></polygon>
                <polygon id="Path" fill="#FEEA3A" points="9.07682143 11.412 4.79764286 11.412 4.79764286 10.1147143 9.07682143 10.1147143"></polygon>
                <polygon id="Path" fill="#FEEA3A" points="9.07682143 9.72642857 4.79764286 9.72642857 4.79764286 8.42946429 9.07682143 8.42946429"></polygon>
                <polygon id="Path" fill="#FE3F80" points="13.8747857 13.0969286 9.59592857 13.0969286 9.59592857 11.8006071 13.8751071 11.8006071"></polygon>
                <polygon id="Path" fill="#FE3F80" points="13.8747857 11.412 9.59592857 11.412 9.59592857 10.1147143 13.8751071 10.1147143"></polygon>
                <polygon id="Path" fill="#FE3F80" points="13.8747857 9.72642857 9.59592857 9.72642857 9.59592857 8.42946429 13.8751071 8.42946429"></polygon>
                <polygon id="Path" fill="#F7BACF" points="13.8747857 8.04021429 9.59592857 8.04021429 9.59592857 6.74389286 13.8751071 6.74389286"></polygon>
                <polygon id="Path" fill="#F7BACF" points="13.8747857 6.35432143 9.59592857 6.35432143 9.59592857 5.05767857 13.8751071 5.05767857"></polygon>
                <polygon id="Path" fill="#F7BACF" points="13.8747857 4.66842857 9.59592857 4.66842857 9.59592857 3.37178571 13.8751071 3.37178571"></polygon>
                <polygon id="Path" fill="#F7BACF" points="13.8747857 2.98317857 9.59592857 2.98317857 9.59592857 1.68621429 13.8751071 1.68621429"></polygon>
                <polygon id="Path" fill="#CCDC38" points="18.6724286 13.0969286 14.3935714 13.0969286 14.3935714 11.8006071 18.67275 11.8006071"></polygon>
                <polygon id="Path" fill="#CCDC38" points="18.6724286 11.412 14.3935714 11.412 14.3935714 10.1147143 18.67275 10.1147143"></polygon>
                <polygon id="Path" fill="#CCDC38" points="18.6724286 9.72642857 14.3935714 9.72642857 14.3935714 8.42946429 18.67275 8.42946429"></polygon>
                <polygon id="Path" fill="#E6EE9F" points="18.6724286 8.04021429 14.3935714 8.04021429 14.3935714 6.74389286 18.67275 6.74389286"></polygon>
                <polygon id="Path" fill="#E6EE9F" points="18.6724286 6.35432143 14.3935714 6.35432143 14.3935714 5.05767857 18.67275 5.05767857"></polygon>
                <polygon id="Path" fill="#4DC2F6" points="23.4707143 13.0969286 19.1915357 13.0969286 19.1915357 11.8006071 23.4703929 11.8006071 23.4703929 13.0969286"></polygon>
                <polygon id="Path" fill="#4DC2F6" points="23.4707143 11.412 19.1915357 11.412 19.1915357 10.1147143 23.4703929 10.1147143 23.4703929 11.412"></polygon>
                <polygon id="Path" fill="#4DC2F6" points="23.4707143 9.72546429 19.1915357 9.72546429 19.1915357 8.42882143 23.4703929 8.42882143 23.4703929 9.72546429"></polygon>
                <polygon id="Path" fill="#B1E3FA" points="23.4707143 8.04021429 19.1915357 8.04021429 19.1915357 6.74292857 23.4703929 6.74292857 23.4703929 8.04021429"></polygon>
                <polygon id="Path" fill="#B1E3FA" points="23.4707143 6.35432143 19.1915357 6.35432143 19.1915357 5.05671429 23.4703929 5.05671429 23.4703929 6.35432143"></polygon>
                <polygon id="Path" fill="#B1E3FA" points="23.4707143 4.66810714 19.1915357 4.66810714 19.1915357 3.37178571 23.4703929 3.37178571 23.4703929 4.66810714"></polygon>
                <polygon id="Path" fill="#B1E3FA" points="23.4707143 2.98221429 19.1915357 2.98221429 19.1915357 1.68589286 23.4703929 1.68589286 23.4703929 2.98221429"></polygon>
                <polygon id="Path" fill="#B1E3FA" points="19.1915357 1.29664286 19.1915357 3.33399974e-13 23.4703929 3.33399974e-13 23.4703929 1.29664286"></polygon>
            </g>
        </g>
    </g>
</svg>