<svg width="13" height="18" viewBox="0 0 13 18" fill="none" xmlns="http://www.w3.org/2000/svg">
<g clip-path="url(#clip0)">
<path d="M8.40048 0.29932C7.80184 0.108844 7.14878 0 6.48211 0C4.56375 0 2.83585 0.870748 1.67939 2.2449L4.64538 4.73469L8.40048 0.29932Z" fill="#1A73E8"/>
<path d="M1.67939 2.2449C0.767822 3.33334 0.209999 4.7483 0.209999 6.27211C0.209999 7.45579 0.441292 8.40817 0.835849 9.26531L4.64537 4.7347L1.67939 2.2449V2.2449Z" fill="#EA4335"/>
<path d="M6.49572 3.87755C7.82905 3.87755 8.90388 4.95238 8.90388 6.28571C8.90388 6.87074 8.68619 7.41496 8.33245 7.83673C8.33245 7.83673 10.2236 5.57823 12.0739 3.38775C11.312 1.91836 9.99232 0.802718 8.40048 0.299316L4.64538 4.73469C5.09436 4.21768 5.74742 3.87755 6.49572 3.87755" fill="#4285F4"/>
<path d="M6.49571 8.68029C5.16238 8.68029 4.08755 7.60546 4.08755 6.27213C4.08755 5.68709 4.29163 5.14287 4.64537 4.73471L0.835854 9.26532C1.48891 10.7075 2.57735 11.8776 3.69299 13.3333L8.33245 7.82315C7.88347 8.35376 7.23041 8.68029 6.49571 8.68029Z" fill="#FBBC04"/>
<path d="M8.25082 14.8571C10.3461 11.5782 12.7814 10.0952 12.7814 6.28571C12.7814 5.2381 12.5229 4.2585 12.074 3.38776L3.693 13.3333C4.04674 13.7959 4.41409 14.3265 4.76783 14.8707C6.04674 16.8435 5.693 18.0136 6.50933 18.0136C7.32565 18.0136 6.97191 16.8299 8.25082 14.8571" fill="#34A853"/>
</g>
<defs>
<clipPath id="clip0">
<rect width="13" height="18" fill="white"/>
</clipPath>
</defs>
</svg>
