<svg width="21" height="18" viewBox="0 0 21 18" fill="none" xmlns="http://www.w3.org/2000/svg">
<path d="M18.5559 4.50732H1.94079C1.54601 4.50732 1.22598 4.82735 1.22598 5.22213V17.2852C1.22598 17.68 1.54601 18 1.94079 18H18.5559C18.9507 18 19.2708 17.68 19.2708 17.2852V5.22213C19.2708 4.82735 18.9507 4.50732 18.5559 4.50732Z" fill="#4989F5"/>
<path d="M18.3474 4.40594H2.12938C1.62699 4.40594 1.23605 8.294 1.23605 8.79639L10.1176 18H18.3474C18.5895 17.9993 18.8215 17.9029 18.9926 17.7317C19.1638 17.5605 19.2602 17.3286 19.2609 17.0865V5.31923C19.2602 5.0772 19.1637 4.84529 18.9925 4.67416C18.8214 4.50304 18.5895 4.40661 18.3474 4.40594V4.40594Z" fill="url(#paint0_linear)"/>
<path d="M5.34623 6.76688H10.5019V0.000190735H6.11822L5.34623 6.76688Z" fill="#3C4BA6"/>
<path d="M15.6575 6.76688H10.5019V0.000190735H14.8855L15.6575 6.76688Z" fill="#7BABF7"/>
<path d="M19.2707 1.28291L19.2772 1.30597C19.2756 1.29783 19.2725 1.29027 19.2707 1.28291Z" fill="#7BABF7"/>
<path d="M19.2771 1.30577L19.2708 1.28271C19.1914 0.919418 18.9903 0.594156 18.7007 0.360856C18.4112 0.127556 18.0506 0.000233339 17.6787 0H14.8855L15.657 6.76689H20.8126L19.2771 1.30577Z" fill="#3F51B5"/>
<path d="M1.73302 1.28291L1.72662 1.30597C1.72817 1.29783 1.73127 1.29027 1.73302 1.28291Z" fill="#7BABF7"/>
<path d="M1.72642 1.30577L1.73282 1.28271C1.81216 0.919418 2.01328 0.594156 2.30285 0.360856C2.59241 0.127556 2.95301 0.000233339 3.32487 0H6.11822L5.34565 6.76689H0.19L1.72642 1.30577Z" fill="#7BABF7"/>
<path fill-rule="evenodd" clip-rule="evenodd" d="M5.35495 6.76514C5.35495 7.44844 5.08351 8.10375 4.60035 8.58691C4.11718 9.07008 3.46187 9.34152 2.77858 9.34152C2.09528 9.34152 1.43997 9.07008 0.956808 8.58691C0.473645 8.10375 0.202207 7.44844 0.202207 6.76514H5.35495Z" fill="#709BE0"/>
<path fill-rule="evenodd" clip-rule="evenodd" d="M10.5078 6.76514C10.5078 7.44844 10.2363 8.10375 9.75317 8.58691C9.27 9.07008 8.61467 9.34152 7.93137 9.34152C7.24806 9.34152 6.59274 9.07008 6.10956 8.58691C5.62639 8.10375 5.35495 7.44844 5.35495 6.76514H10.5078Z" fill="#3C4BA6"/>
<path fill-rule="evenodd" clip-rule="evenodd" d="M15.6604 6.76514C15.6604 7.44844 15.389 8.10375 14.9059 8.58691C14.4227 9.07008 13.7674 9.34152 13.0841 9.34152C12.4008 9.34152 11.7455 9.07008 11.2624 8.58691C10.7792 8.10375 10.5078 7.44844 10.5078 6.76514H15.6604Z" fill="#709BE0"/>
<path fill-rule="evenodd" clip-rule="evenodd" d="M20.8126 6.76514C20.8126 7.44844 20.5412 8.10375 20.058 8.58691C19.5748 9.07008 18.9195 9.34152 18.2362 9.34152C17.5529 9.34152 16.8976 9.07008 16.4145 8.58691C15.9313 8.10375 15.6598 7.44844 15.6598 6.76514H20.8126Z" fill="#3C4BA6"/>
<path d="M18.2363 13.7453C18.2272 13.6226 18.212 13.5106 18.1905 13.3675H15.3801C15.3801 13.7606 15.3801 14.1895 15.3786 14.5828H17.0067C16.9721 14.7661 16.9016 14.9407 16.7994 15.0967C16.6971 15.2526 16.565 15.3869 16.4107 15.4916C16.4107 15.4916 16.4107 15.4849 16.4095 15.4847C16.2102 15.6155 15.9858 15.7031 15.7505 15.7419C15.5147 15.785 15.2729 15.784 15.0375 15.7388C14.7984 15.6893 14.572 15.5912 14.3725 15.4505C14.0779 15.2416 13.8507 14.9513 13.7187 14.6152C13.7086 14.589 13.6993 14.5626 13.6898 14.5359V14.533L13.6924 14.531C13.5643 14.1551 13.5639 13.7474 13.6914 13.3712C13.7812 13.1073 13.9289 12.8669 14.1238 12.6676C14.3481 12.4356 14.6319 12.2699 14.9441 12.1886C15.2563 12.1073 15.5849 12.1136 15.8938 12.2067C16.1352 12.2808 16.3559 12.4106 16.5378 12.5858L17.0871 12.0365C17.184 11.9386 17.2846 11.8439 17.3778 11.7427C17.0993 11.4829 16.7724 11.2804 16.4157 11.1469C15.7666 10.9115 15.0565 10.9053 14.4033 11.1292C14.3806 11.137 14.3579 11.1451 14.3355 11.1535C13.6308 11.4184 13.0511 11.9379 12.7109 12.6095C12.5907 12.8472 12.5032 13.1 12.4508 13.3611C12.3008 14.1061 12.4403 14.8802 12.8406 15.5261C13.241 16.172 13.8723 16.6412 14.6062 16.8383C15.1041 16.9717 15.6335 16.9684 16.1353 16.8544C16.5912 16.7515 17.0128 16.5324 17.359 16.2185C17.7203 15.8861 17.9793 15.4432 18.1149 14.9728C18.2284 14.5741 18.2695 14.1584 18.2363 13.7453V13.7453Z" fill="white"/>
<defs>
<linearGradient id="paint0_linear" x1="1.23605" y1="11.2029" x2="19.2607" y2="11.2029" gradientUnits="userSpaceOnUse">
<stop offset="0.03" stop-color="#4079D8"/>
<stop offset="1" stop-color="#4989F5"/>
</linearGradient>
</defs>
</svg>
