<svg xmlns="http://www.w3.org/2000/svg" width="69" height="30" viewBox="0 0 69 30">
    <g fill="#F67555">
        <path d="M42.283 25.5c1.24.906 2.544 1.72 3.902 2.436l1.98-3.801c-1.173-.62-2.3-1.325-3.37-2.109L42.282 25.5z"/>
        <path d="M53.571 0c-7.635 0-15.837 7.971-19.285 11.74C30.838 7.972 22.635 0 15 0 5.608 0 0 5.608 0 15s5.608 15 15 15c7.596 0 15.752-7.888 19.232-11.68 1.44 1.532 2.96 2.989 4.554 4.362l2.837-3.214c-1.581-1.41-3.084-2.904-4.5-4.479 3.484-3.895 10.763-10.714 16.461-10.714 7.108 0 10.715 3.604 10.715 10.714 0 5.051-1.852 8.357-5.503 9.83l1.603 3.975c5.267-2.118 8.172-7.02 8.172-13.794 0-9.392-5.607-15-15-15zM15 25.714C7.892 25.714 4.286 22.11 4.286 15S7.892 4.286 15 4.286c5.69 0 12.98 6.82 16.468 10.714C27.984 18.896 20.702 25.714 15 25.714z"/>
        <path d="M51.643 25.48l-.964 4.177c.948.223 1.918.338 2.892.343.716 0 1.398-.03 2.053-.09l-.394-4.269c-1.196.146-2.409.092-3.587-.16z"/>
    </g>
</svg>
