<?xml version="1.0" encoding="UTF-8"?>
<svg width="23px" height="18px" viewBox="0 0 23 18" version="1.1" xmlns="http://www.w3.org/2000/svg" xmlns:xlink="http://www.w3.org/1999/xlink">
    <!-- Generator: Sketch 63.1 (92452) - https://sketch.com -->
    <title>instagram  verified</title>
    <desc>Created with Sketch.</desc>
    <defs>
        <linearGradient x1="94.339334%" y1="4.71923539%" x2="8.707449%" y2="92.2665417%" id="linearGradient-1">
            <stop stop-color="#CA38A8" offset="0%"></stop>
            <stop stop-color="#E44572" offset="27.0547472%"></stop>
            <stop stop-color="#FF593E" offset="51.5347477%"></stop>
            <stop stop-color="#FFA54C" offset="81.1823953%"></stop>
            <stop stop-color="#FFDB54" offset="100%"></stop>
        </linearGradient>
        <linearGradient x1="36.4615885%" y1="-24.0832461%" x2="36.4615885%" y2="100%" id="linearGradient-2">
            <stop stop-color="#E0437A" offset="0%"></stop>
            <stop stop-color="#FF7844" offset="100%"></stop>
        </linearGradient>
    </defs>
    <g id="desktop" stroke="none" stroke-width="1" fill="none" fill-rule="evenodd">
        <g id="Icon" transform="translate(-574.000000, -300.000000)" fill-rule="nonzero">
            <g id="instagram--verified" transform="translate(574.000000, 300.000000)">
                <path d="M12.6868631,0.055284141 C13.6412216,0.0973620006 14.293908,0.251693159 14.8657282,0.472773194 C15.4622195,0.69727979 16.0060791,1.05172056 16.4552293,1.50786091 C16.9149333,1.95701112 17.2658105,2.49730719 17.4938806,3.10078856 C17.7149607,3.66931923 17.8692918,4.32543218 17.9113697,5.27979074 C17.945032,6.04612845 17.9540451,6.39474688 17.9563039,7.75210214 L17.956519,9.77209297 C17.9547848,10.9751827 17.9481596,11.5050548 17.9318431,11.9994765 L16.3193396,11.999531 C16.3370365,11.5011568 16.3441576,10.9984544 16.3460145,9.78665271 L16.3463262,8.45250756 C16.3446493,6.54231137 16.3326197,6.23209884 16.293908,5.3605199 C16.2552567,4.48675347 16.1079157,4.0096427 15.9851087,3.69385323 C15.8411942,3.30432474 15.6131241,2.95344754 15.3148785,2.66219207 C15.0271866,2.36394646 14.6727458,2.13587628 14.2833543,1.99209884 C13.9675648,1.86929183 13.4938806,1.72195081 12.6166876,1.68329951 C11.8321671,1.64832813 11.5034099,1.63513192 10.0368856,1.63167204 L8.21228573,1.63116009 C6.51438129,1.63365477 6.19420411,1.64627099 5.3605199,1.68329951 C4.48689049,1.72195081 4.0096427,1.86929183 3.69385323,1.99209884 C3.30432474,2.13587628 2.95344754,2.36394646 2.66232909,2.66219207 C2.3605199,2.95002098 2.13244972,3.30432474 1.98853526,3.69385323 C1.86572825,4.0096427 1.71838723,4.48332691 1.67987295,5.3605199 C1.64649836,6.1066809 1.63299858,6.44275179 1.62880814,7.7350031 L1.62812895,9.98801101 C1.63138875,11.4929942 1.64441245,11.8208982 1.67987295,12.6166876 C1.71838723,13.4903171 1.86572825,13.9675648 1.98853526,14.2833543 C2.13244972,14.6727458 2.3605199,15.023623 2.65876551,15.3148785 C2.9464574,15.6131241 3.30089818,15.8411942 3.69028965,15.9851087 C4.00607912,16.1079157 4.47976333,16.2552567 5.35695632,16.293771 C6.22538283,16.3326087 6.53835937,16.3445324 8.44901798,16.3461916 L9.26272911,16.3463512 C11.4054188,16.3455184 11.7036504,16.3342973 12.6131241,16.293771 C12.7456827,16.287928 12.8691119,16.2795803 12.9842336,16.2691936 L12.9833776,17.8899721 C12.8856113,17.8972268 12.7845356,17.9031915 12.6798729,17.9078061 C11.7985846,17.9466438 11.46973,17.9585675 9.52384765,17.9602267 L8.69554818,17.9603863 C6.51404839,17.9595535 6.19583789,17.9483324 5.27636418,17.9078061 C4.3218686,17.8657282 3.66931923,17.7113971 3.097362,17.4903171 C2.50087077,17.2658105 1.95701112,16.9113697 1.50786091,16.4552293 C1.05172056,16.0060791 0.697416808,15.4657831 0.469346632,14.8623017 C0.248266597,14.293771 0.0937984217,13.6376581 0.051720562,12.6832995 C0.0184543012,11.9259775 0.00489156624,11.576604 0.000670008588,10.2584782 L8.16881285e-14,7.96343467 C0.00336441888,6.42847319 0.0169453326,6.08387516 0.055284141,5.27622716 C0.0973620006,4.3218686 0.251693159,3.66931923 0.472773194,3.097362 C0.697416808,2.50087077 1.05172056,1.95701112 1.50786091,1.50786091 C1.95701112,1.04815698 2.49730719,0.69727979 3.10092558,0.469209615 C3.66931923,0.248266597 4.32543218,0.0937984217 5.27979074,0.051720562 C6.03711271,0.0184543012 6.38648627,0.00489156624 7.70461201,0.000670008588 L9.99965558,-9.06440721e-14 C11.5346171,0.00336441888 11.8792151,0.0169453326 12.6868631,0.055284141 Z M8.98154512,4.36751004 C11.5289684,4.36751004 13.5955802,6.4341219 13.5955802,8.98154512 C13.5955802,11.5289684 11.5289684,13.5955802 8.98154512,13.5955802 C6.43425891,13.5955802 4.36751004,11.5289684 4.36751004,8.98154512 C4.36751004,6.4341219 6.43425891,4.36751004 8.98154512,4.36751004 Z M8.98154512,5.98853526 C7.32899576,5.98853526 5.98853526,7.32885874 5.98853526,8.98154512 C5.98853526,10.6342315 7.32899576,11.974555 8.98154512,11.974555 C10.6342315,11.974555 11.974555,10.6342315 11.974555,8.98154512 C11.974555,7.32885874 10.6342315,5.98853526 8.98154512,5.98853526 Z M13.7780089,3.10791572 C14.3729925,3.10791572 14.8553115,3.59009776 14.8553115,4.1850813 C14.8553115,4.77992779 14.3729925,5.26224688 13.7780089,5.26224688 C13.1831624,5.26224688 12.7008434,4.77992779 12.7008434,4.1850813 C12.7008434,3.59009776 13.1831624,3.10791572 13.7780089,3.10791572 Z" id="Combined-Shape" fill="url(#linearGradient-1)"></path>
                <g id="check" transform="translate(13.983327, 10.999089)" fill="url(#linearGradient-2)">
                    <path d="M3.44626963,6.86993104 C3.36035901,6.95649023 3.24314698,7.00478469 3.12139117,7.00478469 C2.99963537,7.00478469 2.88242334,6.95649023 2.79651272,6.86993104 L0.201944652,4.27062698 C-0.0673148841,4.00091968 -0.0673148841,3.56357245 0.201944652,3.29437087 L0.526823106,2.96886787 C0.796166802,2.69916057 1.23228309,2.69916057 1.50154263,2.96886787 L3.12139117,4.59149438 L7.49845737,0.207065161 C7.76780105,-0.0626421349 8.20433807,-0.0626421349 8.47317689,0.207065161 L8.79805535,0.532568164 C9.06731488,0.802275459 9.06731488,1.23953839 8.79805535,1.50882427 L3.44626963,6.86993104 Z" id="Path"></path>
                </g>
            </g>
        </g>
    </g>
</svg>