<svg xmlns="http://www.w3.org/2000/svg" width="20" height="20" viewBox="0 0 20 20">
    <path fill="#B28F4B" stroke="#FFF" stroke-width=".4" d="M16.235 11.234l-.231-.23c-.023-.023-.029-.06-.015-.092l.006-.015c.013-.031.048-.038.076-.038h.327c1.146 0 2.079-.94 2.079-2.097v-.649c0-.557-.219-1.078-.616-1.466-.39-.382-.91-.592-1.463-.592h-.327c-.013 0-.056-.027-.078-.08l-.003-.009c-.015-.034-.01-.072.014-.094l.23-.231c.393-.393.61-.915.61-1.47 0-.556-.217-1.078-.61-1.47l-.458-.459c-.393-.393-.915-.609-1.47-.609-.556 0-1.078.216-1.47.609l-.231.231c-.023.023-.06.028-.093.014l-.014-.005c-.03-.013-.037-.049-.037-.076v-.327C12.46.933 11.52 0 10.363 0h-.648C8.558 0 7.617.933 7.617 2.079v.327c0 .027-.006.063-.037.075l-.012.006c-.035.014-.072.009-.095-.014l-.23-.231c-.393-.393-.915-.609-1.47-.609-.556 0-1.078.216-1.47.609l-.46.459c-.392.392-.608.914-.608 1.47 0 .555.216 1.077.608 1.47l.232.23c.022.023.028.06.014.094l-.006.013c-.013.031-.048.038-.076.038H3.68c-1.146 0-2.078.94-2.078 2.097v.649c0 .557.218 1.078.615 1.466.39.382.91.592 1.463.592h.327c.013 0 .056.027.078.08l.003.009c.015.034.01.072-.013.094l-.232.231c-.81.81-.81 2.13 0 2.94l.46.46c.81.81 2.129.81 2.94 0l.23-.232c.023-.023.06-.028.093-.014l.014.005c.03.013.037.049.037.076v.327c0 1.146.941 2.079 2.098 2.079h.648c1.157 0 2.098-.933 2.098-2.079v-.327c0-.027.006-.063.037-.076l.013-.005c.034-.014.071-.009.094.014l.23.231c.811.81 2.13.81 2.94 0l.46-.459c.81-.81.81-2.13 0-2.94h0zm-1.336.874l.23.231c.202.201.202.53 0 .73l-.458.46c-.201.2-.529.2-.73 0l-.231-.232c-.472-.471-1.178-.61-1.8-.351l-.008.003c-.61.252-1.004.848-1.004 1.52v.327c0 .28-.244.517-.535.517h-.648c-.29 0-.535-.237-.535-.517v-.327c0-.672-.394-1.268-1.004-1.52l-.01-.004c-.207-.086-.424-.128-.639-.128-.427 0-.845.166-1.159.48l-.23.231c-.202.202-.53.202-.73 0l-.46-.459c-.201-.2-.201-.529 0-.73l.231-.23c.472-.472.61-1.179.351-1.802l-.002-.007c-.258-.623-.869-1.042-1.52-1.042H3.68c-.289 0-.516-.218-.516-.496v-.649c0-.29.237-.535.516-.535h.327c.672 0 1.269-.394 1.522-1.006l.002-.007c.258-.62.12-1.327-.352-1.798l-.23-.231c-.098-.098-.152-.227-.152-.365 0-.138.054-.268.151-.365l.46-.46c.097-.097.226-.15.364-.15.138 0 .268.053.365.15l.232.232c.471.471 1.177.61 1.799.351l.008-.003c.61-.252 1.004-.849 1.004-1.52v-.327c0-.28.245-.517.535-.517h.648c.29 0 .535.237.535.517v.327c0 .671.394 1.268 1.005 1.52l.008.004c.621.258 1.327.12 1.799-.352l.23-.231c.098-.098.228-.152.366-.152.138 0 .268.054.365.152l.459.459c.097.097.151.227.151.365 0 .138-.054.267-.151.365l-.231.23c-.472.472-.61 1.179-.352 1.8l.003.009c.258.623.869 1.042 1.52 1.042h.328c.29 0 .516.218.516.496v.649c0 .29-.236.535-.516.535h-.327c-.672 0-1.269.394-1.52 1.003l-.004.01c-.258.62-.12 1.327.352 1.798h0zM20 15.43v1.445C20 18.598 18.598 20 16.875 20c-.432 0-.781-.35-.781-.781 0-.432.35-.782.781-.782.862 0 1.563-.7 1.563-1.562V15.43c0-.432.35-.782.78-.782.432 0 .782.35.782.782zm-6.29 3.789c0 .431-.349.781-.78.781H3.125C1.402 20 0 18.598 0 16.875V15.43c0-.432.35-.782.781-.782.432 0 .781.35.781.782v1.445c0 .862.701 1.563 1.563 1.563h9.805c.431 0 .78.35.78.78zm-.848-10.921c.305.305.305.8 0 1.105l-1.2 1.2c-.443.442-1.031.686-1.657.686-.626 0-1.215-.244-1.658-.686l-1.2-1.2c-.305-.305-.305-.8 0-1.105.306-.305.8-.305 1.105 0l1.01 1.009-.004-3.564c0-.431.349-.782.78-.782h.001c.431 0 .78.35.781.78l.004 3.49.933-.933c.305-.305.8-.305 1.105 0h0z"/>
</svg>
