<svg xmlns="http://www.w3.org/2000/svg" width="18" height="17" viewBox="0 0 18 17">
    <path fill="#35414D" stroke="#35414D" stroke-width=".4" d="M18 8.051c0-.863-.702-1.565-1.565-1.565h-2.921c.452-1.159.635-2.522.6-3.736-.007-.231-.016-.365-.028-.45-.02-.845-.715-1.527-1.564-1.527-.863 0-1.565.702-1.565 1.565v.391c0 2.475-3.178 3.866-5.577 4.462-.181-.415-.595-.705-1.076-.705H.391c-.216 0-.391.175-.391.391v9.391c0 .217.175.392.391.392h3.913c.478 0 .89-.287 1.073-.697.198.05.382.099.553.143 1.366.357 2.119.554 3.949.554h4.208c.863 0 1.565-.702 1.565-1.565 0-.322-.098-.622-.265-.87.605-.212 1.048-.79 1.048-1.478 0-.32-.096-.621-.262-.871.602-.212 1.044-.788 1.044-1.477 0-.322-.097-.621-.265-.87C17.557 9.317 18 8.739 18 8.05zM4.696 15.486c0 .216-.176.391-.392.391H.783V7.268h3.521c.216 0 .392.176.392.392v7.826zm11.739-6.652h-1.957c-.216 0-.391.175-.391.391 0 .216.175.391.391.391h1.174c.432 0 .783.351.783.783 0 .432-.35.783-.783.783h-1.956c-.216 0-.392.175-.392.39 0 .217.176.392.392.392h1.174c.426 0 .782.34.782.783 0 .432-.35.782-.782.782h-1.957c-.216 0-.391.176-.391.392 0 .216.175.391.391.391h1.174c.431 0 .783.351.783.783 0 .431-.352.782-.783.782H9.879c-1.73 0-2.406-.176-3.752-.528-.197-.051-.413-.108-.649-.168V7.974c2.832-.675 6.261-2.321 6.261-5.245v-.391c0-.431.351-.783.783-.783.43 0 .782.351.782.782v.001c0 .17.213 2.257-.638 4.148h-1.318c-.216 0-.391.175-.391.391 0 .216.175.391.39.391h5.088c.431 0 .782.352.782.783 0 .432-.35.783-.782.783z"/>
</svg>
