<svg width="18" height="18" viewBox="0 0 18 18" fill="none" xmlns="http://www.w3.org/2000/svg">
<path fill-rule="evenodd" clip-rule="evenodd" d="M4.71931 16.1113C4.71085 16.3106 4.7013 16.4921 4.69074 16.6558C4.68012 16.8194 4.66587 16.9669 4.64799 17.0979C4.62999 17.229 4.6062 17.345 4.57662 17.4456C4.54703 17.5464 4.50899 17.6334 4.46249 17.7068C4.43291 17.7551 4.39957 17.795 4.36261 17.8264C4.32565 17.8578 4.28703 17.883 4.24696 17.902C4.20675 17.9209 4.16712 17.9339 4.12806 17.9413C4.08893 17.9486 4.05248 17.9523 4.0187 17.9523C3.9701 17.9523 3.92938 17.9486 3.89662 17.9413C3.86386 17.9339 3.83173 17.9229 3.79999 17.9082L3.84751 17.5369C3.86017 17.5412 3.87283 17.5443 3.88555 17.5464C3.89821 17.5484 3.91093 17.5495 3.92359 17.5495C3.95737 17.5495 3.99071 17.5412 4.02341 17.5243C4.05617 17.5076 4.08416 17.4792 4.10751 17.4393C4.13913 17.3933 4.16661 17.3256 4.18989 17.2364C4.21311 17.1472 4.23372 17.0334 4.25166 16.8949C4.2696 16.7564 4.28392 16.5913 4.29448 16.3993C4.30497 16.2073 4.31235 15.9834 4.31668 15.7274H5.6259V17.9303H5.19159V16.1113H4.71931Z" fill="black"/>
<path fill-rule="evenodd" clip-rule="evenodd" d="M6.9273 16.9894H6.91782L6.78149 17.2191L6.21721 17.9303H5.95728V16.3568H6.36938V17.1058L6.35036 17.3198H6.36302L6.49305 17.0963L7.06363 16.3568H7.32356V17.9303H6.91152V17.2127L6.9273 16.9894Z" fill="black"/>
<path fill-rule="evenodd" clip-rule="evenodd" d="M8.44233 16.7187V17.9302H8.01757V16.7187H7.5643V16.3568H8.883V16.7187H8.44233Z" fill="black"/>
<path fill-rule="evenodd" clip-rule="evenodd" d="M9.80013 16.0672C9.75789 16.0672 9.71768 16.0688 9.67971 16.072C9.64166 16.0751 9.611 16.0788 9.58778 16.083V16.7974C9.59618 16.7994 9.60884 16.8016 9.62582 16.8036C9.64268 16.8058 9.66075 16.8073 9.67971 16.8084C9.69866 16.8094 9.71718 16.8099 9.73518 16.8099H9.77475C9.83188 16.8099 9.88843 16.8048 9.94435 16.7942C10.0004 16.7838 10.0506 16.7643 10.095 16.736C10.1394 16.7077 10.1747 16.6683 10.2012 16.6179C10.2275 16.5676 10.2408 16.5016 10.2408 16.4198C10.2408 16.3505 10.2281 16.2933 10.2028 16.2482C10.1774 16.2031 10.144 16.1669 10.1029 16.1397C10.0617 16.1124 10.0146 16.0934 9.96184 16.083C9.90904 16.0725 9.85503 16.0672 9.80013 16.0672ZM9.44674 15.7101C9.55336 15.7006 9.6596 15.6959 9.76527 15.6959C9.87513 15.6959 9.98564 15.7049 10.0965 15.7227C10.2075 15.7405 10.3074 15.7762 10.3961 15.8297C10.4849 15.8831 10.5572 15.9576 10.6132 16.053C10.6691 16.1486 10.6972 16.2729 10.6972 16.426C10.6972 16.5645 10.673 16.6815 10.6243 16.7769C10.5757 16.8724 10.5113 16.9505 10.4309 17.0113C10.3506 17.0722 10.2592 17.1163 10.1568 17.1435C10.0543 17.1709 9.94804 17.1844 9.8383 17.1844H9.78741C9.76412 17.1844 9.73995 17.1839 9.7145 17.1829C9.68918 17.1818 9.66431 17.1803 9.64001 17.1782C9.61571 17.1761 9.59821 17.174 9.58772 17.1719V17.9303H9.15347V15.7494C9.24215 15.7326 9.34 15.7195 9.44674 15.7101Z" fill="#FF4C00"/>
<path fill-rule="evenodd" clip-rule="evenodd" d="M11.5239 16.6335C11.3951 16.6373 11.3349 16.6695 11.2811 16.7322C11.2276 16.7947 11.1968 16.88 11.1864 16.9869L11.7783 16.9924C11.7867 16.8792 11.7765 16.7917 11.7335 16.7309C11.6904 16.67 11.6164 16.6308 11.5239 16.6335ZM11.8527 17.9224C11.744 17.9571 11.6282 17.9744 11.5056 17.9744C11.2499 17.9744 11.0629 17.9004 10.9445 17.7524C10.8262 17.6045 10.7671 17.4016 10.7671 17.1435C10.7671 16.8666 10.8337 16.6589 10.9667 16.5204C11.0999 16.3819 11.2869 16.3127 11.5278 16.3127C11.6081 16.3127 11.6864 16.3232 11.7625 16.3442C11.8386 16.3651 11.9061 16.3998 11.9653 16.448C12.0246 16.4963 12.0721 16.5614 12.108 16.6431C12.1439 16.7249 12.1619 16.8268 12.1619 16.9485C12.1619 16.9924 12.1592 17.0397 12.154 17.09C12.1487 17.1403 12.1408 17.1928 12.1302 17.2474H11.1748C11.1811 17.3796 11.2229 17.4792 11.285 17.5463C11.3471 17.6135 11.4478 17.647 11.5867 17.647C11.673 17.647 11.7492 17.6303 11.8189 17.6077C11.9058 17.5795 11.9876 17.5411 11.9876 17.5411L12.1111 17.7949C12.0477 17.8453 11.9616 17.8878 11.8527 17.9224Z" fill="#FF4C00"/>
<path fill-rule="evenodd" clip-rule="evenodd" d="M13.5015 16.6608C13.5015 16.6608 13.3754 16.6354 13.276 16.6354C12.9931 16.6354 12.8094 16.7962 12.8094 17.151C12.8094 17.4839 12.9495 17.6484 13.245 17.6484C13.3413 17.6484 13.5269 17.6228 13.5269 17.6228L13.5837 17.9072C13.5061 17.9317 13.3537 17.9689 13.1703 17.9689C12.5952 17.9689 12.3837 17.5522 12.3837 17.1294C12.3837 16.7036 12.6324 16.3209 13.2045 16.3209C13.3102 16.3209 13.4406 16.3332 13.562 16.3641L13.5015 16.6608Z" fill="#FF4C00"/>
<path fill-rule="evenodd" clip-rule="evenodd" d="M14.1526 16.8054C14.0233 16.8054 13.9186 16.7015 13.9186 16.5732C13.9186 16.445 14.0233 16.341 14.1526 16.341C14.2816 16.341 14.3864 16.445 14.3864 16.5732C14.3864 16.7015 14.2816 16.8054 14.1526 16.8054Z" fill="#FF4C00"/>
<path fill-rule="evenodd" clip-rule="evenodd" d="M14.3864 17.7214C14.3864 17.8497 14.2816 17.9536 14.1526 17.9536C14.0233 17.9536 13.9186 17.8497 13.9186 17.7214C13.9186 17.5931 14.0233 17.4892 14.1526 17.4892C14.2816 17.4892 14.3864 17.5932 14.3864 17.7214Z" fill="#FF4C00"/>
<mask id="mask0" mask-type="alpha" maskUnits="userSpaceOnUse" x="2" y="0" width="5" height="6">
<path d="M6.13151 0.323853V5.64706H2.59021V0.323853C2.98187 0.599092 3.62893 0.778912 4.36086 0.778912C5.09279 0.778912 5.73986 0.599092 6.13151 0.323853Z" fill="white"/>
</mask>
<g mask="url(#mask0)">
<path d="M6.13151 0.323853V5.64706H2.59021V0.323853C2.98187 0.599092 3.62893 0.778912 4.36086 0.778912C5.09279 0.778912 5.73986 0.599092 6.13151 0.323853Z" fill="#EFE9DA"/>
<path d="M3.18043 0.194733H2.59021V5.16025H3.18043V0.194733Z" fill="#D5CBB4"/>
</g>
<mask id="mask1" mask-type="alpha" maskUnits="userSpaceOnUse" x="2" y="0" width="5" height="15">
<path d="M6.72174 4.28397V13.0466C6.72174 13.5844 5.66474 14.0203 4.36087 14.0203C3.057 14.0203 2 13.5844 2 13.0466V4.28397V0.157253C2 0.0704047 2.07002 0 2.15507 0H2.43514C2.52079 0 2.59022 0.0690446 2.59022 0.157253V4.89502C3.02281 5.11737 3.65574 5.2576 4.36087 5.2576C5.066 5.2576 5.69893 5.11737 6.13152 4.89502V0.157253C6.13152 0.0704047 6.20155 0 6.2866 0H6.56667C6.65231 0 6.72174 0.0690446 6.72174 0.157253V4.28397Z" fill="white"/>
</mask>
<g mask="url(#mask1)">
<path d="M6.72174 4.28397V13.0466C6.72174 13.5844 5.66474 14.0203 4.36087 14.0203C3.057 14.0203 2 13.5844 2 13.0466V4.28397V0.157253C2 0.0704047 2.07002 0 2.15507 0H2.43514C2.52079 0 2.59022 0.0690446 2.59022 0.157253V4.89502C3.02281 5.11737 3.65574 5.2576 4.36087 5.2576C5.066 5.2576 5.69893 5.11737 6.13152 4.89502V0.157253C6.13152 0.0704047 6.20155 0 6.2866 0H6.56667C6.65231 0 6.72174 0.0690446 6.72174 0.157253V4.28397Z" fill="#CDCDCD"/>
<path d="M4.36089 -0.0973511H1.80328V14.1176H4.36089V-0.0973511Z" fill="white" fill-opacity="0.2"/>
</g>
<path fill-rule="evenodd" clip-rule="evenodd" d="M3.18045 4.57605H5.54132V9.15211L4.36089 8.56793L3.18045 9.15211V4.57605Z" fill="#FF4C00"/>
<mask id="mask2" mask-type="alpha" maskUnits="userSpaceOnUse" x="7" y="0" width="4" height="6">
<path d="M10.8533 0.323853V5.64706H7.31195V0.323853C7.70361 0.599092 8.35067 0.778912 9.0826 0.778912C9.81453 0.778912 10.4616 0.599092 10.8533 0.323853Z" fill="white"/>
</mask>
<g mask="url(#mask2)">
<path d="M10.8533 0.323853V5.64706H7.31195V0.323853C7.70361 0.599092 8.35067 0.778912 9.0826 0.778912C9.81453 0.778912 10.4616 0.599092 10.8533 0.323853Z" fill="#EFE9DA"/>
<path d="M7.90217 0.194733H7.31195V5.16025H7.90217V0.194733Z" fill="#D5CBB4"/>
</g>
<mask id="mask3" mask-type="alpha" maskUnits="userSpaceOnUse" x="6" y="0" width="6" height="15">
<path d="M11.4435 4.28397V13.0466C11.4435 13.5844 10.3865 14.0203 9.08261 14.0203C7.77874 14.0203 6.72174 13.5844 6.72174 13.0466V4.28397V0.157253C6.72174 0.0704047 6.79176 0 6.87681 0H7.15689C7.24253 0 7.31196 0.0690446 7.31196 0.157253V4.89502C7.74455 5.11737 8.37748 5.2576 9.08261 5.2576C9.78774 5.2576 10.4207 5.11737 10.8533 4.89502V0.157253C10.8533 0.0704047 10.9233 0 11.0083 0H11.2884C11.374 0 11.4435 0.0690446 11.4435 0.157253V4.28397Z" fill="white"/>
</mask>
<g mask="url(#mask3)">
<path d="M11.4435 4.28397V13.0466C11.4435 13.5844 10.3865 14.0203 9.08261 14.0203C7.77874 14.0203 6.72174 13.5844 6.72174 13.0466V4.28397V0.157253C6.72174 0.0704047 6.79176 0 6.87681 0H7.15689C7.24253 0 7.31196 0.0690446 7.31196 0.157253V4.89502C7.74455 5.11737 8.37748 5.2576 9.08261 5.2576C9.78774 5.2576 10.4207 5.11737 10.8533 4.89502V0.157253C10.8533 0.0704047 10.9233 0 11.0083 0H11.2884C11.374 0 11.4435 0.0690446 11.4435 0.157253V4.28397Z" fill="#3B393F"/>
<path d="M9.08263 -0.0973511H6.52502V14.1176H9.08263V-0.0973511Z" fill="white" fill-opacity="0.05"/>
</g>
<mask id="mask4" mask-type="alpha" maskUnits="userSpaceOnUse" x="12" y="0" width="4" height="6">
<path d="M15.575 0.323853V5.64706H12.0337V0.323853C12.4253 0.599092 13.0724 0.778912 13.8043 0.778912C14.5363 0.778912 15.1833 0.599092 15.575 0.323853Z" fill="white"/>
</mask>
<g mask="url(#mask4)">
<path d="M15.575 0.323853V5.64706H12.0337V0.323853C12.4253 0.599092 13.0724 0.778912 13.8043 0.778912C14.5363 0.778912 15.1833 0.599092 15.575 0.323853Z" fill="#EFE9DA"/>
<path d="M12.6239 0.194733H12.0337V5.16025H12.6239V0.194733Z" fill="#D5CBB4"/>
</g>
<mask id="mask5" mask-type="alpha" maskUnits="userSpaceOnUse" x="11" y="0" width="6" height="15">
<path d="M16.1652 4.28397V13.0466C16.1652 13.5844 15.1082 14.0203 13.8043 14.0203C12.5004 14.0203 11.4435 13.5844 11.4435 13.0466V4.28397V0.157253C11.4435 0.0704047 11.5135 0 11.5985 0H11.8786C11.9642 0 12.0337 0.0690446 12.0337 0.157253V4.89502C12.4663 5.11737 13.0992 5.2576 13.8043 5.2576C14.5095 5.2576 15.1424 5.11737 15.575 4.89502V0.157253C15.575 0.0704047 15.645 0 15.7301 0H16.0101C16.0958 0 16.1652 0.0690446 16.1652 0.157253V4.28397Z" fill="white"/>
</mask>
<g mask="url(#mask5)">
<path d="M16.1652 4.28397V13.0466C16.1652 13.5844 15.1082 14.0203 13.8043 14.0203C12.5004 14.0203 11.4435 13.5844 11.4435 13.0466V4.28397V0.157253C11.4435 0.0704047 11.5135 0 11.5985 0H11.8786C11.9642 0 12.0337 0.0690446 12.0337 0.157253V4.89502C12.4663 5.11737 13.0992 5.2576 13.8043 5.2576C14.5095 5.2576 15.1424 5.11737 15.575 4.89502V0.157253C15.575 0.0704047 15.645 0 15.7301 0H16.0101C16.0958 0 16.1652 0.0690446 16.1652 0.157253V4.28397Z" fill="#FF4C00"/>
<path d="M13.8043 -0.0973511H11.2467V14.1176H13.8043V-0.0973511Z" fill="white" fill-opacity="0.1"/>
</g>
</svg>
