<?xml version="1.0" encoding="UTF-8"?>
<svg width="14px" height="18px" viewBox="0 0 14 18" version="1.1" xmlns="http://www.w3.org/2000/svg" xmlns:xlink="http://www.w3.org/1999/xlink">
    <title>logo-cian</title>
    <g id="desktop" stroke="none" stroke-width="1" fill="none" fill-rule="evenodd">
        <g id="Menu" transform="translate(-689.000000, -1149.000000)" fill="#438BCA">
            <g id="logo-cian" transform="translate(689.000000, 1149.000000)">
                <path d="M6.402,9.2352 L8.733,11.523 L8.733,9.4704 L10.9608,9.4704 L10.9608,13.7922 L12.8046,15.6402 L10.5036,17.9496 L6.3954,13.8822 L2.3094,17.9496 L0,15.6396 L6.402,9.2352 Z M9.8244,0 C11.4324,0 12.7362,1.326 12.7362,2.9616 C12.7362,3.5448 12.57,4.0896 12.2838,4.5474 C12.2376,4.6608 12.186,4.7778 12.129,4.8984 C11.817,5.5524 11.0934,6.7884 9.957,8.6064 L9.8244,8.8182 C8.6226,6.8838 7.86,5.577 7.5366,4.8984 C7.491,4.8024 7.4484,4.7082 7.4088,4.6164 C7.0956,4.1442 6.91259979,3.5748 6.91259979,2.9616 C6.912,1.326 8.2158,0 9.8238,0 L9.8244,0 Z M9.8184,1.668 C9.102,1.668 8.5212,2.247 8.5212,2.9616 C8.5212,3.6762 9.102,4.2558 9.8184,4.2558 C10.5348,4.2558 11.1156,3.6762 11.1156,2.9616 C11.1156,2.2476 10.5348,1.668 9.8184,1.668 Z" id="Shape"></path>
            </g>
        </g>
    </g>
</svg>