<?xml version="1.0" encoding="UTF-8"?>
<svg width="14px" height="18px" viewBox="0 0 14 18" version="1.1" xmlns="http://www.w3.org/2000/svg" xmlns:xlink="http://www.w3.org/1999/xlink">
    <title>logo-yelp</title>
    <g id="desktop" stroke="none" stroke-width="1" fill="none" fill-rule="evenodd">
        <g id="Menu" transform="translate(-679.000000, -1117.000000)" fill="#BF2519" fill-rule="nonzero">
            <g id="logo-yelp" transform="translate(679.000000, 1117.000000)">
                <path d="M0.3492,8.673 C0.0564,9.1422 -0.0666,10.617 0.0354,11.5944 C0.0714,11.9166 0.1302,12.186 0.2142,12.3468 C0.3312,12.5688 0.528,12.702 0.7512,12.7092 C0.8952,12.717 0.9852,12.6912 3.6846,11.8236 C3.6846,11.8236 4.884,11.4402 4.89,11.4372 C5.1882,11.3604 5.391,11.0856 5.4102,10.7352 C5.4294,10.374 5.2446,10.056 4.9368,9.942 L4.0896,9.5976 C1.1874,8.4012 1.0578,8.3538 0.9108,8.352 C0.6864,8.3448 0.4878,8.457 0.3492,8.673 M6.8394,17.5902 C6.8862,17.454 6.8922,17.361 6.8994,14.5242 C6.8994,14.5242 6.9054,13.2714 6.9072,13.2582 C6.9264,12.9504 6.7284,12.6708 6.4032,12.5454 C6.0672,12.4164 5.706,12.4962 5.5032,12.7482 C5.5032,12.7482 4.9122,13.4502 4.9092,13.4502 C2.877,15.8382 2.7912,15.9486 2.742,16.089 C2.7108,16.1718 2.7006,16.2606 2.7096,16.3494 C2.7216,16.4766 2.7792,16.6008 2.874,16.7178 C3.3456,17.2782 5.6058,18.1098 6.3276,17.985 C6.5802,17.9424 6.762,17.802 6.8394,17.5902 M11.4258,16.6038 C12.1074,16.3314 13.5942,14.4414 13.6992,13.7118 C13.7358,13.4598 13.656,13.2402 13.4814,13.1016 C13.3674,13.0158 13.2804,12.9816 10.581,12.0954 C10.581,12.0954 9.3978,11.7054 9.3816,11.6976 C9.0948,11.5866 8.7678,11.6904 8.5488,11.9616 C8.3196,12.2394 8.2854,12.6072 8.469,12.8838 L8.9454,13.659 C10.5474,16.2606 10.6698,16.4442 10.785,16.5342 C10.9626,16.6746 11.1888,16.6986 11.4258,16.6038 M10.0308,9.9066 C13.0968,9.1644 13.2168,9.1242 13.3368,9.0444 C13.5228,8.9184 13.6164,8.7102 13.5996,8.4558 C13.5996,8.4486 13.6014,8.4396 13.5996,8.4306 C13.5216,7.6764 12.2016,5.718 11.5512,5.4 C11.3208,5.289 11.0898,5.2962 10.899,5.4252 C10.7808,5.502 10.6938,5.619 9.0516,7.8654 C9.0516,7.8654 8.3106,8.8758 8.3016,8.886 C8.1066,9.1242 8.1036,9.4644 8.2944,9.7572 C8.4924,10.0602 8.8272,10.2072 9.1332,10.1226 C9.1332,10.1226 9.1212,10.1448 9.1182,10.1478 C9.2694,10.0902 9.5382,10.0236 10.0308,9.9066 M6.9528,7.3746 C6.9,6.159 6.5346,0.747 6.492,0.4968 C6.4302,0.2688 6.252,0.108 5.9982,0.0426 C5.2134,-0.15 2.2218,0.6876 1.6668,1.2588 C1.488,1.4448 1.4226,1.6728 1.476,1.8756 C1.5636,2.0544 5.2716,7.8876 5.2716,7.8876 C5.8188,8.7768 6.267,8.6376 6.4134,8.592 C6.558,8.5488 7.0032,8.4096 6.9534,7.374" id="Shape"></path>
            </g>
        </g>
    </g>
</svg>