<?xml version="1.0" encoding="UTF-8"?>
<svg width="18px" height="12px" viewBox="0 0 18 12" version="1.1" xmlns="http://www.w3.org/2000/svg" xmlns:xlink="http://www.w3.org/1999/xlink">
    <title>logo-tripadvisor</title>
    <g id="desktop" stroke="none" stroke-width="1" fill="none" fill-rule="evenodd">
        <g id="Menu" transform="translate(-707.000000, -1132.000000)" fill="#08808A" fill-rule="nonzero">
            <g id="logo-tripadvisor" transform="translate(707.000000, 1132.000000)">
                <path d="M4.492875,4.482375 C3.249,4.482375 2.242875,5.4885 2.242875,6.728625 C2.242875,7.969875 3.249,8.975625 4.4895,8.975625 C5.73,8.975625 6.73576045,7.9695 6.73576045,6.729 C6.7395,5.4885 5.73375,4.48275 4.49325,4.48275 L4.492875,4.482375 Z M4.492875,8.337375 C3.606375,8.337375 2.884125,7.61925 2.884125,6.728625 C2.884125,5.83875 3.602625,5.12025 4.492875,5.12025 C5.383125,5.12025 6.097875,5.842125 6.097875,6.729 C6.097875,7.6155 5.37975,8.33775 4.492875,8.33775 L4.492875,8.337375 Z" id="Shape"></path>
                <circle id="Oval" cx="4.5" cy="6.725625" r="1.117875"></circle>
                <path d="M13.465125,4.482375 C12.22425,4.482375 11.2185,5.4885 11.2185,6.728625 C11.2185,7.969875 12.22425,8.975625 13.46475,8.975625 C14.705625,8.975625 15.711375,7.9695 15.711375,6.729 C15.711375,5.4885 14.705625,4.48275 13.465125,4.48275 L13.465125,4.482375 Z M13.465125,8.337375 C12.57825,8.337375 11.856375,7.61925 11.856375,6.728625 C11.856375,5.83875 12.574875,5.12025 13.465125,5.12025 C14.355,5.12025 15.070125,5.842125 15.070125,6.729 C15.070125,7.6155 14.351625,8.33775 13.465125,8.33775 L13.465125,8.337375 Z" id="Shape"></path>
                <circle id="Oval" cx="13.471875" cy="6.725625" r="1.117875"></circle>
                <path d="M16.626,3.54675 L17.9475,2.236125 L15.27,2.236125 C13.77,1.01625 11.278125,0 8.9685,0 C6.6555,0 4.184625,1.01625 2.684625,2.236125 L0,2.236125 L1.321125,3.54675 C0.50475,4.35975 0,5.48475 0,6.729 C0,9.210375 2.0115,11.221875 4.492875,11.221875 C5.632125,11.221875 6.67275,10.798125 7.465125,10.096875 L8.986125,11.215125 L10.4895,10.121625 L10.471875,10.079625 C11.267625,10.78725 12.312,11.2185 13.461375,11.2185 C15.94275,11.2185 17.954625,9.206625 17.954625,6.725625 C17.950875,5.48475 17.44275,4.35975 16.626,3.54675 Z M12.897375,2.271 C10.77,2.53725 9.101625,4.289625 8.975625,6.459 C8.845875,4.28625 7.174125,2.5305 5.039625,2.271 C6.1125,1.5 7.479,1.121625 8.9685,1.121625 C10.458,1.121625 11.824875,1.5 12.897375,2.271 Z M4.4925,10.100625 C2.628,10.100625 1.12125,8.590125 1.12125,6.729 C1.12125,4.867875 2.63175,3.35775 4.4925,3.35775 C6.353625,3.35775 7.864125,4.867875 7.864125,6.729 C7.860375,8.590125 6.353625,10.10025 4.492875,10.10025 L4.4925,10.100625 Z M13.46475,10.100625 C11.603625,10.100625 10.093125,8.590125 10.093125,6.729 C10.093125,4.867875 11.603625,3.35775 13.464375,3.35775 C15.3255,3.35775 16.836,4.867875 16.836,6.729 C16.83225,8.590125 15.3255,10.10025 13.46475,10.10025 L13.46475,10.100625 Z" id="Shape"></path>
            </g>
        </g>
    </g>
</svg>