<?xml version="1.0" encoding="UTF-8"?>
<svg width="9px" height="18px" viewBox="0 0 9 18" version="1.1" xmlns="http://www.w3.org/2000/svg" xmlns:xlink="http://www.w3.org/1999/xlink">
    <title>logo-yandex</title>
    <g id="desktop" stroke="none" stroke-width="1" fill="none" fill-rule="evenodd">
        <g id="Menu" transform="translate(-730.000000, -1117.000000)" fill="#FF0000" fill-rule="nonzero">
            <g id="logo-yandex" transform="translate(730.000000, 1117.000000)">
                <path d="M8.31066667,0 L5.624,0 C2.93733333,0 0.624666667,2 0.624666667,5.87333333 C0.624666667,8.186 1.74933333,9.93533333 3.68666667,10.81 L0.0626666667,17.3086667 C-0.0626666667,17.4966667 0.0626666667,17.684 0.25,17.684 L1.93666667,17.684 C2.062,17.684 2.18733333,17.6213333 2.25,17.4966667 L5.56133333,11.1233333 L6.748,11.1233333 L6.748,17.4966667 C6.748,17.5586667 6.81133333,17.6833333 6.936,17.6833333 L8.436,17.6833333 C8.56066667,17.6833333 8.62266667,17.6213333 8.62266667,17.4966667 L8.62266667,0.25 C8.56133333,0.0626666667 8.49866667,0 8.31133333,0 L8.31066667,0 Z M6.74866667,9.62333333 L5.74866667,9.62333333 C1.43733333,9.62333333 1.74933333,1.5 5.562,1.5 L6.81133333,1.5 L6.81133333,9.62333333 L6.74866667,9.62333333 L6.74866667,9.62333333 Z" id="Shape"></path>
            </g>
        </g>
    </g>
</svg>