<?xml version="1.0" encoding="UTF-8"?>
<svg width="26px" height="16px" viewBox="0 0 26 16" version="1.1" xmlns="http://www.w3.org/2000/svg" xmlns:xlink="http://www.w3.org/1999/xlink">
    <!-- Generator: Sketch 63.1 (92452) - https://sketch.com -->
    <title>Mixcloud</title>
    <desc>Created with Sketch.</desc>
    <g id="desktop" stroke="none" stroke-width="1" fill="none" fill-rule="evenodd">
        <g id="Icon" transform="translate(-569.000000, -480.000000)" fill="#25292B" fill-rule="nonzero">
            <g id="Mixcloud" transform="translate(569.000000, 480.000000)">
                <path d="M23.7409836,15.3087432 C23.5775956,15.3087432 23.4071038,15.2590164 23.2650273,15.1595628 C22.8672131,14.8967213 22.7606557,14.3568306 23.0306011,13.9661202 C23.8262295,12.7797814 24.2453552,11.3874317 24.2453552,9.94535519 C24.2453552,8.50327869 23.8262295,7.11092896 23.0306011,5.92459016 C22.7677596,5.52677596 22.8672131,4.99398907 23.2650273,4.73114754 C23.6628415,4.46830601 24.1956284,4.57486339 24.4584699,4.96557377 C25.4459016,6.43606557 25.9644809,8.16229508 25.9644809,9.94535519 C25.9644809,11.7284153 25.4459016,13.4546448 24.4584699,14.9251366 C24.2879781,15.1808743 24.0180328,15.3087432 23.7409836,15.3087432 Z" id="XMLID_11_"></path>
                <path d="M21.2759563,13.9092896 C21.1125683,13.9092896 20.9420765,13.8595628 20.7928962,13.7601093 C20.4021858,13.4901639 20.2956284,12.957377 20.5655738,12.5595628 C21.0912568,11.7852459 21.368306,10.8830601 21.368306,9.93825137 C21.368306,9.00054645 21.0912568,8.09836066 20.5655738,7.31693989 C20.2956284,6.92622951 20.4021858,6.3863388 20.7928962,6.11639344 C21.1907104,5.84644809 21.7234973,5.95300546 21.9863388,6.35081967 C22.7038251,7.41639344 23.0874317,8.65245902 23.0874317,9.93825137 C23.0874317,11.2240437 22.7038251,12.4601093 21.9863388,13.5256831 C21.8229508,13.7814208 21.5530055,13.9092896 21.2759563,13.9092896 Z" id="XMLID_12_"></path>
                <path d="M17.2409836,6.19453552 C16.9,2.7420765 13.9803279,0.0355191257 10.4355191,0.0355191257 C7.50163934,0.0355191257 4.89453552,1.91803279 3.96393443,4.66721311 C1.74754098,4.99398907 0.0426229508,6.90491803 0.0426229508,9.20655738 C0.0426229508,11.7355191 2.10273224,13.7956284 4.64590164,13.7956284 L16.4240437,13.7956284 C18.5480874,13.7956284 20.2743169,12.0693989 20.2743169,9.94535519 C20.2672131,8.11256831 18.9672131,6.57103825 17.2409836,6.19453552 Z M16.4169399,12.0693989 L4.63879781,12.0693989 C3.05464481,12.0693989 1.76174863,10.7836066 1.76174863,9.19945355 C1.76174863,7.61530055 3.05464481,6.3295082 4.63879781,6.3295082 C5.40601093,6.3295082 6.13060109,6.62786885 6.6704918,7.16775956 C7.00437158,7.50163934 7.55136612,7.50163934 7.89234973,7.16775956 C8.22622951,6.83387978 8.22622951,6.28688525 7.89234973,5.94590164 C7.30273224,5.34918033 6.57103825,4.9442623 5.77540984,4.74535519 C6.59234973,2.94808743 8.41092896,1.74754098 10.4355191,1.74754098 C13.2557377,1.74754098 15.557377,4.0420765 15.557377,6.85519126 C15.557377,7.40218579 15.4721311,7.9420765 15.3016393,8.45355191 C15.152459,8.90819672 15.3939891,9.39125683 15.8486339,9.54043716 C15.9409836,9.56885246 16.0333333,9.58306011 16.1185792,9.58306011 C16.4808743,9.58306011 16.8147541,9.3557377 16.9355191,8.99344262 C17.0491803,8.65245902 17.1344262,8.30437158 17.1912568,7.95628415 C17.9868852,8.26174863 18.5480874,9.03606557 18.5480874,9.93114754 C18.5409836,11.1174863 17.589071,12.0693989 16.4169399,12.0693989 Z" id="XMLID_15_"></path>
            </g>
        </g>
    </g>
</svg>