<?xml version="1.0" encoding="UTF-8"?>
<svg width="18px" height="18px" viewBox="0 0 18 18" version="1.1" xmlns="http://www.w3.org/2000/svg" xmlns:xlink="http://www.w3.org/1999/xlink">
    <!-- Generator: Sketch 63.1 (92452) - https://sketch.com -->
    <title>music</title>
    <desc>Created with Sketch.</desc>
    <g id="desktop" stroke="none" stroke-width="1" fill="none" fill-rule="evenodd">
        <g id="Icon" transform="translate(-574.000000, -369.000000)" fill="#B28F4B" fill-rule="nonzero">
            <g id="music" transform="translate(574.000000, 369.000000)">
                <path d="M17.7809874,0.163769874 C17.6444059,0.042665272 17.4631632,-0.0154393305 17.2816192,0.00372803347 L5.71341841,1.28907113 C5.38779916,1.32510879 5.14141004,1.60030544 5.1414477,1.92788285 L5.1414477,13.3804017 C4.55874477,13.0324895 3.89206695,12.8502678 3.21341423,12.8533933 C1.44154393,12.853431 0,14.00641 0,15.4241548 C0,16.8418996 1.44154393,17.9948787 3.21337657,17.9948787 C4.98520921,17.9948787 6.42675314,16.8418996 6.42675314,15.4241548 L6.42675314,5.71970711 L16.7096109,4.57380753 L16.7096109,12.0931381 C16.126682,11.7459038 15.4600795,11.5643598 14.7815774,11.5680879 C13.0097071,11.5680879 11.5682008,12.7210669 11.5682008,14.1388117 C11.5682008,15.5565565 13.0097448,16.7095356 14.7815774,16.7095356 C16.55341,16.7095356 17.994954,15.5565565 17.994954,14.1388117 L17.994954,0.642577406 C17.994954,0.459790795 17.9171548,0.285665272 17.7809874,0.163769874 Z M3.21337657,16.7094979 C2.16839749,16.7094979 1.2853431,16.1208075 1.2853431,15.4241548 C1.2853431,14.7275021 2.16839749,14.1388117 3.21337657,14.1388117 C4.25835565,14.1388117 5.14141004,14.7275021 5.14141004,15.4241548 C5.14141004,16.1208075 4.25839331,16.7094979 3.21337657,16.7094979 Z M14.7815774,15.4241548 C13.7365983,15.4241548 12.8535439,14.8354644 12.8535439,14.1388117 C12.8535439,13.442159 13.7365983,12.8534686 14.7815774,12.8534686 C15.8265565,12.8534686 16.7096109,13.442159 16.7096109,14.1388117 C16.7096109,14.8354644 15.8265941,15.4241548 14.7815774,15.4241548 Z M16.7096109,3.28074477 L6.42675314,4.42344351 L6.42675314,2.50633054 L16.7096109,1.36043096 L16.7096109,3.28074477 Z" id="Shape"></path>
            </g>
        </g>
    </g>
</svg>