<svg width="18" height="18" viewBox="0 0 18 18" fill="none" xmlns="http://www.w3.org/2000/svg">
<path d="M7.12898 10.3445C5.70065 10.3358 4.27233 10.3325 2.844 10.3151C2.60359 10.3151 2.52853 10.4 2.53397 10.6284C2.54376 11.0984 2.55247 11.5705 2.53397 12.0426C2.50134 12.7584 2.20218 13.0162 1.45811 13.0075C0.805406 12.9988 0.518217 12.7301 0.516042 12.0284C0.505163 9.13372 0.481231 6.239 0.52692 3.34536C0.553028 1.72341 1.50597 0.770464 3.1127 0.617079C4.71564 0.460974 6.32995 0.460974 7.93289 0.617079C9.77459 0.79766 10.7188 1.86591 10.7264 3.69456C10.7264 5.01374 10.729 6.33401 10.7341 7.65536C10.5502 8.96076 9.86379 9.81906 8.57036 10.1693C8.09824 10.2966 7.61198 10.2825 7.12898 10.3445ZM5.20243 8.12313C5.97914 8.12313 6.75803 8.14597 7.53365 8.1166C8.40392 8.08397 8.71395 7.75653 8.7183 6.91998C8.7183 5.87131 8.72592 4.82264 8.7183 3.77506C8.7183 3.13106 8.51597 2.87542 7.87958 2.79601C6.49369 2.62739 5.10235 2.66438 3.71427 2.76337C3.4811 2.78572 3.25203 2.83951 3.03329 2.92329C2.88399 2.96465 2.75345 3.05607 2.66353 3.18223C2.57362 3.30838 2.5298 3.46161 2.53941 3.61624C2.54739 5.00866 2.54739 6.40073 2.53941 7.79243C2.53941 8.05133 2.6123 8.13401 2.87338 8.12857C3.64791 8.11334 4.42463 8.12313 5.20243 8.12313Z" fill="#FE0304"/>
<path d="M7.12898 10.3445C7.60763 10.2825 8.09389 10.2966 8.56601 10.1693C9.85945 9.81906 10.5459 8.95532 10.7297 7.65536C12.1243 7.65536 13.5178 7.63905 14.9113 7.66842C15.3378 7.67712 15.4433 7.53679 15.4128 7.14408C15.3861 6.74566 15.3861 6.34589 15.4128 5.94746C15.4455 5.33175 15.7305 5.06632 16.3321 5.05218C17.074 5.03477 17.3579 5.22841 17.4144 5.87893C17.459 6.3826 17.4351 6.89279 17.4362 7.4019C17.4362 9.57757 17.4362 11.7503 17.4362 13.9202C17.4362 15.7575 16.3636 17.0749 14.5469 17.3327C12.9122 17.5579 11.2542 17.5557 9.62012 17.3262C7.89699 17.0901 7.10396 16.1035 7.1094 14.3651C7.11593 13.0238 7.12898 11.6847 7.12898 10.3445ZM12.6541 9.85714C11.8621 9.91262 10.8983 9.74836 9.95082 9.96592C9.3536 10.1019 9.11537 10.3858 9.10993 10.9852C9.10123 12.0339 9.09687 13.0826 9.10993 14.1312C9.12081 14.8427 9.36774 15.1103 10.0661 15.1984C11.291 15.3507 12.5214 15.2887 13.7484 15.2441C14.1289 15.2393 14.505 15.1625 14.8569 15.0178C15.1996 14.8677 15.4096 14.6425 15.4063 14.2346C15.3962 12.8965 15.3962 11.5585 15.4063 10.2205C15.4063 9.93438 15.3182 9.84844 15.0354 9.85496C14.3087 9.86911 13.5624 9.85714 12.6584 9.85714H12.6541Z" fill="#0492FE"/>
<path d="M5.63754 6.61539C4.74661 6.61539 4.08738 6.07147 4.07106 5.30999C4.05474 4.5485 4.74226 3.90777 5.6147 3.8958C6.45995 3.88927 7.2149 4.5485 7.2062 5.28062C7.1975 6.01273 6.5002 6.61104 5.63754 6.61539Z" fill="#FE0304"/>
<path d="M12.2081 14.0301C11.3378 14.0301 10.6851 13.4481 10.6938 12.6703C10.6938 11.9153 11.3291 11.3507 12.1798 11.3377C13.0305 11.3246 13.7387 11.9338 13.7495 12.6703C13.7604 13.4067 13.0522 14.029 12.2081 14.0301Z" fill="#0492FE"/>
</svg>
