<?xml version="1.0" encoding="UTF-8"?>
<svg width="18px" height="18px" viewBox="0 0 18 18" version="1.1" xmlns="http://www.w3.org/2000/svg" xmlns:xlink="http://www.w3.org/1999/xlink">
    <!-- Generator: Sketch 63.1 (92452) - https://sketch.com -->
    <title>quora</title>
    <desc>Created with Sketch.</desc>
    <g id="desktop" stroke="none" stroke-width="1" fill="none" fill-rule="evenodd">
        <g id="Icon" transform="translate(-574.000000, -513.000000)" fill="#B92B27" fill-rule="nonzero">
            <g id="quora" transform="translate(574.000000, 513.000000)">
                <path d="M9.45862185,13.9183866 C8.84057143,12.7013445 8.11361345,11.4679664 6.69781513,11.4679664 C6.41766315,11.4647655 6.13977896,11.5184897 5.8810084,11.6258824 L5.39909244,10.6620504 C5.98447059,10.1583529 6.93196639,9.76356303 8.12178151,9.76356303 C10.0140504,9.76356303 10.9860504,10.6756639 11.7592941,11.8409748 C12.2167059,10.8471933 12.434521,9.50490756 12.434521,7.83862185 C12.434521,3.68379832 11.1357983,1.57643697 8.1,1.57643697 C5.10504202,1.57643697 3.81721008,3.71102521 3.81721008,7.83862185 C3.81721008,11.9662185 5.11048739,14.0817479 8.1,14.0817479 C8.53963079,14.0875769 8.97784959,14.0307368 9.40144538,13.9129412 L9.45862185,13.9183866 Z M10.1991933,15.3695798 C9.53320995,15.548514 8.84677631,15.6400385 8.15717647,15.6418487 C4.17388235,15.6445714 0.272268908,12.4644706 0.272268908,7.84134454 C0.272268908,3.17737815 4.17388235,0 8.15717647,0 C12.2058151,0 16.0638655,3.15831933 16.0638655,7.84134454 C16.084266,10.2299615 14.9799332,12.4890532 13.082521,13.9401681 C13.6270588,14.7950924 14.2423866,15.3641345 15.061916,15.3641345 C15.954958,15.3641345 16.3143529,14.6725714 16.3769748,14.1307563 L17.5422857,14.1307563 C17.6103529,14.8522689 17.2482353,17.8499496 13.9946218,17.8499496 C12.023395,17.8499496 10.980605,16.7064202 10.1991933,15.3668571 L10.1991933,15.3695798 Z" id="Shape"></path>
            </g>
        </g>
    </g>
</svg>