<svg width="18" height="18" viewBox="0 0 18 18" fill="none" xmlns="http://www.w3.org/2000/svg">
<g clip-path="url(#clip0)">
<path d="M9 18C13.9706 18 18 13.9706 18 9C18 4.02944 13.9706 0 9 0C4.02944 0 0 4.02944 0 9C0 13.9706 4.02944 18 9 18Z" fill="#FF4500"/>
<path d="M15.0023 8.99999C14.9754 8.27516 14.3669 7.70916 13.6399 7.73377C13.3177 7.74496 13.0112 7.87695 12.7786 8.09842C11.754 7.40044 10.5504 7.01789 9.31323 6.99104L9.89713 4.18344L11.8233 4.58836C11.877 5.08277 12.32 5.44071 12.8144 5.38702C13.3088 5.33333 13.6667 4.89037 13.613 4.39597C13.5593 3.90156 13.1164 3.54362 12.622 3.59731C12.3379 3.62639 12.0828 3.79194 11.9419 4.03802L9.73605 3.59731C9.58617 3.56375 9.43628 3.65771 9.40272 3.80984C9.40272 3.81207 9.40272 3.81207 9.40272 3.81431L8.73829 6.93735C7.48549 6.95749 6.26624 7.34227 5.22821 8.04473C4.70024 7.54809 3.86802 7.5727 3.37138 8.1029C2.87473 8.63086 2.89934 9.46308 3.42954 9.95972C3.53245 10.0559 3.65102 10.1387 3.78301 10.1969C3.77406 10.3288 3.77406 10.4608 3.78301 10.5928C3.78301 12.6085 6.13201 14.2483 9.02912 14.2483C11.9262 14.2483 14.2752 12.6107 14.2752 10.5928C14.2842 10.4608 14.2842 10.3288 14.2752 10.1969C14.7271 9.97091 15.0112 9.50558 15.0023 8.99999ZM6.00226 9.90156C6.00226 9.40491 6.40718 8.99999 6.90383 8.99999C7.40048 8.99999 7.8054 9.40491 7.8054 9.90156C7.8054 10.3982 7.40048 10.8031 6.90383 10.8031C6.40495 10.7986 6.00226 10.3982 6.00226 9.90156ZM11.2305 12.3758C10.5906 12.8568 9.80764 13.1029 9.00675 13.0693C8.20585 13.1029 7.42285 12.8568 6.78302 12.3758C6.69801 12.2729 6.71367 12.1186 6.81658 12.0335C6.90607 11.9597 7.03358 11.9597 7.12531 12.0335C7.6667 12.4295 8.32665 12.6309 8.9978 12.5995C9.66894 12.6353 10.3311 12.4429 10.8792 12.0514C10.9777 11.9552 11.1387 11.9575 11.2349 12.0559C11.3311 12.1544 11.3289 12.3154 11.2305 12.4116V12.3758ZM11.0694 10.8344C10.5727 10.8344 10.1678 10.4295 10.1678 9.93288C10.1678 9.43623 10.5727 9.03131 11.0694 9.03131C11.566 9.03131 11.971 9.43623 11.971 9.93288C11.9911 10.4295 11.6041 10.8479 11.1074 10.868C11.0918 10.868 11.0783 10.868 11.0627 10.868L11.0694 10.8344Z" fill="white"/>
</g>
<defs>
<clipPath id="clip0">
<rect width="18" height="18" fill="white"/>
</clipPath>
</defs>
</svg>
