<?xml version="1.0" encoding="UTF-8"?>
<svg width="27px" height="20px" viewBox="0 0 27 20" version="1.1" xmlns="http://www.w3.org/2000/svg" xmlns:xlink="http://www.w3.org/1999/xlink">
    <!-- Generator: Sketch 63.1 (92452) - https://sketch.com -->
    <title>speaker</title>
    <desc>Created with Sketch.</desc>
    <g id="desktop" stroke="none" stroke-width="1" fill="none" fill-rule="evenodd">
        <g id="Icon" transform="translate(-571.000000, -444.000000)" fill="#B28F4B" fill-rule="nonzero" stroke="#B28F4B" stroke-width="0.3">
            <g id="speaker" transform="translate(572.000000, 445.000000)">
                <path d="M18.5708571,13.7622857 C18.684,13.8394286 18.8074286,13.8805714 18.936,13.8805714 C19.1314286,13.8805714 19.3268571,13.788 19.4502857,13.6131429 C20.412,12.2605714 20.916,10.6611429 20.916,8.98971429 C20.916,7.31828571 20.4068571,5.71885714 19.4502857,4.36628571 C19.2497143,4.08342857 18.8537143,4.01657143 18.5708571,4.21714286 C18.288,4.41771429 18.2211429,4.81371429 18.4217143,5.09657143 C19.2291429,6.23314286 19.656,7.58057143 19.656,8.99485714 C19.656,10.404 19.2291429,11.7514286 18.4217143,12.8931429 C18.2211429,13.1708571 18.288,13.5617143 18.5708571,13.7622857 Z" id="Path"></path>
                <path d="M21.8777143,16.7811429 C21.9908571,16.8582857 22.1142857,16.8994286 22.2428571,16.8994286 C22.4382857,16.8994286 22.6337143,16.8068571 22.7571429,16.632 C24.3411429,14.4 25.1794286,11.7565714 25.1794286,8.98971429 C25.1794286,6.22285714 24.3411429,3.58457143 22.7571429,1.34742857 C22.5565714,1.06457143 22.1605714,0.997714286 21.8777143,1.19828571 C21.5948571,1.39885714 21.528,1.79485714 21.7285714,2.07771429 C23.1634286,4.09885714 23.9194286,6.48514286 23.9194286,8.98971429 C23.9194286,11.4891429 23.1634286,13.8805714 21.7285714,15.9017143 C21.528,16.1845714 21.5948571,16.5754286 21.8777143,16.7811429 Z" id="Path"></path>
                <path d="M13.0988571,17.7788571 C13.32,17.9074286 13.572,17.9742857 13.8291429,17.9742857 L13.8291429,17.9742857 C14.2097143,17.9742857 14.5697143,17.8302857 14.8422857,17.568 C15.1302857,17.2902857 15.2897143,16.92 15.2897143,16.5188571 L15.2897143,1.46571429 C15.2897143,0.658285714 14.6365714,0.00514285714 13.8291429,0.00514285714 C13.5771429,0.00514285714 13.3251429,0.072 13.0988571,0.200571429 C13.0834286,0.210857143 13.068,0.216 13.0577143,0.226285714 L7.90971429,3.78514286 L3.76971429,3.78514286 C1.692,3.78514286 0,5.47714286 0,7.55485714 L0,10.4142857 C0,12.492 1.692,14.184 3.76971429,14.184 L8.11542857,14.184 L13.0474286,17.7428571 C13.0628571,17.7582857 13.0834286,17.7685714 13.0988571,17.7788571 Z M8.32114286,12.924 L3.76971429,12.924 C2.38628571,12.924 1.26,11.7977143 1.26,10.4142857 L1.26,7.55485714 C1.26,6.17142857 2.38628571,5.04514286 3.76971429,5.04514286 L8.10514286,5.04514286 C8.23371429,5.04514286 8.35714286,5.004 8.46514286,4.932 L13.7468571,1.28057143 C13.7725714,1.26514286 13.8034286,1.26 13.8291429,1.26 C13.9114286,1.26 14.0297143,1.32171429 14.0297143,1.46057143 L14.0297143,16.5137143 C14.0297143,16.5702857 14.0091429,16.6165714 13.9731429,16.6577143 C13.9371429,16.6937143 13.8805714,16.7142857 13.8342857,16.7142857 C13.8085714,16.7142857 13.7828571,16.7091429 13.7571429,16.6988571 L8.69657143,13.0422857 C8.58342857,12.9651429 8.45485714,12.924 8.32114286,12.924 Z" id="Shape"></path>
            </g>
        </g>
    </g>
</svg>