<svg xmlns="http://www.w3.org/2000/svg" width="50" height="40" viewBox="0 0 50 40">
    <path fill="#F67555" d="M25 .049c3.58 0 7.037.741 10.276 2.203.983.444 1.42 1.6.977 2.584-.444.983-1.6 1.42-2.584.976-2.137-.964-4.389-1.557-6.716-1.769v2.94c0 1.078-.874 1.952-1.953 1.952-1.079 0-1.953-.874-1.953-1.953V4.045c-6.787.626-12.653 4.48-16.043 10.01l2.727 1.308c.973.467 1.383 1.633.917 2.606-.336.7-1.035 1.109-1.763 1.109-.283 0-.57-.062-.843-.193L5.28 17.56c-.887 2.328-1.373 4.853-1.373 7.489 0 3.597.926 7.112 2.69 10.26l2.41-1.176c.97-.473 2.14-.07 2.613.9.473.969.07 2.138-.9 2.61l-4.003 1.954c-.275.134-.567.198-.855.198-.635 0-1.252-.31-1.625-.868C1.465 34.783 0 29.983 0 25.05 0 18.37 2.6 12.093 7.322 7.37 12.044 2.649 18.322.049 25 .049zm20.213 13.747c.983-.444 2.14-.007 2.583.977C49.26 18.01 50 21.469 50 25.049c0 4.934-1.465 9.734-4.236 13.878-.372.558-.99.868-1.624.868-.283 0-.57-.061-.84-.19l-4.1-1.953c-.975-.464-1.388-1.63-.924-2.603.463-.974 1.629-1.387 2.603-.924l2.517 1.199c1.77-3.152 2.698-6.672 2.698-10.275 0-3.022-.625-5.939-1.858-8.67-.444-.982-.006-2.14.977-2.583zm-5.2-6.475c.776-.528 1.818-.43 2.481.233.664.664.762 1.706.233 2.482-1.992 2.922-12.008 17.58-13.584 19.156-1.142 1.142-2.643 1.713-4.143 1.713s-3-.57-4.143-1.713c-2.285-2.285-2.285-6.002 0-8.287C22.432 19.33 37.09 9.313 40.013 7.321zm-6.501 9.216l-.318.22c-4.973 3.46-8.976 6.319-9.575 6.911-.762.762-.761 2 0 2.762.761.761 2 .761 2.762 0 .605-.612 3.573-4.774 7.132-9.894h-.001z"/>
</svg>
