<svg xmlns="http://www.w3.org/2000/svg" width="16" height="15" viewBox="0 0 16 15">
    <g fill="#35414D" stroke="#37434F" stroke-width=".2">
        <path d="M5.554.092C5.496.033 5.416 0 5.334 0c-.083 0-.163.033-.221.092-.059.058-.092.138-.092.22 0 .083.033.163.091.221.059.059.139.092.221.092.083 0 .163-.033.221-.092.058-.058.092-.138.092-.22 0-.083-.034-.163-.092-.221z"/>
        <path d="M15.688 0H6.666c-.173 0-.313.14-.313.313 0 .172.14.312.313.312h8.708V10.75H.625V.625h3.344c.172 0 .312-.14.312-.313C4.281.14 4.141 0 3.97 0H.313C.14 0 0 .14 0 .313v10.75c0 .172.14.312.313.312h5.375v1.063H3.875c-.173 0-.313.14-.313.312v.938H1.786c-.173 0-.312.14-.312.312 0 .173.14.313.312.313h11.31c.172 0 .312-.14.312-.313s-.14-.313-.313-.313h-.658v-.937c0-.173-.14-.313-.312-.313h-1.813v-1.062h5.376c.172 0 .312-.14.312-.313V.313C16 .14 15.86 0 15.687 0zM6.312 11.375h3.375v1.063H6.313v-1.063zm5.5 1.688v.624H4.189v-.624h7.625zM14.435 13.78c-.058-.06-.139-.092-.22-.092-.083 0-.164.033-.222.091-.058.058-.091.139-.091.221 0 .082.033.163.091.22.058.06.139.092.221.092.082 0 .163-.033.221-.091.058-.058.092-.139.092-.221 0-.082-.034-.163-.092-.22z"/>
        <path d="M3.429 7.126h.303V4.258h-.303v2.868zm3.258-.467c-.222.16-.476.222-.75.222-.705 0-1.226-.509-1.226-1.189 0-.684.52-1.188 1.23-1.188.336 0 .623.098.864.336l.189-.193c-.254-.275-.631-.414-1.066-.414-.877 0-1.516.619-1.516 1.46 0 .84.64 1.458 1.512 1.458.398 0 .783-.123 1.054-.365V5.692h-.291v.967zm1.704.467h.304V4.52h1.008v-.262h-2.32v.262h1.008v2.606zm3.873-2.868h.307l-1.27 2.868h-.3l-1.27-2.868h.328l1.099 2.491 1.106-2.491z"/>
    </g>
</svg>
