<svg xmlns="http://www.w3.org/2000/svg" width="20" height="13" viewBox="0 0 20 13">
    <path fill="#35414D" stroke="#FFF" stroke-width=".2" d="M10 .032c4.2 0 8.049 3.064 9.867 5.69.178.257.178.628 0 .885-1.74 2.512-5.571 5.69-9.867 5.69-4.148 0-8.006-3-9.866-5.69-.178-.257-.178-.628 0-.885C1.936 3.117 5.784.032 10 .032zm0 1.395c-2.203 0-3.996 2.125-3.996 4.737 0 2.613 1.793 4.738 3.996 4.738 2.203 0 3.996-2.125 3.996-4.738 0-2.612-1.792-4.737-3.996-4.737zm4.119 1.032c1.406 2.192 1.405 5.22-.001 7.412 2.24-1.13 3.837-2.89 4.5-3.707-1.213-1.496-2.796-2.849-4.5-3.705zm-8.237-.001c-2.24 1.13-3.837 2.89-4.499 3.707C2.595 7.66 4.178 9.014 5.882 9.87c-1.406-2.192-1.406-5.221 0-7.412zM10 3.793c1.103 0 2 1.064 2 2.371 0 1.308-.897 2.372-2 2.372S8 7.472 8 6.164c0-1.307.897-2.371 2-2.371zm0 1.395c-.454 0-.823.438-.823.976 0 .539.369.977.823.977.454 0 .824-.438.824-.977 0-.538-.37-.976-.824-.976z"/>
</svg>
