<?xml version="1.0" encoding="UTF-8"?>
<svg width="29px" height="16px" viewBox="0 0 29 16" version="1.1" xmlns="http://www.w3.org/2000/svg" xmlns:xlink="http://www.w3.org/1999/xlink">
    <!-- Generator: Sketch 63.1 (92452) - https://sketch.com -->
    <title>VK</title>
    <desc>Created with Sketch.</desc>
    <g id="desktop" stroke="none" stroke-width="1" fill="none" fill-rule="evenodd">
        <g id="Icon" transform="translate(-853.000000, -199.000000)" fill="#4D76A1">
            <g id="VK" transform="translate(853.000000, 199.000000)">
                <path d="M13.7219742,15.9330126 L15.3984099,15.9330126 C15.3984099,15.9330126 15.9048055,15.8774233 16.1633337,15.5987154 C16.4013015,15.3428524 16.3936866,14.8623477 16.3936866,14.8623477 C16.3936866,14.8623477 16.3609422,12.6128855 17.4049546,12.2816342 C18.4341179,11.9553328 19.755696,14.4557083 21.1564698,15.4170983 C22.2157122,16.1447088 23.0206146,15.9851751 23.0206146,15.9851751 L26.7660378,15.9330126 C26.7660378,15.9330126 28.7253697,15.8123153 27.7963433,14.2718068 C27.7201936,14.145779 27.2552997,13.1322264 25.0115486,11.049532 C22.6630918,8.86974672 22.97759,9.22231986 25.8065516,5.45176723 C27.5294386,3.15547288 28.2182127,1.75355682 28.0030898,1.15311639 C27.7978663,0.581232112 26.5307353,0.732389276 26.5307353,0.732389276 L22.3135646,0.758660924 C22.3135646,0.758660924 22.0009701,0.71601709 21.7690942,0.854609552 C21.5425488,0.990536775 21.3967222,1.30731955 21.3967222,1.30731955 C21.3967222,1.30731955 20.72927,3.08427291 19.83908,4.5954638 C17.9612282,7.78423268 17.2103921,7.95252353 16.9035088,7.7545343 C16.1896054,7.29306709 16.3677957,5.90066974 16.3677957,4.91148507 C16.3677957,1.82133005 16.8364971,0.53287705 15.4551415,0.199341343 C14.9967202,0.0885435229 14.659377,0.0154398064 13.4870523,0.00363660213 C11.9823342,-0.0119740873 10.7087304,0.00820558441 9.98759265,0.361540214 C9.50784951,0.596462053 9.13776195,1.11999127 9.36316507,1.15007041 C9.64187299,1.18738376 10.273154,1.320265 10.607832,1.77602098 C11.0399816,2.3638967 11.0247516,3.68433258 11.0247516,3.68433258 C11.0247516,3.68433258 11.2729997,7.32200397 10.4448716,7.77395247 C9.87641408,8.08388177 9.09664111,7.45107772 7.42248985,4.55815044 C6.56466342,3.07627719 5.91701019,1.43829704 5.91701019,1.43829704 C5.91701019,1.43829704 5.79212467,1.13217523 5.56938678,0.968453361 C5.29905533,0.77008338 4.9213528,0.706879125 4.9213528,0.706879125 L0.913974585,0.733150773 C0.913974585,0.733150773 0.312391918,0.749903708 0.0915577741,1.01147794 C-0.104908464,1.24411529 0.0759470847,1.72538143 0.0759470847,1.72538143 C0.0759470847,1.72538143 3.21331492,9.06545146 6.76569864,12.7644234 C10.0230023,16.1557505 13.7219742,15.9330126 13.7219742,15.9330126 L13.7219742,15.9330126 Z" id="Path"></path>
            </g>
        </g>
    </g>
</svg>