<svg xmlns="http://www.w3.org/2000/svg" width="20" height="16" viewBox="0 0 20 16">
    <g fill="#B28F4B" stroke="#B28F4B">
        <path stroke-width=".3" d="M8.804.064c-.165-.07-.36-.037-.492.085L3.638 4.461H.454c-.251 0-.454.198-.454.443v6.206c0 .245.203.443.454.443h3.184l4.675 4.312c.086.08.198.121.311.121.06 0 .122-.011.18-.036.166-.07.274-.23.274-.407V.47c0-.177-.108-.337-.274-.407zm-.634 14.45l-4.04-3.726c-.084-.078-.196-.121-.312-.121H.908v-5.32h2.91c.116 0 .228-.043.312-.121L8.17 1.5v13.014z"/>
        <path stroke-width=".2" d="M15.832.112c-.204-.144-.488-.099-.633.099-.148.198-.102.475.1.619 2.358 1.667 3.765 4.35 3.765 7.177 0 2.826-1.407 5.51-3.764 7.177-.203.144-.249.42-.101.62.088.119.227.182.368.182.092 0 .185-.027.265-.084 2.592-1.834 4.14-4.785 4.14-7.895 0-3.11-1.548-6.061-4.14-7.895z"/>
        <path stroke-width=".2" d="M13.362 2.755c-.21-.13-.492-.067-.626.14-.133.207-.07.48.143.611 1.599.983 2.554 2.665 2.554 4.501 0 1.835-.955 3.518-2.554 4.5-.212.132-.276.405-.143.612.087.134.234.207.385.207.082 0 .166-.022.241-.067 1.865-1.147 2.978-3.11 2.978-5.252s-1.113-4.105-2.978-5.252z"/>
        <path stroke-width=".2" d="M11.606 5.878c-.2-.146-.485-.105-.635.09-.15.197-.108.475.093.621.469.341.737.858.737 1.418 0 .56-.268 1.077-.737 1.418-.201.146-.243.424-.093.62.09.117.226.179.365.179.094 0 .189-.03.27-.088.701-.51 1.103-1.286 1.103-2.129s-.402-1.619-1.103-2.129z"/>
    </g>
</svg>
